<?xml version="1.0"?>
<svg viewBox="-40 -40 480 480" xmlns="http://www.w3.org/2000/svg" xmlns:svg="http://www.w3.org/2000/svg">
 <!-- Created with SVG-edit - https://github.com/SVG-Edit/svgedit-->

 <g class="layer" display="inline">
  <title>Layer 1</title>
  <path d="m25.53,312.77c0.38,-0.75 0.57,-1.65 1.49,-2.05c0.88,-0.38 1.87,-0.25 2.34,-0.76c0.74,-0.81 0.96,-1.5 1.46,-2.08c0.78,-0.91 1.37,-1.28 1.93,-1.7c1.11,-0.85 1.64,-1.27 2.33,-1.91c0.45,-0.42 1.3,-1.28 1.93,-1.9c0.4,-0.4 1.21,-1.33 1.8,-1.78c0.8,-0.61 1.43,-1.16 2.22,-1.55c0.6,-0.29 1.68,-0.35 2.26,-0.84c0.79,-0.67 1.39,-1.38 1.96,-1.95c0.66,-0.66 1.17,-1.2 1.78,-1.74c0.82,-0.73 1.47,-1.16 2.33,-1.62c0.84,-0.45 1.51,-0.73 2.13,-1.13c0.88,-0.56 1.49,-1.16 2.19,-1.75c0.75,-0.64 1.31,-1.06 2.2,-1.72c0.62,-0.46 1.58,-1.21 2.21,-1.77c0.33,-0.29 0.97,-0.89 1.66,-1.51c1.07,-0.96 1.45,-1.28 2.23,-1.91c0.4,-0.32 1.23,-0.96 1.65,-1.28c1.27,-0.96 1.7,-1.27 2.54,-1.91c0.42,-0.32 1.25,-0.95 2.04,-1.6c0.77,-0.63 1.49,-1.28 1.84,-1.6c0.7,-0.64 1.38,-1.29 2.47,-2.23c0.37,-0.32 1.16,-0.96 1.57,-1.29c0.85,-0.67 1.29,-1.01 1.74,-1.36c1.42,-1.1 1.91,-1.49 2.41,-1.88c1.01,-0.81 1.51,-1.23 2.02,-1.65c0.5,-0.42 1.48,-1.27 2.41,-2.12c0.46,-0.42 0.9,-0.84 1.78,-1.67c0.43,-0.4 0.85,-0.81 2.14,-1.93c0.42,-0.36 1.27,-1.05 1.68,-1.38c0.81,-0.66 1.22,-0.96 2.34,-1.94c0.72,-0.63 1.06,-0.97 1.79,-1.6c0.75,-0.65 1.56,-1.29 2.46,-1.91c0.46,-0.32 0.95,-0.64 1.93,-1.28c0.5,-0.32 1,-0.63 2.44,-1.6c0.47,-0.32 1.38,-0.96 1.83,-1.28c0.91,-0.64 1.36,-0.97 2.3,-1.6c0.97,-0.65 1.48,-0.96 1.99,-1.28c1.03,-0.64 1.56,-0.96 2.09,-1.28c1.59,-0.96 2.13,-1.28 2.66,-1.6c1.06,-0.64 1.6,-0.96 2.13,-1.28c0.53,-0.32 2.13,-1.28 2.66,-1.6c0.54,-0.32 1.62,-0.98 2.16,-1.31c0.55,-0.34 1.12,-0.69 2.27,-1.42c0.59,-0.38 1.8,-1.16 2.43,-1.56c0.63,-0.41 1.28,-0.83 1.93,-1.24c0.66,-0.42 2.03,-1.27 2.72,-1.7c0.7,-0.43 1.41,-0.85 2.12,-1.27c0.71,-0.42 1.41,-0.82 2.1,-1.23c0.68,-0.4 2,-1.16 2.62,-1.53c0.61,-0.36 1.22,-0.72 1.81,-1.07c0.6,-0.36 1.2,-0.72 2.44,-1.47c1.33,-0.81 2.03,-1.25 2.77,-1.7c0.76,-0.47 1.53,-0.95 2.33,-1.44c0.8,-0.49 1.61,-0.99 2.42,-1.49c1.61,-0.98 2.4,-1.45 3.19,-1.91c0.77,-0.45 1.53,-0.9 2.28,-1.32c0.74,-0.42 1.47,-0.83 2.19,-1.23c1.4,-0.77 2.09,-1.13 2.76,-1.49c0.66,-0.35 1.31,-0.68 1.94,-1.01c0.62,-0.31 1.22,-0.62 1.8,-0.91c1.1,-0.55 1.63,-0.81 2.13,-1.07c0.49,-0.25 0.96,-0.48 1.86,-0.97c0.44,-0.24 1.73,-1 2.15,-1.27c0.86,-0.56 1.72,-1.15 2.17,-1.44c0.9,-0.58 1.84,-1.13 2.32,-1.39c0.98,-0.51 1.48,-0.73 2.47,-1.14c0.48,-0.2 1.84,-0.72 2.65,-1.03c0.76,-0.28 1.52,-0.56 2.27,-0.91c1.26,-0.58 1.71,-0.85 2.66,-1.37c0.5,-0.27 1,-0.57 2.05,-1.12c1.06,-0.56 1.59,-0.82 2.65,-1.3c0.52,-0.24 1.56,-0.69 2.07,-0.91c0.5,-0.22 1.95,-0.86 2.88,-1.28c0.45,-0.21 1.36,-0.61 1.81,-0.8c1.39,-0.55 2.37,-0.83 2.87,-0.96c1.01,-0.28 1.52,-0.39 2.51,-0.68c0.98,-0.29 1.92,-0.63 2.82,-1.01c0.44,-0.19 1.31,-0.6 2.59,-1.24c0.43,-0.21 1.27,-0.64 2.13,-1.04c0.42,-0.2 1.27,-0.6 2.55,-1.06c0.84,-0.3 1.28,-0.42 2.13,-0.69c0.85,-0.27 2.13,-0.74 2.98,-1.09c0.43,-0.18 1.3,-0.57 2.21,-0.92c0.93,-0.35 1.91,-0.64 2.42,-0.77c1.02,-0.26 1.55,-0.37 2.6,-0.59c1.06,-0.22 2.12,-0.43 2.65,-0.53c1.05,-0.2 1.56,-0.3 2.57,-0.45c0.98,-0.14 1.91,-0.22 2.81,-0.28c0.85,-0.06 1.67,-0.08 2.79,-0.26c0.72,-0.12 1.41,-0.32 2.45,-0.62c1.1,-0.32 1.88,-0.54 2.68,-0.72c0.79,-0.18 1.95,-0.39 2.68,-0.46c0.69,-0.07 1.69,-0.11 2.64,-0.27c0.97,-0.16 1.64,-0.38 2.36,-0.57c1.19,-0.32 2.08,-0.53 2.55,-0.63c0.97,-0.22 1.46,-0.32 2.45,-0.53c1.45,-0.32 1.91,-0.42 2.83,-0.64c0.91,-0.21 1.36,-0.33 2.76,-0.64c0.97,-0.22 1.47,-0.32 2.46,-0.53c0.49,-0.11 1.44,-0.3 2.74,-0.64c0.78,-0.2 1.48,-0.44 2.49,-0.65c0.95,-0.21 1.91,-0.26 2.52,-0.33c1.14,-0.13 1.89,-0.37 2.62,-0.58c0.99,-0.3 1.85,-0.39 2.79,-0.48c0.68,-0.06 1.78,-0.2 2.56,-0.35c0.8,-0.16 1.59,-0.36 2.75,-0.68c0.73,-0.2 1.42,-0.45 2.47,-0.68c1.07,-0.24 1.84,-0.3 2.63,-0.35c0.8,-0.06 1.59,-0.08 2.72,-0.26c0.71,-0.12 1.72,-0.41 2.36,-0.62c0.96,-0.31 1.91,-0.65 2.55,-0.81c1.27,-0.33 1.91,-0.38 2.85,-0.46c0.6,-0.06 1.71,-0.22 2.43,-0.45c0.89,-0.29 1.96,-0.55 2.63,-0.64c0.99,-0.14 1.83,-0.35 2.43,-0.5c0.93,-0.24 1.89,-0.41 2.85,-0.5c0.64,-0.06 1.92,-0.19 2.55,-0.33c0.98,-0.22 1.65,-0.45 2.73,-0.76c0.76,-0.22 1.54,-0.42 2.31,-0.64c0.74,-0.21 2.01,-0.65 2.81,-0.94c0.74,-0.26 1.81,-0.47 2.39,-0.53c0.87,-0.09 1.98,-0.25 2.71,-0.48c0.72,-0.22 1.75,-0.51 2.61,-0.57c0.87,-0.06 1.97,-0.01 2.7,-0.05c0.89,-0.05 1.74,-0.31 2.59,-0.6c0.85,-0.29 1.7,-0.43 2.55,-0.45c1.06,-0.02 1.7,0.01 2.77,0c0.87,-0.01 1.59,-0.05 2.64,-0.3c0.85,-0.2 1.63,-0.52 2.5,-0.67c0.9,-0.15 1.73,-0.09 2.53,-0.09c1.06,0 1.91,0 2.97,0c0.83,0 1.74,0 2.54,0c0.86,0 1.82,0 2.67,0c0.76,0 1.77,0 2.55,0c0.78,0 1.94,0.01 2.87,0c0.85,-0.01 1.44,-0.78 2.24,-1c0.92,-0.26 1.81,-0.06 2.74,-0.06c0.82,0 1.75,0 2.58,0c0.96,0 2.25,0.18 2.38,-0.61c0.1,-0.6 -1.15,-1.16 -1.66,-1.59c-0.6,-0.52 -1.27,-1.12 -1.65,-1.42c-1.23,-0.98 -1.69,-1.28 -2.65,-1.91c-0.49,-0.32 -0.99,-0.63 -1.97,-1.28c-0.98,-0.63 -1.91,-1.28 -2.37,-1.6c-0.46,-0.32 -1.36,-0.99 -1.81,-1.33c-1.4,-1.07 -1.88,-1.45 -2.38,-1.84c-0.51,-0.4 -1.55,-1.21 -2.09,-1.62c-0.55,-0.42 -1.1,-0.85 -2.26,-1.69c-0.59,-0.43 -1.19,-0.85 -1.8,-1.28c-0.61,-0.43 -1.86,-1.28 -2.5,-1.7c-0.63,-0.43 -1.91,-1.28 -2.55,-1.7c-0.64,-0.42 -1.28,-0.85 -1.91,-1.27c-0.64,-0.42 -1.27,-0.83 -1.91,-1.23c-0.64,-0.4 -1.91,-1.16 -2.55,-1.53c-0.63,-0.36 -1.26,-0.71 -2.51,-1.36c-0.6,-0.32 -1.2,-0.62 -1.78,-0.91c-1.62,-0.82 -2.13,-1.06 -3.1,-1.55c-0.47,-0.24 -1.39,-0.72 -1.86,-0.97c-1.43,-0.77 -1.92,-1.06 -2.41,-1.34c-1.01,-0.57 -1.5,-0.86 -2.51,-1.36c-0.97,-0.48 -1.91,-0.86 -2.38,-1.02c-0.92,-0.32 -1.87,-0.59 -2.36,-0.74c-1.57,-0.46 -2.13,-0.64 -2.71,-0.82c-0.6,-0.19 -1.85,-0.59 -2.5,-0.8c-0.66,-0.21 -2.02,-0.63 -2.72,-0.85c-0.7,-0.21 -1.41,-0.42 -2.11,-0.64c-1.38,-0.42 -2.05,-0.63 -2.7,-0.85c-1.23,-0.41 -2.34,-0.85 -2.84,-1.05c-0.93,-0.39 -1.35,-0.6 -2.13,-0.89c-1.27,-0.47 -2.07,-0.51 -3.16,-0.78c-0.65,-0.16 -1.31,-0.49 -2.3,-0.89c-0.83,-0.33 -1.71,-0.63 -2.29,-0.85c-1.07,-0.41 -1.77,-0.74 -2.86,-1.28c-0.64,-0.32 -1.45,-0.71 -2.25,-1.28c-0.64,-0.45 -1.48,-0.73 -2.32,-0.86c-0.87,-0.13 -1.6,-0.91 -1.2,-1.06c0.76,-0.27 2.05,0.35 2.44,0.47c0.87,0.28 1.83,0.64 2.34,0.83c0.53,0.2 2.23,0.83 2.82,1.04c0.6,0.22 1.22,0.43 2.51,0.87c0.68,0.23 1.38,0.46 2.1,0.71c1.53,0.51 2.35,0.78 3.19,1.06c0.86,0.29 1.73,0.58 2.6,0.87c0.88,0.29 1.75,0.58 2.6,0.87c1.65,0.55 2.43,0.81 3.19,1.06c0.73,0.24 1.43,0.48 2.12,0.71c0.67,0.22 1.33,0.44 1.98,0.66c1.28,0.43 1.92,0.64 2.55,0.85c0.63,0.21 1.25,0.42 2.44,0.81c0.57,0.19 1.12,0.37 2.6,0.87c0.85,0.28 1.62,0.54 2.35,0.82c1.1,0.42 1.85,0.77 2.64,1.15c0.4,0.19 1.2,0.59 2.35,1.24c0.73,0.41 1.41,0.85 2.08,1.24c0.64,0.38 1.61,0.87 2.55,1.29c0.61,0.27 1.76,0.82 2.26,1.18c0.75,0.54 1.19,1 2.24,1.82c0.56,0.43 1.14,0.84 2.02,1.4c0.8,0.51 1.56,0.91 2.27,1.32c1.04,0.59 1.6,0.96 2.18,1.35c0.59,0.4 1.69,1.25 2.17,1.68c0.7,0.63 1.12,1.07 1.98,1.91c0.63,0.62 1.24,1.23 2.13,1.82c0.6,0.4 1.55,0.68 2.33,0.97c0.92,0.35 1.37,0.92 2.02,1.55c0.57,0.55 1.15,1.16 2.04,1.73c0.82,0.53 1.7,0.75 2.53,0.92c0.95,0.19 1.42,0.95 2.06,1.41c0.69,0.5 1.58,0.85 2.43,1.28c0.64,0.32 1.5,0.72 2.3,1.17c0.88,0.5 1.42,1.14 2.26,1.49c0.83,0.35 1.47,0.79 2.14,1.38c0.71,0.62 1.56,0.77 2.5,1.12c0.75,0.28 1.55,0.64 2.5,0.69c0.89,0.04 1.06,0.8 0.34,1.09c-0.87,0.35 -1.71,0.44 -2.31,0.66c-1.4,0.52 -1.77,0.71 -2.56,1.08c-0.83,0.39 -1.7,0.85 -2.15,1.09c-1.43,0.77 -1.91,1.06 -2.41,1.35c-1,0.59 -1.49,0.89 -2.43,1.54c-0.9,0.62 -1.7,1.27 -2.08,1.59c-0.74,0.62 -1.44,1.23 -1.8,1.51c-1.09,0.84 -1.88,1.31 -2.68,1.77c-0.4,0.23 -1.2,0.64 -2.32,1.3c-0.71,0.42 -1.39,0.85 -2.04,1.28c-0.97,0.63 -1.6,1.07 -2.26,1.5c-0.69,0.45 -1.43,0.93 -2.25,1.44c-0.89,0.56 -1.36,0.84 -2.33,1.44c-0.49,0.31 -1,0.61 -2.46,1.57c-0.48,0.31 -1.39,0.95 -1.83,1.28c-0.86,0.63 -1.28,0.94 -2.43,1.91c-0.74,0.63 -1.08,0.96 -1.77,1.6c-0.69,0.64 -1.03,0.97 -2.15,1.91c-0.77,0.65 -1.18,0.96 -1.97,1.6c-0.4,0.32 -1.56,1.27 -1.92,1.6c-0.71,0.63 -1.39,1.29 -2.04,1.98c-0.33,0.35 -1.28,1.45 -1.6,1.84c-0.64,0.78 -1.27,1.56 -1.6,1.92c-0.94,1.06 -1.59,1.65 -2.25,2.18c-0.65,0.52 -1.36,1 -2.08,1.52c-0.76,0.55 -1.54,1.13 -1.93,1.44c-0.76,0.61 -1.8,1.57 -2.1,1.89c-0.58,0.63 -1.08,1.28 -1.59,1.91c-0.76,0.96 -1.31,1.6 -1.9,2.23c-0.6,0.64 -1.24,1.28 -1.88,1.91c-0.64,0.64 -1.27,1.27 -1.88,1.88c-0.59,0.59 -1.39,1.4 -1.89,1.89c-0.68,0.66 -1.55,1.38 -2.18,1.81l-0.57,0.34" fill="none" fill-opacity="null" id="svg_22" stroke="#999999" stroke-dasharray="null" stroke-linecap="round" stroke-linejoin="null" stroke-opacity="null" stroke-width="35" transform="matrix(1, 0, 0, 1, 6.38298, 2.12766)"/>
 </g>
</svg>