<?xml version="1.0"?>
<svg viewBox="90 40 320 360" xmlns="http://www.w3.org/2000/svg" xmlns:svg="http://www.w3.org/2000/svg">
 <!-- Created with SVG-edit - https://github.com/SVG-Edit/svgedit-->

 <g class="layer" display="inline">
  <title>Layer 1</title>
  <path d="m140.59,100.84c0,1.01 0,1.89 0,2.73c0,0.81 0,1.91 0,2.72c0,0.83 0.03,1.67 -0.04,2.47c-0.09,1.11 -0.31,1.79 -0.37,2.8c-0.06,1.07 0,1.86 -0.04,2.49c-0.07,1.14 -0.2,1.86 -0.28,2.61c-0.1,1 -0.12,1.99 -0.12,2.94c0,0.89 0,1.53 0,2.58c0,0.84 0,1.88 0,2.71c0,0.99 0,1.7 0,2.66c0,0.85 0,1.81 0,2.57c0,0.96 0,1.87 0,2.87c0,0.68 0,1.62 0,2.54c0,0.88 0,1.78 0,2.72c0,0.72 0,1.65 0,2.55c0,0.69 0,1.96 0,2.51c0,0.84 0,1.92 0,2.7c0,1.26 -0.01,2.02 0.02,2.77c0.04,1.01 0.14,1.76 0.23,2.53c0.12,1.06 0.16,1.89 0.17,2.75c0.02,1.17 0,1.75 0,2.62c0,0.85 0,1.94 0,2.72c0,0.76 -0.01,1.77 0.02,2.8c0.01,0.54 0.1,1.72 0.2,2.67c0.07,0.66 0.2,1.66 0.32,2.66c0.08,0.67 0.19,1.67 0.24,2.68c0.04,0.67 0.05,1.67 0.09,2.34c0.05,1 0.14,2.01 0.22,2.69c0.08,0.69 0.25,2.11 0.33,2.86c0.09,0.77 0.17,1.59 0.29,2.89c0.04,0.46 0.13,1.42 0.18,1.92c0.11,1.04 0.16,1.59 0.42,3.32c0.09,0.61 0.19,1.23 0.3,1.87c0.22,1.31 0.33,1.97 0.44,2.65c0.22,1.37 0.32,2.06 0.42,2.76c0.19,1.41 0.28,2.11 0.37,2.83c0.09,0.72 0.17,1.44 0.34,2.9c0.08,0.73 0.17,1.47 0.25,2.21c0.08,0.74 0.17,1.49 0.33,2.99c0.08,0.75 0.25,2.26 0.33,3.01c0.08,0.75 0.17,1.51 0.26,2.27c0.09,0.76 0.18,1.53 0.27,2.3c0.09,0.78 0.3,2.35 0.4,3.15c0.11,0.81 0.22,1.62 0.34,2.43c0.11,0.82 0.23,1.63 0.34,2.45c0.11,0.81 0.33,2.41 0.43,3.21c0.1,0.78 0.19,1.56 0.28,2.32c0.09,0.76 0.17,1.51 0.24,2.25c0.07,0.73 0.21,2.17 0.27,2.88c0.11,1.39 0.16,2.07 0.21,2.74c0.05,0.66 0.09,1.31 0.22,3.18c0.04,0.6 0.08,1.19 0.17,2.34c0.04,0.57 0.13,1.69 0.17,2.25c0.08,1.12 0.17,2.26 0.21,2.83c0.09,1.14 0.13,1.71 0.19,2.28c0.16,1.66 0.23,2.2 0.37,3.26c0.07,0.52 0.22,1.56 0.33,2.59c0.11,1.04 0.17,2.09 0.19,2.62c0.04,1.06 0.04,1.59 0.05,2.63c0,1.02 0,2.01 0.01,2.97c0,0.47 0,1.39 0.07,2.73c0.04,0.87 0.11,1.71 0.14,2.13c0.09,1.18 0.16,2.27 0.19,2.93c0.03,0.94 0.03,1.53 0.02,2.71c0,0.88 -0.02,1.76 -0.09,2.64c-0.07,0.88 -0.2,1.73 -0.28,2.84c-0.06,0.81 -0.06,1.65 -0.12,2.59c-0.04,0.7 -0.11,1.45 -0.17,2.25c-0.06,0.82 -0.13,2.07 -0.16,2.91c-0.03,0.82 -0.03,1.63 -0.09,2.79c-0.04,0.74 -0.14,1.77 -0.23,2.41c-0.15,1.14 -0.29,1.87 -0.46,2.75c-0.2,1.05 -0.38,1.88 -0.45,2.72c-0.07,0.83 -0.09,1.82 -0.27,2.71c-0.17,0.85 -0.44,1.67 -0.57,2.59c-0.11,0.82 -0.15,1.72 -0.47,2.71c-0.23,0.73 -0.42,1.61 -0.42,2.57c0,0.91 -0.35,1.48 -0.51,2.35c-0.15,0.81 -0.32,1.66 -0.33,2.55c0,0.29 0.11,-0.54 0.42,-1.47c0.25,-0.76 0.73,-1.61 1.05,-2.3c0.42,-0.88 0.57,-1.61 1.05,-2.54c0.33,-0.64 0.9,-1.51 1.35,-2.22c0.48,-0.75 0.82,-1.26 1.48,-2.35c0.34,-0.56 0.83,-1.41 1.34,-2.24c0.49,-0.8 0.82,-1.31 1.34,-2.01c0.64,-0.86 1.18,-1.38 1.94,-2.25c0.57,-0.66 0.95,-1.17 1.58,-2.01c0.52,-0.68 1.08,-1.41 1.69,-2.19c0.49,-0.63 0.99,-1.3 1.49,-2.01c0.52,-0.73 0.86,-1.24 1.62,-2.24c0.39,-0.51 1,-1.25 1.57,-2.01c0.56,-0.75 1.08,-1.52 1.41,-2.04c0.68,-1.08 1.01,-1.66 1.35,-2.24c0.72,-1.22 1.11,-1.86 1.5,-2.5c0.4,-0.64 0.79,-1.26 1.54,-2.44c0.36,-0.56 0.74,-1.12 1.51,-2.36c0.44,-0.7 0.66,-1.07 1.13,-1.85c0.49,-0.81 0.74,-1.22 1.49,-2.48c0.5,-0.84 0.75,-1.26 1.27,-2.09c0.52,-0.84 1.06,-1.68 1.61,-2.51c0.28,-0.42 0.85,-1.27 1.14,-1.7c0.58,-0.88 1.17,-1.78 1.75,-2.72c0.29,-0.47 0.86,-1.43 1.14,-1.92c0.55,-0.95 1.07,-1.89 1.55,-2.79c0.23,-0.44 0.67,-1.29 1.09,-2.09c0.58,-1.12 0.95,-1.81 1.31,-2.45c0.34,-0.6 1.01,-1.68 1.52,-2.39c0.32,-0.46 0.83,-1.11 1.39,-2.05c0.42,-0.71 0.79,-1.47 1.29,-2.47c0.38,-0.75 0.75,-1.47 1.25,-2.39c0.36,-0.66 0.74,-1.28 1.23,-2.33c0.37,-0.79 0.76,-1.66 1.2,-2.34c0.48,-0.77 0.86,-1.4 1.3,-2.25c0.45,-0.88 1.06,-1.55 1.46,-2.31c0.44,-0.83 0.86,-1.66 1.17,-2.38c0.33,-0.75 0.82,-1.57 1.39,-2.27c0.41,-0.5 0.28,0.36 0.61,1.17c0.31,0.76 0.8,1.62 1.15,2.53c0.29,0.75 0.54,1.36 0.95,2.41c0.25,0.64 0.66,1.77 0.93,2.49c0.19,0.51 0.69,1.63 1.01,2.22c0.52,0.97 0.94,1.62 1.5,2.68c0.38,0.71 0.73,1.44 1.05,2.18c0.32,0.73 0.77,1.8 1.05,2.5c0.28,0.7 0.56,1.43 1.04,2.57c0.34,0.82 0.54,1.24 0.92,2.12c0.39,0.9 0.59,1.35 1.15,2.74c0.19,0.46 0.54,1.38 0.88,2.29c0.17,0.45 0.67,1.79 1.01,2.66c0.33,0.85 0.5,1.28 0.84,2.1c0.5,1.21 0.84,2 1.17,2.78c0.33,0.77 0.67,1.55 1,2.34c0.34,0.8 0.67,1.61 1,2.43c0.33,0.81 0.84,2.01 1,2.4c0.34,0.78 0.68,1.57 1.04,2.36c0.56,1.25 0.75,1.67 1.15,2.54c0.4,0.88 0.6,1.31 1.17,2.6c0.37,0.82 0.73,1.62 1.07,2.4c0.17,0.39 0.68,1.57 1.01,2.37c0.34,0.81 0.66,1.62 1,2.41c0.49,1.14 0.84,1.86 1.16,2.56c0.32,0.68 0.78,1.69 1.06,2.36c0.41,0.98 0.65,1.63 1.04,2.54c0.37,0.85 0.74,1.63 1.26,2.58c0.37,0.68 0.76,1.33 1.26,2.23c0.38,0.7 0.76,1.43 1.19,2.44c0.31,0.74 0.55,1.5 0.98,2.44c0.31,0.68 0.8,1.52 1.22,2.37c0.3,0.62 0.65,1.44 1.2,2.36c0.42,0.7 0.85,1.54 1.17,2.34c0.35,0.89 0.72,1.54 1.15,2.4c0.39,0.78 1.09,1.83 1.43,1.53c0.54,-0.48 0.23,-1.77 0.31,-2.41c0.15,-1.23 0.13,-1.79 0.17,-2.7c0.04,-1.01 0.09,-1.75 0.16,-2.52c0.07,-0.79 0.15,-1.6 0.28,-2.8c0.08,-0.78 0.21,-1.91 0.29,-2.65c0.12,-1.07 0.21,-1.77 0.33,-2.81c0.08,-0.69 0.21,-1.76 0.29,-2.48c0.08,-0.74 0.19,-1.86 0.24,-2.99c0.04,-0.75 0.05,-1.5 0.07,-2.24c0.04,-1.08 0.12,-2.13 0.19,-2.8c0.09,-0.96 0.16,-1.85 0.2,-2.66c0.05,-0.97 0.18,-2 0.28,-2.71c0.15,-1 0.11,-1.81 0.15,-2.67c0.05,-0.98 0.27,-1.77 0.38,-2.77c0.07,-0.67 0.15,-1.68 0.33,-2.56c0.16,-0.81 0.34,-1.73 0.46,-2.5c0.17,-1.08 0.29,-1.92 0.35,-2.47c0.14,-1.27 0.14,-1.97 0.18,-2.67c0.09,-1.28 0.18,-1.83 0.3,-2.69c0.16,-1.17 0.29,-2.05 0.38,-2.63c0.17,-1.17 0.29,-2.05 0.38,-2.62c0.16,-1.12 0.31,-1.91 0.4,-2.69c0.16,-1.26 0.17,-2.01 0.18,-2.74c0.01,-0.94 0,-1.83 0,-2.52c0,-1.27 0,-1.81 0,-2.62c0,-1.24 0.01,-1.9 0,-2.96c0,-0.83 -0.06,-1.81 -0.21,-2.7c-0.15,-0.93 -0.21,-1.75 -0.21,-2.63c0,-0.78 0,-1.77 0,-2.66c0,-1 0.03,-1.76 0,-2.64c-0.03,-0.95 -0.25,-1.73 -0.35,-2.69c-0.09,-0.89 -0.07,-1.62 -0.16,-2.62c-0.07,-0.76 -0.25,-1.76 -0.41,-2.76c-0.12,-0.74 -0.24,-1.47 -0.31,-2.61c-0.04,-0.66 -0.11,-1.79 -0.2,-2.5c-0.12,-0.93 -0.23,-1.96 -0.24,-2.69c-0.02,-0.94 0.02,-1.74 -0.09,-2.78c-0.09,-0.84 -0.24,-1.46 -0.3,-2.51c-0.05,-0.86 -0.02,-1.76 -0.02,-2.71c0,-0.69 0,-1.72 0,-2.6c0,-1.01 0,-2.01 0,-2.68c0,-1.07 0,-1.85 0,-2.64c0,-0.94 0,-1.86 0,-2.7c0,-0.94 0,-1.94 0,-2.69c0,-0.75 -0.01,-1.76 0,-2.77c0.01,-0.79 0.06,-1.64 0.14,-2.55c0.06,-0.64 0.17,-1.63 0.22,-2.63c0.05,-0.99 0.03,-1.65 0.12,-2.87c0.06,-0.85 0.19,-1.63 0.28,-2.65c0.06,-0.75 0.07,-1.51 0.07,-2.51c0,-1 0,-1.71 0,-2.77c0,-0.76 0,-1.76 0,-2.43c0,-0.91 0,-1.94 0,-2.79c0,-0.88 -0.07,-1.98 -0.15,-2.74c-0.09,-0.82 -0.23,-1.75 -0.27,-2.55c-0.04,-0.91 0,-1.83 0,-2.76c0,-0.88 -0.11,-1.75 -0.24,-2.54c-0.16,-1 -0.18,-1.81 -0.18,-2.69c0,-0.94 -0.05,-1.92 0.02,-2.62c0.11,-1.02 0.34,-1.85 0.41,-2.67c0.08,-0.99 0.19,-1.66 0.29,-2.57c0.12,-1.02 0.1,-1.74 0.12,-2.75c0.02,-0.9 0.12,-1.74 0.24,-2.71c0.06,-0.54 0.15,-1.7 0.17,-2.6c0.02,-0.83 0.01,-1.83 0.01,-2.62c0,-0.92 -0.01,-1.81 0.02,-2.43c0.06,-1.3 0.25,-2.04 0.34,-3.01c0.07,-0.72 0.04,-1.52 0.14,-2.54c0.09,-0.92 0.34,-1.91 0.49,-2.64c0.21,-1.02 0.23,-1.87 0.33,-2.76c0.08,-0.79 0.25,-1.6 0.33,-2.65c0.05,-0.64 0.1,-1.77 0.2,-2.47c0.14,-0.93 0.36,-1.96 0.53,-2.67c0.24,-1.01 0.41,-1.66 0.71,-2.67c0.25,-0.83 0.46,-1.61 0.71,-2.6c0.17,-0.67 0.42,-1.67 0.63,-2.51c0.21,-0.84 0.42,-1.67 0.67,-2.68c0.17,-0.67 0.4,-1.68 0.6,-2.36c0.27,-0.92 0.59,-1.69 0.92,-2.68c0.24,-0.72 0.56,-1.74 0.83,-2.4c0.4,-0.99 0.52,-1.98 -0.06,-2.02c-0.99,-0.08 -1.8,0.18 -2.77,0.27c-0.83,0.07 -1.45,0.16 -2.13,0.21c-1.16,0.08 -2.03,0.1 -2.96,0.11c-0.97,0.01 -1.47,0.01 -2.97,0.01c-0.5,0 -1.51,0 -2.02,0c-1.02,0 -2.57,0 -3.1,0c-1.08,0 -1.63,0 -2.2,0c-1.2,0 -1.84,0 -3.2,0c-0.73,0 -1.48,0 -2.24,0c-0.77,0 -1.55,0 -2.31,0c-0.74,0 -2.77,0 -3.35,0c-1.03,0 -1.93,0 -2.35,0c-0.82,0 -2.12,0 -3.06,0c-0.48,0 -1.46,0 -2.4,0c-1.29,0 -2.03,0 -2.71,0c-0.93,0 -2.1,0 -2.69,0c-0.9,0 -2.14,0 -2.78,0c-0.98,0 -1.65,0 -2.65,0c-1.01,0 -1.7,0 -2.41,0c-1.12,0 -1.9,0 -2.69,0c-0.79,0 -2.33,0 -3.05,0c-0.71,0 -1.43,0 -2.53,0c-0.77,0 -1.57,0 -2.39,0.02c-0.85,0.02 -2.16,0.08 -3.06,0.13c-0.45,0.03 -1.37,0.1 -2.31,0.15c-1.44,0.08 -1.92,0.09 -2.9,0.1c-0.49,0.01 -1.45,0.01 -2.87,0.02c-0.9,0 -1.77,0 -2.18,0c-1.16,0 -2.19,-0.01 -3.08,0c-0.79,0.01 -1.73,0.08 -2.59,0.2c-0.93,0.13 -1.82,0.21 -2.71,0.21c-0.95,0 -1.73,0.02 -2.62,-0.07c-0.79,-0.08 -1.67,-0.25 -2.68,-0.31c-0.82,-0.05 -1.69,-0.04 -2.56,-0.04c-0.87,0 -1.73,0 -2.84,0c-0.78,0 -1.53,0 -2.69,0c-0.63,0 -1.77,-0.04 -2.6,0c-0.93,0.05 -1.71,0.36 -2.64,0.42c-0.87,0.06 -1.57,0.56 -2.4,0.77c-0.88,0.22 -1.76,0.07 -2.64,0.07l-0.91,0" fill="none" fill-opacity="null" id="svg_1" stroke="#ffffff" stroke-dasharray="null" stroke-linecap="round" stroke-linejoin="null" stroke-opacity="null" stroke-width="25"/>
 </g>
</svg>