<?xml version="1.0"?>
<svg viewBox="40 40 320 320" xmlns="http://www.w3.org/2000/svg" xmlns:svg="http://www.w3.org/2000/svg">
 <!-- Created with SVG-edit - https://github.com/SVG-Edit/svgedit-->

 <g class="layer" display="inline">
  <title>Layer 1</title>
  <path d="m164.25,146.36c0,0.79 0,1.48 0,2.14c0,0.63 0,1.5 0,2.13c0,0.65 0.02,1.31 -0.03,1.93c-0.07,0.87 -0.24,1.4 -0.29,2.19c-0.05,0.84 0,1.45 -0.03,1.95c-0.05,0.89 -0.16,1.46 -0.22,2.04c-0.08,0.78 -0.09,1.56 -0.09,2.3c0,0.7 0,1.2 0,2.02c0,0.66 0,1.47 0,2.12c0,0.77 0,1.33 0,2.08c0,0.66 0,1.42 0,2.02c0,0.75 0,1.47 0,2.25c0,0.53 0,1.27 0,1.99c0,0.69 0,1.39 0,2.13c0,0.56 0,1.3 0,2c0,0.54 0,1.54 0,1.97c0,0.65 0,1.5 0,2.12c0,0.99 -0.01,1.58 0.01,2.17c0.03,0.79 0.11,1.38 0.18,1.98c0.09,0.83 0.13,1.48 0.14,2.15c0.01,0.91 0,1.37 0,2.05c0,0.67 0,1.52 0,2.13c0,0.6 -0.01,1.38 0.01,2.19c0.01,0.43 0.08,1.34 0.16,2.09c0.06,0.51 0.16,1.3 0.25,2.08c0.06,0.52 0.15,1.31 0.19,2.1c0.03,0.52 0.04,1.31 0.07,1.83c0.04,0.79 0.11,1.58 0.17,2.11c0.06,0.54 0.19,1.65 0.26,2.24c0.07,0.61 0.13,1.24 0.23,2.26c0.03,0.36 0.1,1.11 0.14,1.5c0.09,0.82 0.13,1.25 0.33,2.6c0.07,0.48 0.15,0.97 0.24,1.46c0.17,1.02 0.26,1.55 0.35,2.08c0.17,1.07 0.25,1.62 0.33,2.16c0.15,1.1 0.22,1.66 0.29,2.21c0.07,0.56 0.13,1.13 0.26,2.27c0.07,0.58 0.13,1.15 0.2,1.73c0.07,0.58 0.13,1.17 0.26,2.34c0.07,0.59 0.2,1.77 0.26,2.36c0.07,0.59 0.13,1.18 0.2,1.78c0.07,0.6 0.14,1.2 0.21,1.8c0.07,0.61 0.23,1.84 0.32,2.47c0.09,0.63 0.17,1.26 0.26,1.9c0.09,0.64 0.18,1.28 0.27,1.91c0.09,0.64 0.26,1.89 0.34,2.51c0.08,0.61 0.15,1.22 0.22,1.82c0.07,0.59 0.13,1.18 0.19,1.76c0.06,0.57 0.16,1.7 0.21,2.25c0.09,1.09 0.13,1.62 0.16,2.14c0.04,0.52 0.07,1.02 0.17,2.49c0.03,0.47 0.06,0.93 0.13,1.83c0.03,0.45 0.1,1.32 0.13,1.76c0.07,0.88 0.13,1.77 0.17,2.22c0.07,0.9 0.1,1.34 0.15,1.78c0.13,1.3 0.18,1.73 0.29,2.56c0.05,0.41 0.17,1.22 0.26,2.03c0.09,0.81 0.13,1.64 0.15,2.05c0.03,0.83 0.03,1.24 0.04,2.06c0,0.8 0,1.57 0,2.32c0,0.37 0,1.09 0.05,2.13c0.03,0.68 0.08,1.34 0.11,1.67c0.07,0.93 0.13,1.77 0.15,2.3c0.02,0.73 0.02,1.2 0.02,2.12c0,0.69 -0.02,1.38 -0.07,2.06c-0.06,0.69 -0.16,1.36 -0.22,2.22c-0.04,0.63 -0.05,1.29 -0.09,2.03c-0.03,0.55 -0.09,1.14 -0.13,1.76c-0.05,0.64 -0.1,1.62 -0.12,2.28c-0.02,0.64 -0.02,1.28 -0.07,2.19c-0.03,0.58 -0.11,1.39 -0.18,1.88c-0.12,0.89 -0.23,1.47 -0.36,2.16c-0.16,0.82 -0.3,1.47 -0.35,2.13c-0.06,0.65 -0.07,1.43 -0.21,2.12c-0.13,0.67 -0.35,1.31 -0.44,2.03c-0.09,0.64 -0.12,1.34 -0.37,2.13c-0.18,0.57 -0.33,1.26 -0.33,2.01c0,0.72 -0.28,1.16 -0.4,1.84c-0.12,0.63 -0.25,1.3 -0.25,2c0,0.23 0.08,-0.42 0.33,-1.15c0.2,-0.59 0.57,-1.26 0.82,-1.8c0.33,-0.69 0.45,-1.26 0.82,-1.99c0.25,-0.5 0.7,-1.18 1.06,-1.74c0.38,-0.58 0.64,-0.99 1.16,-1.84c0.26,-0.44 0.65,-1.11 1.05,-1.75c0.39,-0.63 0.64,-1.03 1.05,-1.57c0.5,-0.67 0.93,-1.08 1.52,-1.76c0.45,-0.51 0.74,-0.92 1.23,-1.57c0.4,-0.54 0.84,-1.1 1.32,-1.72c0.38,-0.5 0.78,-1.02 1.17,-1.58c0.41,-0.57 0.67,-0.97 1.27,-1.75c0.3,-0.4 0.78,-0.98 1.23,-1.57c0.44,-0.59 0.84,-1.19 1.1,-1.6c0.53,-0.85 0.79,-1.3 1.06,-1.76c0.57,-0.96 0.87,-1.45 1.18,-1.95c0.31,-0.5 0.62,-0.99 1.21,-1.91c0.28,-0.44 0.58,-0.88 1.18,-1.85c0.34,-0.55 0.52,-0.84 0.89,-1.45c0.38,-0.63 0.58,-0.96 1.17,-1.94c0.39,-0.66 0.59,-0.98 0.99,-1.64c0.41,-0.66 0.83,-1.31 1.26,-1.97c0.22,-0.33 0.67,-1 0.89,-1.33c0.46,-0.69 0.92,-1.39 1.37,-2.13c0.23,-0.37 0.68,-1.12 0.9,-1.5c0.43,-0.75 0.83,-1.48 1.21,-2.19c0.18,-0.34 0.53,-1.01 0.85,-1.64c0.46,-0.88 0.74,-1.42 1.03,-1.92c0.27,-0.47 0.79,-1.31 1.19,-1.87c0.25,-0.36 0.65,-0.87 1.09,-1.6c0.33,-0.56 0.62,-1.15 1.01,-1.94c0.29,-0.58 0.58,-1.15 0.98,-1.87c0.28,-0.51 0.58,-1 0.96,-1.83c0.29,-0.62 0.6,-1.3 0.94,-1.84c0.38,-0.6 0.67,-1.09 1.01,-1.76c0.36,-0.69 0.83,-1.21 1.15,-1.81c0.34,-0.65 0.67,-1.3 0.92,-1.86c0.25,-0.59 0.64,-1.23 1.08,-1.78c0.32,-0.39 0.22,0.28 0.48,0.92c0.24,0.59 0.63,1.27 0.9,1.98c0.22,0.59 0.42,1.07 0.75,1.89c0.2,0.5 0.52,1.38 0.73,1.95c0.15,0.4 0.54,1.27 0.79,1.74c0.41,0.76 0.73,1.27 1.17,2.09c0.3,0.56 0.57,1.13 0.82,1.71c0.25,0.57 0.6,1.41 0.82,1.96c0.22,0.55 0.44,1.12 0.81,2.01c0.27,0.64 0.42,0.97 0.72,1.66c0.31,0.7 0.47,1.06 0.9,2.14c0.15,0.36 0.42,1.08 0.69,1.79c0.13,0.35 0.53,1.4 0.79,2.08c0.26,0.67 0.39,1 0.66,1.65c0.39,0.95 0.66,1.56 0.92,2.17c0.26,0.61 0.53,1.21 0.79,1.83c0.26,0.63 0.52,1.26 0.79,1.9c0.26,0.64 0.65,1.57 0.79,1.88c0.26,0.61 0.53,1.23 0.81,1.85c0.44,0.98 0.59,1.31 0.9,1.99c0.31,0.69 0.47,1.03 0.92,2.04c0.29,0.64 0.57,1.27 0.84,1.88c0.13,0.31 0.53,1.23 0.79,1.86c0.26,0.63 0.52,1.27 0.79,1.88c0.39,0.9 0.65,1.46 0.91,2.01c0.25,0.53 0.61,1.32 0.83,1.85c0.32,0.77 0.51,1.28 0.81,1.99c0.28,0.66 0.58,1.28 0.98,2.02c0.29,0.53 0.6,1.04 0.98,1.75c0.3,0.55 0.59,1.12 0.93,1.91c0.25,0.58 0.43,1.18 0.76,1.91c0.24,0.54 0.63,1.19 0.95,1.86c0.24,0.48 0.51,1.13 0.94,1.85c0.33,0.55 0.66,1.2 0.92,1.83c0.28,0.69 0.56,1.21 0.9,1.88c0.31,0.61 0.85,1.44 1.12,1.2c0.42,-0.37 0.18,-1.39 0.24,-1.89c0.11,-0.96 0.1,-1.4 0.13,-2.12c0.03,-0.79 0.07,-1.37 0.13,-1.97c0.05,-0.62 0.12,-1.25 0.22,-2.19c0.07,-0.61 0.16,-1.5 0.23,-2.08c0.1,-0.84 0.16,-1.39 0.26,-2.2c0.06,-0.54 0.17,-1.38 0.23,-1.94c0.06,-0.58 0.15,-1.46 0.19,-2.34c0.03,-0.59 0.04,-1.17 0.06,-1.75c0.03,-0.85 0.1,-1.67 0.15,-2.19c0.07,-0.75 0.13,-1.45 0.16,-2.09c0.04,-0.76 0.14,-1.56 0.22,-2.13c0.12,-0.78 0.09,-1.42 0.12,-2.09c0.04,-0.77 0.21,-1.38 0.3,-2.17c0.06,-0.52 0.12,-1.31 0.26,-2c0.13,-0.63 0.26,-1.36 0.36,-1.96c0.13,-0.85 0.23,-1.5 0.28,-1.93c0.11,-1 0.11,-1.54 0.14,-2.09c0.07,-1 0.14,-1.43 0.24,-2.11c0.13,-0.92 0.23,-1.61 0.29,-2.06c0.13,-0.92 0.23,-1.6 0.29,-2.05c0.13,-0.87 0.24,-1.5 0.32,-2.1c0.12,-0.98 0.14,-1.57 0.14,-2.15c0.01,-0.73 0,-1.44 0,-1.97c0,-0.99 0,-1.42 0,-2.05c0,-0.97 0,-1.49 0,-2.32c0,-0.65 -0.05,-1.42 -0.16,-2.12c-0.12,-0.73 -0.16,-1.37 -0.16,-2.06c0,-0.61 0,-1.38 0,-2.08c0,-0.79 0.02,-1.38 0,-2.06c-0.03,-0.74 -0.19,-1.36 -0.27,-2.11c-0.07,-0.7 -0.05,-1.27 -0.13,-2.05c-0.06,-0.59 -0.19,-1.38 -0.32,-2.16c-0.09,-0.58 -0.19,-1.15 -0.25,-2.05c-0.03,-0.52 -0.09,-1.4 -0.16,-1.95c-0.09,-0.73 -0.18,-1.53 -0.19,-2.11c-0.01,-0.73 0.01,-1.37 -0.07,-2.18c-0.07,-0.66 -0.19,-1.15 -0.24,-1.97c-0.04,-0.67 -0.02,-1.38 -0.02,-2.12c0,-0.54 0,-1.34 0,-2.04c0,-0.79 0,-1.57 0,-2.1c0,-0.84 0,-1.45 0,-2.07c0,-0.73 0,-1.46 0,-2.11c0,-0.74 0,-1.52 0,-2.11c0,-0.59 -0.01,-1.38 0,-2.17c0.01,-0.62 0.05,-1.28 0.11,-2c0.05,-0.5 0.13,-1.27 0.17,-2.06c0.04,-0.78 0.03,-1.29 0.09,-2.25c0.05,-0.66 0.15,-1.28 0.22,-2.07c0.05,-0.59 0.05,-1.18 0.06,-1.97c0,-0.78 0,-1.34 0,-2.17c0,-0.59 0,-1.38 0,-1.91c0,-0.71 0,-1.52 0,-2.18c0,-0.69 -0.05,-1.55 -0.12,-2.14c-0.07,-0.64 -0.18,-1.37 -0.21,-1.99c-0.03,-0.71 0,-1.44 0,-2.16c0,-0.69 -0.09,-1.37 -0.19,-1.99c-0.13,-0.78 -0.14,-1.42 -0.14,-2.11c0,-0.73 -0.04,-1.5 0.02,-2.05c0.09,-0.8 0.27,-1.45 0.32,-2.09c0.06,-0.77 0.15,-1.3 0.23,-2.01c0.09,-0.8 0.08,-1.36 0.09,-2.16c0.02,-0.71 0.1,-1.36 0.19,-2.12c0.05,-0.42 0.12,-1.33 0.13,-2.04c0.01,-0.65 0.01,-1.43 0.01,-2.06c0,-0.72 0,-1.42 0.02,-1.9c0.05,-1.02 0.2,-1.6 0.27,-2.36c0.05,-0.57 0.03,-1.19 0.11,-1.99c0.07,-0.72 0.27,-1.5 0.38,-2.07c0.16,-0.8 0.18,-1.46 0.25,-2.16c0.07,-0.61 0.2,-1.25 0.26,-2.08c0.03,-0.5 0.08,-1.38 0.16,-1.94c0.11,-0.73 0.28,-1.53 0.41,-2.09c0.19,-0.79 0.32,-1.3 0.56,-2.09c0.19,-0.65 0.36,-1.26 0.56,-2.04c0.13,-0.52 0.33,-1.31 0.49,-1.97c0.16,-0.65 0.33,-1.31 0.52,-2.1c0.13,-0.52 0.32,-1.31 0.47,-1.85c0.21,-0.72 0.46,-1.33 0.72,-2.09c0.19,-0.56 0.44,-1.36 0.65,-1.88c0.31,-0.78 0.41,-1.55 -0.05,-1.59c-0.78,-0.06 -1.41,0.14 -2.17,0.21c-0.65,0.06 -1.13,0.12 -1.67,0.16c-0.91,0.07 -1.59,0.08 -2.32,0.09c-0.76,0.01 -1.15,0.01 -2.32,0.01c-0.39,0 -1.18,0 -1.58,0c-0.8,0 -2.01,0 -2.42,0c-0.84,0 -1.28,0 -1.73,0c-0.94,0 -1.44,0 -2.5,0c-0.57,0 -1.16,0 -1.76,0c-0.61,0 -1.21,0 -1.81,0c-0.58,0 -2.17,0 -2.62,0c-0.81,0 -1.51,0 -1.84,0c-0.64,0 -1.66,0 -2.4,0c-0.38,0 -1.14,0 -1.88,0c-1.01,0 -1.59,0 -2.12,0c-0.73,0 -1.65,0 -2.11,0c-0.7,0 -1.67,0 -2.18,0c-0.77,0 -1.29,0 -2.08,0c-0.79,0 -1.33,0 -1.89,0c-0.88,0 -1.49,0 -2.11,0c-0.62,0 -1.82,0 -2.39,0c-0.56,0 -1.12,0 -1.98,0c-0.6,0 -1.23,0 -1.88,0.01c-0.67,0.01 -1.69,0.06 -2.39,0.1c-0.36,0.02 -1.08,0.08 -1.81,0.12c-1.13,0.06 -1.51,0.07 -2.27,0.08c-0.38,0.01 -1.14,0.01 -2.25,0.01c-0.71,0 -1.38,0 -1.71,0c-0.91,0 -1.72,-0.01 -2.41,0c-0.62,0.01 -1.35,0.06 -2.03,0.16c-0.73,0.1 -1.42,0.16 -2.12,0.16c-0.74,0 -1.36,0.02 -2.05,-0.05c-0.62,-0.06 -1.31,-0.2 -2.1,-0.25c-0.65,-0.04 -1.32,-0.03 -2.01,-0.03c-0.68,0 -1.36,0 -2.22,0c-0.61,0 -1.2,0 -2.11,0c-0.49,0 -1.39,-0.03 -2.03,0c-0.73,0.04 -1.34,0.28 -2.07,0.33c-0.68,0.05 -1.23,0.44 -1.88,0.6c-0.69,0.17 -1.38,0.05 -2.07,0.05l-0.71,0" fill="none" fill-opacity="null" id="svg_1" stroke="#ffffff" stroke-dasharray="null" stroke-linecap="round" stroke-linejoin="null" stroke-opacity="null" stroke-width="25"/>
  <polyline fill="none" fill-opacity="null" id="svg_3" opacity="0.5" points="124.26778787374495,124.26778003573418 " stroke="#ffffff" stroke-dasharray="null" stroke-linecap="round" stroke-linejoin="null" stroke-opacity="null" stroke-width="29"/>
  <path d="m228.45,112.13c-0.81,0 -1.56,0.02 -2.33,-0.02c-1.14,-0.06 -1.88,-0.2 -2.68,-0.28c-1.17,-0.11 -1.8,-0.11 -2.78,-0.12c-1,-0.01 -1.67,0 -2.69,-0.01c-0.7,-0.01 -1.8,-0.06 -2.56,-0.11c-0.8,-0.05 -1.61,-0.13 -2.44,-0.18c-1.25,-0.08 -2.09,-0.1 -2.92,-0.11c-0.82,-0.01 -2.03,-0.01 -2.82,-0.01c-0.77,0 -1.54,0 -2.29,0c-1.13,0 -1.88,0 -3,0c-0.73,0 -1.81,0 -2.5,0c-1,0 -1.63,0 -2.8,0c-0.82,0 -1.61,0 -2.7,0c-0.84,0 -1.69,0 -2.77,0c-0.78,0 -1.54,0 -2.55,0c-0.74,0 -1.94,0 -2.61,0c-0.88,0 -1.79,0 -2.73,0c-0.69,0 -1.72,0 -2.48,0c-1.03,0 -1.97,0 -2.97,0c-0.76,0 -1.52,0 -2.58,0c-0.83,0 -1.69,0 -2.27,0c-1.17,0 -2.04,0 -2.89,0c-1.09,0 -1.84,0 -2.92,0c-0.7,0 -1.46,0 -2.55,0c-0.68,0 -1.4,0 -2.82,0c-0.64,0 -1.53,0 -2.43,0c-0.98,0 -1.71,0 -2.47,0.01c-0.78,0.01 -1.94,0.05 -3.03,0.14c-0.69,0.06 -1.34,0.15 -2.54,0.22c-0.83,0.05 -1.63,0.05 -2.7,0.05c-0.84,0 -1.68,0 -2.79,0c-0.78,0 -1.53,0 -2.47,0c-0.88,0 -1.93,0.06 -2.77,0.18c-0.65,0.09 -1.79,0.21 -2.51,0.24c-0.72,0.04 -1.86,0.16 -2.74,0.27c-0.91,0.11 -1.62,0.14 -2.61,0.15c-1,0.01 -1.75,-0.01 -2.47,0.04c-1.14,0.08 -1.92,0.29 -2.91,0.37c-0.93,0.07 -0.37,0.71 -0.16,1.55c0.2,0.79 0.25,1.73 0.41,2.52c0.19,0.99 0.39,1.67 0.45,2.56c0.07,1 0,1.88 0,2.63c0,1 0.12,1.88 0.34,2.67c0.25,0.9 0.46,1.82 0.5,2.64c0.04,0.88 -0.06,1.9 0.1,2.77c0.13,0.72 0.32,1.7 0.33,2.56c0,0.89 0,1.86 0,2.63c0,0.86 -0.02,1.66 0,2.66c0.02,0.84 0.2,1.84 0.3,2.51c0.14,1 0.09,2.01 0.13,2.85c0.03,0.84 0.25,1.66 0.36,2.59c0.09,0.82 0.05,1.87 0.05,2.56c0,0.95 -0.03,1.75 0.15,2.87c0.11,0.7 0.43,1.69 0.57,2.53c0.13,0.83 0.09,1.67 0.12,2.68c0.04,1.01 0.22,1.67 0.34,2.68c0.1,0.83 0.07,1.84 0.07,2.52c0,1.09 -0.02,1.89 0.07,2.92c0.06,0.63 0.24,1.44 0.32,2.57c0.05,0.69 0.02,1.7 0.02,2.53c0,0.84 0,1.71 0,2.66c0,0.77 0,1.77 0,2.77c0,0.77 0,1.82 0,2.61c0,0.88 -0.08,1.77 0.07,2.76c0.11,0.76 0.29,1.64 0.42,2.58c0.11,0.77 0.32,1.68 0.35,2.5c0.03,1.04 0,1.7 0.18,2.7c0.2,1.08 0.42,1.85 0.5,2.47c0.15,1.04 0.15,1.87 0.15,2.83c0,0.88 0,1.89 0,2.58c0,1.11 -0.02,1.9 0.09,2.86c0.09,0.72 0.3,1.72 0.32,2.55c0.03,0.9 0,1.72 0,2.62c0,0.92 0,1.74 0,2.76c0,0.88 0,1.61 0,2.42c0,1.04 0.04,1.83 0,2.84c-0.03,0.93 -0.33,1.8 -0.4,2.68c-0.07,0.89 -0.02,1.86 -0.02,2.58c0,1 0,1.93 0,2.85c0,0.77 0,1.68 0,2.5c0,0.88 0,1.69 0,2.69c0,0.94 0,1.79 0,2.75c0,0.76 -0.04,1.72 0.02,2.59c0.06,0.91 0.3,1.73 0.39,2.63c0.1,0.99 0.28,1.8 0.38,2.64c0.12,0.99 0.01,1.71 0.14,2.7c0.11,0.83 0.31,1.72 0.33,2.69c0.01,0.77 0,1.66 0,2.54c0,0.95 0,1.72 0,2.72c0,0.82 0,1.86 0,2.76c0,0.75 0,1.63 0,2.64c0,0.84 0,1.74 0,2.59c0,0.95 0.09,1.88 -0.09,2.75c-0.17,0.83 -0.27,1.71 -0.35,2.52c-0.09,0.89 -0.36,1.75 -0.39,2.6c-0.04,0.89 -0.21,1.75 -0.4,2.7l-0.02,0.92l0,0.89" fill="none" fill-opacity="null" id="svg_7" stroke="#ffffff" stroke-dasharray="null" stroke-linecap="round" stroke-linejoin="null" stroke-opacity="null" stroke-width="21"/>
 </g>
</svg>