<?xml version="1.0"?>
<svg viewBox="-50 -50 500 500" xmlns="http://www.w3.org/2000/svg" xmlns:svg="http://www.w3.org/2000/svg">
 <!-- Created with SVG-edit - https://github.com/SVG-Edit/svgedit-->

 <g class="layer" display="inline">
  <title>Layer 1</title>
  <path d="m151.96,49.16c-1.28,0.34 -2.22,0.68 -3.03,0.89c-0.88,0.23 -1.78,0.45 -2.45,0.61c-1.12,0.28 -1.82,0.46 -2.6,0.61c-0.9,0.18 -1.92,0.34 -2.65,0.47c-0.74,0.13 -1.84,0.38 -2.54,0.57c-1.03,0.28 -1.7,0.5 -2.71,0.74c-1,0.23 -1.66,0.34 -2.3,0.46c-1.23,0.22 -2.08,0.4 -2.86,0.51c-1.09,0.16 -1.86,0.16 -2.83,0.32c-0.86,0.14 -1.74,0.32 -2.63,0.39c-0.67,0.05 -1.79,0.18 -2.46,0.29c-1.12,0.19 -1.79,0.24 -2.71,0.31c-0.99,0.08 -1.77,0.22 -2.6,0.33c-1.11,0.15 -1.94,0.18 -2.73,0.19c-0.93,0.01 -1.73,-0.03 -2.87,0.13c-0.63,0.09 -1.49,0.31 -2.39,0.39c-0.87,0.07 -1.89,0.05 -2.64,0.05c-1.01,0 -1.97,0 -2.72,0c-0.93,0 -1.89,0.01 -2.74,0c-0.86,-0.01 -1.8,-0.13 -2.63,-0.28c-1.02,-0.19 -1.77,-0.27 -2.51,-0.28c-0.99,-0.01 -1.82,0 -2.81,0c-0.88,0 -1.89,0 -2.56,0c-1,0 -1.8,0 -2.74,0c-0.94,0 -1.77,0 -2.73,0.16c-0.84,0.14 -1.84,0.36 -2.59,0.39c-1.01,0.04 -1.73,0.01 -2.51,0.01c-1.11,0 -1.94,0 -2.76,0c-1.04,0 -1.77,0 -2.64,0c-1.01,0 -1.95,0 -2.73,0c-0.99,0 -1.71,0 -2.51,0c-1.18,0 -1.8,0 -2.76,0c-0.64,0 -1.89,0 -2.77,0c-0.86,0 -1.7,0 -2.53,0c-0.8,0 -1.99,0 -2.76,0c-1.05,0 -1.72,-0.02 -2.72,0c-0.81,0.02 -1.79,0.17 -2.64,0.36c-0.83,0.18 -1.99,0.09 -2.21,0.74c-0.29,0.84 0.07,1.79 0.25,2.62c0.16,0.74 0.49,1.9 0.68,2.57c0.2,0.73 0.42,1.5 0.75,2.73c0.23,0.85 0.34,1.29 0.56,2.19c0.23,0.94 0.34,1.44 0.67,3.01c0.11,0.55 0.33,1.69 0.44,2.28c0.11,0.59 0.31,1.77 0.48,2.96c0.08,0.58 0.23,1.74 0.3,2.31c0.07,0.57 0.19,1.69 0.24,2.25c0.17,1.68 0.23,2.24 0.33,3.36c0.05,0.57 0.11,1.14 0.18,2.32c0.08,1.21 0.1,1.83 0.13,3.09c0.02,0.64 0.03,1.27 0.04,1.91c0.03,1.25 0.08,2.45 0.11,3.03c0.07,1.12 0.11,1.66 0.2,2.72c0.04,0.52 0.15,2.1 0.17,2.64c0.04,1.09 0.05,1.64 0.06,2.77c0.01,0.58 0.01,1.17 0.01,2.99c0,0.63 0,1.27 0,1.92c0,1.31 0,1.98 0,2.64c0,1.34 0,2.01 0,3.36c0,0.68 0.01,1.37 0.02,2.06c0.01,0.71 0.02,1.42 0.07,2.9c0.03,0.76 0.06,1.54 0.11,2.33c0.04,0.8 0.09,1.61 0.14,2.42c0.05,0.82 0.11,1.63 0.22,3.26c0.06,0.81 0.11,1.61 0.17,2.41c0.05,0.8 0.1,1.6 0.15,2.41c0.05,0.81 0.09,1.62 0.15,3.28c0.03,0.84 0.05,1.69 0.06,2.55c0.02,0.86 0.03,1.72 0.04,2.58c0.01,0.85 0.02,1.69 0.08,3.34c0.03,0.8 0.06,1.59 0.11,2.36c0.04,0.76 0.09,1.51 0.14,2.26c0.05,0.74 0.11,1.47 0.22,2.92c0.06,0.73 0.11,1.45 0.17,2.18c0.06,0.73 0.18,2.2 0.25,2.93c0.07,0.74 0.23,2.24 0.32,3c0.09,0.76 0.18,1.52 0.28,2.28c0.09,0.76 0.18,1.51 0.27,2.25c0.08,0.73 0.22,2.16 0.3,3.53c0.04,0.66 0.06,1.31 0.07,1.95c0.03,1.26 0.02,1.88 0.02,3.11c0,0.61 0,1.84 0,2.45c0,0.61 0,1.82 0,2.42c0,1.18 0,2.35 0,2.93c0,1.16 0,1.74 0,2.32c0,1.8 0,2.42 0,3.05c0,0.64 -0.01,1.94 -0.02,2.6c-0.01,0.66 -0.02,1.33 -0.07,2.67c-0.06,1.34 -0.1,2.01 -0.14,2.68c-0.04,0.66 -0.09,1.33 -0.16,2.64c-0.07,1.3 -0.09,1.94 -0.11,2.57c-0.04,1.27 -0.05,1.9 -0.06,2.54c-0.01,0.64 -0.08,2.61 -0.11,3.29c-0.03,0.68 -0.07,1.38 -0.11,2.07c-0.04,0.7 -0.13,2.09 -0.16,2.78c-0.07,1.36 -0.09,2.02 -0.11,2.68c-0.03,1.27 -0.04,1.88 -0.04,2.48c-0.01,1.16 -0.01,2.25 -0.01,3.28c0,0.49 0,1.45 0,2.37c0,1.35 0,1.8 0,2.69c-0.01,0.91 -0.03,1.85 -0.05,2.32c-0.06,1.49 -0.11,2.01 -0.2,3.07c-0.05,0.54 -0.15,1.64 -0.2,2.2c-0.17,1.67 -0.22,2.23 -0.34,3.35c-0.06,0.56 -0.12,1.12 -0.27,2.23c-0.15,1.12 -0.33,2.23 -0.43,2.79c-0.1,0.55 -0.29,1.64 -0.39,2.18c-0.28,1.55 -0.43,2.54 -0.5,3.02c-0.14,0.93 -0.25,1.85 -0.31,2.3c-0.17,1.34 -0.28,2.24 -0.38,3.13c-0.1,0.89 -0.15,1.34 -0.22,2.68c-0.05,0.89 -0.07,1.79 -0.08,2.23c-0.03,0.89 -0.1,2.24 -0.19,3.12c-0.08,0.87 -0.18,1.7 -0.36,2.86c-0.11,0.7 -0.22,1.35 -0.42,2.29c-0.21,0.97 -0.41,1.66 -0.69,2.78c-0.1,0.4 -0.31,1.22 -0.55,2.55c-0.17,0.95 -0.22,1.46 -0.34,2.55c-0.06,0.59 -0.12,1.22 -0.23,2.58c-0.06,0.75 -0.11,1.53 -0.17,2.35c-0.06,0.84 -0.11,1.71 -0.17,2.59c-0.06,0.89 -0.11,1.78 -0.22,3.53c-0.06,0.86 -0.11,1.7 -0.17,2.53c-0.05,0.81 -0.1,1.62 -0.15,2.41c-0.05,0.78 -0.09,1.55 -0.15,3.07c-0.03,0.75 -0.05,1.49 -0.06,2.23c-0.02,0.72 -0.03,1.43 -0.04,2.12c-0.03,1.32 -0.07,2.55 -0.11,3.12c-0.07,1.07 -0.11,1.57 -0.22,2.52c-0.1,0.89 -0.28,2.16 -0.38,2.99c-0.11,0.83 -0.2,1.68 -0.23,2.12c-0.11,1.4 -0.13,2.42 -0.15,2.95c-0.01,0.54 -0.04,1.68 -0.06,2.26c-0.07,1.83 -0.11,2.46 -0.15,3.09c-0.04,0.65 -0.09,1.3 -0.19,2.62c-0.05,0.67 -0.17,2.01 -0.22,2.68c-0.06,0.67 -0.16,1.99 -0.21,2.65c-0.05,0.64 -0.1,1.28 -0.2,3.11c-0.03,0.58 -0.06,1.68 -0.07,2.21c-0.02,1.01 -0.02,1.48 -0.02,2.82c0,0.8 0.01,1.89 -0.03,2.52c-0.06,1.08 -0.3,1.92 -0.43,2.88c-0.12,0.82 -0.09,1.74 -0.09,2.75c0,0.8 0,1.63 0,2.47c0,0.82 0.14,1.82 0,2.75c-0.14,0.9 -0.69,1.62 -1,2.38c-0.35,0.85 -1.19,1.49 -1.22,2.41c-0.02,0.66 1.04,0.58 1.96,0.43c0.87,-0.13 1.59,-0.33 2.71,-0.55c0.61,-0.12 1.59,-0.28 2.59,-0.45c1,-0.17 1.66,-0.28 2.31,-0.39c1.25,-0.22 2.14,-0.4 2.73,-0.48c1.19,-0.17 1.82,-0.2 2.8,-0.24c0.68,-0.03 1.75,-0.09 2.86,-0.2c0.77,-0.08 1.56,-0.18 2.8,-0.27c0.42,-0.03 1.28,-0.06 2.16,-0.09c0.91,-0.03 2.3,-0.09 2.78,-0.12c0.97,-0.07 1.46,-0.12 2.43,-0.22c0.97,-0.1 1.93,-0.22 2.87,-0.33c0.9,-0.11 1.75,-0.21 2.54,-0.29c1.04,-0.1 1.9,-0.1 2.82,-0.21c0.97,-0.11 1.66,-0.38 2.68,-0.48c0.88,-0.09 1.88,-0.03 2.54,-0.03c0.96,0 2,-0.02 2.79,0.03c1.03,0.06 1.73,0.23 2.56,0.37c0.94,0.16 1.87,0.16 2.69,0.4c0.88,0.25 1.66,0.32 2.66,0.32c0.87,0 1.83,0 2.63,0c0.92,0 1.84,0 2.66,0c0.94,0 1.64,0.01 2.8,0.12c0.67,0.06 1.37,0.17 2.44,0.28c1.02,0.1 1.95,0.14 2.52,0.15c1.3,0.02 2.01,0.01 2.79,0.01c1.04,0 1.93,0 2.85,0c0.9,0 1.83,-0.03 2.56,0.01c1.04,0.05 1.72,0.45 2.6,0.55c0.95,0.11 1.82,0 2.73,0c0.85,0 1.83,0 2.68,0c0.89,0 1.78,0 2.66,0l0.89,0l0.9,0" fill="none" fill-opacity="null" id="svg_18" stroke="#ffffff" stroke-dasharray="null" stroke-linecap="round" stroke-linejoin="null" stroke-opacity="null" stroke-width="40" transform="matrix(1, 0, 0, 1, -1.41398, 1.45326)"/>
  <path d="m272.07,48.04c1.43,0.55 2.53,0.55 3.16,0.56c0.96,0.03 1.78,0.11 2.69,0.24c0.64,0.09 1.97,0.31 2.64,0.43c0.67,0.11 1.65,0.28 2.59,0.45c0.9,0.16 1.78,0.33 2.37,0.4c1.23,0.14 1.88,0.15 2.92,0.16c1.13,0.01 1.93,0 2.77,0.01c0.87,0.01 1.31,0.01 2.64,0.09c0.89,0.05 1.79,0.14 2.23,0.19c0.89,0.08 2.23,0.19 3.12,0.23c0.87,0.04 1.69,0.05 2.45,0.09c0.96,0.06 1.92,0.28 2.9,0.42c0.82,0.11 1.47,0.09 2.59,0.09c0.91,0 1.88,0 2.66,0c0.81,0 1.92,0 2.76,0c0.57,0 1.44,0 2.67,0c0.64,0 1.63,-0.01 2.63,-0.09c0.67,-0.05 1.65,-0.19 2.28,-0.27c1.16,-0.14 2.14,-0.19 2.76,-0.2c1.08,-0.01 2.02,0.08 2.92,-0.2c0.82,-0.25 1.69,-0.18 2.56,-0.45c0.83,-0.26 1.63,-0.47 2.49,-0.47c0.96,0 2.11,-0.52 2.63,0.1c0.55,0.65 -0.24,1.71 -0.56,2.7c-0.22,0.68 -0.47,1.38 -0.72,2.38c-0.17,0.68 -0.31,1.71 -0.36,2.6c-0.06,0.95 -0.05,1.62 -0.15,2.62c-0.1,1.01 -0.23,1.7 -0.37,2.39c-0.23,1.09 -0.43,1.83 -0.62,2.6c-0.2,0.79 -0.48,2.02 -0.62,2.88c-0.15,0.87 -0.27,1.78 -0.32,2.25c-0.18,1.46 -0.23,1.97 -0.34,3.02c-0.05,0.54 -0.15,1.64 -0.19,2.21c-0.12,1.73 -0.13,2.32 -0.15,2.92c-0.04,1.21 -0.05,1.83 -0.06,2.46c-0.01,0.63 -0.08,2.6 -0.11,3.27c-0.03,0.68 -0.07,1.37 -0.11,2.06c-0.04,0.69 -0.13,2.04 -0.16,2.7c-0.07,1.27 -0.11,2.46 -0.13,3.02c-0.01,0.55 -0.03,1.59 -0.03,2.59c0,0.96 0,1.9 0,2.81c0,0.88 0,1.72 0,2.91c0,0.74 0,1.46 0,2.17c0,1.07 0,2.19 0,2.97c0,0.81 0,1.23 0,2.56c0,0.95 0.01,1.45 0.06,2.51c0.03,0.57 0.21,2.44 0.31,3.12c0.1,0.72 0.22,1.46 0.35,2.22c0.13,0.78 0.28,1.58 0.42,2.38c0.15,0.81 0.44,2.44 0.57,3.24c0.13,0.8 0.26,1.6 0.38,2.39c0.12,0.78 0.24,1.56 0.35,2.34c0.11,0.77 0.34,2.29 0.45,3.04c0.11,0.75 0.22,1.49 0.33,2.22c0.11,0.73 0.21,1.45 0.31,2.17c0.28,2.12 0.36,2.82 0.43,3.5c0.07,0.68 0.14,1.35 0.19,2.01c0.11,1.29 0.15,1.91 0.21,3.12c0.05,1.14 0.07,1.7 0.08,2.8c0.01,0.55 0.01,1.11 0.01,2.87c0,0.63 0,1.27 0,1.94c0.01,1.39 0.02,2.11 0.03,2.85c0.01,0.75 0.06,2.29 0.09,3.08c0.03,0.8 0.08,1.6 0.13,2.41c0.05,0.82 0.11,1.63 0.18,2.45c0.07,0.82 0.22,2.45 0.31,3.26c0.09,0.8 0.18,1.6 0.28,2.39c0.1,0.79 0.2,1.58 0.29,2.36c0.1,0.78 0.27,2.35 0.35,3.13c0.08,0.78 0.15,1.56 0.22,2.33c0.07,0.77 0.13,1.54 0.19,2.29c0.06,0.75 0.17,2.22 0.23,2.94c0.05,0.71 0.16,2.09 0.2,2.76c0.04,0.66 0.1,1.3 0.12,3.13c0,0.58 -0.01,1.14 -0.08,2.24c-0.03,0.54 -0.13,1.61 -0.18,2.15c-0.16,1.66 -0.22,2.24 -0.28,2.82c-0.11,1.2 -0.15,1.81 -0.19,2.43c-0.12,1.9 -0.13,2.55 -0.15,3.2c-0.02,0.66 -0.03,1.34 -0.04,2.74c-0.01,0.73 -0.01,1.47 -0.01,3.04c0,0.82 0,1.67 0,2.54c0,0.89 0.01,1.79 0.02,2.7c0.01,0.92 0.02,1.85 0.07,3.7c0.03,0.92 0.06,1.83 0.1,2.73c0.04,0.89 0.08,1.77 0.12,2.64c0.04,0.85 0.09,1.68 0.14,3.29c0.03,0.77 0.05,1.52 0.06,2.25c0.01,0.71 0.01,1.4 0.01,2.08c-0.01,0.66 -0.01,1.31 -0.07,2.56c-0.03,0.61 -0.06,1.21 -0.11,1.81c-0.04,0.59 -0.14,1.78 -0.19,2.38c-0.05,0.61 -0.17,1.86 -0.28,3.18c-0.06,0.68 -0.11,1.36 -0.16,2.06c-0.05,0.7 -0.1,1.4 -0.13,2.11c-0.11,2.1 -0.11,2.79 -0.13,3.48c-0.01,0.69 -0.02,1.39 -0.03,2.09c0,0.71 -0.01,2.91 -0.01,3.67c0,0.78 0,1.56 0,2.35c0,0.8 0,1.59 0,2.38c0,0.79 0,2.32 0,3.07c0,0.73 0,1.45 0,2.15c0,0.69 0,2.04 0,2.7c0,1.3 0,1.94 0,3.19c0,0.61 0,1.21 -0.03,2.37c-0.01,0.55 -0.09,2.09 -0.13,2.57c-0.08,0.9 -0.19,1.77 -0.34,2.63c-0.23,1.33 -0.33,1.79 -0.52,2.74c-0.19,0.96 -0.31,1.44 -0.56,2.89c-0.17,0.94 -0.24,1.41 -0.36,2.35c-0.13,0.96 -0.18,1.46 -0.35,3.03c-0.06,0.55 -0.11,1.12 -0.21,2.29c-0.05,0.6 -0.11,1.2 -0.2,3.04c-0.03,0.61 -0.05,1.23 -0.07,2.45c-0.01,0.6 -0.02,1.2 -0.02,2.37c0,1.14 0,2.23 0,2.76c0,1 0,1.92 0,2.35c0,1.46 0.01,2.07 -0.03,2.99c-0.05,1.05 -0.13,1.89 -0.21,2.8c-0.08,0.93 -0.14,1.39 -0.23,2.62c-0.07,0.93 -0.09,1.84 0.07,2.82c0.13,0.82 0.37,1.72 0.4,2.59c0.03,0.86 0.01,1.8 -0.03,2.47c-0.07,1.07 -0.21,1.98 -0.29,2.62c-0.16,1.33 -0.19,2 -0.22,2.66c-0.05,0.95 -0.12,2.11 -0.26,2.88c-0.13,0.73 -0.39,1.72 -0.53,2.53c-0.16,0.9 -0.26,1.92 -0.29,2.67c-0.04,0.81 -0.05,1.66 -0.09,2.54c-0.04,0.89 -0.11,1.78 -0.19,2.66c-0.08,0.84 -0.18,1.62 -0.27,2.96c-0.06,0.8 -0.03,1.49 -0.24,2.44c-0.21,0.95 -0.58,1.71 -1.35,2.02c-0.76,0.3 -1.45,0.66 -2.57,1.09c-0.61,0.23 -1.24,0.44 -2.49,0.89c-0.61,0.22 -1.51,0.57 -2.14,0.78c-1.02,0.35 -1.78,0.56 -2.59,0.78c-0.85,0.23 -1.73,0.45 -3.07,0.78c-0.45,0.11 -1.34,0.33 -2.21,0.56c-0.87,0.22 -1.71,0.45 -2.54,0.67c-0.81,0.22 -1.62,0.44 -2.44,0.62c-1.25,0.28 -2.11,0.41 -2.55,0.47c-0.91,0.12 -1.85,0.21 -2.84,0.27c-1.02,0.06 -2.06,0.08 -2.58,0.09c-1.02,0.03 -1.51,0.02 -2.88,0.12c-0.82,0.06 -1.56,0.17 -2.61,0.28c-1.01,0.1 -1.68,0.14 -2.7,0.15c-0.7,0.01 -1.78,0 -2.52,0.01c-0.75,0.01 -1.88,0.03 -2.98,0.12c-0.71,0.06 -1.38,0.17 -2.37,0.28c-0.93,0.1 -1.82,0.15 -2.7,0.16c-1.21,0.01 -1.85,0.01 -2.5,-0.01c-1,-0.02 -2,-0.1 -3.01,-0.23c-0.67,-0.09 -1.34,-0.21 -2.68,-0.43c-0.66,-0.11 -1.61,-0.27 -2.5,-0.35c-0.79,-0.08 -1.75,-0.09 -2.64,-0.22c-0.89,-0.13 -1.92,-0.45 -2.66,-0.65c-0.93,-0.26 -1.72,-0.32 -2.68,-0.54c-0.65,-0.14 -1.65,-0.34 -2.53,-0.36c-0.99,-0.02 -1.61,-0.01 -2.62,0c-0.92,0.01 -1.87,0.13 -2.69,0.28c-1.02,0.19 -1.77,0.27 -2.79,0.28c-0.69,0.01 -1.48,-0.01 -2.49,0c-0.88,0.01 -1.48,-0.02 -2.63,0.12c-1,0.12 -1.65,0.33 -2.62,0.6c-0.87,0.24 -1.71,0.36 -2.55,0.44l-0.99,0.2l-0.94,0.37l-0.69,0.43" fill="none" fill-opacity="null" id="svg_19" stroke="#ffffff" stroke-dasharray="null" stroke-linecap="round" stroke-linejoin="round" stroke-opacity="null" stroke-width="40" transform="matrix(1, 0, 0, 1, 15.5931, 0.70138)"/>
  <path d="m158.11,210.81c0.48,-2.25 0.73,-2.78 1.08,-3.75c0.43,-1.17 0.54,-1.62 0.84,-2.57c0.16,-0.5 0.52,-1.54 0.74,-2.07c0.46,-1.09 1.07,-2.16 1.4,-2.69c0.33,-0.54 1.01,-1.58 1.34,-2.09c0.32,-0.5 1.17,-1.94 1.4,-2.4c0.44,-0.88 0.83,-1.77 1.05,-2.21c0.69,-1.38 0.99,-1.86 1.62,-2.83c0.33,-0.5 0.67,-0.99 1.34,-1.95c0.32,-0.46 1.18,-1.7 1.61,-2.43c0.38,-0.63 0.69,-1.22 1.24,-2.32c0.4,-0.79 0.81,-1.52 1.05,-2.4c0.24,-0.87 0.16,-1.07 0.16,-0.18c0,0.75 0.02,1.67 0.05,2.2c0.06,1.16 0.17,2.46 0.25,3.15c0.08,0.71 0.18,1.44 0.28,2.17c0.1,0.74 0.21,1.48 0.39,2.95c0.17,1.4 0.22,2.06 0.27,2.7c0.09,1.2 0.11,1.77 0.15,2.32c0.07,1.04 0.25,2.48 0.35,2.93c0.18,0.86 0.36,1.67 0.97,2.91c0.35,0.72 0.84,1.73 1.58,1.57c0.75,-0.16 1.21,-1.2 1.75,-1.75c0.95,-0.95 1.29,-1.29 2.01,-2.02c0.38,-0.38 1.16,-1.19 1.55,-1.62c0.4,-0.44 1.62,-1.84 2.02,-2.33c0.41,-0.5 0.82,-1.01 1.62,-2.06c0.41,-0.53 0.81,-1.07 1.62,-2.15c0.41,-0.54 0.81,-1.08 1.61,-2.16c0.39,-0.54 0.78,-1.08 1.15,-1.62c1.09,-1.61 1.4,-2.16 1.72,-2.7c0.31,-0.53 0.9,-1.57 1.18,-2.07c0.55,-0.95 1.08,-1.82 1.63,-2.57c0.5,-0.66 0.65,-1.76 1.84,-2.07c0.45,-0.11 0.72,1.21 0.9,2.03c0.1,0.46 0.31,1.45 0.39,1.97c0.25,1.61 0.28,2.15 0.35,3.24c0.04,0.54 0.1,1.62 0.15,2.16c0.16,1.62 0.26,2.16 0.46,3.23c0.1,0.53 0.31,1.56 0.39,2.06c0.24,1.43 0.31,2.32 0.38,3.11c0.07,0.69 0.32,2 1.08,2.13c0.99,0.17 1.62,-0.42 2.35,-1.19c0.67,-0.7 0.98,-1.15 1.32,-1.62c0.73,-0.98 1.09,-1.51 1.77,-2.59c0.34,-0.54 0.97,-1.63 1.27,-2.18c0.31,-0.55 0.91,-1.69 1.23,-2.26c0.65,-1.19 1,-1.81 1.35,-2.43c0.36,-0.63 0.73,-1.27 1.1,-1.91c0.37,-0.64 1.11,-1.91 1.8,-3.15c0.33,-0.6 0.65,-1.19 0.95,-1.76c0.57,-1.08 0.83,-1.6 1.32,-2.56c0.43,-0.86 0.81,-1.62 1.28,-2.55c0.34,-0.69 0.7,-1.07 0.81,-0.28c0.11,0.85 0.31,1.6 0.5,2.5c0.1,0.51 0.31,1.62 0.39,2.22c0.18,1.29 0.23,1.98 0.27,2.69c0.09,1.46 0.11,2.21 0.15,2.95c0.04,0.74 0.06,1.46 0.19,2.86c0.06,0.66 0.25,1.91 0.36,2.5c0.11,0.57 0.36,1.65 0.49,2.15c0.39,1.44 0.66,2.32 0.92,3.09c0.21,0.64 0.73,1.27 0.93,0.62c0.36,-1.14 0.54,-1.62 0.95,-2.7c0.23,-0.59 0.47,-1.21 0.73,-1.86c0.26,-0.66 0.79,-2.01 1.34,-3.35c0.28,-0.68 0.57,-1.36 0.89,-2.03c0.32,-0.68 0.67,-1.36 1.07,-2.03c0.83,-1.37 1.35,-2.03 1.89,-2.7c0.54,-0.68 1.12,-1.34 1.71,-2c0.59,-0.66 1.19,-1.3 1.77,-1.94c1.13,-1.24 1.66,-1.84 2.15,-2.43c0.48,-0.56 0.92,-1.1 1.34,-1.6c0.39,-0.47 0.69,-0.97 1.69,-1.94c0.65,-0.64 1.74,-0.9 1.8,-0.32c0.09,0.92 0,1.84 0,2.38c0,1.21 0,1.88 0,2.57c0,1.45 0,2.2 0,2.96c0,0.77 0,1.55 0,2.35c0,0.8 0,1.6 0,2.41c0,1.62 0,2.43 0,3.24c0,0.8 0,1.6 0,2.38c0,0.77 0,1.52 0,3.66c0,0.66 0,1.3 0.01,1.91c0.02,1.14 0.01,1.67 0.11,2.64c0.14,1.26 0.31,1.98 0.66,2.81c0.45,1.06 1.03,0.53 1.54,-0.25c0.45,-0.68 0.69,-1.07 1.2,-1.91c0.55,-0.91 1.08,-1.89 1.35,-2.38c0.56,-1.01 0.84,-1.52 1.15,-2.02c0.93,-1.49 1.29,-1.95 2.02,-2.83c0.36,-0.43 0.73,-0.85 1.48,-1.62c1.05,-1.09 1.38,-1.42 2.01,-2.01c0.77,-0.72 1.78,-1.1 1.9,-0.42c0.11,0.64 -0.14,2.03 -0.21,2.59c-0.08,0.61 -0.28,1.94 -0.38,2.64c-0.1,0.71 -0.2,1.43 -0.29,2.15c-0.17,1.39 -0.23,2.06 -0.31,3.3c-0.03,0.58 -0.07,1.66 -0.07,2.16c-0.01,1.34 -0.01,2.09 -0.01,3.03c0,1.01 0.35,0.89 0.9,-0.03c0.26,-0.43 0.86,-1.48 1.19,-2.08c0.35,-0.65 0.71,-1.33 1.05,-2.07c0.72,-1.55 1.03,-2.38 1.35,-3.23c0.32,-0.86 0.62,-1.73 0.92,-2.61c0.3,-0.88 0.6,-1.75 0.92,-2.61c0.63,-1.68 0.99,-2.47 1.35,-3.23c0.35,-0.74 0.71,-1.44 1.08,-2.1c0.34,-0.62 0.68,-1.2 1.02,-1.73c0.58,-0.92 0.79,-1.34 1.28,-1.89c0.55,-0.6 1.04,0.26 1.08,0.92c0.04,0.82 0.03,1.29 0.03,2.86c0,0.58 -0.01,1.78 -0.03,2.4c-0.02,0.63 -0.01,1.26 -0.2,3.13c-0.06,0.6 -0.14,1.19 -0.36,2.31c-0.11,0.54 -0.33,1.55 -0.76,2.87c-0.25,0.76 -0.08,2.1 -0.97,2.15c-0.56,0.03 -0.27,-1.16 0,-2.24l0.29,-0.78l0.29,-0.72" fill="none" fill-opacity="null" id="svg_17" stroke="#ffffff" stroke-dasharray="null" stroke-linecap="round" stroke-linejoin="round" stroke-opacity="null" stroke-width="40" transform="matrix(1, 0, 0, 1, -5.40541, 9.45946)"/>
 </g>
</svg>