<?xml version="1.0"?>
<svg viewBox='-40 -40 480 480' xmlns="http://www.w3.org/2000/svg" xmlns:svg="http://www.w3.org/2000/svg">
 <!-- Created with SVG-edit - https://github.com/SVG-Edit/svgedit-->

 <g class="layer" display="inline">
  <title>Layer 1</title>
  <path d="m55.22,49.25c2.47,0 3.03,0 4.36,0c0.77,0 1.6,0 2.51,0c0.97,0 3.08,0 4.23,0c1.21,0 2.48,0 3.82,0.01c1.4,0.01 2.87,0.02 4.41,0.03c1.61,0.02 5.04,0.08 6.87,0.12c1.9,0.04 3.86,0.1 5.88,0.15c2.07,0.06 4.2,0.11 6.36,0.17c2.2,0.05 6.7,0.14 8.99,0.17c2.31,0.03 4.65,0.05 7.01,0.05c2.39,0 4.81,-0.01 7.27,-0.05c2.49,-0.03 7.56,-0.15 10.15,-0.24c2.62,-0.09 5.27,-0.19 7.94,-0.3c2.68,-0.11 5.37,-0.23 8.06,-0.33c2.69,-0.11 8.02,-0.28 10.66,-0.35c2.61,-0.06 5.2,-0.1 7.75,-0.13c2.52,-0.03 5,-0.04 7.44,-0.05c2.4,-0.01 7.05,-0.01 9.3,-0.01c2.2,0 4.36,0 6.48,0c2.08,0 4.12,0 6.14,0c1.99,0 5.9,0 7.84,0c1.92,0 3.83,0 5.73,0.01c1.9,0.01 3.79,0.02 5.68,0.03c1.89,0.02 5.69,0.08 7.59,0.12c1.91,0.04 3.82,0.1 5.73,0.15c1.91,0.05 3.8,0.11 5.69,0.17c1.87,0.05 5.57,0.14 7.39,0.17c1.79,0.03 3.56,0.05 5.31,0.06c1.72,0.01 3.41,0 5.08,-0.01c1.64,-0.01 4.83,-0.07 6.38,-0.12c1.52,-0.04 3.02,-0.1 4.48,-0.18c1.43,-0.07 2.84,-0.16 4.21,-0.27c1.34,-0.11 3.94,-0.38 5.19,-0.54c1.23,-0.16 2.42,-0.34 3.59,-0.53c1.14,-0.18 2.26,-0.37 3.35,-0.56c1.07,-0.18 3.13,-0.51 4.12,-0.64c0.97,-0.13 1.93,-0.25 2.86,-0.35c0.91,-0.1 1.81,-0.19 2.69,-0.27c0.86,-0.08 2.53,-0.23 3.35,-0.31c0.8,-0.07 1.59,-0.15 2.36,-0.22c0.76,-0.07 1.51,-0.15 2.25,-0.22c0.73,-0.07 2.16,-0.22 2.87,-0.3c0.7,-0.07 1.39,-0.15 2.07,-0.22c0.68,-0.07 1.34,-0.13 2,-0.19c0.65,-0.06 1.94,-0.14 2.57,-0.18c0.62,-0.03 1.24,-0.05 1.84,-0.07c0.59,-0.02 1.18,-0.04 1.75,-0.06c0.56,-0.02 1.63,-0.08 2.15,-0.13c0.5,-0.04 0.99,-0.1 1.47,-0.15c0.47,-0.05 0.93,-0.11 1.39,-0.17c0.45,-0.05 1.35,-0.14 1.8,-0.17c0.45,-0.03 0.89,-0.05 1.33,-0.06c0.43,-0.01 0.86,-0.02 1.27,-0.02c0.41,0 1.18,0 1.55,0c0.35,0 0.69,0 1.02,0c0.32,0 0.63,0 0.94,0c0.3,0 0.9,0 1.2,0c0.3,0 0.6,0 0.9,0c0.3,0 0.6,0 0.9,0c0.3,0 0.9,0 1.19,0c0.3,0 0.59,0 0.89,0c0.29,0 0.58,0 0.86,0c0.28,0 0.81,0 1.07,0c0.25,0 0.49,0 0.72,0c0.22,0 0.43,0 0.63,0c0.18,0 0.51,0 0.65,0c0.13,0 0.24,0 0.34,0c0.09,0 0.17,0 0.24,0c0.06,0 0.15,0 0.18,0c0.03,0 0.05,0 0.06,0c0.01,0 0.02,0 0.02,0c0,0 0,0 0,0c0,0 0.01,0 0.02,0.01c0.02,0.01 0.04,0.02 0.07,0.03c0.04,0.02 0.16,0.08 0.25,0.12c0.1,0.05 0.21,0.1 0.33,0.16c0.13,0.06 0.28,0.13 0.44,0.2c0.17,0.07 0.52,0.22 0.71,0.3c0.2,0.08 0.4,0.15 0.61,0.24c0.21,0.09 0.43,0.18 0.65,0.29c0.22,0.11 0.67,0.38 0.89,0.54c0.23,0.16 0.45,0.34 0.66,0.53c0.22,0.18 0.43,0.37 0.64,0.56c0.2,0.18 0.59,0.5 0.77,0.64c0.17,0.13 0.35,0.25 0.51,0.36c0.16,0.11 0.32,0.21 0.47,0.31c0.15,0.1 0.45,0.31 0.6,0.43c0.15,0.12 0.3,0.25 0.46,0.38c0.16,0.14 0.32,0.28 0.48,0.42c0.17,0.15 0.53,0.45 0.72,0.59c0.2,0.15 0.4,0.3 0.61,0.44c0.21,0.14 0.43,0.28 0.65,0.41c0.22,0.13 0.67,0.37 0.89,0.47c0.22,0.1 0.45,0.2 0.67,0.3c0.22,0.09 0.45,0.19 0.67,0.28c0.22,0.1 0.67,0.31 0.9,0.42c0.22,0.12 0.44,0.24 0.65,0.37c0.2,0.12 0.39,0.24 0.57,0.35c0.16,0.1 0.43,0.28 0.53,0.35c0.08,0.05 0.15,0.1 0.2,0.13c0.04,0.02 0.08,0.04 0.11,0.05c0.03,0.01 0.09,0.01 0.13,0.01c0.05,0 0.1,0 0.15,0.02c0.06,0.01 0.11,0.03 0.17,0.07c0.05,0.04 0.14,0.16 0.17,0.25c0.03,0.09 0.05,0.2 0.06,0.31c0.01,0.12 0.02,0.24 0.02,0.37c0,0.12 0,0.36 0,0.47c0,0.1 0,0.2 0,0.29c0,0.09 -0.02,0.62 0,1.47c0.02,0.76 0.51,1.58 0.7,2.48c0.16,0.75 0.04,1.72 0.04,2.61c0,1.01 0,1.85 0,2.42c0,1.19 0,2.08 0,2.69c0,0.94 0,1.94 0,3c0,0.73 0,1.47 0,2.59c0,0.75 0,1.49 0,2.61c0,1.12 0,1.87 0,2.61c0,0.75 0,1.87 0,2.61c0,0.75 0,1.91 0,3.11c0,0.41 0,1.26 -0.02,2.11c-0.02,0.86 -0.1,2.12 -0.2,2.92c-0.1,0.79 -0.23,1.57 -0.32,2.36c-0.14,1.22 -0.18,2.08 -0.2,2.98c-0.01,0.47 -0.02,1.47 -0.02,2.55c0,1.16 0,1.77 0.01,2.4c0.01,0.65 0.03,1.98 0.06,2.66c0.05,1.4 0.1,2.11 0.15,2.83c0.05,0.72 0.11,1.45 0.18,2.18c0.07,0.73 0.21,2.18 0.36,3.61c0.07,0.71 0.15,1.4 0.22,2.1c0.07,0.69 0.15,1.38 0.3,2.77c0.07,0.69 0.22,2.1 0.3,2.81c0.07,0.72 0.15,1.44 0.22,2.16c0.07,0.72 0.14,1.44 0.24,2.85c0.1,1.37 0.13,2.03 0.15,2.69c0.05,1.28 0.06,1.92 0.08,2.55c0.02,0.64 0.03,1.28 0.15,3.28c0.04,0.69 0.1,1.4 0.15,2.11c0.06,0.72 0.11,1.45 0.17,2.19c0.05,0.74 0.15,2.23 0.2,3.72c0.03,0.75 0.04,1.49 0.05,2.24c0.01,0.75 0.01,1.49 0.01,2.24c0,1.49 0,2.24 0,2.99c0,0.75 0,1.49 0,2.24c0,0.75 0,2.24 0,3.73c0,0.75 0,1.49 0,2.24c0,0.75 0,1.5 0,2.26c0,0.76 0,1.53 0,3.08c0,0.79 0,1.58 0,2.38c0,0.81 -0.01,1.61 -0.02,2.43c-0.01,0.82 -0.03,1.64 -0.1,3.28c-0.04,0.82 -0.09,1.64 -0.14,2.46c-0.05,0.82 -0.11,1.64 -0.17,2.46c-0.05,0.82 -0.12,1.64 -0.19,3.28c-0.04,0.82 -0.06,1.64 -0.09,2.46c-0.02,0.82 -0.04,1.64 -0.06,2.46c-0.02,0.82 -0.03,1.64 -0.11,3.28c-0.04,0.82 -0.09,1.64 -0.15,2.46c-0.06,0.82 -0.13,1.63 -0.21,2.44c-0.08,0.81 -0.17,1.61 -0.39,3.19c-0.11,0.78 -0.23,1.55 -0.36,2.32c-0.13,0.76 -0.26,1.52 -0.39,2.27c-0.13,0.75 -0.26,1.5 -0.49,2.99c-0.11,0.75 -0.21,1.49 -0.31,2.24c-0.09,0.75 -0.18,1.49 -0.26,2.24c-0.08,0.75 -0.16,1.49 -0.31,2.99c-0.07,0.75 -0.15,1.49 -0.22,2.24c-0.15,1.49 -0.22,2.24 -0.3,2.99c-0.07,0.75 -0.22,2.24 -0.3,2.98c-0.07,0.75 -0.15,1.49 -0.22,2.23c-0.07,0.74 -0.13,1.47 -0.19,2.2c-0.06,0.73 -0.18,2.86 -0.2,3.56c-0.02,0.69 -0.04,1.37 -0.05,2.03c-0.02,1.3 -0.02,1.93 -0.02,3.16c0,1.17 0,1.73 0,2.28c0,1.08 0,1.61 0,3.19c0,1.04 0,1.56 -0.02,2.58c-0.01,0.5 -0.02,1.47 -0.15,2.83c-0.08,0.84 -0.22,1.64 -0.36,2.41c-0.21,1.13 -0.37,1.87 -0.51,2.62c-0.14,0.75 -0.27,1.49 -0.37,2.61c-0.06,0.75 -0.08,1.51 -0.09,2.68c-0.01,0.81 0,1.64 0,2.49c0,0.86 0,1.71 0,2.95c0,0.79 0,1.57 0,2.33c0,1.12 0,2.24 0,2.96c0,0.69 0,1.94 0,2.74c0,0.72 0,1.84 0,2.52c0,1.12 0,1.79 0,2.64c0,1.12 0.12,1.82 0.48,2.73c0.32,0.8 0.26,1.72 0.26,2.62c0,0.9 -0.03,1.77 0.26,2.63c0.25,0.73 0.46,1.67 0.48,2.48c0.02,0.94 0,1.84 0,2.72c0,0.97 -0.33,1.68 -0.74,2.48c-0.41,0.81 -0.45,1.75 -0.97,2.43c-0.57,0.75 -1.48,0.84 -2.11,1.06c-1.11,0.39 -1.8,0.58 -2.46,0.88c-1.14,0.52 -1.79,0.99 -2.69,1.58c-0.45,0.3 -1.13,0.76 -1.85,1.19c-1.03,0.62 -1.6,0.89 -2.43,1.34c-1.07,0.59 -1.55,0.92 -2.32,1.32c-1.08,0.55 -1.72,0.71 -2.37,0.9c-0.97,0.28 -2.1,0.68 -2.73,1.08c-0.57,0.37 -1.46,1.02 -2.29,1.29c-0.95,0.31 -1.8,0.29 -2.59,0.6c-0.83,0.33 -1.65,0.48 -2.57,0.48c-0.87,0 -1.85,0.01 -2.67,0c-0.61,-0.01 -1.63,-0.05 -2.83,-0.16c-0.44,-0.04 -1.35,-0.15 -2.28,-0.29c-0.91,-0.14 -1.77,-0.29 -2.92,-0.51c-0.71,-0.14 -1.43,-0.29 -2.58,-0.4c-0.86,-0.08 -1.77,-0.1 -2.24,-0.11c-0.93,-0.02 -2.24,-0.02 -3.02,-0.02c-0.71,0 -1.67,0 -2.58,0c-0.89,0 -1.76,0 -2.86,0c-0.75,0 -1.46,0 -2.59,0c-0.91,0 -1.63,0.01 -2.68,0c-0.86,-0.01 -1.48,-0.01 -2.79,-0.16c-0.7,-0.08 -1.42,-0.22 -2.15,-0.32c-1.11,-0.15 -1.86,-0.23 -3,-0.23c-0.77,0 -1.98,0.09 -2.81,0.18c-0.42,0.05 -1.28,0.17 -2.14,0.27c-1.26,0.15 -2.06,0.2 -2.83,0.24c-0.73,0.04 -2.04,0.12 -2.87,0.28c-0.75,0.15 -1.65,0.37 -2.54,0.46c-0.84,0.09 -1.74,0.34 -2.61,0.55c-0.94,0.23 -1.62,0.2 -2.6,0.34c-0.82,0.12 -1.68,0.33 -2.86,0.62c-0.6,0.15 -1.47,0.35 -2.26,0.6c-0.9,0.28 -1.75,0.68 -2.66,0.86c-0.74,0.14 -1.76,0.45 -2.62,0.72c-0.82,0.26 -1.31,0.74 -2.03,1.43c-0.56,0.53 -1.32,1.06 -2.13,1.54c-0.75,0.45 -1.37,0.85 -2.03,1.28c-0.9,0.59 -1.57,1.01 -2.56,1.79c-0.55,0.43 -1.19,1.06 -1.93,1.64c-0.6,0.47 -1.27,0.92 -2.15,1.66c-0.69,0.58 -1.1,1.03 -2.01,1.8c-0.66,0.55 -1.35,1.03 -1.79,1.38c-0.91,0.73 -1.56,1.36 -2.01,1.76c-0.88,0.78 -1.58,1.25 -2.15,1.75c-0.82,0.71 -1.18,1.38 -1.87,2.24c-0.51,0.65 -1.14,1.31 -1.58,1.91c-0.46,0.63 -1.04,1.53 -1.5,2.2c-0.46,0.68 -1.16,1.57 -1.76,2.24c-0.42,0.46 -1.09,1.17 -1.75,1.95c-0.46,0.54 -0.89,1.11 -1.57,1.94c-0.66,0.8 -1.33,1.52 -1.74,1.97c-0.71,0.8 -1.21,1.49 -1.7,2.42c-0.31,0.6 -0.76,1.61 -1.04,2.41c-0.23,0.65 -0.52,1.54 -0.82,2.44c-0.22,0.67 -0.61,1.78 -0.79,2.44c-0.27,0.97 -0.32,1.78 -0.33,2.76c-0.01,0.94 -0.08,1.68 -0.53,2.61c-0.32,0.68 -0.86,1.64 -1.14,2.46c-0.19,0.56 -0.41,1.45 -0.64,2.35c-0.22,0.88 -0.42,1.72 -0.75,2.65c-0.32,0.9 -0.45,1.74 -0.69,2.64c-0.21,0.79 -1,1.39 -1.63,2.01c-0.67,0.67 -0.72,1.86 -1.41,2.03c-0.78,0.18 -0.97,-1.33 -1.55,-2.3c-0.35,-0.59 -0.75,-1.22 -1.52,-2.17c-0.43,-0.53 -1.07,-1.18 -1.64,-1.95c-0.45,-0.61 -0.86,-1.27 -1.28,-2.18c-0.41,-0.88 -0.77,-1.8 -1.15,-2.46c-0.38,-0.68 -0.88,-1.57 -1.29,-2.46c-0.31,-0.67 -0.85,-1.58 -1.4,-2.24c-0.38,-0.46 -1.19,-1.33 -1.7,-2.01c-0.5,-0.66 -1.09,-1.57 -1.53,-2.24c-0.43,-0.65 -0.93,-1.44 -1.33,-2.15c-0.38,-0.68 -0.95,-1.63 -1.37,-2.27c-0.58,-0.89 -1.05,-1.55 -1.46,-2.23c-0.52,-0.88 -0.79,-1.58 -1.19,-2.46c-0.4,-0.9 -0.8,-1.56 -1.19,-2.2c-0.58,-0.95 -0.91,-1.63 -1.59,-2.51c-0.49,-0.62 -1.13,-1.34 -1.5,-1.96c-0.51,-0.85 -1,-1.64 -1.38,-2.26c-0.58,-0.94 -0.9,-1.59 -1.46,-2.39c-0.5,-0.71 -0.96,-1.47 -1.42,-2.35c-0.37,-0.71 -0.94,-1.44 -1.42,-2.18c-0.41,-0.64 -0.78,-1.57 -1.19,-2.25c-0.48,-0.79 -1.24,-1.43 -1.72,-2.11c-0.53,-0.75 -0.97,-1.53 -1.51,-2.11c-0.71,-0.77 -1.33,-1.34 -1.78,-1.79c-0.75,-0.75 -1.35,-1.34 -2.09,-2.09c-0.6,-0.61 -1.06,-1.09 -1.64,-1.85c-0.59,-0.77 -1.12,-1.68 -1.66,-2.16c-0.71,-0.63 -1.37,-0.88 -2.28,-1.42c-0.64,-0.38 -1.33,-0.81 -2.39,-1.22c-0.85,-0.32 -1.48,-0.46 -2.45,-0.78c-1.04,-0.35 -1.74,-0.62 -2.45,-0.84c-1.03,-0.31 -2.01,-0.46 -2.64,-0.5c-0.91,-0.05 -1.81,-0.03 -2.73,-0.03c-0.65,0 -2.14,0 -2.56,0c-0.9,0 -1.86,0 -2.36,0c-1.02,0 -2.07,0 -3.11,0c-0.52,0 -1.58,0 -2.12,0c-1.08,0 -2.19,0 -3.32,0c-0.58,0 -1.74,0 -2.33,0c-0.59,0 -2.38,0 -2.98,0c-0.6,0 -1.78,0.01 -2.36,0.02c-0.57,0.01 -1.7,0.03 -2.77,0.11c-1.02,0.07 -1.98,0.2 -2.44,0.26c-0.89,0.13 -2.16,0.35 -2.97,0.51c-0.78,0.15 -1.52,0.29 -2.24,0.45c-1.35,0.29 -1.98,0.45 -2.9,0.67c-0.9,0.22 -1.79,0.44 -2.66,0.67c-1.1,0.29 -1.85,0.54 -2.58,0.72c-0.99,0.24 -1.81,0.27 -2.62,0.34c-0.99,0.09 -1.78,0.34 -2.5,0.52c-0.94,0.23 -1.81,0.2 -2.92,0.21c-0.67,0.01 -1.79,0.11 -2.46,0.26c-0.9,0.2 -1.79,0.42 -2.69,0.47c-0.67,0.04 -1.79,0.02 -2.46,0.02c-1.12,0 -2.03,0 -2.75,0c-1.04,0 -1.88,-0.02 -2.71,0.06c-1.05,0.11 -1.77,0.32 -2.45,0.53c-1.13,0.36 -1.81,0.62 -2.81,0.77c-0.8,0.12 -1.62,0.12 -2.61,0.12c-0.8,0.01 -1.87,0.1 -2.64,0.32c-0.98,0.28 -1.74,0.43 -2.58,0.43c-1,0 -1.76,0 -2.81,0c-0.8,0 -1.8,0 -2.49,0c-1.07,0 -1.82,0 -2.71,0c-0.83,0 -1.87,0.32 -2.73,-0.05c-0.79,-0.34 -1.07,-1.03 -1.93,-1.59c-0.73,-0.48 -1.56,-0.85 -2.47,-1.49c-0.59,-0.41 -1.22,-0.99 -1.97,-1.53c-0.68,-0.48 -1.29,-1.22 -1.92,-2.05c-0.47,-0.62 -1.08,-1.19 -1.67,-1.79c-0.6,-0.62 -1.35,-1.5 -1.78,-2.1c-0.42,-0.57 -1.12,-1.44 -1.72,-2.15c-0.48,-0.57 -0.58,-1.46 -0.88,-2.46c-0.19,-0.62 -0.75,-1.47 -1.01,-2.24c-0.3,-0.88 -0.27,-1.72 -0.54,-2.65c-0.25,-0.87 -0.71,-1.75 -1.09,-2.42c-0.38,-0.67 -0.9,-1.55 -1.22,-2.45c-0.22,-0.61 -0.33,-1.72 -0.53,-2.75c-0.11,-0.6 -0.4,-1.45 -0.7,-2.34c-0.3,-0.88 -0.66,-1.9 -0.97,-2.59c-0.29,-0.63 -0.83,-1.49 -1.07,-2.41c-0.23,-0.88 -0.37,-1.78 -0.61,-2.49c-0.31,-0.94 -0.22,-1.88 -0.39,-2.85c-0.11,-0.6 -0.41,-1.44 -0.56,-2.56c-0.09,-0.7 -0.11,-1.47 -0.27,-2.66c-0.09,-0.67 -0.25,-1.35 -0.41,-2.73c-0.08,-0.66 -0.11,-1.6 -0.16,-2.21c-0.1,-1.2 -0.23,-1.79 -0.39,-2.69c-0.21,-1.19 -0.27,-1.79 -0.3,-2.7c-0.03,-0.94 -0.02,-1.94 -0.02,-2.64c0,-0.72 0,-1.82 0,-2.94c0,-0.75 0,-1.49 -0.04,-2.24c-0.06,-1.12 -0.16,-1.87 -0.28,-2.62c-0.19,-1.16 -0.28,-1.55 -0.5,-2.77c-0.15,-0.84 -0.3,-1.7 -0.41,-2.56c-0.16,-1.26 -0.21,-2.06 -0.24,-2.85c-0.03,-0.76 -0.03,-1.52 -0.03,-2.64c0,-0.74 0,-1.84 0,-2.55c0,-1.02 0.02,-1.97 -0.04,-2.85c-0.06,-0.82 -0.3,-1.81 -0.44,-2.51c-0.23,-1.12 -0.26,-1.79 -0.26,-2.91c0,-0.67 0,-1.57 0,-2.46c0,-0.9 0,-2.01 0,-2.69c0,-0.93 0,-1.95 0,-2.78c0,-0.56 0,-1.65 0,-2.64c0,-0.7 0,-1.82 0,-2.51c0,-0.72 0,-1.77 0,-2.64c0,-0.98 0,-2.08 0,-2.88c0.01,-0.87 0.01,-1.32 0.06,-2.28c0.05,-1.02 0.15,-2.09 0.2,-2.64c0.11,-1.13 0.17,-1.7 0.27,-2.84c0.1,-1.13 0.13,-1.69 0.17,-2.78c0.02,-0.53 0.05,-1.58 0.08,-2.09c0.07,-1.49 0.17,-2.45 0.23,-2.92c0.11,-0.95 0.26,-1.91 0.33,-2.4c0.23,-1.55 0.3,-2.09 0.45,-3.22c0.08,-0.58 0.15,-1.17 0.3,-2.39c0.15,-1.25 0.22,-1.89 0.3,-2.54c0.15,-1.31 0.24,-1.97 0.32,-2.63c0.09,-0.67 0.17,-1.34 0.51,-3.35c0.12,-0.67 0.25,-1.34 0.38,-2.01c0.13,-0.67 0.27,-1.34 0.52,-2.69c0.25,-1.34 0.35,-2.01 0.45,-2.69c0.1,-0.67 0.19,-1.34 0.35,-2.66c0.08,-0.66 0.15,-1.31 0.31,-2.59c0.15,-1.25 0.22,-1.87 0.3,-2.47c0.15,-1.18 0.22,-1.75 0.3,-2.3c0.22,-1.59 0.37,-2.58 0.45,-3.05c0.15,-0.91 0.29,-1.79 0.52,-3.03c0.15,-0.79 0.3,-1.57 0.45,-2.33c0.22,-1.12 0.37,-1.87 0.52,-2.61c0.15,-0.73 0.45,-2.12 0.6,-2.78c0.15,-0.64 0.38,-1.59 0.6,-2.58c0.23,-1.03 0.37,-1.72 0.48,-2.41c0.2,-1.24 0.25,-2.05 0.26,-2.8c0.02,-1.02 0,-1.85 0,-2.69c0,-1.07 -0.03,-1.82 0.09,-2.58c0.18,-1.16 0.44,-1.79 0.68,-2.47c0.24,-0.7 0.73,-2.05 0.91,-2.71c0.26,-0.95 0.38,-1.59 0.48,-2.59c0.1,-1.05 0.11,-1.79 0.22,-2.52c0.16,-1.12 0.4,-1.86 0.62,-2.6c0.22,-0.72 0.58,-2.09 0.66,-2.73c0.12,-0.93 0.1,-1.54 0.29,-2.73c0.15,-0.9 0.31,-1.49 0.61,-2.69c0.15,-0.6 0.37,-1.49 0.67,-2.69c0.15,-0.6 0.38,-1.52 0.52,-2.17c0.23,-1.06 0.38,-1.83 0.51,-2.65c0.14,-0.86 0.26,-1.74 0.37,-3.08c0.03,-0.45 0.07,-1.34 0.08,-2.24c0.01,-0.9 0,-1.79 0.01,-2.69c0,-0.89 0.01,-1.77 0.06,-2.62c0.08,-1.24 0.2,-2.03 0.31,-2.79c0.11,-0.73 0.26,-1.77 0.33,-2.75c0.05,-0.62 0.07,-1.54 0.25,-2.73c0.09,-0.6 0.31,-1.49 0.44,-2.69c0.07,-0.59 0.06,-1.47 0.21,-2.56c0.11,-0.76 0.35,-1.48 0.5,-2.49c0.12,-0.81 0.14,-1.65 0,-2.74c-0.1,-0.76 -0.36,-1.69 -0.53,-2.59l-0.08,-0.86l-0.02,-1.04l0,-0.85" fill="none" fill-opacity="null" id="svg_15" stroke="#ffffff" stroke-dasharray="null" stroke-linecap="round" stroke-linejoin="null" stroke-opacity="null" stroke-width="35"/>
  <path d="m117.91,101.49c3.29,-0.17 4.24,-0.26 4.76,-0.32c1.1,-0.11 1.67,-0.18 3.45,-0.3c0.6,-0.04 1.2,-0.07 2.42,-0.1c0.63,-0.02 1.27,-0.02 1.93,-0.02c0.68,0 2.12,0 2.88,0c0.79,0 1.6,0 2.43,0.01c0.85,0.01 1.72,0.02 2.59,0.03c0.89,0.02 2.67,0.08 3.57,0.12c0.89,0.04 1.79,0.1 2.68,0.15c0.89,0.05 1.77,0.11 2.65,0.17c0.87,0.05 2.6,0.14 3.46,0.17c0.85,0.03 1.69,0.05 2.52,0.06c0.82,0.01 1.64,0.02 2.45,0.02c0.8,0 2.38,0 3.16,0c0.77,0 1.53,0 2.28,0c0.73,0 1.45,0 2.16,0c0.69,0 2,0 2.62,0c0.6,0 1.18,0 2.25,0c0.97,0 2.22,0 2.91,0c0.85,0 1.92,0 2.6,0l1,0l0.91,0l0.88,0" fill="none" fill-opacity="null" id="svg_17" stroke="#ffffff" stroke-dasharray="null" stroke-linecap="round" stroke-linejoin="null" stroke-opacity="null" stroke-width="35" transform="matrix(1, 0, 0, 1, 14.1791, 0.746269)"/>
  <path d="m105.22,157.46c1.76,0.33 2.32,0.47 3.05,0.6c1.48,0.26 2.11,0.3 2.82,0.37c0.8,0.08 1.7,0.14 2.73,0.2c1.15,0.06 2.43,0.13 5.46,0.2c1.77,0.04 3.71,0.06 5.83,0.07c2.31,0 4.82,-0.01 7.52,-0.06c2.91,-0.05 6.02,-0.11 12.89,-0.38c3.76,-0.15 7.69,-0.35 11.75,-0.56c4.13,-0.22 8.28,-0.45 12.39,-0.69c4.04,-0.23 7.94,-0.47 15.16,-0.87c3.22,-0.18 6.18,-0.33 8.89,-0.47c2.49,-0.12 4.79,-0.23 6.9,-0.33c1.96,-0.09 3.78,-0.17 7.09,-0.32c1.53,-0.07 2.99,-0.15 4.39,-0.22c1.34,-0.07 2.62,-0.15 3.86,-0.22c1.19,-0.07 2.35,-0.15 4.56,-0.3c1.07,-0.07 2.12,-0.15 3.14,-0.22c1,-0.07 1.97,-0.15 2.92,-0.22c0.92,-0.07 1.81,-0.15 3.51,-0.3c0.81,-0.07 1.59,-0.15 2.34,-0.22c0.73,-0.07 1.44,-0.15 2.13,-0.22c0.67,-0.07 1.33,-0.15 2.62,-0.3c0.63,-0.07 1.25,-0.15 1.86,-0.22c0.6,-0.07 1.18,-0.14 1.76,-0.2c0.55,-0.06 1.09,-0.12 2.1,-0.2c0.47,-0.04 0.93,-0.06 1.36,-0.08c0.41,-0.02 0.8,-0.03 1.18,-0.03c0.36,-0.01 0.69,-0.01 1.32,-0.01c0.29,0 0.57,0 0.83,0c0.25,0 0.49,0 0.72,0c0.22,0 0.42,0 0.81,0c0.18,0 0.36,0 0.53,0c0.17,0 0.34,0 0.51,0c0.17,0 0.34,0 0.7,0c0.19,0 0.39,0 0.6,0c0.22,0 0.45,0 0.68,0c0.25,0 0.51,0 1.08,0c0.31,0 0.63,0 0.96,0c0.35,0 0.7,0 1.07,0c0.38,0 0.77,0 1.57,0c0.41,0 0.83,0 1.26,0c0.43,0 0.87,0 1.31,0c0.44,0 0.89,0 1.78,0c0.45,0 0.89,0 1.34,0c0.44,0 0.87,-0.01 1.3,-0.02c0.42,-0.01 0.82,-0.02 1.6,-0.1c0.37,-0.03 0.72,-0.08 1.05,-0.14c0.32,-0.05 0.63,-0.11 0.92,-0.17c0.28,-0.05 0.54,-0.11 1.01,-0.19c0.22,-0.04 0.42,-0.06 0.61,-0.08c0.18,-0.02 0.35,-0.03 0.52,-0.03c0.16,-0.01 0.31,-0.01 0.61,-0.01c0.15,0 0.3,0 0.45,0c0.15,0 0.3,0 0.45,0c0.15,0 0.3,0 0.6,0c0.15,0 0.3,0 0.45,0c0.15,0 0.3,0 0.45,0c0.15,0 0.3,0 0.6,0c0.15,0 0.3,0 0.44,0c0.14,0 0.29,0 0.42,0c0.13,0 0.26,0 0.5,0c0.11,0 0.21,0 0.31,0c0.09,0 0.18,0 0.26,0l0.08,0l0.38,0" fill="none" fill-opacity="null" id="svg_18" stroke="#ffffff" stroke-dasharray="null" stroke-linecap="round" stroke-linejoin="null" stroke-opacity="null" stroke-width="35"/>
  <path d="m104.48,220.9c0.17,0.06 1.22,0.22 1.98,0.32c0.93,0.12 1.47,0.17 2.05,0.22c1.31,0.1 2.05,0.12 2.83,0.15c0.83,0.02 1.71,0.04 2.63,0.05c0.96,0.01 1.96,0.01 3,0.01c2.18,0 3.31,0 4.48,0c1.2,0 2.42,0.01 3.69,0.01c1.29,0.01 2.62,0.02 3.99,0.05c2.84,0.05 4.31,0.1 5.81,0.15c1.53,0.05 3.09,0.11 4.66,0.16c1.58,0.06 3.17,0.11 4.76,0.16c3.16,0.09 4.72,0.12 6.26,0.15c1.54,0.02 3.07,0.04 4.59,0.05c1.52,0.01 3.04,0.01 4.55,0.01c3.05,0 4.58,0 6.12,0c1.54,0 3.08,0.01 4.61,0.01c1.53,0.01 3.04,0.02 4.54,0.05c2.95,0.05 4.4,0.1 5.82,0.15c1.41,0.05 2.8,0.11 4.19,0.16c1.38,0.06 2.75,0.11 4.12,0.16c2.75,0.1 4.13,0.12 5.52,0.15c1.39,0.02 2.77,0.04 4.15,0.05c1.37,0.01 2.72,0.01 4.05,0.01c2.59,0 3.85,0 5.07,0c1.2,0 2.38,0 3.54,0c1.14,0 2.26,0 3.37,0c2.18,0 3.26,0 4.33,0c1.05,0 2.08,0 3.1,0c0.98,0 1.94,0 2.86,0c1.73,0 2.53,0 3.28,0c0.72,0 1.39,0 2.04,-0.01c0.61,-0.01 1.19,-0.02 1.73,-0.05c1.02,-0.05 1.49,-0.1 1.94,-0.15c0.43,-0.05 0.84,-0.1 1.23,-0.16c0.37,-0.05 0.73,-0.11 1.07,-0.16c0.63,-0.09 0.92,-0.12 1.2,-0.15c0.26,-0.02 0.51,-0.04 0.75,-0.06c0.23,-0.02 0.45,-0.03 0.65,-0.06c0.39,-0.05 0.57,-0.1 0.75,-0.15c0.17,-0.05 0.33,-0.1 0.48,-0.16c0.15,-0.05 0.28,-0.11 0.41,-0.16c0.24,-0.09 0.35,-0.12 0.45,-0.15c0.09,-0.02 0.18,-0.04 0.26,-0.05c0.07,-0.01 0.13,-0.01 0.19,-0.01c0.09,0 0.12,0 0.15,0c0.02,0 0.04,0 0.06,0l0.02,0l0.02,0l0.02,0" fill="none" fill-opacity="null" id="svg_22" stroke="#ffffff" stroke-dasharray="null" stroke-linecap="round" stroke-linejoin="null" stroke-opacity="null" stroke-width="35"/>
 </g>
</svg>