<?xml version="1.0"?>
<svg width="400" height="400" xmlns="http://www.w3.org/2000/svg" xmlns:svg="http://www.w3.org/2000/svg">
 <!-- Created with SVG-edit - https://github.com/SVG-Edit/svgedit-->

 <g class="layer" display="inline">
  <title>Layer 1</title>
  <path d="m204.47,42.46c-1.52,-0.24 -2.19,-0.4 -3.26,-0.61c-0.93,-0.18 -1.61,-0.3 -2.35,-0.44c-1.23,-0.24 -2.13,-0.43 -2.61,-0.53c-0.99,-0.2 -1.5,-0.31 -3.13,-0.56c-0.56,-0.09 -1.14,-0.17 -2.34,-0.29c-0.63,-0.06 -1.27,-0.12 -1.94,-0.16c-2.14,-0.13 -2.91,-0.14 -3.7,-0.15c-0.81,-0.02 -1.64,-0.02 -2.48,-0.01c-0.85,0.01 -1.7,0.02 -2.56,0.06c-1.69,0.07 -2.53,0.15 -3.35,0.22c-0.82,0.08 -1.65,0.17 -2.47,0.26c-0.84,0.1 -1.68,0.21 -2.55,0.31c-1.79,0.22 -2.73,0.33 -3.69,0.45c-0.99,0.12 -2,0.24 -3.03,0.37c-1.05,0.13 -2.12,0.28 -3.2,0.44c-2.21,0.34 -3.33,0.56 -4.47,0.78c-1.14,0.23 -2.29,0.48 -3.45,0.74c-1.16,0.27 -2.33,0.55 -3.5,0.84c-2.35,0.59 -3.52,0.91 -4.69,1.23c-1.17,0.31 -2.33,0.63 -3.49,0.95c-1.15,0.31 -2.28,0.62 -3.41,0.92c-2.21,0.59 -3.29,0.85 -4.36,1.12c-1.05,0.26 -2.08,0.51 -3.1,0.78c-1.01,0.26 -2,0.52 -2.98,0.8c-1.93,0.56 -2.87,0.89 -3.8,1.23c-0.93,0.34 -1.85,0.7 -2.75,1.08c-0.91,0.38 -1.81,0.77 -2.7,1.18c-1.79,0.82 -2.68,1.25 -3.58,1.67c-0.9,0.43 -1.8,0.87 -2.7,1.32c-0.91,0.45 -1.83,0.9 -2.75,1.37c-1.88,0.94 -2.83,1.42 -3.8,1.9c-0.97,0.49 -1.95,0.98 -2.92,1.47c-0.98,0.5 -1.95,0.99 -2.92,1.5c-1.92,1 -2.86,1.5 -3.8,2.01c-0.92,0.5 -1.84,1.01 -2.73,1.53c-0.89,0.52 -1.77,1.04 -2.63,1.58c-1.71,1.08 -2.53,1.65 -3.35,2.24c-0.82,0.58 -1.62,1.17 -2.41,1.78c-0.79,0.61 -1.57,1.23 -2.33,1.86c-1.53,1.26 -2.27,1.91 -3.02,2.57c-0.74,0.65 -1.47,1.31 -2.18,1.98c-0.71,0.66 -1.41,1.33 -2.08,2c-1.33,1.33 -1.96,2.01 -2.57,2.68c-0.61,0.67 -1.2,1.34 -1.77,2.01c-0.57,0.67 -1.13,1.34 -1.67,2.01c-1.08,1.34 -1.6,2.01 -2.13,2.68c-0.52,0.67 -1.04,1.35 -1.54,2.03c-0.51,0.69 -1.02,1.38 -1.52,2.08c-1.01,1.43 -1.51,2.16 -2.01,2.91c-0.5,0.75 -1,1.51 -1.5,2.27c-0.5,0.77 -0.99,1.54 -1.47,2.32c-0.97,1.56 -1.43,2.34 -1.9,3.13c-0.46,0.78 -0.92,1.57 -1.38,2.37c-0.45,0.8 -0.91,1.6 -1.35,2.42c-0.9,1.65 -1.34,2.5 -1.79,3.35c-0.45,0.86 -0.9,1.74 -1.34,2.62c-0.45,0.89 -0.9,1.79 -1.34,2.7c-0.9,1.83 -1.34,2.76 -1.79,3.68c-0.45,0.93 -0.89,1.87 -1.34,2.8c-0.45,0.94 -0.89,1.87 -1.34,2.8c-0.89,1.85 -1.34,2.77 -1.79,3.69c-0.44,0.91 -0.89,1.81 -1.32,2.72c-0.43,0.9 -0.86,1.79 -1.27,2.69c-0.81,1.78 -1.19,2.68 -1.56,3.58c-0.37,0.89 -0.72,1.78 -1.07,2.67c-0.34,0.88 -0.67,1.77 -0.99,2.65c-0.63,1.74 -0.93,2.6 -1.23,3.47c-0.29,0.86 -0.58,1.71 -0.85,2.57c-0.27,0.86 -0.54,1.72 -0.78,2.6c-0.49,1.76 -0.69,2.67 -0.89,3.58c-0.2,0.92 -0.39,1.86 -0.55,2.81c-0.17,0.96 -0.32,1.94 -0.45,2.94c-0.27,2.03 -0.36,3.08 -0.45,4.13c-0.09,1.07 -0.17,2.16 -0.23,3.27c-0.06,1.12 -0.11,2.25 -0.15,3.39c-0.08,2.32 -0.1,3.5 -0.11,4.69c-0.02,1.19 -0.03,2.39 -0.04,3.59c-0.01,1.2 -0.01,2.4 -0.01,3.59c0,2.37 0,3.53 0,4.69c0,1.15 0.01,2.28 0.02,3.41c0.01,1.12 0.03,2.23 0.07,3.34c0.08,2.19 0.15,3.28 0.22,4.36c0.08,1.08 0.17,2.16 0.27,3.24c0.1,1.08 0.22,2.17 0.35,3.27c0.26,2.22 0.41,3.34 0.56,4.47c0.15,1.14 0.31,2.29 0.47,3.44c0.16,1.15 0.33,2.31 0.49,3.46c0.33,2.3 0.5,3.44 0.67,4.58c0.17,1.13 0.34,2.27 0.51,3.4c0.17,1.13 0.35,2.26 0.54,3.4c0.37,2.28 0.58,3.43 0.78,4.58c0.2,1.16 0.41,2.32 0.62,3.49c0.21,1.18 0.42,2.36 0.62,3.54c0.41,2.39 0.6,3.6 0.78,4.81c0.19,1.22 0.38,2.46 0.57,3.71c0.2,1.27 0.4,2.55 0.62,3.86c0.46,2.69 0.73,4.07 1.01,5.47c0.29,1.43 0.59,2.87 0.92,4.33c0.33,1.47 0.68,2.95 1.04,4.43c0.74,2.97 1.15,4.45 1.56,5.92c0.41,1.47 0.85,2.94 1.3,4.42c0.45,1.48 0.93,2.96 1.43,4.44c1.01,3 1.56,4.51 2.12,6.03c0.56,1.53 1.15,3.07 1.75,4.62c0.6,1.55 1.22,3.11 1.85,4.67c1.26,3.13 1.91,4.69 2.57,6.25c0.66,1.56 1.33,3.12 2.03,4.66c0.7,1.54 1.41,3.08 2.18,4.58c1.53,3.01 2.38,4.47 3.24,5.92c0.86,1.44 1.76,2.86 2.68,4.25c0.92,1.39 1.86,2.75 2.83,4.08c1.92,2.63 2.92,3.89 3.91,5.14c0.98,1.24 1.97,2.45 2.97,3.64c0.99,1.18 1.98,2.35 2.97,3.49c1.96,2.26 2.94,3.37 3.91,4.47c0.97,1.09 1.93,2.17 2.91,3.22c0.97,1.05 1.94,2.09 2.93,3.1c1.97,2.01 3,2.96 4.02,3.91c1.02,0.95 2.06,1.87 3.1,2.78c1.04,0.91 2.08,1.8 3.13,2.68c2.07,1.75 3.11,2.61 4.13,3.47c1.02,0.85 2.04,1.7 3.06,2.54c1.02,0.84 2.04,1.67 3.06,2.49c2.05,1.64 3.09,2.44 4.13,3.24c1.04,0.8 2.09,1.58 3.15,2.35c1.05,0.77 2.11,1.52 3.17,2.25c2.11,1.44 3.18,2.13 4.25,2.79c1.06,0.66 2.14,1.31 3.23,1.93c1.09,0.62 2.2,1.23 3.33,1.8c2.29,1.17 3.48,1.7 4.69,2.23c1.22,0.54 2.45,1.05 3.7,1.54c1.25,0.49 2.51,0.96 3.78,1.39c2.51,0.85 3.77,1.21 5.03,1.57c1.25,0.35 2.49,0.67 3.74,0.97c1.25,0.3 2.51,0.58 3.77,0.85c2.55,0.53 3.84,0.77 5.15,1.01c1.32,0.24 2.67,0.48 4.04,0.72c1.4,0.24 2.83,0.48 4.29,0.72c3.04,0.5 4.63,0.75 6.26,1c1.66,0.26 3.36,0.52 5.1,0.76c1.76,0.25 3.54,0.48 5.35,0.68c3.66,0.41 5.51,0.54 7.37,0.67c1.87,0.13 3.76,0.22 5.67,0.3c1.92,0.08 3.86,0.13 5.82,0.18c3.98,0.08 6,0.1 8.04,0.11c2.05,0.01 4.12,0.01 6.19,-0.03c2.07,-0.04 4.15,-0.09 6.22,-0.21c4.11,-0.23 6.14,-0.44 8.15,-0.67c2,-0.23 3.99,-0.51 5.96,-0.83c1.97,-0.32 3.92,-0.68 5.86,-1.08c3.88,-0.81 5.79,-1.3 7.71,-1.78c1.92,-0.49 3.82,-1.01 5.72,-1.55c1.9,-0.54 3.79,-1.11 5.67,-1.7c3.76,-1.19 5.62,-1.82 7.49,-2.46c1.86,-0.64 3.71,-1.29 5.56,-1.96c1.84,-0.67 3.68,-1.35 5.51,-2.06c3.65,-1.41 5.46,-2.16 7.26,-2.91c1.8,-0.75 3.6,-1.52 5.39,-2.31c1.79,-0.79 3.57,-1.6 5.34,-2.43c3.54,-1.68 5.29,-2.56 7.03,-3.46c1.74,-0.9 3.46,-1.81 5.16,-2.75c1.68,-0.93 3.34,-1.88 4.95,-2.85c3.16,-1.91 4.67,-2.91 6.14,-3.91c1.45,-0.99 2.86,-1.99 4.22,-3.02c1.35,-1.02 2.66,-2.06 3.92,-3.15c2.49,-2.15 3.66,-3.31 4.81,-4.47c1.14,-1.16 2.25,-2.34 3.32,-3.54c1.07,-1.2 2.1,-2.41 3.09,-3.64c1.97,-2.44 2.89,-3.68 3.8,-4.91c0.9,-1.22 1.77,-2.44 2.61,-3.67c0.83,-1.21 1.64,-2.41 2.41,-3.62c1.51,-2.36 2.22,-3.53 2.91,-4.69c0.68,-1.14 1.33,-2.28 1.97,-3.4c0.62,-1.11 1.23,-2.21 1.82,-3.3c1.15,-2.14 1.7,-3.2 2.24,-4.25c0.54,-1.04 1.07,-2.08 1.59,-3.12c0.52,-1.04 1.05,-2.09 1.57,-3.15c1.06,-2.15 1.59,-3.25 2.12,-4.36c0.54,-1.12 1.09,-2.25 1.64,-3.39c0.55,-1.14 1.11,-2.28 1.67,-3.41c1.11,-2.26 1.67,-3.37 2.23,-4.47c0.56,-1.1 1.11,-2.18 1.67,-3.27c0.55,-1.08 1.1,-2.16 1.64,-3.24c1.08,-2.17 1.6,-3.26 2.12,-4.36c0.52,-1.11 1.04,-2.23 1.56,-3.36c0.52,-1.14 1.04,-2.31 1.56,-3.49c1.06,-2.41 1.59,-3.65 2.12,-4.91c0.54,-1.27 1.07,-2.56 1.6,-3.86c0.52,-1.3 1.04,-2.6 1.52,-3.91c0.96,-2.58 1.38,-3.86 1.79,-5.14c0.4,-1.26 0.78,-2.52 1.14,-3.77c0.36,-1.25 0.69,-2.49 1.01,-3.74c0.64,-2.5 0.94,-3.76 1.23,-5.03c0.29,-1.27 0.58,-2.54 0.84,-3.82c0.27,-1.28 0.52,-2.56 0.74,-3.84c0.45,-2.57 0.62,-3.85 0.78,-5.14c0.16,-1.29 0.3,-2.58 0.42,-3.88c0.12,-1.3 0.22,-2.61 0.3,-3.93c0.15,-2.66 0.19,-4.01 0.22,-5.36c0.03,-1.37 0.04,-2.75 0.02,-4.14c-0.02,-1.4 -0.07,-2.82 -0.16,-4.24c-0.19,-2.89 -0.37,-4.34 -0.56,-5.8c-0.19,-1.46 -0.4,-2.92 -0.64,-4.36c-0.23,-1.42 -0.47,-2.82 -0.71,-4.18c-0.46,-2.61 -0.68,-3.84 -0.89,-5.04c-0.21,-1.17 -0.42,-2.32 -0.64,-3.47c-0.23,-1.16 -0.46,-2.34 -0.74,-3.55c-0.59,-2.57 -0.95,-3.94 -1.35,-5.38c-0.41,-1.5 -0.86,-3.06 -1.36,-4.67c-0.51,-1.67 -1.06,-3.39 -1.66,-5.15c-1.25,-3.67 -1.95,-5.55 -2.68,-7.47c-0.73,-1.95 -1.5,-3.92 -2.29,-5.91c-0.79,-2 -1.6,-3.99 -2.41,-5.98c-1.62,-3.95 -2.43,-5.89 -3.24,-7.81c-0.8,-1.89 -1.59,-3.76 -2.39,-5.59c-0.79,-1.8 -1.58,-3.57 -2.39,-5.29c-1.58,-3.34 -2.41,-4.93 -3.24,-6.48c-0.82,-1.52 -1.65,-3.01 -2.5,-4.46c-0.84,-1.43 -1.7,-2.83 -2.58,-4.21c-1.74,-2.72 -2.66,-4.05 -3.58,-5.37c-0.91,-1.32 -1.84,-2.61 -2.79,-3.89c-0.94,-1.28 -1.89,-2.53 -2.86,-3.77c-1.93,-2.45 -2.92,-3.63 -3.91,-4.8c-0.99,-1.17 -2,-2.31 -3.02,-3.44c-1.03,-1.12 -2.07,-2.23 -3.15,-3.31c-2.17,-2.17 -3.31,-3.21 -4.47,-4.25c-1.16,-1.04 -2.34,-2.06 -3.54,-3.07c-1.2,-1.01 -2.42,-2 -3.64,-2.97c-2.44,-1.93 -3.68,-2.87 -4.91,-3.8c-1.22,-0.92 -2.45,-1.83 -3.68,-2.72c-1.22,-0.88 -2.43,-1.75 -3.65,-2.6c-2.4,-1.67 -3.61,-2.46 -4.81,-3.24c-1.19,-0.78 -2.39,-1.53 -3.59,-2.27c-1.2,-0.73 -2.41,-1.45 -3.64,-2.14c-2.47,-1.39 -3.74,-2.04 -5.02,-2.68c-1.28,-0.65 -2.57,-1.27 -3.86,-1.87c-1.28,-0.6 -2.55,-1.17 -3.81,-1.72c-2.45,-1.06 -3.64,-1.55 -4.8,-2.01c-1.13,-0.45 -2.25,-0.89 -3.34,-1.3c-1.07,-0.4 -2.13,-0.78 -3.17,-1.14c-2.03,-0.71 -3.03,-1.03 -4.03,-1.34c-0.98,-0.31 -1.95,-0.61 -2.91,-0.89c-0.95,-0.28 -1.9,-0.54 -2.83,-0.79c-1.85,-0.48 -2.77,-0.69 -3.69,-0.9c-0.92,-0.2 -1.84,-0.4 -2.76,-0.59c-0.93,-0.19 -1.88,-0.37 -2.84,-0.56c-1.97,-0.38 -2.99,-0.58 -4.02,-0.78c-1.06,-0.21 -2.14,-0.42 -3.23,-0.65c-1.11,-0.23 -2.24,-0.46 -3.38,-0.7c-2.32,-0.49 -3.5,-0.75 -4.69,-1c-1.2,-0.26 -2.41,-0.52 -3.64,-0.77c-1.23,-0.25 -2.48,-0.5 -3.74,-0.72c-2.54,-0.44 -3.84,-0.62 -5.14,-0.78c-1.3,-0.17 -2.62,-0.31 -3.93,-0.44c-1.31,-0.13 -2.62,-0.25 -3.93,-0.37c-2.59,-0.23 -3.87,-0.34 -5.14,-0.45c-1.27,-0.11 -2.54,-0.22 -3.81,-0.32c-1.28,-0.1 -2.58,-0.21 -3.89,-0.3c-2.69,-0.19 -4.07,-0.26 -5.47,-0.33c-1.43,-0.07 -2.87,-0.13 -4.32,-0.18c-1.46,-0.05 -2.93,-0.09 -4.4,-0.11c-2.92,-0.04 -4.37,-0.02 -5.8,0c-1.42,0.02 -2.82,0.06 -4.21,0.11c-1.37,0.05 -2.71,0.11 -4.03,0.18c-2.57,0.14 -3.81,0.24 -5.02,0.33c-1.18,0.09 -2.34,0.19 -3.46,0.3c-1.09,0.1 -2.14,0.21 -3.15,0.32c-1.92,0.22 -2.82,0.33 -3.69,0.45c-0.83,0.11 -1.62,0.22 -2.38,0.35c-0.72,0.12 -1.42,0.24 -2.07,0.37c-1.23,0.25 -1.8,0.41 -2.35,0.56c-0.52,0.14 -1.01,0.29 -1.47,0.44c-0.43,0.14 -0.84,0.28 -1.22,0.42c-0.67,0.24 -0.96,0.35 -1.23,0.45c-0.24,0.09 -0.47,0.17 -0.67,0.24l-0.19,0.07l-0.17,0.06l-0.16,0.06" fill="none" fill-opacity="null" id="svg_12" stroke="#ffffff" stroke-dasharray="null" stroke-linecap="round" stroke-linejoin="null" stroke-opacity="null" stroke-width="30" transform="matrix(0.880966, 0, 0, 0.880966, 16.1474, 0.255971)"/>
 </g>
</svg>