<?xml version="1.0"?>
<svg width="400" height="400" xmlns="http://www.w3.org/2000/svg" xmlns:svg="http://www.w3.org/2000/svg">
 <!-- Created with SVG-edit - https://github.com/SVG-Edit/svgedit-->

 <g class="layer" display="inline">
  <title>Layer 1</title>
  <ellipse cx="151.05" cy="149.37" fill="#d6d6d6" id="svg_5" rx="45.19" ry="45.19" stroke="#ffffff" stroke-dasharray="null" stroke-linecap="round" stroke-linejoin="null" stroke-width="15" transform="matrix(1, 0, 0, 1, 29.6089, 35.7542)"/>
  <path d="m231.38,166.53c0.12,0.92 0.31,1.73 0.49,2.58c0.19,0.88 0.35,1.71 0.35,2.55c0,0.96 0.01,1.85 0,2.82c-0.01,0.75 -0.21,1.62 -0.35,2.58c-0.11,0.76 -0.07,1.68 -0.07,2.5c0,1.04 -0.02,1.7 -0.18,2.7c-0.16,1.01 -0.24,1.84 -0.24,2.68c0,0.84 0,1.84 0,2.68c0,0.84 0,1.67 0,2.68c0,0.86 0,1.79 0,2.58c0,0.96 0,1.85 0,2.69c0,0.84 0,1.84 0,2.68c0,1 0,1.67 0,2.68c0,0.8 0,1.78 0,2.75c0,0.91 0.1,1.76 0.24,2.54c0.19,1.01 0.18,1.66 0.18,2.66c0,0.84 0,1.85 0,2.55c0,0.95 0,1.77 0,2.81c0,0.84 0,1.88 0,2.73c0,0.65 0,1.82 0,2.56c0,1.05 0,1.89 0,2.47c0,0.9 0,2.15 0,2.8c-0.01,0.97 -0.06,1.93 -0.14,2.85c-0.06,0.6 -0.18,1.49 -0.24,2.66c-0.04,0.87 -0.03,1.44 -0.04,2.54c0,0.79 0,1.58 0,2.65c0,0.84 0,1.71 0.09,2.88c0.04,0.58 0.17,1.45 0.26,2.57c0.06,0.8 0.06,1.57 0.14,2.58c0.06,0.75 0.23,1.71 0.31,2.77c0.05,0.75 0.04,1.67 0.04,2.46c0,1.04 0,1.87 0,2.71c0,1.05 -0.01,1.67 0,2.72c0,0.83 0.07,1.81 0.21,2.71c0.14,0.85 0.2,1.67 0.21,2.59l0,0.89l0,0.88" fill="none" id="svg_6" stroke="#ffffff" stroke-dasharray="null" stroke-linecap="round" stroke-linejoin="null" stroke-width="25" transform="matrix(1, 0, 0, 1, 29.6089, 35.7542)"/>
  <path d="m193.72,210.88c0.36,0 1.31,0 2.17,0c1,0 1.84,0 2.45,0c1.31,0 2.01,0 2.74,-0.01c0.77,-0.01 1.99,-0.06 2.84,-0.11c0.89,-0.06 1.34,-0.1 2.28,-0.15c1.47,-0.09 1.97,-0.1 3,-0.13c0.52,-0.01 1.55,-0.03 2.07,-0.04c1.49,-0.04 2.43,-0.09 3.32,-0.16c0.86,-0.06 1.27,-0.11 2.49,-0.17c0.79,-0.04 1.93,-0.06 2.66,-0.07c1.04,-0.01 2.01,0 2.61,0c0.84,0 2.08,0 2.75,0c1.05,0 1.89,0 2.94,0c0.63,0 1.47,0 2.51,-0.12c0.85,-0.1 1.74,-0.24 2.69,-0.29c0.72,-0.04 1.65,-0.1 2.53,-0.22c1.05,-0.14 1.89,-0.2 2.73,-0.21c0.84,-0.01 1.66,0 2.63,0c0.9,0 1.82,0 2.62,0c1.1,0 1.8,0 2.76,0c0.93,0 1.81,0 2.45,0c1.05,0 1.88,0 2.93,0c0.84,0 1.88,0 2.51,0c0.87,0 1.79,-0.02 2.76,0.02c1,0.03 1.75,0.14 2.51,0.23c1,0.12 2.01,0.17 2.76,0.18c1,0.01 1.75,0.03 2.69,-0.03c0.84,-0.06 1.74,-0.26 2.75,-0.36c0.8,-0.08 1.65,-0.26 2.65,-0.39c0.77,-0.1 1.67,-0.05 2.49,-0.05c0.9,0 1.89,0 2.72,0c0.92,0 1.81,-0.04 2.66,-0.27l0.93,-0.15l0.85,0" fill="none" fill-opacity="null" id="svg_7" stroke="#ffffff" stroke-dasharray="null" stroke-linecap="round" stroke-linejoin="null" stroke-opacity="null" stroke-width="25" transform="matrix(1, 0, 0, 1, 29.6089, 35.7542)"/>
  <path d="m245.77,112.68c-1.51,0.77 -2.31,1.09 -3.29,1.52c-0.56,0.24 -1.46,0.66 -2.42,1.11c-0.67,0.31 -1.35,0.63 -2.06,0.95c-0.72,0.33 -1.84,0.83 -2.61,1.15c-0.79,0.33 -1.6,0.65 -2.88,1.07c-0.44,0.14 -1.33,0.41 -2.23,0.65c-0.45,0.12 -1.36,0.35 -2.71,0.67c-0.87,0.2 -1.71,0.39 -2.12,0.49c-0.79,0.18 -2.25,0.51 -2.91,0.65c-0.91,0.2 -1.98,0.4 -2.68,0.52c-0.81,0.13 -1.74,0.36 -2.65,0.65c-0.88,0.29 -1.66,0.76 -2.42,1.02c-0.89,0.3 -1.77,0.41 -2.62,0.59c-0.85,0.18 -2.32,-0.12 -2.29,0.47c0.05,0.85 1.74,-0.18 2.57,-0.35c0.83,-0.17 1.77,-0.1 2.73,-0.16c0.73,-0.04 1.59,-0.14 2.58,-0.18c0.81,-0.03 1.67,-0.03 2.58,-0.07c0.95,-0.04 1.59,-0.09 2.9,-0.14c0.66,-0.02 1.66,-0.04 2.34,-0.04c1.06,0 1.8,0 2.56,0c0.77,0 1.55,0 3.1,0c0.76,0 1.53,0 2.29,0c1.16,0 1.94,0 2.72,0c0.78,0.01 1.92,0.03 2.66,0.06c1.08,0.05 1.79,0.1 2.82,0.17c1.01,0.07 1.67,0.12 2.31,0.16c1.24,0.09 2.12,0.16 2.98,0.23c0.85,0.07 1.69,0.14 2.54,0.21c1.13,0.09 1.97,0.16 2.54,0.22c0.86,0.08 2.03,0.23 2.93,0.35c0.61,0.08 1.83,0.23 2.44,0.29c0.93,0.09 1.56,0.13 2.88,0.22c0.67,0.05 1.68,0.12 2.66,0.19c0.92,0.07 1.5,0.11 2.31,0.19c1.22,0.11 2.09,0.21 3.09,0.26c0.74,0.04 1.62,0.15 2.58,0.23c0.86,0.08 1.75,0.14 2.64,0.25c0.88,0.11 1.74,0.18 2.6,0.37c0.82,0.18 1.72,0.24 2.57,0.35c0.85,0.11 1.95,1.03 2.72,0.46c0.32,-0.24 -0.51,-1.08 -0.94,-1.83c-0.4,-0.7 -0.91,-1.46 -1.54,-2.2c-0.56,-0.64 -1.11,-1.31 -1.6,-2.11c-0.42,-0.68 -0.99,-1.4 -1.4,-2.2c-0.43,-0.83 -0.72,-1.64 -1.23,-2.45c-0.45,-0.72 -0.81,-1.48 -1.17,-2.36c-0.32,-0.8 -0.7,-1.58 -0.99,-2.44c-0.27,-0.8 -0.58,-1.57 -0.85,-2.49c-0.25,-0.84 0.23,-2.13 -0.51,-2.58c-0.79,-0.48 -1.51,0.58 -2.36,0.93c-0.85,0.35 -1.65,0.62 -2.54,0.91c-0.96,0.31 -1.71,0.57 -2.47,0.84c-1.03,0.37 -1.8,0.65 -2.55,0.93c-0.94,0.34 -1.58,0.58 -2.34,0.86l-0.99,0.35l-0.9,0.3" fill="none" fill-opacity="null" id="svg_15" stroke="#ffffff" stroke-dasharray="null" stroke-linecap="round" stroke-opacity="null" stroke-width="10" transform="matrix(1, 0, 0, 1, 29.6089, 35.7542)"/>
  <path d="m108.69,254.69c0.87,-0.93 1.31,-1.49 1.89,-2.22c0.66,-0.82 1.05,-1.4 1.63,-2.2c0.47,-0.64 1.09,-1.48 1.53,-2.16c0.35,-0.53 0.93,-1.41 1.4,-2.08c0.58,-0.83 1.06,-1.48 1.64,-2.3c0.47,-0.65 1.03,-1.43 1.52,-2.18c0.54,-0.84 0.89,-1.56 1.31,-2.26c0.42,-0.71 0.93,-1.55 1.31,-2.24c0.49,-0.9 0.95,-1.75 1.41,-2.4c0.52,-0.75 1.16,-1.43 1.53,-2.22c0.35,-0.73 0.8,-1.57 1.22,-2.4c0.38,-0.75 0.91,-1.37 1.34,-2.21c0.37,-0.74 0.64,-1.61 0.98,-2.49c0.36,-0.91 0.76,-1.65 1.01,-2.56c0.2,-0.73 0.47,-1.64 0.75,-2.49c0.28,-0.84 0.62,-1.64 0.99,-2.49c0.33,-0.77 0.57,-1.62 0.92,-2.44c0.37,-0.87 0.81,-1.59 1.12,-2.41c0.32,-0.83 0.72,-1.58 1.17,-2.3c0.48,-0.78 0.46,-0.84 0.2,0.05c-0.23,0.8 -0.23,1.61 -0.45,2.46c-0.24,0.92 -0.43,1.7 -0.56,2.65c-0.15,1.06 -0.22,1.76 -0.41,2.83c-0.14,0.79 -0.3,1.41 -0.46,2.52c-0.1,0.68 -0.17,1.78 -0.2,2.59c-0.03,0.77 -0.08,1.71 -0.19,2.65c-0.11,0.94 -0.22,1.69 -0.33,2.63c-0.11,0.94 -0.15,1.88 -0.2,2.64c-0.07,0.98 -0.24,1.8 -0.42,2.86c-0.11,0.63 -0.2,1.48 -0.32,2.54c-0.1,0.85 -0.22,1.73 -0.38,2.64c-0.12,0.7 -0.27,1.63 -0.39,2.57c-0.09,0.7 -0.27,1.88 -0.39,2.58c-0.16,0.94 -0.28,1.88 -0.37,2.6c-0.13,0.98 -0.26,1.73 -0.37,2.49c-0.19,1.24 -0.27,1.96 -0.34,2.68c-0.1,0.99 -0.18,2 -0.32,3.03c-0.1,0.78 -0.25,1.55 -0.35,2.58c-0.07,0.77 -0.07,1.54 -0.12,2.54c-0.05,0.97 -0.13,1.65 -0.18,2.72c-0.03,0.79 -0.02,1.78 -0.02,2.59c0,0.95 0,1.76 0,2.76c0,0.81 0,1.76 0,2.67c0,0.9 0,1.78 0,2.66c0,0.84 0.59,2.03 0,2.68c-0.32,0.36 -1.21,-0.43 -2.01,-0.77c-0.86,-0.37 -1.57,-0.58 -2.49,-0.84c-0.8,-0.23 -1.79,-0.41 -2.7,-0.56c-0.78,-0.13 -1.72,-0.23 -2.66,-0.23c-0.94,0 -1.76,-0.01 -2.58,-0.1c-0.94,-0.11 -1.88,-0.15 -2.7,-0.3c-0.82,-0.15 -1.68,-0.45 -2.56,-0.77c-0.84,-0.31 -1.59,-0.61 -2.43,-0.87c-0.85,-0.27 -1.82,-0.55 -2.63,-0.69c-0.9,-0.16 -1.69,-0.45 -2.61,-0.78c-0.83,-0.3 -1.65,-0.49 -2.43,-0.75c-0.96,-0.31 -1.68,-0.8 -1.44,-1.53l0.5,-0.76l0.47,-0.78" fill="none" fill-opacity="null" id="svg_16" stroke="#ffffff" stroke-dasharray="null" stroke-linecap="round" stroke-opacity="null" stroke-width="10" transform="matrix(1, 0, 0, 1, 29.6089, 35.7542)"/>
  <path d="m92.96,65.96c0.41,0.89 0.93,1.67 1.33,2.42c0.4,0.76 0.9,1.54 1.3,2.42c0.31,0.67 0.74,1.48 1.15,2.32c0.38,0.79 0.73,1.62 1.11,2.37c0.42,0.85 0.73,1.65 0.96,2.44c0.28,0.95 0.53,1.77 0.77,2.62c0.22,0.81 0.6,1.7 0.86,2.54c0.25,0.8 0.53,1.64 0.8,2.48c0.28,0.87 0.6,1.75 0.88,2.65c0.25,0.82 0.59,1.65 0.93,2.43c0.36,0.8 0.74,1.59 1.14,2.35c0.43,0.82 0.83,1.63 1.21,2.42c0.38,0.78 0.9,1.48 1.29,2.34c0.35,0.78 0.63,1.63 1.11,2.35c0.46,0.7 2.23,1.63 1.51,2.16c-0.19,0.14 -0.71,-0.92 -1.43,-1.39c-0.7,-0.45 -1.6,-0.96 -2.22,-1.39c-0.7,-0.49 -1.62,-1.11 -2.25,-1.48c-0.75,-0.44 -1.58,-0.85 -2.42,-1.36c-0.56,-0.34 -1.44,-0.93 -2.2,-1.35c-0.79,-0.44 -1.59,-0.91 -2.22,-1.38c-0.7,-0.52 -1.31,-0.99 -2.19,-1.51c-0.72,-0.42 -1.7,-0.91 -2.31,-1.24c-0.82,-0.45 -1.62,-0.93 -2.39,-1.39c-0.87,-0.52 -1.51,-0.84 -2.36,-1.34c-0.7,-0.41 -1.56,-0.95 -2.18,-1.29c-0.86,-0.49 -1.55,-1.15 -2.33,-1.56c-0.73,-0.38 -1.45,-0.81 -2.22,-1.28c-0.8,-0.49 -1.65,-0.78 -2.43,-1.16c-0.83,-0.4 -1.58,-0.93 -2.39,-1.34c-0.77,-0.4 -1.53,-0.87 -2.3,-1.2c-0.86,-0.36 -1.68,-0.67 -2.47,-1.06c-0.74,-0.36 -1.57,-0.84 -2.35,-1.17c-0.84,-0.35 -1.59,-0.74 -2.4,-1.15c-0.75,-0.38 -1.53,-0.74 -2.25,-1.23c-0.72,-0.49 -0.87,-1.42 -0.38,-2.1c0.47,-0.65 1.15,-1.27 1.91,-1.95c0.57,-0.51 1.29,-1.23 1.84,-1.68c0.82,-0.68 1.41,-1.06 2.3,-1.68c0.63,-0.44 1.41,-1.03 2.01,-1.5c0.59,-0.47 1.37,-1.04 2.13,-1.64c0.71,-0.57 1.33,-1.19 1.97,-1.84c0.52,-0.53 1.11,-1.34 1.72,-2.11c0.49,-0.62 1.15,-1.27 1.79,-1.96c0.56,-0.62 1.31,-1.19 1.98,-1.75c0.71,-0.59 1.36,-1.14 2.15,-1.59l0.67,-0.52l0.75,0.43" fill="none" fill-opacity="null" id="svg_17" stroke="#ffffff" stroke-dasharray="null" stroke-linecap="round" stroke-opacity="null" stroke-width="10" transform="matrix(1, 0, 0, 1, 29.6089, 35.7542)"/>
 </g>
</svg>