<?xml version="1.0"?>
<svg width="400" height="400" xmlns="http://www.w3.org/2000/svg" xmlns:svg="http://www.w3.org/2000/svg">
 <!-- Created with SVG-edit - https://github.com/SVG-Edit/svgedit-->

 <g class="layer" display="inline">
  <title>Layer 1</title>
  <path d="m326.26,68.72c-1.14,1.16 -1.77,1.95 -2.22,2.61c-0.35,0.51 -0.93,1.4 -1.67,2.38c-0.27,0.36 -0.88,1.1 -1.22,1.5c-0.72,0.85 -1.11,1.3 -1.97,2.26c-0.46,0.51 -0.94,1.05 -1.95,2.18c-0.53,0.59 -1.08,1.2 -1.63,1.83c-0.57,0.64 -1.73,1.96 -2.32,2.63c-0.6,0.69 -1.2,1.38 -1.8,2.08c-0.61,0.71 -1.23,1.42 -1.85,2.14c-0.63,0.72 -1.9,2.18 -2.55,2.9c-0.65,0.73 -1.31,1.46 -1.98,2.18c-0.67,0.73 -1.35,1.47 -2.05,2.2c-0.7,0.74 -2.13,2.24 -2.86,3c-0.74,0.76 -1.49,1.53 -2.24,2.29c-0.76,0.77 -1.52,1.54 -2.29,2.3c-0.76,0.77 -2.28,2.28 -3.03,3.03c-0.75,0.75 -1.49,1.49 -2.24,2.24c-0.75,0.75 -1.49,1.49 -2.25,2.25c-0.76,0.76 -2.3,2.3 -3.09,3.09c-0.8,0.8 -1.6,1.6 -2.41,2.41c-0.81,0.81 -1.62,1.63 -2.43,2.45c-0.8,0.82 -2.39,2.45 -3.16,3.25c-0.77,0.8 -1.52,1.59 -2.27,2.38c-0.74,0.78 -1.47,1.55 -2.19,2.31c-0.71,0.75 -2.12,2.23 -2.82,2.95c-0.69,0.71 -1.37,1.41 -2.04,2.09c-0.66,0.68 -1.31,1.34 -1.95,1.99c-0.63,0.64 -1.83,1.89 -2.41,2.5c-0.57,0.6 -1.12,1.19 -1.66,1.78c-0.54,0.58 -1.08,1.16 -1.61,1.74c-0.54,0.58 -1.64,1.74 -2.2,2.33c-0.57,0.59 -1.15,1.19 -1.74,1.78c-0.59,0.6 -1.17,1.19 -1.76,1.77c-0.58,0.58 -1.72,1.72 -2.27,2.27c-0.54,0.54 -1.08,1.08 -1.6,1.6c-0.52,0.51 -1.03,1.02 -1.54,1.52c-0.51,0.49 -1.51,1.45 -2.02,1.92c-0.5,0.47 -1,0.93 -1.5,1.39c-0.5,0.46 -0.99,0.91 -1.48,1.36c-0.49,0.45 -1.45,1.34 -1.92,1.79c-0.47,0.45 -0.93,0.89 -1.39,1.34c-0.46,0.45 -0.92,0.89 -1.38,1.34c-0.46,0.45 -1.4,1.34 -1.88,1.79c-0.48,0.45 -0.98,0.9 -1.48,1.36c-0.51,0.46 -1.03,0.94 -1.57,1.42c-0.55,0.49 -1.69,1.52 -2.28,2.06c-0.61,0.55 -1.23,1.12 -1.86,1.7c-0.63,0.59 -1.27,1.18 -1.91,1.79c-0.64,0.61 -1.88,1.83 -2.49,2.45c-0.6,0.61 -1.2,1.23 -1.78,1.85c-0.59,0.62 -1.17,1.24 -1.76,1.87c-0.59,0.63 -1.8,1.91 -2.42,2.55c-0.63,0.65 -1.27,1.3 -1.92,1.96c-0.65,0.66 -1.31,1.31 -1.98,1.97c-0.67,0.65 -2.01,1.95 -2.68,2.59c-0.67,0.64 -1.34,1.27 -2.01,1.9c-0.67,0.63 -1.34,1.27 -2.01,1.91c-0.67,0.65 -2.01,1.97 -2.68,2.64c-0.67,0.68 -1.34,1.38 -2.02,2.08c-0.68,0.71 -1.35,1.42 -2.04,2.14c-0.69,0.72 -2.07,2.17 -2.77,2.9c-0.7,0.73 -1.41,1.45 -2.13,2.18c-0.71,0.73 -1.42,1.45 -2.14,2.18c-0.71,0.73 -2.12,2.18 -2.81,2.9c-0.69,0.72 -1.38,1.45 -2.06,2.17c-0.68,0.72 -1.35,1.44 -2.03,2.15c-0.67,0.71 -2.01,2.12 -2.68,2.81c-0.67,0.69 -1.33,1.37 -1.99,2.05c-0.65,0.67 -1.3,1.33 -1.93,1.98c-0.62,0.64 -1.83,1.89 -2.41,2.5c-0.56,0.6 -1.11,1.19 -1.65,1.77c-0.52,0.57 -1.03,1.13 -1.54,1.69c-0.49,0.55 -1.45,1.62 -1.93,2.15c-0.47,0.52 -0.93,1.04 -1.38,1.54c-0.45,0.5 -0.89,0.98 -1.33,1.45c-0.43,0.46 -1.28,1.33 -1.7,1.74c-0.41,0.4 -0.81,0.78 -1.22,1.15c-0.39,0.36 -0.78,0.71 -1.16,1.06c-0.38,0.34 -1.12,1.01 -1.47,1.35c-0.36,0.33 -0.7,0.67 -1.05,1c-0.34,0.33 -0.67,0.66 -1,0.98c-0.32,0.32 -0.95,0.94 -1.25,1.25c-0.3,0.3 -0.6,0.6 -0.89,0.89c-0.29,0.29 -0.57,0.59 -0.86,0.88c-0.28,0.3 -0.84,0.9 -1.12,1.21c-0.28,0.31 -0.56,0.63 -0.84,0.96c-0.29,0.33 -0.57,0.66 -0.86,0.99c-0.29,0.33 -0.9,1 -1.21,1.34c-0.31,0.34 -0.63,0.67 -0.95,1.01c-0.32,0.34 -0.64,0.67 -0.96,1.01c-0.32,0.33 -0.94,1 -1.25,1.34c-0.3,0.33 -0.6,0.67 -0.89,1c-0.29,0.33 -0.59,0.66 -0.88,0.98c-0.3,0.32 -0.9,0.95 -1.21,1.25c-0.31,0.3 -0.63,0.6 -1.28,1.19c-0.66,0.59 -1,0.87 -2,1.8c-0.68,0.63 -1.34,1.29 -1.68,1.63c-0.67,0.69 -1.35,1.4 -2.01,2.14c-0.67,0.75 -1.01,1.14 -1.68,1.91c-0.34,0.39 -1.34,1.56 -1.68,1.95c-0.67,0.79 -1.34,1.58 -1.68,1.99c-1.01,1.23 -1.34,1.66 -2.01,2.51c-0.34,0.43 -0.67,0.86 -1.34,1.7c-0.33,0.42 -1.33,1.61 -2.01,2.34c-0.33,0.35 -0.97,1.02 -1.59,1.65c-0.85,0.86 -1.37,1.37 -2.07,2.08c-0.43,0.43 -1.21,1.21 -1.93,1.93c-0.68,0.68 -1.18,1.18 -1.85,1.85c-0.67,0.67 -1.19,1.18 -1.71,1.74c-0.78,0.84 -1.39,1.6 -1.84,2.13c-0.47,0.55 -1.21,1.39 -1.74,1.94c-0.53,0.56 -1.07,1.1 -2.08,2.23c-0.49,0.55 -0.95,1.12 -1.41,1.68c-0.68,0.84 -1.34,1.68 -1.79,2.22c-0.44,0.54 -1.34,1.57 -1.79,2.05c-0.65,0.7 -1.09,1.14 -1.85,2.04c-0.55,0.65 -1.04,1.31 -1.72,2.08c-0.49,0.55 -1.01,1.05 -1.84,1.89c-0.5,0.5 -1.17,1.17 -1.85,1.85c-0.53,0.53 -1.29,1.29 -1.91,1.91c-0.42,0.42 -1.23,1.23 -1.8,1.8c-0.7,0.7 -1.37,1.38 -1.88,1.88c-0.52,0.51 -1.49,1.34 -2.12,1.84c-0.62,0.5 -1.42,1.16 -1.96,1.7c-0.56,0.56 -1.14,1.22 -1.75,1.97c-0.42,0.51 -1.23,1.55 -1.61,2.04c-0.54,0.7 -1.04,1.35 -1.72,2.12c-0.49,0.56 -1.35,1.48 -1.84,2.09c-0.51,0.62 -1.16,1.45 -1.67,2c-0.48,0.52 -1.22,1.25 -1.84,1.87c-0.68,0.68 -1.2,1.24 -1.77,2.01l-0.63,0.67l-0.68,0.46l-0.56,0.67" fill="none" fill-opacity="null" id="svg_33" stroke="#ffffff" stroke-dasharray="null" stroke-linecap="round" stroke-linejoin="null" stroke-opacity="null" stroke-width="60"/>
  <path d="m74.86,73.18c0.43,0.85 0.82,1.67 1.16,2.29c0.42,0.76 0.99,1.66 1.45,2.33c0.5,0.73 1.06,1.48 1.35,1.86c0.9,1.18 1.23,1.57 1.89,2.37c0.35,0.42 1.09,1.28 1.49,1.73c0.85,0.97 1.31,1.48 1.79,2.01c0.5,0.56 1.02,1.14 1.56,1.74c0.56,0.63 1.14,1.27 1.74,1.94c1.25,1.41 1.9,2.15 2.57,2.9c0.68,0.78 1.38,1.57 2.1,2.37c0.73,0.82 1.48,1.64 2.25,2.47c1.58,1.68 2.4,2.51 3.24,3.35c0.85,0.84 1.71,1.69 2.58,2.54c0.88,0.86 1.78,1.72 2.68,2.59c1.83,1.77 2.76,2.67 3.69,3.58c0.94,0.92 1.89,1.85 2.85,2.8c0.97,0.96 1.95,1.92 2.95,2.9c2.03,1.99 3.08,3 4.13,4.02c1.07,1.03 2.15,2.06 3.24,3.1c1.1,1.04 2.21,2.09 3.32,3.13c2.23,2.08 3.35,3.11 4.47,4.13c1.11,1.02 2.22,2.03 3.33,3.04c1.1,1 2.2,2 3.28,2.99c2.15,1.96 3.2,2.94 4.25,3.91c1.04,0.96 2.06,1.93 3.08,2.89c1.01,0.95 2.01,1.91 3,2.86c1.97,1.9 2.94,2.85 3.91,3.8c0.96,0.94 1.92,1.88 2.86,2.82c0.94,0.92 1.87,1.84 2.79,2.74c1.81,1.77 2.7,2.62 3.57,3.46c0.86,0.83 1.72,1.64 2.55,2.44c0.82,0.79 1.64,1.57 2.43,2.34c1.55,1.51 2.29,2.27 3.02,3.02c0.72,0.74 1.42,1.48 2.12,2.21c0.69,0.73 1.37,1.46 2.04,2.19c1.34,1.45 2.01,2.18 2.69,2.91c0.68,0.73 1.36,1.47 2.04,2.21c0.7,0.75 1.4,1.51 2.12,2.29c1.48,1.59 2.24,2.41 3.02,3.24c0.79,0.85 1.59,1.7 2.39,2.56c0.81,0.87 1.63,1.74 2.45,2.61c1.63,1.74 2.44,2.6 3.24,3.46c0.79,0.85 1.58,1.69 2.36,2.53c0.77,0.83 1.53,1.64 2.29,2.45c1.47,1.59 2.19,2.36 2.91,3.13c0.7,0.76 1.4,1.5 2.08,2.24c0.68,0.73 1.36,1.45 2.03,2.16c1.34,1.41 2.01,2.1 2.68,2.79c0.67,0.69 1.34,1.37 2,2.05c0.66,0.68 1.32,1.35 1.98,2.02c1.3,1.34 1.94,2.01 2.57,2.68c0.63,0.67 1.26,1.34 1.88,2c0.62,0.66 1.24,1.32 1.85,1.98c1.23,1.3 1.84,1.94 2.46,2.57c0.61,0.63 1.23,1.26 1.85,1.88c0.62,0.62 1.25,1.24 1.88,1.85c1.27,1.23 1.92,1.85 2.57,2.46c0.65,0.62 1.31,1.23 1.96,1.84c0.66,0.61 1.31,1.23 1.96,1.84c1.3,1.23 1.94,1.84 2.57,2.46c0.63,0.61 1.25,1.22 1.87,1.83c0.61,0.61 1.22,1.21 1.82,1.81c1.19,1.18 1.77,1.77 2.35,2.34c0.57,0.57 1.13,1.13 1.69,1.69c0.55,0.55 1.09,1.09 1.61,1.61c1.03,1.03 1.52,1.52 2.01,2.01c0.48,0.48 0.95,0.94 1.41,1.4c0.46,0.45 0.91,0.89 1.36,1.33c0.89,0.85 1.34,1.27 1.79,1.68c0.45,0.41 0.89,0.81 1.34,1.22c0.45,0.41 0.9,0.81 1.34,1.22c0.9,0.83 1.34,1.25 1.79,1.68c0.45,0.43 0.89,0.87 1.34,1.3c0.45,0.44 0.89,0.88 1.34,1.33c0.89,0.89 1.34,1.34 1.79,1.79c0.44,0.44 0.88,0.88 1.32,1.32c0.43,0.43 0.85,0.85 1.27,1.27c0.8,0.8 1.19,1.19 1.56,1.56c0.37,0.37 0.73,0.73 1.08,1.08c0.35,0.35 0.69,0.69 1.03,1.03c0.67,0.67 1.01,1.01 1.34,1.34c0.34,0.34 0.67,0.67 1.01,1.02c0.34,0.34 0.67,0.69 1.01,1.04c0.67,0.71 1.01,1.08 1.34,1.45c0.33,0.37 0.67,0.75 0.99,1.13c0.33,0.38 0.65,0.75 0.97,1.13c0.63,0.73 0.93,1.1 1.23,1.45c0.3,0.35 0.59,0.7 0.88,1.04c0.29,0.34 0.59,0.68 0.88,1.02c0.6,0.67 0.91,1.01 1.23,1.34c0.32,0.33 0.64,0.67 0.96,0.99c0.32,0.33 0.64,0.65 0.96,0.97c0.62,0.63 0.93,0.93 1.23,1.23c0.3,0.3 0.59,0.59 0.88,0.88c0.29,0.29 0.59,0.59 0.88,0.88c0.6,0.6 0.91,0.91 1.23,1.23c0.32,0.32 0.64,0.64 0.97,0.96c0.33,0.32 0.66,0.64 0.99,0.96c0.67,0.63 1,0.93 1.34,1.23c0.33,0.3 0.67,0.59 0.99,0.88c0.33,0.29 0.65,0.58 0.97,0.88c0.63,0.6 0.93,0.91 1.23,1.23c0.3,0.32 0.59,0.65 0.88,0.98c0.29,0.34 0.59,0.68 0.88,1.03c0.61,0.71 0.91,1.08 1.23,1.45c0.32,0.38 0.65,0.76 0.98,1.14c0.34,0.39 0.68,0.77 1.03,1.16c0.71,0.78 1.08,1.17 1.45,1.57c0.38,0.4 0.76,0.79 1.15,1.19c0.39,0.41 0.79,0.82 1.2,1.25c0.83,0.87 1.25,1.32 1.67,1.79c0.43,0.47 0.86,0.94 1.29,1.41c0.43,0.47 0.86,0.95 1.29,1.41c0.85,0.92 1.26,1.36 1.67,1.78c0.4,0.42 0.8,0.82 1.19,1.21c0.38,0.38 0.75,0.74 1.11,1.09c0.69,0.65 1.02,0.95 1.34,1.23c0.3,0.27 0.6,0.52 0.88,0.77c0.27,0.23 0.52,0.45 0.75,0.67c0.43,0.4 0.61,0.59 0.78,0.78c0.16,0.18 0.31,0.36 0.45,0.54c0.14,0.17 0.27,0.35 0.4,0.51c0.27,0.34 0.41,0.5 0.56,0.67c0.15,0.17 0.45,0.49 0.91,0.96c0.81,0.82 1.29,1.31 1.94,2.18c0.42,0.56 1.13,1.33 1.79,1.85c0.74,0.58 1.21,1.39 1.7,1.97c0.62,0.73 1.23,1.45 1.65,2.04c0.6,0.84 1.08,1.42 1.87,2.03c0.64,0.49 1.2,1.2 1.85,1.85c0.6,0.6 1.41,1.14 1.88,1.78c0.44,0.6 1.17,0.9 1.97,1.22c0.85,0.34 1.07,1.32 1.83,1.71l0.72,0.51l0.52,0.54" fill="none" fill-opacity="null" id="svg_35" stroke="#ffffff" stroke-dasharray="null" stroke-linecap="round" stroke-linejoin="null" stroke-opacity="null" stroke-width="60"/>
 </g>
</svg>