<?xml version="1.0"?>
<svg width="400" height="400" xmlns="http://www.w3.org/2000/svg" xmlns:svg="http://www.w3.org/2000/svg">
 <!-- Created with SVG-edit - https://github.com/SVG-Edit/svgedit-->

 <g class="layer" display="inline">
  <title>Layer 1</title>
  <path d="m165.36,43.58c-1.13,1.12 -1.92,1.71 -2.62,2.22c-0.74,0.55 -1.33,1.19 -2.02,1.74c-0.66,0.53 -1.6,1.08 -2.21,1.41c-0.64,0.35 -1.54,0.86 -2.2,1.32c-0.68,0.48 -1.57,1.22 -2.23,1.84c-0.44,0.41 -1.07,1.04 -1.86,1.82c-0.55,0.55 -1.1,1.1 -1.88,1.88c-0.63,0.63 -1.06,1.06 -1.96,1.84c-0.66,0.57 -1.35,1.09 -2.01,1.67c-0.68,0.6 -1.11,1.03 -1.79,1.65c-0.88,0.8 -1.56,1.32 -2.01,1.66c-0.89,0.68 -1.57,1.16 -2.2,1.68c-0.81,0.66 -1.52,1.34 -2.04,1.8c-0.82,0.71 -1.52,1.15 -2.19,1.88c-0.53,0.58 -1.01,1.38 -1.61,1.94c-0.73,0.67 -1.4,1 -2.1,1.6c-0.66,0.57 -1.48,1.28 -2.15,1.8c-0.67,0.52 -1.33,1.13 -1.84,1.58c-0.82,0.72 -1.53,1.17 -2.22,1.88c-0.55,0.57 -1.16,1.36 -1.76,1.87c-0.6,0.52 -1.25,1.26 -1.88,1.93c-0.62,0.65 -1.43,1.16 -2.18,1.73c-0.55,0.42 -1.43,0.98 -1.94,1.47c-0.74,0.7 -1.3,1.32 -2,2c-0.53,0.51 -1.36,1.19 -1.94,1.67c-0.62,0.52 -1.4,1.31 -1.94,1.93c-0.37,0.42 -1.12,1.23 -1.75,1.77c-0.64,0.56 -1.55,1.31 -1.99,1.72c-0.66,0.62 -1.47,1.44 -2.04,2.01c-0.55,0.55 -1.3,1.29 -1.9,1.9c-0.42,0.42 -1.06,1.07 -1.82,1.98c-0.38,0.45 -0.91,1.15 -1.68,2.13c-0.41,0.52 -0.82,1.06 -1.5,1.79c-0.65,0.7 -1.35,1.28 -1.98,1.85c-0.82,0.75 -1.36,1.38 -1.87,2.04c-0.51,0.66 -1.01,1.33 -1.49,1.99c-0.74,1.01 -1.1,1.58 -1.63,2.25c-0.68,0.86 -1.13,1.35 -2.03,2.03c-0.58,0.44 -1.43,0.97 -1.97,1.66c-0.49,0.64 -0.99,1.48 -1.59,2.01c-0.68,0.6 -1.38,1.01 -2.19,1.72c-0.52,0.46 -1.02,0.99 -1.84,1.99c-0.51,0.62 -1.17,1.45 -1.68,2.01c-0.5,0.55 -1.18,1.29 -1.68,1.9c-0.51,0.62 -1.17,1.45 -1.67,2.01c-0.64,0.7 -1.25,1.35 -1.72,2.05c-0.61,0.9 -0.86,1.55 -1.38,2.33c-0.5,0.74 -1.19,1.25 -1.98,2.04c-0.53,0.52 -0.99,1.16 -1.68,1.96c-0.49,0.57 -1.16,1.25 -1.72,1.94c-0.54,0.67 -1.16,1.6 -1.61,2.21c-0.46,0.63 -1.05,1.44 -1.58,2.19c-0.38,0.55 -1.06,1.52 -1.53,2.14c-0.48,0.63 -1.16,1.41 -1.66,1.94c-0.5,0.52 -1.35,1.34 -1.82,1.86c-0.75,0.82 -1.24,1.51 -1.81,2.35c-0.45,0.67 -0.89,1.35 -1.45,2.18c-0.44,0.65 -1,1.36 -1.56,1.96c-0.66,0.69 -1.21,1.26 -1.67,2.15c-0.35,0.68 -0.78,1.47 -1.32,2.31c-0.52,0.81 -0.86,1.56 -1.26,2.49c-0.28,0.66 -0.73,1.45 -1.24,2.22c-0.55,0.84 -1.01,1.51 -1.33,2.05c-0.58,0.98 -0.89,1.63 -1.34,2.52c-0.34,0.67 -0.77,1.54 -1.23,2.33c-0.43,0.74 -0.94,1.66 -1.21,2.48c-0.2,0.62 -0.46,1.62 -0.75,2.5c-0.27,0.84 -0.61,1.64 -0.71,2.61c-0.09,0.91 -0.02,1.63 -0.02,2.66c0,0.83 0,1.66 0,2.67c0,0.86 0,1.8 0,2.64c0,0.66 0,1.78 0,2.47c0,1.22 -0.01,2.01 0.03,2.83c0.04,0.84 0.15,1.67 0.31,2.49c0.2,1.05 0.38,1.78 0.61,2.7c0.22,0.9 0.45,1.8 0.61,2.51c0.23,1 0.38,1.8 0.61,2.59c0.3,1.02 0.64,1.72 0.96,2.44c0.45,1 0.79,1.79 1.07,2.59c0.36,1 0.53,1.72 0.76,2.39c0.39,1.13 0.75,1.78 1.09,2.68c0.33,0.88 0.48,1.56 0.76,2.68c0.17,0.68 0.33,1.39 0.56,2.39c0.18,0.79 0.38,1.61 0.87,2.59c0.37,0.73 0.87,1.37 1.26,2.28c0.37,0.86 0.62,1.7 1,2.44c0.37,0.7 0.84,1.71 1.15,2.37c0.4,0.86 0.86,1.53 1.41,2.51c0.34,0.62 0.66,1.25 1.23,2.21c0.41,0.7 0.81,1.56 1.17,2.31c0.45,0.94 0.95,1.6 1.47,2.48c0.38,0.64 0.94,1.63 1.28,2.34c0.25,0.53 0.67,1.4 1.26,2.29c0.43,0.65 0.94,1.28 1.45,1.95c0.77,1 1.26,1.67 1.73,2.33c0.45,0.64 0.87,1.26 1.47,2.11c0.55,0.77 0.9,1.24 1.58,2.15c0.5,0.67 1.02,1.35 1.68,2.33c0.34,0.51 0.82,1.29 1.29,2.05c0.56,0.9 0.94,1.5 1.37,2.09c0.66,0.91 1.06,1.42 1.76,2.23c0.77,0.91 1.37,1.52 1.67,1.84c0.63,0.65 1.31,1.31 1.66,1.64c1.07,1.01 1.81,1.67 2.18,1.99c0.71,0.62 1.37,1.19 2.25,1.88c0.68,0.54 1.4,1.05 2.09,1.61c0.73,0.6 1.51,1.16 1.99,1.49c0.82,0.56 1.71,1.24 2.33,1.78c0.66,0.58 0.98,0.9 1.66,1.54c1.06,1 1.43,1.34 2.17,2c0.73,0.65 1.1,0.97 1.79,1.59c0.95,0.85 1.51,1.36 2.23,2.09c0.44,0.45 1.21,1.36 1.76,2c0.51,0.6 1.18,1.27 1.86,1.82c0.83,0.68 1.35,1.12 2.01,1.78c0.68,0.66 1.17,1.17 2.01,2.01c0.5,0.5 1.14,1.14 1.85,1.85c0.51,0.51 1.18,1.18 1.78,1.78c0.74,0.74 1.29,1.25 1.96,2.05c0.47,0.57 1.12,1.39 1.69,1.87c0.79,0.68 1.23,1.23 1.75,1.81c0.74,0.81 1.39,1.36 1.84,1.73c0.96,0.82 1.48,1.28 1.99,1.79c0.78,0.77 1.49,1.54 1.91,2.04c0.59,0.7 1.13,1.4 1.73,2.06c0.6,0.68 1.24,1.31 2.04,2.11c0.55,0.55 1.08,1.07 1.74,1.74c0.68,0.69 1.2,1.25 1.84,2.16c0.34,0.48 0.8,1.25 1.39,2.17c0.38,0.6 0.87,1.33 1.61,2.15c0.48,0.52 1.23,1.18 1.84,1.68c0.62,0.51 1.45,1.16 2.18,1.84c0.5,0.47 1.27,1.14 1.78,1.82c0.58,0.79 0.8,1.65 1.4,2.41c0.59,0.74 1.22,1.26 1.86,1.9c0.6,0.6 1.1,1.1 1.75,1.87c0.52,0.61 1,1.28 1.68,2.17c0.5,0.67 0.99,1.32 1.68,2.11c0.49,0.56 1,1.07 1.84,1.91c0.5,0.5 1.34,1.34 1.84,1.84c0.5,0.49 1.34,1.22 2,1.72c0.75,0.57 1.36,1.16 2.08,1.68c0.67,0.48 1.56,0.91 2.25,1.42c0.71,0.52 1.18,1.33 1.73,2.04c0.49,0.62 1.15,1.21 1.99,1.89c0.48,0.39 1.34,1.21 1.86,1.8c0.65,0.74 1.31,1.16 2.03,1.79c0.69,0.61 0.95,1.31 1.63,1.91c0.66,0.59 1.58,1 2.19,1.44c0.75,0.54 1.33,1.19 2.19,1.87c0.64,0.51 1.35,1.1 1.99,1.57c0.76,0.56 1.44,0.97 2.2,1.66c0.65,0.59 1.45,0.86 2.17,1.35c0.78,0.54 1.19,1.42 1.72,1.96c0.67,0.68 1.24,1.1 2.09,1.69c0.87,0.6 1.57,0.95 2.2,1.34c0.82,0.52 1.48,1.17 2.29,1.8c0.62,0.48 1.46,0.81 2.1,1.24c0.81,0.55 1.48,1.08 2.37,1.19c0.88,0.11 1.58,0.47 2.47,0.78c0.73,0.25 1.87,0.52 2.64,0.65c1.03,0.18 1.76,0.19 2.66,0.27c1,0.1 1.69,0.35 2.72,0.48c0.67,0.08 1.68,-0.02 2.48,0.08c0.97,0.12 1.79,0.51 2.67,0.53c0.92,0.02 1.74,-0.21 2.51,-0.49c0.81,-0.3 1.64,-0.22 2.38,-0.36c0.84,-0.15 2.07,-0.38 2.7,-0.49c0.94,-0.17 2.09,-0.39 2.85,-0.55c0.68,-0.14 1.69,-0.22 2.56,-0.4c0.86,-0.18 1.51,-0.65 2.47,-1.04c0.82,-0.33 1.51,-0.47 2.39,-0.84c0.89,-0.37 1.7,-0.84 2.43,-1.29c0.65,-0.4 1.57,-0.96 2.37,-1.35c0.71,-0.35 1.61,-0.66 2.33,-0.99c0.91,-0.42 1.67,-0.87 2.26,-1.13c0.94,-0.41 2,-0.68 2.72,-0.82c0.72,-0.14 1.77,-0.29 2.73,-0.47c0.59,-0.11 1.43,-0.29 2.42,-0.66c0.95,-0.35 1.83,-0.77 2.5,-0.98c0.86,-0.27 1.86,-0.51 2.59,-0.78c0.96,-0.35 1.56,-0.69 2.44,-1.05c0.88,-0.36 1.56,-0.52 2.59,-0.83c0.74,-0.22 1.66,-0.67 2.34,-1.12c0.89,-0.58 1.49,-0.73 2.29,-1.05c0.98,-0.39 1.67,-0.85 2.51,-1.41c0.69,-0.46 1.43,-0.98 2.04,-1.43c0.63,-0.46 1.64,-1.18 2.18,-1.57c0.95,-0.68 1.43,-1.17 2.26,-1.8c0.62,-0.46 1.23,-1.18 1.83,-1.75c0.7,-0.65 1.17,-1.22 1.84,-1.84c0.7,-0.65 1.42,-1.12 2.08,-1.74c0.51,-0.48 1.34,-1.33 1.84,-1.83c0.67,-0.67 1.35,-1.32 1.78,-1.81c0.71,-0.81 1.2,-1.67 1.68,-2.2c0.67,-0.73 1.18,-1.44 1.77,-2.25c0.45,-0.61 1.12,-1.31 1.56,-1.85c0.51,-0.62 1.31,-1.51 1.79,-1.95c0.74,-0.68 1.28,-1.11 2.05,-1.79c0.74,-0.66 1.2,-1.1 1.83,-1.79c0.8,-0.87 1.14,-1.34 1.67,-1.98c0.83,-1 1.35,-1.52 1.8,-2.04c0.7,-0.82 1.15,-1.59 1.56,-2.46c0.32,-0.69 0.87,-1.46 1.44,-2.12c0.61,-0.7 1.3,-1.43 1.79,-2.04c0.49,-0.62 1.09,-1.44 1.6,-2.19c0.36,-0.52 0.89,-1.38 1.38,-2.03c0.64,-0.86 1.29,-1.48 1.67,-2.01c0.59,-0.8 0.93,-1.71 1.56,-2.52c0.42,-0.54 1.12,-1.26 1.61,-1.87c0.51,-0.64 1.17,-1.53 1.67,-2.2c0.49,-0.65 1.08,-1.48 1.6,-2.21c0.46,-0.65 1.02,-1.34 1.71,-2.06c0.58,-0.59 1.23,-1.22 1.88,-1.88c0.54,-0.55 1.09,-1.38 1.55,-1.9c0.65,-0.74 1.34,-1.09 2.13,-1.79c0.81,-0.73 1.2,-1.22 1.86,-1.81c0.81,-0.73 1.38,-1.04 2.08,-1.74c0.69,-0.69 1.19,-1.5 1.66,-2.02c0.73,-0.8 1.35,-1.38 1.84,-1.86c0.67,-0.67 1.34,-1.32 1.79,-1.84c0.71,-0.82 1.17,-1.53 1.88,-2.35c0.44,-0.51 1.2,-1.34 1.73,-2.01c0.38,-0.48 1.24,-1.28 1.8,-1.79c0.7,-0.64 1.07,-1.57 1.43,-2.29c0.39,-0.78 1.17,-1.33 1.75,-2.05c0.44,-0.55 0.92,-1.59 1.31,-2.09c0.54,-0.68 1.12,-1.51 1.48,-2.2c0.49,-0.95 0.9,-1.56 1.34,-2.19c0.7,-0.99 1.08,-1.53 1.65,-2.38c0.45,-0.67 0.89,-1.34 1.45,-2.18c0.45,-0.67 1.02,-1.5 1.45,-2.2c0.58,-0.93 0.89,-1.57 1.26,-2.22c0.52,-0.9 0.99,-1.56 1.45,-2.2c0.71,-0.99 1.08,-1.53 1.65,-2.38c0.44,-0.67 0.88,-1.32 1.32,-2.34c0.39,-0.9 0.65,-1.56 1.03,-2.51c0.3,-0.76 0.6,-1.6 0.96,-2.48c0.33,-0.79 0.82,-1.53 1.22,-2.28c0.36,-0.68 1.01,-1.42 1.61,-2.23c0.47,-0.64 0.93,-1.35 1.47,-1.9c0.66,-0.68 1.48,-1.43 1.99,-2.01c0.56,-0.64 0.96,-1.34 1.58,-2.12c0.54,-0.67 0.94,-1.38 1.58,-2.12c0.61,-0.71 1.27,-1.2 1.76,-2.02c0.43,-0.72 0.86,-1.61 1.32,-2.22c0.59,-0.77 0.96,-1.58 1.35,-2.27c0.48,-0.85 0.95,-1.58 1.53,-2.25c0.61,-0.69 1.33,-1.39 1.73,-2.08c0.43,-0.77 0.87,-1.66 1.26,-2.25c0.42,-0.66 1,-1.48 1.4,-2.13c0.59,-0.95 0.98,-1.76 1.32,-2.43c0.45,-0.89 0.92,-1.65 1.13,-2.39c0.27,-1 0.16,-1.85 0.16,-2.72c0,-1.08 0,-1.9 0,-2.51c0,-0.97 0,-1.98 0,-2.65c0,-1.04 0,-1.77 0,-2.92c0,-0.82 0,-1.66 0,-2.52c0,-0.43 0,-1.69 0,-2.5c0,-0.78 0.01,-1.85 0,-2.8c-0.01,-1.03 0.13,-2.1 -0.51,-2.73c-0.57,-0.57 -1.13,-1.05 -1.73,-1.9c-0.45,-0.63 -0.81,-1.07 -1.6,-1.95c-0.6,-0.67 -1.22,-1.28 -1.87,-2.08c-0.43,-0.53 -1.08,-1.39 -1.68,-2.06c-0.48,-0.53 -1.15,-1.29 -1.66,-1.91c-0.53,-0.65 -1.29,-1.55 -1.71,-2c-0.45,-0.49 -1.22,-1.3 -1.8,-1.93c-0.65,-0.71 -1.33,-1.47 -1.69,-1.86c-0.71,-0.78 -1.05,-1.17 -2.09,-2.19c-0.62,-0.6 -1.22,-1.12 -1.77,-1.63c-0.79,-0.73 -1.28,-1.25 -1.98,-2.05c-0.46,-0.53 -1.12,-1.31 -1.8,-2.04c-0.43,-0.47 -1.09,-1.13 -1.85,-2.04c-0.37,-0.44 -0.88,-1.12 -1.56,-2.01c-0.52,-0.68 -0.87,-1.16 -1.79,-2.1c-0.52,-0.53 -1.11,-1.04 -1.71,-1.57c-0.6,-0.53 -1.46,-1.28 -2.21,-2c-0.46,-0.44 -1.3,-1.27 -1.86,-1.84c-0.53,-0.54 -1.21,-1.3 -1.71,-1.9c-0.52,-0.63 -1.26,-1.45 -1.87,-2.01c-0.62,-0.57 -1.08,-0.93 -1.82,-1.85c-0.59,-0.74 -0.92,-1.32 -1.57,-2.14c-0.45,-0.57 -1.23,-1.4 -1.77,-1.96c-0.83,-0.84 -1.39,-1.4 -1.94,-1.94c-0.53,-0.53 -1.04,-1.03 -1.93,-1.93c-0.57,-0.57 -1.08,-1.08 -1.74,-1.93c-0.46,-0.6 -1.11,-1.42 -1.84,-1.97c-0.66,-0.5 -1.24,-1.22 -1.69,-1.81c-0.56,-0.73 -1.01,-1.29 -1.51,-1.9c-0.53,-0.64 -1.36,-1.64 -1.92,-2.31c-0.55,-0.66 -1.1,-1.32 -1.63,-1.96c-0.76,-0.93 -1.24,-1.52 -1.69,-2.07c-0.61,-0.74 -1.3,-1.51 -1.79,-2.1c-0.65,-0.78 -1,-1.42 -1.6,-2.12c-0.59,-0.69 -1.27,-1.43 -1.79,-2.05c-0.53,-0.63 -1.29,-1.43 -1.9,-1.98c-0.6,-0.53 -1.35,-1.16 -1.86,-1.85c-0.54,-0.73 -0.85,-1.42 -1.33,-2.2c-0.49,-0.79 -1.02,-1.45 -1.63,-2.12c-0.51,-0.56 -1.27,-1.41 -1.68,-1.9c-0.65,-0.78 -1.09,-1.33 -1.76,-2.17c-0.45,-0.56 -1.12,-1.4 -1.56,-1.96c-0.67,-0.84 -1.12,-1.4 -1.79,-2.23c-0.45,-0.56 -1.12,-1.4 -1.56,-1.95c-0.65,-0.82 -1.08,-1.35 -1.67,-2.11c-0.55,-0.72 -1.08,-1.4 -1.74,-2.3c-0.5,-0.67 -1,-1.36 -1.42,-2.1c-0.43,-0.76 -0.77,-1.59 -1.03,-2.14c-0.54,-1.13 -0.86,-1.68 -1.35,-2.51c-0.49,-0.84 -1,-1.68 -1.35,-2.23c-0.53,-0.84 -1.11,-1.68 -1.53,-2.23c-0.64,-0.84 -1.09,-1.4 -1.76,-2.23c-0.45,-0.56 -0.9,-1.11 -1.52,-1.96c-0.61,-0.83 -1.14,-1.67 -1.49,-2.21c-0.67,-1.05 -1.01,-1.53 -1.5,-2.24c-0.47,-0.68 -1.03,-1.58 -1.41,-2.25c-0.38,-0.67 -0.94,-1.57 -1.42,-2.26c-0.52,-0.75 -1.11,-1.56 -1.52,-2.16c-0.43,-0.62 -0.85,-1.26 -1.76,-2.5c-0.44,-0.6 -0.88,-1.16 -1.31,-1.71c-0.8,-1.03 -1.16,-1.51 -1.68,-2.17c-0.73,-0.92 -1.3,-1.44 -1.8,-2.29c-0.42,-0.72 -0.82,-1.63 -1.27,-2.13c-0.77,-0.85 -1.28,-1.28 -1.76,-1.82c-0.69,-0.77 -1.17,-1.41 -1.68,-2.08c-0.67,-0.89 -1.16,-1.56 -1.68,-2.19c-0.66,-0.8 -1.19,-1.32 -2.01,-2.26c-0.52,-0.6 -1.02,-1.26 -1.39,-1.7c-0.77,-0.91 -1.41,-1.57 -1.85,-2.01c-0.89,-0.9 -1.33,-1.34 -2.01,-1.99c-0.44,-0.42 -1.34,-1.2 -2,-1.74c-0.63,-0.52 -1.42,-1.18 -1.94,-1.68c-0.78,-0.75 -1.4,-1.42 -2.07,-1.97c-0.58,-0.47 -1.26,-0.93 -2.09,-1.65c-0.53,-0.45 -1.46,-1.2 -2.08,-1.58c-0.65,-0.39 -1.55,-0.91 -2.2,-1.36c-0.62,-0.43 -1.65,-1.07 -2.29,-1.54c-0.74,-0.54 -1.33,-1.19 -2.02,-1.74c-0.67,-0.53 -1.26,-0.87 -2.41,-1.41c-0.5,-0.23 -1.29,-0.55 -2.29,-1.01c-0.71,-0.33 -1.39,-0.68 -2.5,-1.23c-0.65,-0.32 -1.67,-0.78 -2.38,-1.05c-0.9,-0.35 -1.67,-0.7 -2.51,-1.02c-0.64,-0.24 -1.64,-0.6 -2.35,-0.75c-0.96,-0.21 -1.86,-0.19 -2.89,-0.29c-0.88,-0.09 -1.49,-0.2 -2.4,-0.31c-1.11,-0.13 -1.86,-0.14 -2.55,-0.21c-1.12,-0.11 -1.97,-0.36 -2.97,-0.46c-0.71,-0.07 -1.72,-0.05 -2.59,-0.05c-0.96,0 -1.79,-0.05 -2.68,0.12c-0.74,0.14 -1.68,0.41 -2.45,0.43c-1.05,0.03 -1.91,0.03 -2.77,0.21c-0.84,0.17 -1.72,0.41 -2.61,0.64c-0.64,0.16 -1.78,0.49 -2.42,0.73c-0.95,0.36 -1.89,0.58 -2.64,0.7c-0.98,0.16 -1.73,0.57 -2.49,0.8c-1,0.3 -1.85,0.4 -2.63,0.8c-0.79,0.41 -1.47,0.83 -2.35,1.28c-0.67,0.34 -1.59,0.77 -2.23,1.28c-0.7,0.54 -1.48,1.09 -2.24,1.68c-0.62,0.48 -1.27,1.08 -1.9,1.52c-0.82,0.57 -1.52,1.02 -2.1,1.39c-0.89,0.57 -1.65,1.02 -2.43,1.52c-0.77,0.49 -1.47,0.98 -2.07,1.44c-0.95,0.73 -1.74,1.08 -2.35,1.8c-0.54,0.62 -0.93,1.38 -1.23,2.22c-0.29,0.81 -0.61,1.57 -1.1,2.3c-0.4,0.61 -1.2,1.05 -1.63,1.83c-0.4,0.72 -0.92,1.35 -1.38,2.12c-0.44,0.73 -1.09,1.32 -1.47,2.13c-0.36,0.78 -0.82,1.58 -1.4,2.14c-0.61,0.59 -1.27,1.21 -1.91,1.84c-0.55,0.54 -1.4,0.95 -1.99,1.45c-0.72,0.61 -1.19,1.32 -1.93,1.92l-0.46,0.67l-0.56,0.72" fill="none" fill-opacity="null" id="svg_5" stroke="#ffffff" stroke-dasharray="null" stroke-linecap="round" stroke-linejoin="null" stroke-opacity="null" stroke-width="30"/>
 </g>
</svg>