<?xml version="1.0"?>
<svg width="300" height="300" xmlns="http://www.w3.org/2000/svg" xmlns:svg="http://www.w3.org/2000/svg">
 <!-- Created with SVG-edit - https://github.com/SVG-Edit/svgedit-->

 <g class="layer" display="inline">
  <title>Layer 1</title>
  <line fill="none" id="svg_1" stroke="#ffffff" stroke-dasharray="null" stroke-linecap="round" stroke-linejoin="null" stroke-width="16" x1="49.72" x2="150.84" y1="101.11" y2="44.13"/>
  <line fill="none" id="svg_2" stroke="#ffffff" stroke-dasharray="null" stroke-linecap="round" stroke-linejoin="null" stroke-width="16" x1="150.28" x2="250.84" y1="44.69" y2="101.11"/>
  <line fill="none" id="svg_3" stroke="#ffffff" stroke-dasharray="null" stroke-linecap="round" stroke-linejoin="null" stroke-width="16" x1="250.28" x2="250.28" y1="102.23" y2="203.35"/>
  <line fill="none" id="svg_4" stroke="#ffffff" stroke-dasharray="null" stroke-linecap="round" stroke-linejoin="null" stroke-width="16" x1="249.52" x2="153.84" y1="207.25" y2="256.97"/>
  <line fill="none" id="svg_5" stroke="#ffffff" stroke-dasharray="null" stroke-linecap="round" stroke-linejoin="null" stroke-width="16" x1="154.74" x2="51.95" y1="256.98" y2="200"/>
  <line fill="none" id="svg_6" stroke="#ffffff" stroke-dasharray="null" stroke-linecap="round" stroke-linejoin="null" stroke-width="16" x1="50.84" x2="50.28" y1="196.65" y2="101.67"/>
  <line fill="none" id="svg_7" stroke="#ffffff" stroke-dasharray="null" stroke-linecap="round" stroke-linejoin="null" stroke-width="16" x1="154.74" x2="154.18" y1="243.29" y2="157.26"/>
  <line fill="none" id="svg_8" stroke="#ffffff" stroke-dasharray="null" stroke-linecap="round" stroke-linejoin="null" stroke-width="16" x1="152.11" x2="249.56" y1="158.13" y2="102.76"/>
  <line fill="none" id="svg_9" stroke="#ffffff" stroke-dasharray="null" stroke-linecap="round" stroke-linejoin="null" stroke-width="16" x1="55.33" x2="153.6" y1="106.31" y2="160.73"/>
  <path d="m98.75,100.54c1.03,-0.19 1.89,-0.4 2.77,-0.54l0.81,-0.17" fill="#ffffff" id="svg_10" stroke="#ffffff" stroke-dasharray="null" stroke-linecap="round" stroke-linejoin="null" stroke-width="16"/>
  <polyline fill="none" id="svg_13" points="149.19366931915283,100.72404074668884 150.0366563796997,100.54903769493103 150.86266040802002,100.37704062461853" stroke="#ffffff" stroke-dasharray="null" stroke-linecap="round" stroke-linejoin="null" stroke-width="16"/>
  <polyline fill="none" id="svg_14" points="191.5486650466919,99.31904196739197 192.42665576934814,99.3080403804779 193.3126573562622,99.14304709434509" stroke="#ffffff" stroke-dasharray="null" stroke-linecap="round" stroke-linejoin="null" stroke-width="16"/>
  <path d="m90.14,173.83c0.35,0.81 0.88,1.62 1.25,2.26c0.45,0.79 0.83,1.68 1.3,2.43c0.46,0.73 0.92,1.48 1.52,2.18c0.57,0.66 1.32,1.22 1.98,1.83c0.63,0.58 1.24,1.28 1.89,1.87c0.67,0.61 1.32,1.21 2.02,1.77c0.7,0.55 1.54,1.29 2.28,1.06c0.83,-0.25 1.22,-1.32 1.52,-2.15c0.29,-0.78 0.35,-1.81 0.1,-2.61c-0.26,-0.84 -0.92,-1.43 -1.46,-2.16c-0.57,-0.78 -1.22,-1.42 -1.8,-2.04c-0.57,-0.61 -1.14,-1.39 -1.79,-1.99c-0.57,-0.53 -1.5,-0.36 -2.34,-0.53c-0.84,-0.17 -1.68,-0.35 -2.54,-0.22l-0.92,0.05" fill="#ffffff" id="svg_15" stroke="#ffffff" stroke-dasharray="null" stroke-linecap="round" stroke-linejoin="null" stroke-width="16"/>
  <path d="m200.82,185.63c0.72,-0.58 1.44,-1.12 2.2,-1.45l0.84,-0.13" fill="#ffffff" id="svg_17" stroke="#ffffff" stroke-dasharray="null" stroke-linecap="round" stroke-linejoin="null" stroke-width="16"/>
  <polyline fill="none" id="svg_18" points="176.62065601348877,173.2340428829193 177.33665943145752,172.6240575313568 178.02565479278564,172.0000340938568" stroke="#ffffff" stroke-dasharray="null" stroke-linecap="round" stroke-linejoin="null" stroke-width="16"/>
  <polyline fill="none" id="svg_19" points="226.12065601348877,154.63405203819275 226.66066455841064,153.66005301475525" stroke="#ffffff" stroke-dasharray="null" stroke-linecap="round" stroke-linejoin="null" stroke-width="16"/>
  <polyline fill="none" id="svg_21" points="225.82066822052002,194.2340428829193 226.15666675567627,193.4220311641693" stroke="#ffffff" stroke-dasharray="null" stroke-linecap="round" stroke-linejoin="null" stroke-width="16"/>
  <path d="m178.82,218.83c0.74,-0.47 1.48,-1 2.19,-1.54l0.67,-0.53" fill="#ffffff" id="svg_22" stroke="#ffffff" stroke-dasharray="null" stroke-linecap="round" stroke-linejoin="null" stroke-width="16"/>
 </g>
</svg>