<?xml version="1.0"?>
<svg width="400" height="400" xmlns="http://www.w3.org/2000/svg" xmlns:svg="http://www.w3.org/2000/svg">
 <!-- Created with SVG-edit - https://github.com/SVG-Edit/svgedit-->

 <g class="layer" display="inline">
  <title>Layer 1</title>
  <path d="m50.28,40.78c2.14,0 2.84,0 3.67,0.04c1,0.04 2.19,0.14 2.86,0.21c0.72,0.07 1.49,0.15 2.3,0.24c0.87,0.09 1.79,0.2 2.76,0.3c1.02,0.11 3.21,0.33 4.38,0.44c1.22,0.11 2.5,0.23 3.82,0.34c1.38,0.12 2.82,0.24 4.32,0.36c1.55,0.13 4.84,0.4 6.57,0.54c1.79,0.15 3.65,0.3 5.56,0.45c1.96,0.16 3.98,0.31 6.05,0.46c2.12,0.15 6.5,0.44 8.75,0.58c2.3,0.14 4.63,0.26 6.99,0.38c2.39,0.12 4.8,0.24 7.23,0.35c2.44,0.11 7.35,0.34 9.81,0.45c2.46,0.11 4.93,0.22 7.4,0.32c2.48,0.1 4.97,0.2 7.48,0.28c2.52,0.08 7.62,0.22 10.2,0.26c2.59,0.05 5.2,0.08 7.79,0.1c2.59,0.02 5.16,0.03 7.71,0.04c2.52,0.01 7.42,0.01 9.8,0c2.33,0 4.61,0 6.86,-0.01c2.22,0 4.43,-0.01 6.62,-0.03c2.19,-0.01 6.58,-0.06 8.79,-0.09c2.22,-0.03 4.44,-0.07 6.66,-0.11c2.2,-0.04 4.37,-0.08 6.51,-0.12c2.1,-0.04 6.13,-0.11 8.05,-0.13c1.86,-0.02 3.65,-0.04 5.39,-0.05c1.68,-0.01 3.31,-0.01 4.89,-0.02c1.53,0 4.46,0 5.87,0c1.37,0 2.7,0 3.99,0.01c1.26,0 2.49,0.01 3.68,0.03c1.16,0.01 3.4,0.06 4.47,0.09c1.05,0.03 2.08,0.08 3.1,0.13c1,0.05 2,0.11 2.99,0.18c0.99,0.07 2.98,0.22 4,0.31c1.02,0.09 2.06,0.19 3.11,0.3c1.06,0.11 2.14,0.23 3.23,0.37c1.11,0.14 3.36,0.45 4.52,0.63c1.17,0.18 2.37,0.37 3.59,0.56c1.25,0.2 2.53,0.39 3.84,0.58c1.35,0.19 4.17,0.55 5.64,0.71c1.51,0.16 3.06,0.3 4.63,0.42c1.59,0.13 3.2,0.24 4.81,0.34c1.61,0.1 4.82,0.28 6.41,0.36c1.57,0.08 3.11,0.15 4.64,0.21c1.51,0.06 3,0.11 4.47,0.16c1.45,0.04 4.29,0.11 5.67,0.13c1.36,0.02 2.7,0.04 4.02,0.05c1.29,0.01 2.56,0.01 3.8,0.02c1.21,0 3.56,0 4.69,0c1.1,0 2.18,0 3.23,-0.01c1.02,-0.01 2.01,-0.02 2.97,-0.05c0.94,-0.03 2.72,-0.12 3.58,-0.18c0.82,-0.06 1.62,-0.15 2.39,-0.23c0.74,-0.09 1.45,-0.18 2.14,-0.27c0.66,-0.09 1.89,-0.27 2.46,-0.35c0.55,-0.08 1.07,-0.15 1.57,-0.22c0.48,-0.06 0.94,-0.13 1.38,-0.19c0.42,-0.06 1.23,-0.17 1.62,-0.23c0.38,-0.05 0.74,-0.11 1.1,-0.16c0.35,-0.05 0.7,-0.1 1.04,-0.14c0.34,-0.04 1.01,-0.11 1.35,-0.13c0.33,-0.02 0.67,-0.04 1,-0.05c0.33,-0.01 0.66,-0.01 0.98,-0.02c0.32,0 0.94,0 1.25,0c0.3,0 0.59,0 0.89,0c0.29,0 0.57,0 0.86,0c0.28,0 0.84,0 1.12,0c0.28,0 0.56,0 0.83,0c0.27,0 0.54,0 0.81,0c0.26,0 0.78,0 1.03,0c0.24,0 0.49,0 0.72,0c0.24,0 0.48,0 0.71,0c0.24,0 0.73,0 0.99,0c0.26,0 0.52,0 0.78,0c0.26,0 0.52,0 0.77,0c0.25,0 0.71,0 0.93,0c0.21,0 0.41,0 0.6,0c0.18,0 0.36,0 0.54,0c0.17,0 0.51,0 0.68,0c0.17,0 0.33,0 0.5,-0.01c0.16,0 0.32,-0.01 0.48,-0.03c0.15,-0.01 0.44,-0.06 0.58,-0.09c0.13,-0.03 0.26,-0.07 0.38,-0.11c0.12,-0.04 0.24,-0.08 0.35,-0.12c0.11,-0.04 0.34,-0.11 0.45,-0.13c0.11,-0.02 0.22,-0.04 0.34,-0.05c0.11,-0.01 0.22,-0.01 0.34,-0.02c0.11,0 0.34,0 0.45,0c0.11,0 0.22,0 0.32,0c0.1,0 0.2,0 0.28,0c0.08,0 0.21,0 0.26,0c0.04,0 0.07,0 0.1,0c0.02,0 0.03,0 0.04,0c0,0 0.01,0 0,0c0,0 0,0 -0.01,0.01c-0.01,0.01 -0.01,0.01 -0.03,0.03c-0.02,0.02 -0.06,0.06 -0.09,0.09c-0.04,0.04 -0.08,0.08 -0.13,0.12c-0.05,0.05 -0.11,0.1 -0.18,0.15c-0.07,0.05 -0.23,0.17 -0.31,0.22c-0.09,0.06 -0.19,0.12 -0.29,0.18c-0.11,0.07 -0.22,0.14 -0.34,0.22c-0.13,0.09 -0.39,0.29 -0.54,0.41c-0.15,0.13 -0.3,0.26 -0.47,0.41c-0.17,0.15 -0.35,0.31 -0.54,0.47c-0.2,0.17 -0.62,0.5 -0.85,0.67c-0.24,0.17 -0.49,0.34 -0.74,0.51c-0.26,0.18 -0.53,0.36 -0.8,0.55c-0.28,0.2 -0.84,0.62 -1.11,0.85c-0.28,0.24 -0.56,0.49 -0.84,0.75c-0.28,0.27 -0.56,0.56 -0.84,0.85c-0.28,0.3 -0.84,0.95 -1.12,1.3c-0.28,0.35 -0.56,0.71 -0.83,1.07c-0.28,0.37 -0.55,0.74 -0.81,1.11c-0.26,0.37 -0.78,1.11 -1.03,1.47c-0.25,0.36 -0.49,0.71 -0.73,1.07c-0.24,0.36 -0.49,0.71 -0.74,1.08c-0.26,0.37 -0.79,1.13 -1.08,1.53c-0.29,0.41 -0.6,0.82 -0.9,1.25c-0.31,0.44 -0.63,0.88 -0.94,1.33c-0.32,0.46 -0.94,1.4 -1.24,1.87c-0.3,0.48 -0.6,0.97 -0.89,1.46c-0.29,0.49 -0.57,0.99 -0.86,1.49c-0.28,0.5 -0.84,1.51 -1.12,2.01c-0.28,0.5 -0.56,1 -0.83,1.5c-0.27,0.5 -0.53,0.99 -0.79,1.48c-0.25,0.49 -0.72,1.45 -0.93,1.92c-0.21,0.47 -0.41,0.94 -0.61,1.41c-0.2,0.47 -0.39,0.95 -0.59,1.44c-0.2,0.5 -0.63,1.53 -0.86,2.07c-0.24,0.55 -0.48,1.12 -0.74,1.69c-0.26,0.58 -0.52,1.17 -0.78,1.76c-0.26,0.59 -0.77,1.77 -1.02,2.36c-0.24,0.58 -0.48,1.16 -0.71,1.74c-0.23,0.58 -0.45,1.16 -0.66,1.75c-0.21,0.59 -0.62,1.8 -0.8,2.42c-0.19,0.63 -0.37,1.26 -0.56,1.9c-0.18,0.64 -0.36,1.28 -0.55,1.92c-0.18,0.64 -0.56,1.88 -0.76,2.49c-0.2,0.6 -0.41,1.19 -0.62,1.78c-0.21,0.59 -0.43,1.17 -0.65,1.76c-0.22,0.59 -0.67,1.8 -0.89,2.42c-0.23,0.63 -0.45,1.26 -0.68,1.9c-0.23,0.64 -0.47,1.29 -0.72,1.92c-0.25,0.64 -0.79,1.89 -1.08,2.49c-0.29,0.6 -0.59,1.2 -0.9,1.78c-0.31,0.59 -0.63,1.17 -0.94,1.76c-0.32,0.59 -0.94,1.8 -1.24,2.42c-0.3,0.63 -0.6,1.27 -0.88,1.91c-0.29,0.65 -0.56,1.3 -0.83,1.95c-0.27,0.65 -0.78,1.94 -1.03,2.58c-0.25,0.63 -0.48,1.26 -0.72,1.88c-0.24,0.61 -0.47,1.22 -0.71,1.81c-0.24,0.59 -0.73,1.73 -0.99,2.28c-0.25,0.54 -0.52,1.08 -0.78,1.6c-0.26,0.52 -0.53,1.03 -0.79,1.54c-0.78,1.51 -1.03,2.02 -1.51,3.02c-0.24,0.5 -0.47,1 -0.95,1.98c-0.24,0.49 -0.98,1.92 -1.25,2.39c-0.53,0.93 -0.81,1.39 -1.38,2.31c-0.29,0.47 -1.21,1.88 -1.52,2.37c-0.32,0.49 -0.98,1.48 -1.32,1.99c-0.34,0.51 -1.41,2.08 -1.77,2.61c-0.37,0.54 -0.74,1.08 -1.51,2.17c-0.38,0.55 -0.77,1.09 -1.16,1.63c-0.78,1.07 -1.56,2.12 -1.95,2.65c-0.39,0.52 -0.78,1.04 -1.16,1.57c-0.76,1.06 -1.49,2.16 -1.85,2.73c-0.36,0.57 -0.71,1.15 -1.41,2.33c-0.35,0.59 -0.7,1.19 -1.05,1.79c-0.71,1.19 -1.08,1.77 -1.83,2.92c-0.38,0.58 -0.77,1.16 -1.16,1.74c-0.4,0.59 -0.81,1.18 -1.63,2.39c-0.42,0.62 -0.85,1.25 -1.28,1.89c-0.44,0.65 -0.88,1.3 -1.33,1.96c-0.45,0.66 -0.91,1.33 -1.85,2.67c-0.48,0.67 -0.96,1.34 -1.45,2.02c-0.49,0.68 -1,1.38 -1.5,2.08c-0.51,0.72 -1.04,1.44 -2.08,2.97c-0.54,0.79 -1.07,1.6 -1.61,2.43c-0.55,0.84 -1.1,1.69 -1.65,2.54c-0.55,0.86 -1.11,1.72 -2.23,3.41c-0.56,0.83 -1.11,1.66 -1.67,2.47c-0.55,0.8 -1.11,1.6 -1.66,2.38c-0.55,0.78 -1.09,1.55 -2.16,3.07c-0.53,0.75 -1.05,1.5 -1.57,2.24c-0.51,0.74 -1.02,1.48 -1.52,2.22c-0.5,0.74 -0.99,1.48 -1.94,2.98c-0.48,0.75 -0.94,1.52 -1.4,2.28c-0.45,0.76 -0.9,1.52 -1.33,2.27c-0.43,0.74 -0.85,1.48 -1.65,2.9c-0.39,0.69 -0.76,1.36 -1.13,2.02c-0.36,0.64 -0.71,1.27 -1.06,1.89c-0.34,0.6 -0.67,1.19 -1.35,2.33c-0.33,0.56 -0.67,1.1 -1.01,1.63c-0.33,0.53 -0.67,1.06 -1.01,1.58c-0.33,0.52 -0.67,1.04 -1.34,2.1c-0.34,0.53 -0.67,1.07 -1.01,1.61c-0.34,0.54 -0.67,1.08 -1.01,1.61c-0.33,0.53 -0.66,1.06 -1.34,2.08c-0.33,0.5 -0.67,0.98 -1,1.46c-0.33,0.46 -0.65,0.92 -0.97,1.36c-0.61,0.85 -1.47,2.04 -1.73,2.41c-0.5,0.72 -0.96,1.4 -1.39,2.06c-0.6,0.93 -1.15,1.8 -1.46,2.37c-0.56,1.04 -0.8,1.79 -1.13,2.67c-0.3,0.81 -0.71,1.53 -1.26,2.38c-0.44,0.67 -0.88,1.33 -1.33,2.35c-0.31,0.7 -0.63,1.49 -1.01,2.35c-0.38,0.88 -0.65,1.77 -0.85,2.39c-0.32,1.02 -0.63,1.72 -0.9,2.59c-0.26,0.83 -0.54,1.73 -0.96,2.61c-0.31,0.64 -0.9,1.6 -1.22,2.17c-0.58,1.04 -0.9,1.79 -1.12,2.32c-0.45,1.1 -0.78,1.94 -1.01,2.49c-0.33,0.8 -0.78,1.81 -1.12,2.53c-0.34,0.72 -0.79,1.72 -1.12,2.53c-0.34,0.83 -0.67,1.66 -1.01,2.5c-0.34,0.84 -0.67,1.68 -1.01,2.51c-0.22,0.56 -0.56,1.4 -1.01,2.51c-0.22,0.56 -0.56,1.43 -0.89,2.33c-0.34,0.94 -0.55,1.58 -0.89,2.49c-0.32,0.86 -0.67,1.62 -1.01,2.36c-0.45,0.99 -0.78,1.78 -1.12,2.57c-0.44,1.03 -0.77,1.75 -1.15,2.43c-0.51,0.91 -1,1.56 -1.45,2.24c-0.59,0.89 -0.95,1.56 -1.31,2.2c-0.55,0.99 -1.01,1.7 -1.57,2.55c-0.44,0.66 -0.88,1.44 -1.36,2.17c-0.45,0.7 -1.03,1.24 -1.66,2.1c-0.45,0.62 -0.8,1.5 -1.21,2.28c-0.45,0.87 -1,1.42 -1.52,2.2c-0.52,0.77 -0.97,1.53 -1.59,2.34c-0.48,0.63 -0.98,1.06 -1.67,1.92c-0.51,0.64 -1.04,1.4 -1.61,2.01c-0.65,0.69 -1.42,1.2 -1.92,1.96c-0.5,0.76 -0.81,1.6 -1.32,2.31c-0.49,0.68 -1.14,1.2 -1.7,1.83c-0.73,0.81 -1.17,1.49 -1.71,2.35c-0.42,0.67 -1.17,1.12 -1.64,1.92c-0.44,0.75 -0.61,1.64 -1.2,2.43c-0.5,0.68 -0.83,1.95 -1.57,1.93c-0.83,-0.01 -0.74,-1.3 -1.27,-2.02c-0.67,-0.91 -1.21,-1.62 -1.51,-2.01c-0.63,-0.83 -0.96,-1.27 -1.67,-2.2c-0.76,-0.98 -1.16,-1.49 -1.56,-2.01c-0.84,-1.08 -1.27,-1.64 -1.7,-2.21c-0.44,-0.59 -0.89,-1.18 -1.78,-2.44c-0.45,-0.65 -0.9,-1.31 -1.34,-1.99c-0.45,-0.68 -0.89,-1.37 -1.34,-2.07c-0.45,-0.69 -0.89,-1.39 -1.79,-2.74c-0.44,-0.67 -0.89,-1.32 -1.34,-1.97c-0.45,-0.65 -0.9,-1.3 -1.36,-1.95c-0.46,-0.66 -0.93,-1.32 -1.86,-2.69c-0.48,-0.7 -0.96,-1.43 -1.44,-2.16c-0.49,-0.74 -0.98,-1.48 -1.46,-2.23c-0.49,-0.75 -0.97,-1.49 -1.93,-2.96c-0.47,-0.72 -0.94,-1.43 -1.4,-2.13c-0.45,-0.69 -0.9,-1.38 -1.33,-2.06c-0.43,-0.68 -0.86,-1.34 -1.65,-2.69c-0.39,-0.67 -0.76,-1.34 -1.13,-2c-0.36,-0.66 -0.71,-1.31 -1.06,-1.96c-0.34,-0.64 -0.67,-1.26 -1.35,-2.46c-0.33,-0.58 -0.67,-1.14 -1.01,-1.69c-0.33,-0.54 -1,-1.59 -1.34,-2.1c-0.33,-0.51 -1.01,-1.52 -1.67,-2.52c-0.33,-0.5 -0.66,-1 -1.3,-1.99c-0.31,-0.49 -1.2,-1.94 -1.47,-2.41c-0.53,-0.93 -0.77,-1.39 -1.26,-2.3c-0.24,-0.45 -0.98,-1.8 -1.23,-2.24c-0.52,-0.89 -0.78,-1.34 -1.33,-2.21c-0.55,-0.87 -1.11,-1.72 -1.67,-2.54c-0.28,-0.41 -0.83,-1.23 -1.37,-2.06c-0.27,-0.42 -1.03,-1.75 -1.27,-2.21c-0.49,-0.95 -0.73,-1.45 -1.22,-2.45c-0.26,-0.52 -0.79,-1.57 -1.38,-2.64c-0.3,-0.55 -0.62,-1.09 -0.94,-1.64c-0.67,-1.11 -1.01,-1.67 -1.73,-2.78c-0.36,-0.56 -0.73,-1.12 -1.5,-2.25c-0.39,-0.57 -0.78,-1.15 -1.18,-1.73c-0.4,-0.59 -1.23,-1.8 -1.65,-2.42c-0.43,-0.63 -0.86,-1.27 -1.29,-1.92c-0.44,-0.65 -0.88,-1.31 -1.32,-1.98c-0.45,-0.67 -1.34,-2.01 -1.79,-2.68c-0.45,-0.67 -0.89,-1.34 -1.34,-2.02c-0.45,-0.68 -0.89,-1.35 -1.34,-2.04c-0.45,-0.69 -1.34,-2.07 -1.79,-2.77c-0.45,-0.71 -0.9,-1.42 -1.34,-2.14c-0.45,-0.73 -0.9,-1.47 -1.34,-2.21c-0.45,-0.75 -1.34,-2.3 -1.79,-3.09c-0.45,-0.8 -0.9,-1.61 -1.34,-2.42c-0.45,-0.83 -0.9,-1.66 -1.34,-2.5c-0.45,-0.85 -1.34,-2.57 -1.79,-3.44c-0.45,-0.87 -0.9,-1.75 -1.35,-2.63c-0.45,-0.89 -0.91,-1.77 -1.37,-2.66c-0.46,-0.89 -1.4,-2.68 -1.88,-3.57c-0.48,-0.89 -0.97,-1.79 -1.47,-2.68c-0.5,-0.89 -1,-1.78 -1.52,-2.66c-0.51,-0.88 -1.56,-2.62 -2.1,-3.48c-0.53,-0.86 -1.08,-1.71 -1.62,-2.56c-0.54,-0.84 -1.09,-1.68 -1.63,-2.51c-0.54,-0.82 -1.61,-2.45 -2.14,-3.26c-0.52,-0.8 -1.04,-1.6 -1.55,-2.38c-0.51,-0.78 -1.01,-1.55 -1.5,-2.31c-0.49,-0.75 -1.45,-2.23 -1.92,-2.95c-0.47,-0.71 -0.93,-1.41 -1.38,-2.11c-0.45,-0.69 -0.9,-1.37 -1.33,-2.05c-0.43,-0.67 -1.28,-2.02 -1.7,-2.69c-0.41,-0.67 -0.82,-1.34 -1.22,-2.01c-0.4,-0.67 -0.8,-1.34 -1.19,-2.01c-0.39,-0.67 -1.18,-2.01 -1.57,-2.68c-0.39,-0.67 -0.78,-1.34 -1.16,-2.01c-0.38,-0.66 -0.76,-1.33 -1.12,-1.99c-0.36,-0.65 -1.05,-1.95 -1.38,-2.59c-0.32,-0.63 -0.63,-1.26 -0.94,-1.89c-0.3,-0.62 -0.6,-1.24 -0.9,-1.86c-0.3,-0.62 -0.9,-1.85 -1.21,-2.46c-0.31,-0.62 -0.63,-1.23 -0.96,-1.84c-0.33,-0.62 -0.66,-1.23 -0.99,-1.84c-0.33,-0.61 -1,-1.84 -1.34,-2.46c-0.33,-0.61 -0.67,-1.23 -1,-1.84c-0.33,-0.61 -0.66,-1.21 -0.98,-1.82c-0.32,-0.6 -0.95,-1.78 -1.25,-2.37c-0.3,-0.58 -0.59,-1.15 -0.88,-1.71c-0.28,-0.56 -0.56,-1.1 -0.83,-1.64c-0.27,-0.53 -0.78,-1.56 -1.03,-2.05c-0.24,-0.49 -0.48,-0.97 -0.72,-1.44c-0.23,-0.47 -0.46,-0.94 -0.69,-1.4c-0.23,-0.47 -0.67,-1.41 -0.9,-1.88c-0.22,-0.48 -0.45,-0.97 -0.68,-1.47c-0.46,-1.01 -0.69,-1.52 -1.43,-3.08c-0.25,-0.53 -0.51,-1.07 -1.04,-2.17c-0.27,-0.56 -0.55,-1.12 -0.82,-1.68c-0.84,-1.73 -1.12,-2.32 -1.39,-2.92c-0.28,-0.59 -0.83,-1.79 -1.1,-2.38c-0.27,-0.59 -0.53,-1.17 -1.29,-2.86c-0.24,-0.54 -0.49,-1.08 -0.95,-2.15c-0.23,-0.53 -0.47,-1.06 -1.13,-2.7c-0.23,-0.56 -0.45,-1.14 -0.9,-2.32c-0.23,-0.6 -0.46,-1.22 -0.7,-1.83c-0.24,-0.63 -0.98,-2.55 -1.25,-3.2c-0.26,-0.66 -0.53,-1.32 -0.81,-1.99c-0.28,-0.67 -0.57,-1.35 -0.86,-2.04c-0.6,-1.39 -0.91,-2.09 -1.23,-2.79c-0.31,-0.7 -0.95,-2.1 -1.26,-2.79c-0.31,-0.68 -0.61,-1.34 -1.19,-2.61c-0.27,-0.6 -0.54,-1.19 -1.03,-2.3c-0.24,-0.53 -0.68,-1.55 -0.89,-2.05c-0.6,-1.43 -0.79,-1.9 -1.15,-2.82c-0.35,-0.89 -0.51,-1.33 -1.03,-2.61c-0.33,-0.83 -0.67,-1.64 -1.03,-2.43c-0.18,-0.4 -0.74,-1.57 -1.14,-2.35c-0.41,-0.78 -0.85,-1.55 -1.07,-1.92c-0.66,-1.12 -1.11,-1.83 -1.56,-2.51c-0.43,-0.66 -1.25,-1.86 -1.63,-2.4c-0.54,-0.76 -0.91,-1.26 -1.56,-2.35c-0.35,-0.59 -0.66,-1.2 -1.13,-2.12c-0.43,-0.85 -0.81,-1.62 -1.16,-2.32c-0.45,-0.9 -0.9,-1.79 -1.23,-2.46c-0.45,-0.89 -0.77,-1.55 -1.25,-2.59l-0.3,-0.73" fill="none" fill-opacity="null" id="svg_15" stroke="#ffffff" stroke-dasharray="null" stroke-linecap="round" stroke-linejoin="null" stroke-opacity="null" stroke-width="30" transform="matrix(1, 0, 0, 1, -4.46927, 16.2011)"/>
 </g>
</svg>