<?xml version="1.0"?>
<svg viewBox="40 20 320 340" xmlns="http://www.w3.org/2000/svg" xmlns:svg="http://www.w3.org/2000/svg">
 <!-- Created with SVG-edit - https://github.com/SVG-Edit/svgedit-->

 <g class="layer" display="inline">
  <title>Layer 1</title>
  <path d="m100.56,125.14c0.88,0.36 1.82,0.51 2.56,0.56c0.84,0.05 1.75,0.12 2.71,0.24c0.64,0.08 1.9,0.24 2.81,0.29c0.59,0.03 1.47,0.03 2.7,0.03c0.63,0 1.54,0.01 2.6,0c0.85,-0.01 1.81,-0.09 2.63,-0.24c0.65,-0.12 1.77,-0.29 2.44,-0.31c1.12,-0.04 2.01,-0.01 2.65,-0.01c1.18,0 1.9,0 2.87,0c0.87,0 1.83,0 2.61,0c0.79,0 1.83,0 2.57,0c0.95,0 1.94,0 2.73,0c0.82,0 1.94,0 2.77,0c0.84,0 1.68,0 2.51,0c0.84,0 1.96,0 2.8,0c0.86,0 1.44,0 2.67,0c0.64,0 1.63,0 2.63,0c1.01,0 1.69,0 2.38,0c1.07,0 2.18,0 2.93,0.01c0.75,0.01 1.86,0.07 2.58,0.15c1.05,0.11 1.75,0.22 2.82,0.31c0.74,0.06 1.5,0.08 2.28,0.09c0.8,0.01 2.05,0.01 2.92,0.01c0.89,0 1.35,0 2.29,0c1.49,0 2.01,0 3.07,0c0.54,0 1.64,0 2.2,0c1.67,0 2.23,0 2.79,0c1.12,0.01 1.68,0.01 2.79,0.05c1.12,0.04 2.23,0.11 2.79,0.15c0.56,0.04 1.66,0.13 2.21,0.16c1.61,0.11 2.14,0.13 3.18,0.17c1.02,0.03 1.52,0.04 2.5,0.08c0.96,0.04 1.9,0.11 2.83,0.2c0.92,0.09 1.38,0.15 2.79,0.32c0.96,0.11 1.44,0.17 2.41,0.28c0.96,0.11 1.43,0.16 2.78,0.34c0.86,0.11 1.69,0.22 2.51,0.3c1.24,0.12 2.09,0.15 2.52,0.17c0.87,0.03 1.76,0.03 3.1,0.03c0.89,0 1.34,0 2.23,0.01c0.89,0.01 2.24,0.08 3.13,0.15c0.45,0.04 1.33,0.13 2.2,0.2c1.28,0.11 2.11,0.15 2.93,0.18c0.82,0.03 1.67,0.05 2.54,0.11c0.91,0.06 1.86,0.15 2.82,0.23c0.48,0.04 1.93,0.15 2.87,0.19c0.47,0.02 1.41,0.04 2.37,0.05c0.5,0 2.07,0 2.62,0c0.57,0 1.72,0 2.31,0c1.19,0 2.37,0 2.95,0c1.15,0 1.72,0 2.86,0c0.56,0 1.12,0 2.8,0c0.56,0 1.66,0 2.21,0c1.08,0 1.6,0 3.13,0c0.49,0 1.44,0 2.36,0c0.9,0 1.8,0 2.69,0c0.88,0 1.75,0 2.59,0c1.19,0 1.93,0 2.64,0c1.03,0 2.03,0 2.7,0c0.99,0 1.63,0 2.86,0c0.87,0 1.72,0 2.84,0c0.56,0 1.4,0 2.51,-0.12c0.82,-0.09 1.59,-0.24 2.6,-0.55c0.76,-0.23 1.77,-0.43 2.6,-0.45c0.89,-0.02 1.78,0 2.45,0c1.12,0 1.81,0 3.03,0c0.78,0 1.55,0.01 2.48,0c0.96,-0.01 1.82,-0.08 2.63,-0.34c0.88,-0.28 1.8,-0.73 2.62,-0.77c0.84,-0.05 1.64,0 2.64,0c0.92,0 1.82,0.02 2.66,0c0.81,-0.02 1.81,-0.23 2.48,-0.45c1.01,-0.32 1.67,-0.52 2.68,-0.66c0.92,-0.12 1.68,-0.42 2.66,-0.54c0.8,-0.1 1.81,-0.03 2.72,-0.03c0.84,0 1.61,-0.6 2.38,-0.56c0.63,0.03 0.5,1.27 0.5,2.23c0,0.68 -0.01,1.44 0,2.58c0.01,0.79 0.08,1.89 0.2,2.73c0.08,0.57 0.25,1.44 0.47,2.67c0.11,0.65 0.23,1.32 0.45,2.73c0.11,0.74 0.22,1.48 0.32,2.24c0.09,0.75 0.17,1.85 0.24,2.91c0.04,0.7 0.07,1.41 0.26,2.48c0.13,0.75 0.33,1.53 0.51,2.34c0.28,1.29 0.43,2.21 0.5,2.67c0.14,0.95 0.28,1.89 0.36,2.36c0.23,1.36 0.43,2.21 0.62,3.05c0.19,0.84 0.47,2.14 0.55,2.59c0.16,0.93 0.28,1.89 0.34,2.37c0.12,0.97 0.29,2.4 0.34,2.87c0.11,0.92 0.21,1.83 0.29,2.73c0.07,0.89 0.11,1.79 0.15,2.67c0.03,0.87 0.04,1.71 0.14,2.89c0.06,0.74 0.16,1.45 0.24,2.14c0.14,1.34 0.17,2.01 0.19,3c0.01,0.64 0,1.87 0.02,2.75c0.01,0.57 0.1,1.69 0.23,2.53c0.14,0.84 0.38,1.95 0.53,2.78c0.15,0.78 0.3,1.72 0.33,2.5c0.04,1.03 -0.02,1.72 0.14,2.83c0.09,0.63 0.3,1.54 0.39,2.55c0.07,0.8 0.07,1.63 0.21,2.75c0.07,0.57 0.23,1.43 0.33,2.64c0.05,0.64 0.07,1.63 0.11,2.33c0.06,1.08 0.15,1.82 0.23,2.58c0.08,0.75 0.22,2.22 0.24,2.93c0.02,0.7 0.03,1.4 -0.09,2.83c-0.06,0.75 -0.17,1.52 -0.27,2.31c-0.16,1.23 -0.28,2.08 -0.38,2.94c-0.05,0.43 -0.16,1.3 -0.25,2.57c-0.06,0.83 -0.08,1.64 -0.11,2.45c-0.03,0.81 -0.11,2.07 -0.18,2.92c-0.08,0.86 -0.13,1.3 -0.2,2.16c-0.1,1.26 -0.13,2.08 -0.15,2.88c-0.01,0.79 -0.01,1.97 -0.01,2.75c0,0.78 0,1.54 0,3.04c0,0.72 0.01,1.41 -0.02,2.1c-0.05,1.35 -0.14,2.02 -0.26,3.01c-0.08,0.65 -0.22,1.9 -0.25,2.49c-0.04,0.83 -0.03,2.02 -0.03,2.82c0,0.94 0,1.75 0,2.54c0,0.95 -0.15,1.89 -0.32,2.69c-0.2,0.93 -0.2,1.78 -0.33,2.88c-0.08,0.67 -0.3,1.56 -0.4,2.46c-0.09,0.89 -0.05,1.56 -0.07,2.68c-0.02,0.86 -0.17,1.85 -0.32,2.55c-0.22,1 -0.27,1.69 -0.48,2.74c-0.12,0.61 -0.24,1.78 -0.37,2.6c-0.13,0.83 -0.48,1.73 -0.51,2.61c-0.03,0.89 0.12,2 -0.52,2.24c-0.94,0.35 -1.76,0 -2.92,0c-0.63,0 -1.27,-0.01 -2.29,0.03c-1.07,0.04 -1.8,0.13 -2.56,0.21c-0.77,0.08 -1.54,0.18 -2.72,0.25c-1.17,0.07 -1.96,0.06 -2.74,0.07c-1.17,0 -1.95,0 -2.73,0c-0.76,0 -1.87,0 -2.59,0c-1.01,0.01 -1.64,-0.04 -2.92,0.16c-0.63,0.1 -1.57,0.42 -2.39,0.62c-0.83,0.2 -1.8,0.32 -2.53,0.34c-0.97,0.02 -1.84,-0.01 -2.8,0.1c-0.78,0.08 -1.59,0.25 -2.7,0.47c-0.84,0.17 -1.7,0.34 -2.28,0.45c-1.23,0.23 -1.87,0.33 -2.83,0.5c-0.94,0.17 -1.84,0.34 -2.73,0.48c-0.59,0.09 -1.82,0.2 -2.46,0.22c-0.99,0.03 -1.99,0.02 -2.66,0.02c-0.99,0 -1.64,0 -2.89,0c-0.89,0 -1.74,0 -2.58,0c-0.84,0 -1.68,0 -2.79,0c-0.84,0 -1.66,0 -2.7,0c-0.74,0 -1.47,0 -2.51,0c-0.88,0 -1.82,0 -2.45,0c-1.23,0 -1.81,0.02 -2.67,-0.03c-1.12,-0.06 -1.96,-0.22 -2.83,-0.33c-0.9,-0.12 -1.84,-0.17 -2.49,-0.19c-0.99,-0.02 -2,-0.01 -2.67,-0.01c-1.04,0 -1.77,0 -2.92,0c-0.82,0 -1.66,0 -2.52,0.03c-1.28,0.05 -1.69,0.09 -2.51,0.17c-0.8,0.08 -1.59,0.18 -2.77,0.27c-1.17,0.08 -1.96,0.09 -2.74,0.12c-1.17,0.05 -1.96,0.12 -2.74,0.21c-0.8,0.09 -1.61,0.21 -2.86,0.37c-0.43,0.06 -1.29,0.17 -2.17,0.28c-0.89,0.11 -2.23,0.28 -2.67,0.33c-0.89,0.11 -1.77,0.21 -2.63,0.29c-1.26,0.11 -2.08,0.13 -2.89,0.16c-0.79,0.03 -1.97,0.09 -2.75,0.16c-0.79,0.07 -1.58,0.17 -2.39,0.24c-1.25,0.11 -2.1,0.13 -2.53,0.14c-0.85,0.03 -1.69,0.04 -2.87,0.14c-1.1,0.1 -1.8,0.21 -2.48,0.32c-1.01,0.16 -2.01,0.34 -2.68,0.43c-1.34,0.17 -2.01,0.2 -2.68,0.23c-0.98,0.05 -1.93,0.09 -2.82,0.21c-0.87,0.11 -1.99,0.28 -2.55,0.31c-0.84,0.05 -1.68,0.02 -2.79,-0.11c-0.85,-0.1 -1.72,-0.26 -2.64,-0.33c-0.96,-0.07 -1.63,-0.06 -2.33,-0.07c-1.08,0 -2.21,0 -2.97,0c-0.78,0 -1.95,0 -2.73,0c-0.77,0 -1.53,0 -2.65,0c-0.72,0 -1.75,0 -2.41,0c-1.25,0 -2.14,0 -2.73,0c-1.2,0 -1.82,0 -2.77,0c-0.92,0 -1.78,-0.02 -2.79,0.01c-0.73,0.02 -1.73,0.15 -2.53,0.27c-0.79,0.12 -1.8,0.22 -2.73,0.29c-0.9,0.07 -1.8,0.24 -2.5,0.35c-0.98,0.15 -1.78,0.18 -2.63,0.19c-1.21,0.01 -1.84,0 -2.78,0c-0.61,0 -1.73,0 -2.7,0c-0.91,0 -1.8,0 -2.69,0c-0.89,0 -1.79,-0.02 -2.68,0.09c-0.9,0.11 -1.56,0.31 -2.68,0.42c-0.68,0.06 -1.88,0.05 -2.65,0.05c-0.79,0 -1.83,-0.01 -2.57,0c-0.95,0.02 -1.94,0.12 -2.73,0.24c-0.82,0.12 -1.65,0.25 -2.49,0.29c-0.82,0.04 -1.86,0.03 -2.83,0.03c-0.66,0 -1.84,0 -2.57,0c-0.97,0 -1.87,0 -2.89,-0.19c-0.58,-0.11 -1.51,-0.39 -2.17,-0.57c-1,-0.28 -2,-0.51 -2.66,-0.62c-0.97,-0.16 -1.9,-0.25 -2.78,-0.28c-0.83,-0.03 -1.86,-0.02 -2.8,-0.02c-0.65,0 -1.78,0 -2.72,0c-0.76,0 -2.01,0.76 -2.61,0c-0.31,-0.4 0.28,-1.34 0.28,-2.25c0,-0.93 0,-1.75 0,-2.72c0,-0.63 0,-1.74 0,-2.63c0,-0.67 0,-1.79 0,-2.47c0,-1.2 0.02,-1.98 -0.02,-2.79c-0.05,-1.11 -0.13,-1.67 -0.27,-2.52c-0.15,-0.88 -0.32,-1.79 -0.49,-2.74c-0.11,-0.64 -0.34,-1.9 -0.45,-2.51c-0.16,-0.87 -0.32,-1.72 -0.4,-2.84c-0.06,-0.83 -0.04,-1.63 -0.05,-2.63c-0.01,-0.7 -0.09,-1.74 -0.28,-2.67c-0.19,-0.93 -0.27,-1.75 -0.28,-2.4c-0.02,-1.11 0,-1.99 0,-3c0,-0.74 0,-1.67 0,-2.49c0,-0.87 0,-1.77 0,-2.66c0,-0.89 0,-1.79 0,-2.49c0,-1.24 0,-2.04 0,-2.83c0,-1.01 0,-1.72 0,-2.44c0,-1.27 0,-1.83 0,-2.73c0,-0.99 0,-2.06 0.02,-2.78c0.02,-0.72 0.09,-1.74 0.22,-2.67c0.12,-0.87 0.26,-2 0.29,-2.55c0.04,-0.84 0.02,-1.96 0.03,-2.8c0.01,-0.86 0.08,-2.05 0.16,-2.67c0.11,-0.97 0.22,-1.63 0.31,-2.63c0.08,-1 0.09,-1.66 0.09,-2.63c0.01,-0.93 0,-1.82 0,-2.7c0,-0.9 0,-1.84 0,-2.48c0,-0.96 -0.01,-1.89 0.01,-2.78c0.02,-0.88 0.11,-2.09 0.19,-2.73c0.08,-0.64 0.23,-1.6 0.31,-2.83c0.04,-0.6 0.05,-1.5 0.05,-2.47c0,-1.05 0,-1.78 0.03,-2.52c0.05,-1.11 0.12,-1.82 0.25,-2.85c0.08,-0.66 0.22,-1.91 0.25,-2.51c0.04,-0.86 0.02,-1.99 0.03,-2.83c0.01,-0.84 0.08,-1.96 0.16,-2.51c0.11,-0.84 0.27,-1.67 0.35,-2.79c0.06,-0.84 0.05,-1.68 0.05,-2.79c0,-0.55 0,-1.37 0,-2.63c0,-0.71 0,-1.84 0,-2.51c0,-0.89 -0.03,-1.79 0.01,-2.68c0.05,-1.12 0.2,-1.79 0.31,-2.48c0.19,-1.22 0.23,-2.01 0.24,-2.8c0.01,-1.02 -0.03,-1.74 0.05,-2.65c0.08,-0.9 0.31,-1.8 0.42,-2.78c0.09,-0.77 0.09,-1.59 0.09,-2.7c0,-0.84 -0.02,-1.66 0.09,-2.7c0.08,-0.74 0.27,-1.44 0.4,-2.67c0.08,-0.79 0.05,-1.34 0.16,-2.45c0.08,-0.84 0.23,-1.64 0.47,-2.61c0.2,-0.82 0.47,-1.86 0.56,-2.7c0.09,-0.84 0.38,-1.63 0.53,-2.62c0.12,-0.81 0.03,-1.79 0.03,-2.68c0,-0.85 0,-1.8 0,-2.64c0,-0.92 -0.2,-1.98 0.02,-2.08c0.78,-0.37 1.36,1.05 2.04,1.74c0.47,0.47 0.96,1 1.8,1.99c0.36,0.43 0.95,1.11 1.7,1.76c0.54,0.47 1.46,1.11 2.05,1.56c0.86,0.66 1.39,1.1 2.07,1.79c0.86,0.87 1.21,1.34 1.75,2c0.52,0.63 1.19,1.42 1.7,1.98c0.54,0.59 1.32,1.48 1.73,1.97c0.63,0.75 1.22,1.47 1.8,2.09c0.53,0.57 1.49,1.41 2.12,1.91c0.65,0.51 1.32,1 1.99,1.51c0.66,0.5 1.48,1.17 2.04,1.68c0.74,0.66 1.49,1.35 2.11,1.84c0.62,0.49 1.43,1.06 2.16,1.57c0.55,0.38 1.54,1.09 2.18,1.57c0.44,0.33 1.33,1 2.01,1.5c0.67,0.5 1.57,1.17 2.23,1.69c0.45,0.35 1.34,1.11 2.01,1.73c0.45,0.42 1.34,1.24 2.01,1.8c0.65,0.55 1.48,1.29 1.86,1.7c0.56,0.61 1.07,1.28 1.88,2.03c0.61,0.57 1.3,1.09 1.96,1.68c0.69,0.61 1.13,1.07 2.1,1.94c0.51,0.45 1.31,1.11 1.83,1.56c0.78,0.67 1.51,1.34 1.97,1.79c0.69,0.67 1.35,1.34 2.03,2.01c0.46,0.45 1.42,1.35 1.94,1.79c0.52,0.45 1.32,1.09 2.09,1.7c0.73,0.57 1.2,0.92 1.88,1.43c0.89,0.67 1.57,1.17 2.24,1.72c0.68,0.57 1.33,1.21 2.04,1.82c0.72,0.62 1.5,1.18 2.05,1.53c0.82,0.53 1.66,1.02 2.23,1.35c0.85,0.51 1.44,0.85 2.67,1.51c0.63,0.34 1.28,0.67 1.92,1.01c0.93,0.5 1.81,1 2.37,1.32c1.05,0.6 1.78,1 2.48,1.35c0.9,0.46 1.56,0.81 2.46,1.2c0.88,0.38 1.79,0.62 2.41,0.86c0.98,0.38 1.64,0.86 2.51,1.25c0.82,0.37 1.68,0.59 2.48,0.89c0.85,0.31 1.79,0.57 2.59,0.82c0.9,0.29 1.5,0.78 2.36,1.16c0.69,0.31 1.67,0.68 2.29,0.99c1.04,0.52 1.75,1.02 2.46,1.39c0.82,0.44 1.55,0.67 2.51,1.1c0.62,0.28 1.55,0.85 2.29,1.39c0.66,0.48 1.41,0.82 2.35,1.29c0.75,0.38 1.45,0.01 2.15,-0.46c0.78,-0.53 1.34,-1.04 2,-1.72c0.57,-0.59 1.1,-1.33 1.6,-1.96c0.67,-0.85 1.15,-1.34 1.98,-2.18c0.5,-0.5 1.17,-1.18 1.84,-1.84c0.5,-0.5 1.15,-1.15 2.01,-1.81c0.49,-0.38 1.34,-0.93 2.01,-1.37c0.84,-0.56 1.5,-1.02 2.23,-1.45c0.98,-0.58 1.65,-0.89 2.52,-1.43c0.68,-0.42 1.34,-0.93 2.33,-1.49c0.5,-0.29 1.3,-0.64 2.09,-0.99c1.01,-0.44 1.71,-0.78 2.39,-1.12c0.9,-0.44 1.79,-0.9 2.68,-1.34c0.67,-0.33 1.35,-0.69 2.33,-1.02c0.76,-0.26 1.58,-0.4 2.61,-0.74c0.74,-0.25 1.43,-0.58 2.33,-1.02c0.9,-0.44 1.56,-0.78 2.46,-1.23c0.68,-0.34 1.37,-0.68 2.36,-1.12c0.79,-0.34 1.61,-0.67 2.45,-1.01c0.84,-0.34 1.7,-0.69 2.28,-0.94c0.92,-0.4 1.87,-0.86 2.51,-1.19c0.64,-0.33 1.57,-0.83 2.46,-1.33c0.59,-0.33 1.17,-0.68 2.41,-1.34c0.64,-0.34 1.28,-0.67 1.92,-1.01c1.23,-0.66 1.82,-1 2.67,-1.51c0.84,-0.5 1.4,-0.84 2.24,-1.34c0.56,-0.34 1.68,-1.01 2.23,-1.34c0.84,-0.5 1.4,-0.83 2.51,-1.51c0.56,-0.34 1.38,-0.85 2.14,-1.43c0.75,-0.58 1.2,-1.04 1.93,-1.65c0.73,-0.61 1.53,-1.15 2.06,-1.49c1.04,-0.68 1.53,-1.01 2.25,-1.51c0.72,-0.5 1.72,-1.17 2.24,-1.5c0.77,-0.48 1.7,-1.06 2.3,-1.44c0.75,-0.47 1.54,-0.91 2.37,-1.36c0.82,-0.44 1.56,-0.91 2.14,-1.23c1.08,-0.59 1.6,-0.77 2.37,-1.15c1.03,-0.51 1.73,-0.99 2.43,-1.45c0.89,-0.58 1.56,-0.95 2.21,-1.31c0.99,-0.55 1.55,-0.9 2.47,-1.55c0.61,-0.43 1.23,-0.91 2.05,-1.49c0.74,-0.53 1.44,-0.98 2.27,-1.54c0.61,-0.41 1.45,-1.06 2.1,-1.71l0.66,-0.66l0.6,-0.6" fill="none" fill-opacity="null" id="svg_4" stroke="#ffffff" stroke-dasharray="null" stroke-linecap="round" stroke-linejoin="null" stroke-width="25"/>
 </g>
</svg>