<?xml version="1.0"?>
<svg viewBox="50 50 300 300" xmlns="http://www.w3.org/2000/svg" xmlns:svg="http://www.w3.org/2000/svg">
 <!-- Created with SVG-edit - https://github.com/SVG-Edit/svgedit-->

 <g class="layer" display="inline">
  <title>Layer 1</title>
  <path d="m251.06,99.57c0.88,-0.39 1.65,-0.42 2.59,-0.55c0.87,-0.11 1.88,-0.31 2.45,-0.39c0.94,-0.13 1.6,-0.21 2.95,-0.29c0.68,-0.04 1.36,-0.04 2.38,-0.09c1.02,-0.05 1.7,-0.11 2.69,-0.21c0.64,-0.06 1.83,-0.15 2.64,-0.17c0.75,-0.02 1.92,-0.01 2.77,-0.01c0.97,0 1.7,0 2.63,0c0.8,0 1.79,0 2.69,0c0.98,0 1.87,-0.03 2.6,0.01c1.01,0.05 1.85,0.28 2.71,0.36c0.86,0.09 1.8,0.03 2.6,0.06c1.06,0.04 1.9,0.18 2.54,0.27c1.06,0.14 1.9,0.12 2.88,0.24c0.89,0.11 1.81,0.23 2.57,0.37c0.9,0.16 1.82,0.26 2.7,0.54c0.78,0.25 1.58,0.69 2.45,0.7c0.9,0.01 1.74,0.12 2.42,0c0.85,-0.15 1.75,-0.07 2.69,0c0.81,0.06 0.99,0.87 1.12,1.79c0.13,0.87 0.45,1.69 0.65,2.54c0.22,0.9 0.18,1.8 0.18,2.65c0,0.88 0.03,1.75 0,2.64c-0.04,0.95 -0.35,1.77 -0.41,2.58c-0.08,1.07 -0.05,1.86 -0.23,2.7c-0.21,0.95 -0.14,1.84 -0.24,2.57c-0.13,0.96 -0.39,1.81 -0.4,2.82c-0.01,0.73 0,1.61 0,2.6c0,0.85 -0.06,1.79 0.07,2.65c0.12,0.78 0.35,1.79 0.35,2.68c0.01,0.74 0,1.67 0,2.64c0,0.87 -0.09,1.75 0,2.68c0.09,0.86 0.42,1.7 0.42,2.56c0,0.88 0.05,1.83 0,2.63c-0.06,0.99 -0.4,1.78 -0.42,2.63c-0.03,0.91 0,1.77 0,2.68c0,0.93 -0.07,1.85 -0.3,2.6l-0.12,0.95l0,0.84" fill="none" fill-opacity="null" id="svg_82" stroke="#ffffff" stroke-dasharray="null" stroke-linecap="round" stroke-linejoin="null" stroke-opacity="null" stroke-width="25"/>
  <path d="m300.85,249.79c-0.07,0.92 -0.39,1.77 -0.42,2.57c-0.04,0.93 0,1.78 0,2.76c0,0.84 0,1.7 0,2.58c0,1.02 0,1.79 0,2.68c0,0.89 0.04,1.79 0,2.69c-0.05,0.99 -0.25,1.62 -0.37,2.63c-0.1,0.85 -0.16,1.7 -0.3,2.55c-0.16,1.02 -0.18,1.7 -0.18,2.72c0,0.83 0.01,1.86 0,2.77c-0.01,0.77 -0.27,1.64 -0.39,2.56c-0.12,0.89 -0.04,1.74 -0.04,2.62c0,0.98 0,1.79 0,2.7c0,0.99 0,1.71 0,2.73c0,0.79 0,1.66 0,2.57c0,0.89 -0.1,1.78 0,2.75c0.09,0.88 0.42,1.66 0.42,2.56c0,0.84 -0.14,1.81 0.01,2.64c0.15,0.85 0.33,1.81 0.54,2.61c0.22,0.85 0.26,1.61 -0.49,1.67c-1.02,0.08 -1.7,0.29 -2.65,0.5c-0.8,0.17 -1.78,0.41 -2.67,0.58c-0.91,0.18 -1.67,0.3 -2.58,0.49c-0.94,0.2 -1.78,0.15 -2.66,0.12c-0.99,-0.04 -1.72,-0.32 -2.68,-0.42c-0.85,-0.08 -1.81,-0.01 -2.67,-0.01c-0.88,0 -1.8,0 -2.48,0c-1.16,0 -1.91,0 -2.63,0c-0.97,0 -1.77,0 -2.92,0c-0.68,0 -1.71,0 -2.63,0c-0.89,0 -1.75,0 -2.63,0c-0.91,0 -1.85,0 -2.7,0c-0.88,0 -1.67,0.05 -2.69,0c-0.82,-0.05 -1.69,-0.31 -2.57,-0.42c-0.9,-0.11 -1.69,-0.38 -2.63,-0.42c-0.91,-0.03 -1.68,0 -2.65,0c-0.92,0 -1.8,0 -2.64,0c-0.93,0 -1.73,0.29 -2.51,0.43c-0.86,0.15 -1.7,0 -2.6,0c-0.89,0 -1.86,0 -2.76,0c-0.86,0 -1.74,0 -2.58,0l-0.96,0l-0.87,0" fill="none" fill-opacity="null" id="svg_84" stroke="#ffffff" stroke-dasharray="null" stroke-linecap="round" stroke-linejoin="null" stroke-opacity="null" stroke-width="25"/>
  <path d="m151.49,300.85c-1.28,-0.35 -2.09,-0.62 -2.97,-0.8c-0.85,-0.17 -1.8,-0.05 -2.66,-0.05c-0.86,0 -1.82,0 -2.63,0c-0.85,0 -1.7,-0.01 -2.72,0c-0.85,0.01 -1.7,0.14 -2.53,0.27c-0.89,0.15 -1.88,0.23 -2.67,0.36c-1.01,0.17 -1.69,0.21 -2.71,0.21c-0.85,0 -1.87,-0.02 -2.57,0.02c-0.93,0.05 -1.73,0.23 -2.79,0.34c-0.85,0.08 -1.49,0.07 -2.55,0.07c-0.85,0 -1.91,0 -2.75,0c-0.94,0 -1.7,0 -2.61,0c-1.02,0 -1.76,-0.01 -2.71,0c-0.89,0.01 -1.71,0.28 -2.55,0.39c-0.91,0.11 -1.78,0.04 -2.69,0.04c-0.86,0 -1.74,0 -2.64,0c-0.9,0 -1.86,0.24 -2.66,0.39c-0.92,0.17 -1.84,-0.09 -2.7,0.13c-0.77,0.2 -1.85,0.82 -2.6,0.33c-0.58,-0.38 -0.05,-1.38 0.09,-2.33c0.13,-0.91 0.38,-1.71 0.42,-2.57c0.04,-0.91 0.01,-1.81 0.01,-2.71c0,-0.89 0,-1.76 0,-2.68c0,-0.86 -0.17,-1.72 -0.37,-2.61c-0.2,-0.85 0.01,-1.78 -0.15,-2.6c-0.15,-0.82 -0.33,-1.69 -0.33,-2.57c0,-0.99 0,-1.83 0,-2.7c0,-0.91 0,-1.91 0,-2.65c0,-0.93 0,-1.78 0,-2.74c0,-0.84 0,-1.7 0,-2.64c0,-0.88 0,-1.82 0,-2.73c0,-0.81 -0.05,-1.8 0,-2.68c0.05,-0.86 0.35,-1.66 0.42,-2.55c0.07,-0.87 0.3,-1.73 0.4,-2.62c0.11,-0.9 0.02,-1.83 0.02,-2.65c0,-0.98 0.18,-1.77 0.35,-2.65c0.18,-0.88 0.29,-1.82 0.07,-2.67c-0.22,-0.85 -0.42,-1.67 -0.64,-2.43l-0.21,-0.8" fill="none" fill-opacity="null" id="svg_85" stroke="#ffffff" stroke-dasharray="null" stroke-linecap="round" stroke-linejoin="null" stroke-opacity="null" stroke-width="25"/>
  <path d="m150.21,99.57c-0.87,-0.01 -1.79,-0.25 -2.68,-0.37c-0.78,-0.11 -1.69,-0.01 -2.51,-0.09c-1.02,-0.09 -1.97,-0.31 -2.67,-0.39c-0.9,-0.11 -1.92,-0.39 -2.69,-0.42c-0.89,-0.04 -1.82,0.01 -2.71,0c-0.82,-0.01 -1.7,-0.25 -2.61,-0.37c-0.76,-0.11 -1.8,-0.06 -2.65,-0.05c-0.8,0.01 -1.82,0.13 -2.5,0.24c-1.02,0.16 -1.87,0.18 -2.72,0.18c-0.85,0 -1.87,0 -2.72,0c-0.85,0 -1.7,0 -2.73,0c-0.71,0 -1.68,0 -2.46,0c-1.02,0 -2.01,-0.1 -2.9,0.09c-0.88,0.19 -1.69,0.33 -2.51,0.33c-0.89,0 -1.77,0.22 -2.69,0.37c-0.8,0.14 -1.72,0.05 -2.59,0.05c-0.96,0 -1.8,0.3 -2.68,0.42c-0.84,0.12 -1.72,0 -2.63,0.21c-0.86,0.2 -1.92,0.14 -2.14,0.71c-0.31,0.81 -0.39,1.7 -0.42,2.5c-0.04,0.97 0,1.89 0,2.79c0,0.85 0,1.74 0,2.65c0,0.88 0,1.78 0,2.68c0,0.91 0,1.79 0,2.67c0,0.85 0,1.75 0,2.6c0,0.95 0,1.82 0,2.67c0,0.94 0.01,1.79 0.21,2.64c0.2,0.84 0.21,1.84 0.21,2.72c0,0.86 0,1.67 0,2.58c0,0.88 0,1.76 0,2.72c0,0.92 -0.01,1.77 0,2.7c0.01,0.8 0.33,1.7 0.42,2.57c0.09,0.85 0,1.72 0,2.68c0,0.87 0,1.78 0,2.71c0,0.84 -0.04,1.76 0,2.61c0.05,0.91 0.42,1.72 0.43,2.56c0,0.92 0,1.83 0,2.72l0,0.89" fill="none" fill-opacity="null" id="svg_86" stroke="#ffffff" stroke-dasharray="null" stroke-linecap="round" stroke-linejoin="null" stroke-opacity="null" stroke-width="25"/>
 </g>
</svg>