<?xml version="1.0"?>
<svg viewBox="90 100 220 230" xmlns="http://www.w3.org/2000/svg" xmlns:svg="http://www.w3.org/2000/svg">
 <!-- Created with SVG-edit - https://github.com/SVG-Edit/svgedit-->

 <g class="layer" display="inline">
  <title>Layer 1</title>
  <path d="m200.52,211.46c-1.34,-0.09 -2.19,-0.35 -2.95,-0.74c-0.75,-0.38 -1.34,-1.11 -1.8,-1.9c-0.43,-0.73 -0.76,-1.62 -0.69,-2.47c0.08,-0.87 0.77,-1.52 1.3,-2.18c0.58,-0.71 1.36,-1.2 2.13,-1.55c0.84,-0.38 1.68,-0.38 2.53,-0.38c0.95,0 1.83,-0.11 2.66,0.15c0.88,0.28 1.73,0.74 2.41,1.27c0.64,0.5 1.32,1.09 1.71,1.92c0.4,0.86 0.66,1.74 0.63,2.59c-0.04,0.88 -0.52,1.71 -0.95,2.55c-0.33,0.65 -0.95,1.51 -1.37,2.13c-0.5,0.75 -1.04,1.67 -1.51,2.23c-0.62,0.73 -1.43,1.1 -2.17,1.44c-0.88,0.41 -1.69,0.66 -2.55,0.97c-0.87,0.31 -1.72,0.69 -2.5,0.31c-0.78,-0.38 -1.48,-1.01 -2.11,-1.56c-0.75,-0.66 -1.41,-1.09 -2.01,-1.75c-0.59,-0.64 -1.25,-1.29 -1.69,-2.14c-0.4,-0.78 -0.48,-1.73 -0.62,-2.59c-0.12,-0.75 -0.17,-1.77 0.05,-2.64c0.23,-0.92 0.62,-1.55 0.97,-2.49c0.32,-0.85 0.53,-1.64 1.01,-2.34c0.5,-0.72 1.03,-1.45 1.54,-2.2c0.5,-0.74 1.13,-1.35 1.89,-1.95c0.75,-0.59 1.36,-1.17 2.01,-1.7c0.63,-0.51 1.56,-1.09 2.12,-1.41c0.77,-0.44 1.7,-0.84 2.4,-1.04c1,-0.28 1.8,-0.48 2.79,-0.54c0.87,-0.05 1.79,-0.14 2.67,0.06c0.81,0.18 1.54,0.77 2.29,1.27c0.75,0.5 1.5,1.01 2.32,1.52c0.67,0.42 1.43,1 2.09,1.67c0.58,0.59 1.05,1.32 1.49,2.03c0.48,0.77 0.97,1.56 1.12,2.39c0.16,0.88 0.39,1.76 0.38,2.69c0,0.81 -0.18,1.61 -0.42,2.58c-0.2,0.82 -0.46,1.8 -0.91,2.58c-0.41,0.71 -1.02,1.47 -1.54,1.92c-0.81,0.71 -1.51,1.02 -2.42,1.53c-0.6,0.33 -1.41,0.83 -2.25,1.33c-0.63,0.37 -1.28,0.75 -2.21,1.14c-0.72,0.3 -1.97,0.71 -2.72,0.95c-0.72,0.23 -1.62,0.49 -2.4,0.56c-0.97,0.08 -1.8,0.03 -2.82,0.03c-0.81,0 -1.65,0.01 -2.75,0c-0.7,-0.01 -1.69,-0.24 -2.33,-0.5c-1,-0.4 -1.69,-0.55 -2.67,-0.96c-0.68,-0.28 -1.51,-0.8 -2.17,-1.26c-0.78,-0.55 -1.48,-1.03 -2.32,-1.64c-0.63,-0.46 -1.41,-1.13 -1.94,-1.76c-0.4,-0.48 -1.02,-1.32 -1.52,-1.99c-0.63,-0.84 -1.19,-1.48 -1.62,-2.41c-0.34,-0.74 -0.44,-1.51 -0.77,-2.42c-0.3,-0.85 -0.59,-1.69 -0.63,-2.57c-0.03,-0.88 0.07,-1.86 0.25,-2.63c0.22,-0.9 0.46,-1.59 0.86,-2.46c0.38,-0.82 0.78,-1.67 1.2,-2.32c0.56,-0.87 1.21,-1.49 1.81,-2.18c0.57,-0.66 0.95,-1.19 1.7,-2.01c0.46,-0.51 1.29,-1.35 1.81,-1.84c0.7,-0.66 1.51,-1.27 2.19,-1.66c0.68,-0.39 1.55,-0.81 2.31,-1.18c0.91,-0.44 1.69,-0.76 2.29,-1.01c0.95,-0.41 1.78,-0.84 2.68,-1.19c0.89,-0.35 1.63,-0.63 2.57,-0.73c0.84,-0.08 1.69,-0.07 2.61,0c0.88,0.06 1.64,0.57 2.22,1.05c0.81,0.67 1.47,1.01 2.28,1.53c0.67,0.42 1.57,1.08 2.17,1.7c0.55,0.58 1.01,1.33 1.52,2.08c0.59,0.88 0.99,1.51 1.44,2.38l0.27,0.82" fill="none" fill-opacity="null" id="svg_21" stroke="#ffffff" stroke-dasharray="null" stroke-linecap="round" stroke-linejoin="null" stroke-opacity="null" stroke-width="25" transform="matrix(1, 0, 0, 1, 0, 0)"/>
  <g id="svg_50" transform="matrix(0.998887, 0.0471529, -0.0471529, 0.998887, 18.0801, -14.709)">
   <path d="m234.1,225.89c-1.01,0.22 -1.84,0.46 -2.53,0.98c-0.79,0.59 -1.46,1.3 -1.22,2.13c0.24,0.83 0.59,1.67 1,2.42c0.42,0.76 1.03,1.48 1.74,2.04c0.7,0.55 1.62,0.62 2.53,0.52c0.86,-0.09 1.67,-0.35 2.54,-0.55c0.87,-0.21 1.69,-0.48 2.5,-0.99c0.77,-0.48 1.19,-1.25 1.22,-2.16c0.04,-0.88 -0.22,-1.76 -0.82,-2.47c-0.56,-0.66 -1.3,-1.25 -2.03,-1.64c-0.83,-0.45 -1.8,-0.55 -2.61,-0.45c-0.93,0.12 -1.7,0.44 -2.47,0.83c-0.89,0.46 -1.56,0.97 -2.12,1.61l-0.2,0.87" fill="none" fill-opacity="null" id="svg_22" stroke="#ffffff" stroke-dasharray="null" stroke-linecap="round" stroke-linejoin="null" stroke-opacity="null" stroke-width="9" transform="matrix(1.42762, 0, 0, 1.42762, -98.4801, -96.5064)"/>
   <path d="m275.66,194.57c-0.84,-0.4 -1.76,-0.44 -2.45,0.02c-0.75,0.5 -0.42,1.4 0.25,1.99l0.84,0.3" fill="none" fill-opacity="null" id="svg_27" stroke="#ffffff" stroke-dasharray="null" stroke-linecap="round" stroke-linejoin="null" stroke-opacity="null" stroke-width="7" transform="matrix(1.41874, 0, 0, 1.41874, -115.297, -86.193)">d6d6d6</path>
   <path d="m237.42,165.98c-0.84,-0.4 -1.76,-0.44 -2.45,0.02c-0.75,0.5 -0.42,1.4 0.25,1.99l0.84,0.3" fill="none" fill-opacity="null" id="svg_31" stroke="#ffffff" stroke-dasharray="null" stroke-linecap="round" stroke-linejoin="null" stroke-opacity="null" stroke-width="7" transform="matrix(1, 0, 0, 1, 0.603015, 2.41206)">d6d6d6</path>
   <path d="m261.84,163.38c0.35,-0.24 0.58,-0.59 0.56,-0.97c-0.02,-0.41 -0.45,-0.49 -0.84,-0.36l-0.31,0.26" fill="none" fill-opacity="null" id="svg_32" stroke="#ffffff" stroke-dasharray="null" stroke-linecap="round" stroke-linejoin="null" stroke-opacity="null" stroke-width="7" transform="matrix(0.509167, 0, 0, 0.503092, 123.396, 73.566)">d6d6d6</path>
   <path d="m270.76,176.71c-0.84,-0.4 -1.76,-0.44 -2.45,0.02c-0.75,0.5 -0.42,1.4 0.25,1.99l0.84,0.3" fill="none" fill-opacity="null" id="svg_35" stroke="#ffffff" stroke-dasharray="null" stroke-linecap="round" stroke-linejoin="null" stroke-opacity="null" stroke-width="7" transform="matrix(0.396841, -0.917887, 0.917887, 0.396841, 0.39778, 348.842)">d6d6d6</path>
   <path d="m242.79,193.16c-0.84,-0.4 -1.76,-0.44 -2.45,0.02c-0.75,0.5 -0.42,1.4 0.25,1.99l0.84,0.3" fill="none" fill-opacity="null" id="svg_42" stroke="#ffffff" stroke-dasharray="null" stroke-linecap="round" stroke-linejoin="null" stroke-opacity="null" stroke-width="7" transform="matrix(0.375094, 0, 0, 0.375094, 150.035, 74.8181)">d6d6d6</path>
   <path d="m107.09,284.1c-0.84,-0.4 -1.76,-0.44 -2.45,0.02c-0.75,0.5 -0.42,1.4 0.25,1.99l0.84,0.3" fill="none" fill-opacity="null" id="svg_44" stroke="#ffffff" stroke-dasharray="null" stroke-linecap="round" stroke-linejoin="null" stroke-opacity="null" stroke-width="7" transform="matrix(0.375094, 0, 0, 0.375094, 212.294, 69.7864)">d6d6d6</path>
   <path d="m249.9,192.99c-0.84,-0.4 -1.76,-0.44 -2.45,0.02c-0.75,0.5 -0.42,1.4 0.25,1.99l0.84,0.3" fill="none" fill-opacity="null" id="svg_45" stroke="#ffffff" stroke-dasharray="null" stroke-linecap="round" stroke-linejoin="null" stroke-opacity="null" stroke-width="7">d6d6d6</path>
   <path d="m66.3,317.42c-0.84,-0.4 -1.76,-0.44 -2.45,0.02c-0.75,0.5 -0.42,1.4 0.25,1.99l0.84,0.3" fill="none" fill-opacity="null" id="svg_46" stroke="#ffffff" stroke-dasharray="null" stroke-linecap="round" stroke-linejoin="null" stroke-opacity="null" stroke-width="7" transform="matrix(0.375094, 0, 0, 0.375094, 220.671, 89.3025)">d6d6d6</path>
   <path d="m33.51,300.63c-0.84,-0.4 -1.76,-0.44 -2.45,0.02c-0.75,0.5 -0.42,1.4 0.25,1.99l0.84,0.3" fill="none" fill-opacity="null" id="svg_47" stroke="#ffffff" stroke-dasharray="null" stroke-linecap="round" stroke-linejoin="null" stroke-opacity="null" stroke-width="7" transform="matrix(0.375094, 0, 0, 0.375094, 210.122, 48.6728)">d6d6d6</path>
   <path d="m62.3,226.51c-0.84,-0.4 -1.76,-0.44 -2.45,0.02c-0.75,0.5 -0.42,1.4 0.25,1.99l0.84,0.3" fill="none" fill-opacity="null" id="svg_48" stroke="#ffffff" stroke-dasharray="null" stroke-linecap="round" stroke-linejoin="null" stroke-opacity="null" stroke-width="7" transform="matrix(0.375094, 0, 0, 0.375094, 202.432, 57.2571)">d6d6d6</path>
   <path d="m258.21,204.03c-0.84,-0.4 -1.76,-0.44 -2.45,0.02c-0.75,0.5 -0.42,1.4 0.25,1.99l0.84,0.3" fill="none" fill-opacity="null" id="svg_49" stroke="#ffffff" stroke-dasharray="null" stroke-linecap="round" stroke-linejoin="null" stroke-opacity="null" stroke-width="7" transform="matrix(1.82087, 0, 0, 2.16723, -200.99, -225.709)">d6d6d6</path>
  </g>
  <g id="svg_51" transform="matrix(-0.477752, -0.878495, 0.878495, -0.477752, 108.402, 472.807)">
   <path d="m234.1,225.89c-1.01,0.22 -1.84,0.46 -2.53,0.98c-0.79,0.59 -1.46,1.3 -1.22,2.13c0.24,0.83 0.59,1.67 1,2.42c0.42,0.76 1.03,1.48 1.74,2.04c0.7,0.55 1.62,0.62 2.53,0.52c0.86,-0.09 1.67,-0.35 2.54,-0.55c0.87,-0.21 1.69,-0.48 2.5,-0.99c0.77,-0.48 1.19,-1.25 1.22,-2.16c0.04,-0.88 -0.22,-1.76 -0.82,-2.47c-0.56,-0.66 -1.3,-1.25 -2.03,-1.64c-0.83,-0.45 -1.8,-0.55 -2.61,-0.45c-0.93,0.12 -1.7,0.44 -2.47,0.83c-0.89,0.46 -1.56,0.97 -2.12,1.61l-0.2,0.87" fill="none" fill-opacity="null" id="svg_52" stroke="#ffffff" stroke-dasharray="null" stroke-linecap="round" stroke-linejoin="null" stroke-opacity="null" stroke-width="9" transform="matrix(1.42762, 0, 0, 1.42762, -98.4801, -96.5064)"/>
   <path d="m275.66,194.57c-0.84,-0.4 -1.76,-0.44 -2.45,0.02c-0.75,0.5 -0.42,1.4 0.25,1.99l0.84,0.3" fill="none" fill-opacity="null" id="svg_53" stroke="#ffffff" stroke-dasharray="null" stroke-linecap="round" stroke-linejoin="null" stroke-opacity="null" stroke-width="7" transform="matrix(1.41874, 0, 0, 1.41874, -115.297, -86.193)">d6d6d6</path>
   <path d="m237.42,165.98c-0.84,-0.4 -1.76,-0.44 -2.45,0.02c-0.75,0.5 -0.42,1.4 0.25,1.99l0.84,0.3" fill="none" fill-opacity="null" id="svg_54" stroke="#ffffff" stroke-dasharray="null" stroke-linecap="round" stroke-linejoin="null" stroke-opacity="null" stroke-width="7" transform="matrix(1, 0, 0, 1, 0.603015, 2.41206)">d6d6d6</path>
   <path d="m261.84,163.38c0.35,-0.24 0.58,-0.59 0.56,-0.97c-0.02,-0.41 -0.45,-0.49 -0.84,-0.36l-0.31,0.26" fill="none" fill-opacity="null" id="svg_55" stroke="#ffffff" stroke-dasharray="null" stroke-linecap="round" stroke-linejoin="null" stroke-opacity="null" stroke-width="7" transform="matrix(0.509167, 0, 0, 0.503092, 123.396, 73.566)">d6d6d6</path>
   <path d="m270.76,176.71c-0.84,-0.4 -1.76,-0.44 -2.45,0.02c-0.75,0.5 -0.42,1.4 0.25,1.99l0.84,0.3" fill="none" fill-opacity="null" id="svg_56" stroke="#ffffff" stroke-dasharray="null" stroke-linecap="round" stroke-linejoin="null" stroke-opacity="null" stroke-width="7" transform="matrix(0.396841, -0.917887, 0.917887, 0.396841, 0.39778, 348.842)">d6d6d6</path>
   <path d="m242.79,193.16c-0.84,-0.4 -1.76,-0.44 -2.45,0.02c-0.75,0.5 -0.42,1.4 0.25,1.99l0.84,0.3" fill="none" fill-opacity="null" id="svg_57" stroke="#ffffff" stroke-dasharray="null" stroke-linecap="round" stroke-linejoin="null" stroke-opacity="null" stroke-width="7" transform="matrix(0.375094, 0, 0, 0.375094, 150.035, 74.8181)">d6d6d6</path>
   <path d="m107.09,284.1c-0.84,-0.4 -1.76,-0.44 -2.45,0.02c-0.75,0.5 -0.42,1.4 0.25,1.99l0.84,0.3" fill="none" fill-opacity="null" id="svg_58" stroke="#ffffff" stroke-dasharray="null" stroke-linecap="round" stroke-linejoin="null" stroke-opacity="null" stroke-width="7" transform="matrix(0.375094, 0, 0, 0.375094, 212.294, 69.7864)">d6d6d6</path>
   <path d="m249.9,192.99c-0.84,-0.4 -1.76,-0.44 -2.45,0.02c-0.75,0.5 -0.42,1.4 0.25,1.99l0.84,0.3" fill="none" fill-opacity="null" id="svg_59" stroke="#ffffff" stroke-dasharray="null" stroke-linecap="round" stroke-linejoin="null" stroke-opacity="null" stroke-width="7">d6d6d6</path>
   <path d="m66.3,317.42c-0.84,-0.4 -1.76,-0.44 -2.45,0.02c-0.75,0.5 -0.42,1.4 0.25,1.99l0.84,0.3" fill="none" fill-opacity="null" id="svg_60" stroke="#ffffff" stroke-dasharray="null" stroke-linecap="round" stroke-linejoin="null" stroke-opacity="null" stroke-width="7" transform="matrix(0.375094, 0, 0, 0.375094, 220.671, 89.3025)">d6d6d6</path>
   <path d="m33.51,300.63c-0.84,-0.4 -1.76,-0.44 -2.45,0.02c-0.75,0.5 -0.42,1.4 0.25,1.99l0.84,0.3" fill="none" fill-opacity="null" id="svg_61" stroke="#ffffff" stroke-dasharray="null" stroke-linecap="round" stroke-linejoin="null" stroke-opacity="null" stroke-width="7" transform="matrix(0.375094, 0, 0, 0.375094, 210.122, 48.6728)">d6d6d6</path>
   <path d="m62.3,226.51c-0.84,-0.4 -1.76,-0.44 -2.45,0.02c-0.75,0.5 -0.42,1.4 0.25,1.99l0.84,0.3" fill="none" fill-opacity="null" id="svg_62" stroke="#ffffff" stroke-dasharray="null" stroke-linecap="round" stroke-linejoin="null" stroke-opacity="null" stroke-width="7" transform="matrix(0.375094, 0, 0, 0.375094, 202.432, 57.2571)">d6d6d6</path>
   <path d="m258.21,204.03c-0.84,-0.4 -1.76,-0.44 -2.45,0.02c-0.75,0.5 -0.42,1.4 0.25,1.99l0.84,0.3" fill="none" fill-opacity="null" id="svg_63" stroke="#ffffff" stroke-dasharray="null" stroke-linecap="round" stroke-linejoin="null" stroke-opacity="null" stroke-width="7" transform="matrix(1.82087, 0, 0, 2.16723, -200.99, -225.709)">d6d6d6</path>
  </g>
  <g id="svg_64" transform="matrix(-0.519936, 0.854205, -0.854205, -0.519936, 480.193, 147.869)">
   <path d="m234.1,225.89c-1.01,0.22 -1.84,0.46 -2.53,0.98c-0.79,0.59 -1.46,1.3 -1.22,2.13c0.24,0.83 0.59,1.67 1,2.42c0.42,0.76 1.03,1.48 1.74,2.04c0.7,0.55 1.62,0.62 2.53,0.52c0.86,-0.09 1.67,-0.35 2.54,-0.55c0.87,-0.21 1.69,-0.48 2.5,-0.99c0.77,-0.48 1.19,-1.25 1.22,-2.16c0.04,-0.88 -0.22,-1.76 -0.82,-2.47c-0.56,-0.66 -1.3,-1.25 -2.03,-1.64c-0.83,-0.45 -1.8,-0.55 -2.61,-0.45c-0.93,0.12 -1.7,0.44 -2.47,0.83c-0.89,0.46 -1.56,0.97 -2.12,1.61l-0.2,0.87" fill="none" fill-opacity="null" id="svg_65" stroke="#ffffff" stroke-dasharray="null" stroke-linecap="round" stroke-linejoin="null" stroke-opacity="null" stroke-width="9" transform="matrix(1.42762, 0, 0, 1.42762, -98.4801, -96.5064)"/>
   <path d="m275.66,194.57c-0.84,-0.4 -1.76,-0.44 -2.45,0.02c-0.75,0.5 -0.42,1.4 0.25,1.99l0.84,0.3" fill="none" fill-opacity="null" id="svg_66" stroke="#ffffff" stroke-dasharray="null" stroke-linecap="round" stroke-linejoin="null" stroke-opacity="null" stroke-width="7" transform="matrix(1.41874, 0, 0, 1.41874, -115.297, -86.193)">d6d6d6</path>
   <path d="m237.42,165.98c-0.84,-0.4 -1.76,-0.44 -2.45,0.02c-0.75,0.5 -0.42,1.4 0.25,1.99l0.84,0.3" fill="none" fill-opacity="null" id="svg_67" stroke="#ffffff" stroke-dasharray="null" stroke-linecap="round" stroke-linejoin="null" stroke-opacity="null" stroke-width="7" transform="matrix(1, 0, 0, 1, 0.603015, 2.41206)">d6d6d6</path>
   <path d="m261.84,163.38c0.35,-0.24 0.58,-0.59 0.56,-0.97c-0.02,-0.41 -0.45,-0.49 -0.84,-0.36l-0.31,0.26" fill="none" fill-opacity="null" id="svg_68" stroke="#ffffff" stroke-dasharray="null" stroke-linecap="round" stroke-linejoin="null" stroke-opacity="null" stroke-width="7" transform="matrix(0.509167, 0, 0, 0.503092, 123.396, 73.566)">d6d6d6</path>
   <path d="m270.76,176.71c-0.84,-0.4 -1.76,-0.44 -2.45,0.02c-0.75,0.5 -0.42,1.4 0.25,1.99l0.84,0.3" fill="none" fill-opacity="null" id="svg_69" stroke="#ffffff" stroke-dasharray="null" stroke-linecap="round" stroke-linejoin="null" stroke-opacity="null" stroke-width="7" transform="matrix(0.396841, -0.917887, 0.917887, 0.396841, 0.39778, 348.842)">d6d6d6</path>
   <path d="m242.79,193.16c-0.84,-0.4 -1.76,-0.44 -2.45,0.02c-0.75,0.5 -0.42,1.4 0.25,1.99l0.84,0.3" fill="none" fill-opacity="null" id="svg_70" stroke="#ffffff" stroke-dasharray="null" stroke-linecap="round" stroke-linejoin="null" stroke-opacity="null" stroke-width="7" transform="matrix(0.375094, 0, 0, 0.375094, 150.035, 74.8181)">d6d6d6</path>
   <path d="m107.09,284.1c-0.84,-0.4 -1.76,-0.44 -2.45,0.02c-0.75,0.5 -0.42,1.4 0.25,1.99l0.84,0.3" fill="none" fill-opacity="null" id="svg_71" stroke="#ffffff" stroke-dasharray="null" stroke-linecap="round" stroke-linejoin="null" stroke-opacity="null" stroke-width="7" transform="matrix(0.375094, 0, 0, 0.375094, 212.294, 69.7864)">d6d6d6</path>
   <path d="m249.9,192.99c-0.84,-0.4 -1.76,-0.44 -2.45,0.02c-0.75,0.5 -0.42,1.4 0.25,1.99l0.84,0.3" fill="none" fill-opacity="null" id="svg_72" stroke="#ffffff" stroke-dasharray="null" stroke-linecap="round" stroke-linejoin="null" stroke-opacity="null" stroke-width="7">d6d6d6</path>
   <path d="m66.3,317.42c-0.84,-0.4 -1.76,-0.44 -2.45,0.02c-0.75,0.5 -0.42,1.4 0.25,1.99l0.84,0.3" fill="none" fill-opacity="null" id="svg_73" stroke="#ffffff" stroke-dasharray="null" stroke-linecap="round" stroke-linejoin="null" stroke-opacity="null" stroke-width="7" transform="matrix(0.375094, 0, 0, 0.375094, 220.671, 89.3025)">d6d6d6</path>
   <path d="m33.51,300.63c-0.84,-0.4 -1.76,-0.44 -2.45,0.02c-0.75,0.5 -0.42,1.4 0.25,1.99l0.84,0.3" fill="none" fill-opacity="null" id="svg_74" stroke="#ffffff" stroke-dasharray="null" stroke-linecap="round" stroke-linejoin="null" stroke-opacity="null" stroke-width="7" transform="matrix(0.375094, 0, 0, 0.375094, 210.122, 48.6728)">d6d6d6</path>
   <path d="m62.3,226.51c-0.84,-0.4 -1.76,-0.44 -2.45,0.02c-0.75,0.5 -0.42,1.4 0.25,1.99l0.84,0.3" fill="none" fill-opacity="null" id="svg_75" stroke="#ffffff" stroke-dasharray="null" stroke-linecap="round" stroke-linejoin="null" stroke-opacity="null" stroke-width="7" transform="matrix(0.375094, 0, 0, 0.375094, 202.432, 57.2571)">d6d6d6</path>
   <path d="m258.21,204.03c-0.84,-0.4 -1.76,-0.44 -2.45,0.02c-0.75,0.5 -0.42,1.4 0.25,1.99l0.84,0.3" fill="none" fill-opacity="null" id="svg_76" stroke="#ffffff" stroke-dasharray="null" stroke-linecap="round" stroke-linejoin="null" stroke-opacity="null" stroke-width="7" transform="matrix(1.82087, 0, 0, 2.16723, -200.99, -225.709)">d6d6d6</path>
  </g>
  <path d="m76.55,385.64c-0.84,-0.4 -1.76,-0.44 -2.45,0.02c-0.75,0.5 -0.42,1.4 0.25,1.99l0.84,0.3" fill="none" fill-opacity="null" id="svg_77" stroke="#ffffff" stroke-dasharray="null" stroke-linecap="round" stroke-linejoin="null" stroke-opacity="null" stroke-width="7" transform="matrix(0.370211, -0.060326, 0.060326, 0.370211, 183.186, 45.224)">d6d6d6</path>
  <path d="m76.55,385.64c-0.84,-0.4 -1.76,-0.44 -2.45,0.02c-0.75,0.5 -0.42,1.4 0.25,1.99l0.84,0.3" fill="none" fill-opacity="null" id="svg_78" stroke="#ffffff" stroke-dasharray="null" stroke-linecap="round" stroke-linejoin="null" stroke-opacity="null" stroke-width="7" transform="matrix(0.370211, -0.060326, 0.060326, 0.370211, 114.493, 43.5067)">d6d6d6</path>
  <path d="m202.72,236.19c-0.17,-0.05 -0.35,-0.03 -0.46,0.08c-0.13,0.12 -0.04,0.28 0.11,0.37l0.17,0.03" fill="none" fill-opacity="null" id="svg_79" stroke="#ffffff" stroke-dasharray="null" stroke-linecap="round" stroke-linejoin="null" stroke-opacity="null" stroke-width="7" transform="matrix(0.428598, 0, 0, 0.404417, 115.434, 144.056)">d6d6d6</path>
 </g>
</svg>