<?xml version="1.0"?>
<svg viewBox="40 20 360 340" xmlns="http://www.w3.org/2000/svg" xmlns:svg="http://www.w3.org/2000/svg">
 <!-- Created with SVG-edit - https://github.com/SVG-Edit/svgedit-->

 <g class="layer" display="inline">
  <title>Layer 1</title>
  <path d="m179.21,267.98c0.87,0 1.61,0.01 2.54,0c0.87,-0.01 1.6,-0.03 2.72,-0.16c0.62,-0.07 1.59,-0.23 2.6,-0.31c1.01,-0.08 1.69,-0.09 2.36,-0.09c1.35,-0.01 2.02,0 2.7,0c1.01,0 2.02,0 3.02,0c0.65,0 1.85,0.01 2.64,0c0.73,-0.01 1.86,-0.12 2.53,-0.24c0.86,-0.16 1.83,-0.28 2.6,-0.35c1.1,-0.11 1.87,-0.27 2.69,-0.37c1.12,-0.14 1.68,-0.13 2.53,-0.19c1.13,-0.08 1.97,-0.21 2.84,-0.37c0.91,-0.16 1.85,-0.34 2.51,-0.45c0.66,-0.11 2.01,-0.34 2.68,-0.45c0.67,-0.11 1.69,-0.28 2.7,-0.45c0.67,-0.11 1.69,-0.29 2.36,-0.44c1.02,-0.23 2.02,-0.53 2.68,-0.72c0.65,-0.19 1.88,-0.52 2.75,-0.74c0.82,-0.21 1.83,-0.54 2.55,-0.85c0.73,-0.32 1.47,-0.66 2.27,-1.01c0.83,-0.36 1.67,-0.75 2.51,-1.2c0.56,-0.3 1.39,-0.79 2.53,-1.33c0.55,-0.26 1.37,-0.59 2.4,-0.94c0.72,-0.24 1.46,-0.43 2.44,-0.88c0.82,-0.38 1.36,-0.73 2.55,-1.38c0.62,-0.34 1.26,-0.67 1.89,-0.99c1.19,-0.6 1.74,-0.87 2.48,-1.24c0.7,-0.35 1.83,-0.89 2.45,-1.25c0.93,-0.53 1.43,-1.04 2.2,-1.71c0.67,-0.58 1.36,-0.94 2,-1.7c0.48,-0.57 1.08,-1.45 1.8,-2.01c0.64,-0.49 1.49,-1 2.02,-1.6c0.6,-0.68 1,-1.36 1.57,-2.2c0.46,-0.68 1.13,-1.52 1.59,-2.03c0.48,-0.53 1.17,-1.29 1.66,-1.92c0.65,-0.83 1.2,-1.62 1.58,-2.19c0.67,-1.01 1.1,-1.73 1.4,-2.24c0.46,-0.75 1.03,-1.64 1.51,-2.42c0.46,-0.75 0.92,-1.58 1.21,-2.24c0.39,-0.88 0.64,-1.79 0.82,-2.47c0.29,-1.12 0.44,-1.81 0.77,-2.7c0.34,-0.92 0.7,-1.59 1.02,-2.6c0.24,-0.78 0.4,-1.58 0.51,-2.62c0.07,-0.73 0.07,-1.45 0.23,-2.7c0.1,-0.81 0.24,-1.36 0.33,-2.48c0.07,-0.84 0.07,-1.69 0.07,-2.81c0,-0.84 0.02,-1.41 -0.09,-2.53c-0.08,-0.85 -0.24,-1.69 -0.56,-2.81c-0.16,-0.57 -0.48,-1.41 -0.81,-2.25c-0.33,-0.84 -0.67,-1.69 -1.01,-2.53c-0.34,-0.84 -0.67,-1.69 -1.01,-2.53c-0.22,-0.56 -0.67,-1.69 -1.01,-2.52c-0.22,-0.54 -0.66,-1.58 -1.02,-2.3c-0.35,-0.72 -0.9,-1.72 -1.36,-2.5c-0.32,-0.54 -0.99,-1.58 -1.33,-2.07c-0.51,-0.73 -1.05,-1.45 -1.64,-2.19c-0.62,-0.79 -1.05,-1.33 -1.51,-1.85c-0.88,-1.02 -1.35,-1.49 -1.8,-1.97c-0.9,-0.97 -1.35,-1.5 -1.8,-2.02c-0.7,-0.8 -1.43,-1.59 -1.95,-2.07c-0.52,-0.49 -1.33,-1.16 -2.11,-1.85c-0.5,-0.44 -1.22,-1.13 -1.73,-1.57c-0.79,-0.69 -1.68,-1.35 -2.31,-1.79c-0.63,-0.44 -1.58,-1.04 -2.19,-1.42c-0.88,-0.55 -1.45,-0.89 -2.3,-1.4c-0.84,-0.51 -1.41,-0.85 -2.3,-1.35c-0.91,-0.51 -1.56,-0.85 -2.22,-1.18c-0.68,-0.34 -1.75,-0.85 -2.5,-1.18c-0.77,-0.34 -1.57,-0.68 -2.41,-1.01c-0.87,-0.34 -1.8,-0.68 -2.75,-1.01c-0.49,-0.17 -1.48,-0.51 -1.98,-0.67c-1.51,-0.51 -2.02,-0.67 -3.03,-1.01c-0.51,-0.17 -1.52,-0.51 -2.02,-0.67c-1.52,-0.51 -2.02,-0.68 -3.04,-1.01c-0.51,-0.16 -1.54,-0.49 -2.06,-0.63c-1.59,-0.45 -2.13,-0.56 -2.67,-0.69c-1.07,-0.25 -1.61,-0.36 -2.64,-0.59c-0.99,-0.22 -1.91,-0.45 -2.79,-0.67c-0.84,-0.22 -1.67,-0.45 -2.93,-0.79c-0.43,-0.11 -1.3,-0.34 -2.18,-0.56c-0.89,-0.23 -1.79,-0.45 -2.69,-0.67c-0.9,-0.23 -1.35,-0.34 -2.25,-0.59c-1.35,-0.38 -2.25,-0.69 -2.7,-0.84c-0.9,-0.3 -1.8,-0.62 -2.25,-0.77c-1.34,-0.44 -2.25,-0.69 -2.7,-0.81c-0.91,-0.24 -1.84,-0.47 -2.78,-0.69c-0.96,-0.23 -1.94,-0.45 -2.42,-0.55c-0.96,-0.21 -2.35,-0.48 -2.8,-0.56c-0.86,-0.15 -1.7,-0.29 -2.52,-0.43c-1.25,-0.22 -2.1,-0.41 -2.98,-0.61c-0.45,-0.1 -1.36,-0.32 -2.76,-0.65c-0.48,-0.11 -1.45,-0.34 -1.93,-0.44c-0.95,-0.21 -1.88,-0.42 -3.16,-0.67c-0.79,-0.15 -1.54,-0.29 -2.28,-0.4c-1.14,-0.18 -1.95,-0.29 -2.79,-0.39c-0.87,-0.1 -1.31,-0.16 -2.66,-0.25c-0.9,-0.06 -1.79,-0.08 -2.68,-0.09c-0.44,-0.01 -1.72,0 -2.56,-0.01c-0.81,0 -1.62,-0.01 -2.41,-0.05c-1.18,-0.06 -1.97,-0.15 -2.75,-0.23c-0.79,-0.08 -1.97,-0.2 -2.75,-0.23c-0.79,-0.04 -1.59,-0.04 -2.41,-0.05c-1.26,0 -2.12,0 -3.01,-0.01c-0.91,-0.01 -1.37,-0.02 -2.8,-0.11c-0.97,-0.06 -1.46,-0.12 -2.45,-0.2c-0.98,-0.08 -1.94,-0.15 -2.89,-0.19c-0.92,-0.04 -1.37,-0.04 -2.26,-0.05c-1.29,-0.01 -2.12,0 -2.94,0c-0.8,0 -1.59,0 -2.77,0c-0.78,0 -1.56,0 -2.33,0.03c-1.12,0.05 -2.19,0.16 -2.86,0.25c-0.95,0.12 -1.81,0.23 -2.81,0.27c-0.66,0.02 -1.81,0.01 -2.75,0.01c-0.76,0 -1.67,0 -2.68,0c-0.85,0 -1.72,0 -2.62,0c-0.85,0 -1.73,0.02 -2.64,0.28c-0.86,0.24 -1.43,0.1 -0.59,-0.19c0.8,-0.28 1.73,-0.24 2.47,-0.64c0.72,-0.4 1.61,-0.82 2.38,-1.15c0.76,-0.33 1.53,-0.84 2.11,-1.3c0.77,-0.61 1.56,-1.01 2.32,-1.5c0.84,-0.54 1.49,-1.01 2.13,-1.4c0.81,-0.5 1.57,-1.08 2.26,-1.56c0.77,-0.53 1.55,-1.03 2.34,-1.36c0.86,-0.36 1.4,-0.91 1.91,-1.44c0.57,-0.6 1.31,-1.12 1.96,-1.76c0.61,-0.6 1.15,-1.26 1.74,-2c0.52,-0.66 1.31,-1.23 1.76,-1.82c0.58,-0.78 1.07,-1.39 1.54,-2.25c0.45,-0.81 1.11,-1.37 1.57,-2.22c0.38,-0.7 1.02,-1.31 1.03,-0.97c0.02,0.87 0,1.74 0,2.53c0,0.9 0,1.8 0,2.71c0,0.91 0,1.87 0,2.71c0,0.89 -0.09,1.82 0.05,2.65c0.14,0.89 0.48,1.74 0.51,2.52c0.04,0.99 0,1.9 0,2.7c0,0.96 0,1.76 0,2.76c0,0.73 -0.04,1.76 0.02,2.62c0.06,0.95 0.28,1.79 0.38,2.45c0.17,1.12 0.13,1.8 0.28,2.92c0.09,0.68 0.33,1.57 0.55,2.47c0.21,0.9 0.37,1.8 0.44,2.7c0.05,0.67 0.17,1.8 0.3,2.46c0.19,1.04 0.22,1.8 0.37,2.91c0.11,0.82 0.32,1.44 0.42,2.44c0.09,0.85 -0.01,1.84 0.17,2.76c0.15,0.77 0.42,1.76 0.44,2.67c0.01,0.75 -0.01,1.77 0,2.49c0.02,0.98 0.5,1.78 0.06,1.46c-0.68,-0.51 -1.54,-1.01 -2.22,-1.47c-0.77,-0.51 -1.32,-1.05 -2.16,-1.68c-0.61,-0.46 -1.47,-0.88 -2.31,-1.25c-0.85,-0.38 -1.5,-0.81 -2.36,-1.24c-0.81,-0.4 -1.76,-0.65 -2.44,-1.05c-0.76,-0.44 -1.51,-1.01 -2.28,-1.4c-0.67,-0.34 -1.59,-0.8 -2.41,-1.12c-0.76,-0.3 -1.69,-0.52 -2.41,-1.19c-0.59,-0.55 -1.39,-0.86 -2.09,-1.34c-0.75,-0.51 -1.45,-1.04 -2.19,-1.66c-0.54,-0.45 -1.25,-1.14 -2.05,-1.55c-0.8,-0.41 -1.28,-1.09 -2.11,-1.59c-0.65,-0.39 -1.53,-0.83 -2.32,-1.3c-0.76,-0.45 -1.47,-0.95 -2.21,-1.36c-0.83,-0.46 -1.73,-0.59 -2.53,-0.92l-0.62,-0.58l-0.93,-0.2l-0.6,-0.54" fill="none" fill-opacity="null" id="svg_88" stroke="#ffffff" stroke-dasharray="null" stroke-linecap="round" stroke-linejoin="null" stroke-opacity="null" stroke-width="25"/>
 </g>
</svg>