<?xml version="1.0"?>
<svg width="400" height="400" xmlns="http://www.w3.org/2000/svg" xmlns:svg="http://www.w3.org/2000/svg">
 <!-- Created with SVG-edit - https://github.com/SVG-Edit/svgedit-->

 <g class="layer" display="inline">
  <title>Layer 1</title>
  <path d="m196.65,81.56c0.91,-1.26 1.38,-2.07 1.81,-2.71c0.64,-0.95 1.11,-1.57 1.63,-2.24c0.56,-0.73 1.17,-1.51 1.6,-2.03c0.43,-0.53 1.33,-1.55 1.78,-2.04c0.44,-0.48 1.13,-1.19 1.79,-1.94c0.68,-0.78 1.11,-1.32 1.56,-1.84c0.88,-1.01 1.32,-1.48 1.98,-2.1c0.78,-0.73 1.37,-1.11 2.29,-1.85c0.53,-0.43 1.14,-1.27 1.66,-1.9c0.61,-0.73 1.16,-1.02 2.07,-1.81c0.42,-0.37 1.09,-1.02 1.59,-1.48c0.82,-0.75 1.43,-1.28 2.09,-1.83c0.71,-0.59 1.09,-0.9 2.32,-1.89c0.44,-0.35 1.36,-1.08 1.84,-1.45c0.48,-0.38 0.98,-0.76 2.48,-1.93c0.5,-0.39 1.01,-0.78 2.02,-1.56c0.51,-0.39 1.02,-0.78 1.53,-1.17c0.52,-0.39 2.1,-1.57 2.64,-1.95c0.54,-0.39 1.08,-0.78 2.15,-1.53c0.53,-0.37 1.05,-0.73 2.08,-1.42c0.98,-0.65 1.46,-0.96 2.39,-1.56c0.45,-0.29 1.33,-0.86 2.18,-1.42c0.83,-0.55 1.23,-0.83 2.03,-1.39c0.77,-0.54 1.88,-1.32 2.25,-1.56c0.71,-0.48 1.41,-0.96 2.14,-1.37c1.12,-0.64 1.93,-1 2.77,-1.35c0.43,-0.18 1.3,-0.51 2.64,-0.94c0.45,-0.14 1.35,-0.4 2.27,-0.64c0.47,-0.12 1.45,-0.35 2.48,-0.57c1.09,-0.23 1.65,-0.34 2.81,-0.56c0.58,-0.11 1.16,-0.22 2.88,-0.56c0.55,-0.11 1.63,-0.33 2.16,-0.44c1.05,-0.2 1.56,-0.31 3.14,-0.5c0.53,-0.06 1.62,-0.13 2.17,-0.15c0.56,-0.02 1.68,-0.06 2.26,-0.08c1.75,-0.07 2.34,-0.11 2.94,-0.15c1.18,-0.08 1.76,-0.13 2.34,-0.16c1.66,-0.11 2.18,-0.14 3.18,-0.16c0.96,-0.02 1.44,-0.02 2.37,0.01c1.42,0.05 1.9,0.1 2.88,0.2c0.99,0.1 1.49,0.16 3,0.4c0.5,0.08 1.51,0.27 2.5,0.48c0.5,0.1 1.47,0.32 2.43,0.55c0.94,0.22 1.86,0.45 2.32,0.56c0.9,0.22 2.25,0.56 3.14,0.78c0.45,0.11 1.37,0.35 2.3,0.62c0.48,0.14 1.97,0.63 2.49,0.81c1.07,0.39 1.62,0.61 2.17,0.83c1.14,0.46 2.3,0.95 2.89,1.21c0.6,0.26 1.2,0.52 2.43,1.07c0.63,0.28 1.26,0.57 1.9,0.86c1.32,0.6 2,0.91 2.68,1.23c0.69,0.32 1.39,0.65 2.1,0.98c0.71,0.34 1.42,0.68 2.12,1.03c1.41,0.71 2.1,1.08 2.79,1.45c1.37,0.75 2.04,1.14 2.7,1.52c0.66,0.39 1.32,0.77 2.62,1.56c0.64,0.39 1.27,0.78 1.9,1.18c0.63,0.39 1.25,0.79 1.87,1.19c0.62,0.4 1.24,0.8 2.46,1.64c1.24,0.84 1.85,1.28 2.46,1.71c0.62,0.44 1.24,0.88 1.87,1.32c0.63,0.45 1.9,1.34 2.55,1.79c0.65,0.45 1.3,0.89 1.96,1.33c0.65,0.44 1.31,0.88 1.97,1.31c0.65,0.43 1.95,1.28 2.59,1.7c0.63,0.41 1.25,0.81 1.86,1.22c0.6,0.39 1.74,1.16 2.27,1.54c1.01,0.73 1.9,1.45 2.31,1.8c0.78,0.67 1.13,1.02 1.83,1.66c1.01,0.93 1.67,1.52 2,1.82c0.63,0.57 1.27,1.09 2.22,2.25c0.44,0.54 0.8,1.11 1.48,2.23c0.34,0.56 0.85,1.42 1.17,2.02c0.52,0.95 0.84,1.65 1.18,2.39c0.35,0.78 0.71,1.61 1.09,2.48c0.4,0.92 0.61,1.39 1.04,2.37c0.22,0.51 0.66,1.56 1.11,2.65c0.23,0.56 0.67,1.73 0.89,2.32c0.22,0.61 0.45,1.23 0.67,1.86c0.68,1.96 0.9,2.64 1.12,3.32c0.22,0.7 0.44,1.41 0.66,2.14c0.22,0.74 0.43,1.49 0.63,2.27c0.41,1.58 0.6,2.4 0.78,3.24c0.19,0.84 0.37,1.7 0.55,2.56c0.18,0.87 0.36,1.74 0.55,2.61c0.38,1.74 0.58,2.6 0.78,3.46c0.2,0.85 0.41,1.7 0.62,2.55c0.21,0.84 0.42,1.68 0.62,2.52c0.41,1.68 0.6,2.51 0.78,3.35c0.18,0.83 0.36,1.66 0.52,2.48c0.16,0.81 0.31,1.61 0.44,2.41c0.26,1.54 0.36,2.29 0.45,3.02c0.09,0.72 0.17,1.43 0.24,2.13c0.07,0.7 0.13,1.39 0.19,2.08c0.12,1.39 0.17,2.09 0.22,2.79c0.06,0.71 0.11,1.42 0.16,2.13c0.05,0.71 0.09,1.42 0.13,2.13c0.07,1.41 0.09,2.1 0.11,2.79c0.03,1.36 0.04,2.03 0.04,2.69c0,0.65 0.01,2.54 0.01,3.15c0,0.6 0,1.78 0,2.36c0,0.58 0,1.73 0,2.9c0,0.59 0,1.78 0,2.37c0,0.59 0,1.77 0,2.35c0,1.69 0,2.23 -0.01,3.29c-0.01,0.52 -0.04,1.54 -0.08,2.05c-0.12,1.51 -0.3,2.52 -0.39,3.02c-0.19,1.01 -0.3,1.51 -0.63,3.02c-0.11,0.5 -0.34,1.51 -0.45,2.02c-0.22,1.02 -0.34,1.53 -0.67,3.1c-0.11,0.53 -0.33,1.61 -0.45,2.16c-0.22,1.1 -0.33,1.66 -0.45,2.22c-0.34,1.68 -0.44,2.23 -0.68,3.35c-0.12,0.56 -0.36,1.68 -0.49,2.23c-0.26,1.12 -0.56,2.24 -0.71,2.79c-0.16,0.56 -0.49,1.68 -0.67,2.23c-0.55,1.68 -0.76,2.24 -0.96,2.79c-0.41,1.11 -0.63,1.66 -0.85,2.2c-0.44,1.06 -0.88,2.09 -1.33,3.07c-0.22,0.48 -0.67,1.41 -0.89,1.87c-0.44,0.91 -0.9,1.8 -1.34,2.69c-0.44,0.89 -0.67,1.34 -1.09,2.24c-0.62,1.34 -0.81,1.79 -1.18,2.68c-0.37,0.88 -0.53,1.33 -0.91,2.19c-0.56,1.27 -0.77,1.68 -1.21,2.49c-0.44,0.8 -0.91,1.59 -1.41,2.37c-0.5,0.79 -1.04,1.56 -1.31,1.96c-0.55,0.78 -1.38,1.96 -1.66,2.35c-0.56,0.78 -1.12,1.55 -1.71,2.28c-0.29,0.36 -1.2,1.39 -1.84,2.01c-0.64,0.61 -0.98,0.89 -1.64,1.46c-1,0.84 -1.68,1.4 -2.37,1.97c-0.35,0.29 -1.07,0.88 -2.24,1.79c-0.41,0.32 -1.25,0.96 -1.69,1.28c-0.89,0.66 -1.35,1 -2.29,1.66c-0.96,0.68 -1.46,1.01 -1.97,1.35c-1.06,0.7 -1.62,1.06 -2.2,1.42c-1.23,0.77 -1.89,1.16 -2.57,1.56c-0.7,0.42 -1.43,0.84 -2.18,1.26c-0.76,0.43 -1.54,0.86 -2.33,1.28c-1.6,0.86 -2.42,1.27 -3.24,1.68c-0.82,0.41 -1.65,0.82 -2.48,1.23c-0.83,0.41 -1.67,0.83 -2.5,1.26c-1.68,0.87 -2.51,1.32 -3.35,1.79c-0.84,0.47 -1.67,0.95 -2.5,1.44c-0.83,0.49 -1.66,0.99 -2.48,1.49c-1.63,1 -2.44,1.5 -3.24,2.01c-0.8,0.5 -1.6,1.01 -2.39,1.52c-0.8,0.51 -1.6,1.03 -2.39,1.55c-1.61,1.05 -2.42,1.58 -3.24,2.12c-0.82,0.54 -1.64,1.08 -2.47,1.63c-0.82,0.54 -1.65,1.09 -2.47,1.63c-1.63,1.07 -2.44,1.6 -3.24,2.12c-0.8,0.52 -1.59,1.03 -2.37,1.53c-0.78,0.5 -1.55,1 -2.32,1.48c-1.52,0.96 -2.27,1.43 -3.02,1.9c-0.74,0.46 -1.48,0.92 -2.2,1.38c-0.72,0.45 -1.44,0.9 -2.15,1.35c-1.41,0.89 -2.1,1.34 -2.79,1.79c-0.68,0.44 -1.35,0.88 -2,1.31c-0.64,0.42 -1.27,0.83 -1.88,1.23c-1.16,0.76 -1.71,1.11 -2.23,1.45c-0.51,0.32 -0.99,0.63 -1.46,0.92c-0.45,0.28 -0.89,0.55 -1.31,0.8c-0.8,0.48 -1.19,0.69 -1.57,0.9c-0.36,0.2 -0.71,0.39 -1.06,0.57c-0.33,0.18 -0.65,0.35 -0.95,0.52c-0.58,0.33 -0.86,0.5 -1.12,0.67c-0.26,0.17 -1.01,0.69 -1.53,1.05c-1.12,0.78 -1.73,1.2 -2.38,1.61c-0.66,0.42 -1.66,1.01 -2.33,1.38c-0.67,0.37 -1.35,0.72 -2.35,1.3c-0.68,0.39 -1.34,0.81 -1.99,1.25c-0.65,0.44 -1.87,1.34 -2.46,1.78c-0.59,0.44 -1.17,0.87 -2.09,1.45c-0.63,0.39 -1.65,0.94 -2.01,1.13c-1.13,0.62 -1.93,1.09 -2.76,1.6c-0.43,0.26 -1.28,0.8 -1.71,1.08c-1.27,0.83 -2.08,1.4 -2.49,1.68c-0.81,0.57 -1.22,0.86 -2.45,1.76c-0.42,0.31 -1.28,0.94 -1.71,1.26c-0.87,0.64 -1.29,0.97 -2.57,1.9c-0.83,0.61 -1.23,0.9 -2.05,1.47c-0.4,0.28 -1.21,0.83 -2.47,1.58c-0.42,0.25 -1.27,0.71 -2.09,1.18c-0.4,0.23 -1.52,0.86 -2.41,1.57c-0.55,0.44 -1.03,0.91 -1.91,1.91c-0.46,0.51 -0.89,1.06 -1.56,1.84c-0.66,0.77 -1.11,1.25 -1.79,1.94c-0.44,0.46 -1.34,1.35 -2,2.01c-0.43,0.43 -1.23,1.23 -1.78,1.78c-0.52,0.52 -1.37,1.35 -1.86,1.89c-0.52,0.56 -1.19,1.46 -1.66,2.22c-0.32,0.51 -0.91,1.53 -1.27,2.26c-0.34,0.68 -0.74,1.81 -0.97,2.45c-0.35,0.96 -0.91,1.65 -1.39,2.49c-0.33,0.58 -0.76,1.59 -0.97,2.38c-0.23,0.86 -0.17,1.57 -0.36,2.55c-0.16,0.84 -0.47,1.82 -0.69,2.55c-0.28,0.95 -0.48,1.78 -0.72,2.4c-0.38,0.99 -0.87,1.64 -1.32,2.67c-0.29,0.66 -0.59,1.68 -0.81,2.35c-0.33,1 -0.65,1.74 -0.73,2.74c-0.07,0.83 -0.27,1.64 -0.61,2.33c-0.39,0.78 -0.46,1.71 -0.75,2.59c-0.26,0.78 -0.59,1.52 -0.93,2.51c-0.23,0.67 -0.69,1.67 -1.06,2.35c-0.47,0.84 -0.74,1.51 -1.12,2.42c-0.32,0.76 -0.78,1.66 -1.17,2.44l-0.39,0.73l-0.6,0.76" fill="none" fill-opacity="null" id="svg_16" stroke="#ffffff" stroke-dasharray="null" stroke-linecap="round" stroke-linejoin="null" stroke-opacity="null" stroke-width="30"/>
  <path d="m193.3,79.33c-0.26,-0.81 -0.85,-1.43 -1.45,-1.99c-0.58,-0.53 -1.32,-1.1 -2.18,-1.72c-0.63,-0.45 -1.29,-0.91 -2.29,-1.66c-0.34,-0.26 -1.01,-0.79 -1.72,-1.33c-0.72,-0.56 -1.48,-1.12 -2.29,-1.67c-0.82,-0.57 -1.25,-0.83 -2.08,-1.4c-1.22,-0.83 -1.6,-1.11 -2.34,-1.67c-0.7,-0.53 -1.34,-1.06 -2.23,-1.77c-0.54,-0.43 -1.29,-1.01 -1.78,-1.39c-0.99,-0.77 -1.51,-1.18 -2.31,-1.8c-0.53,-0.41 -1.53,-1.19 -1.99,-1.55c-0.83,-0.65 -1.49,-1.22 -2.18,-1.81c-0.68,-0.58 -1.32,-1.01 -2.15,-1.57c-0.66,-0.44 -1.58,-0.95 -2.29,-1.43c-0.7,-0.47 -1.25,-1.05 -2.15,-1.46c-0.96,-0.43 -1.68,-0.56 -2.42,-0.9c-0.91,-0.41 -1.65,-0.87 -2.2,-1.13c-1.1,-0.52 -1.96,-0.75 -2.53,-0.93c-1.19,-0.37 -1.81,-0.63 -2.8,-1.03c-0.68,-0.28 -1.74,-0.67 -2.48,-0.86c-0.76,-0.19 -1.54,-0.32 -2.35,-0.48c-1.25,-0.24 -2.1,-0.43 -2.53,-0.53c-0.85,-0.2 -1.69,-0.42 -2.87,-0.76c-0.74,-0.21 -1.75,-0.54 -2.39,-0.69c-1.11,-0.26 -1.86,-0.25 -2.91,-0.41c-0.75,-0.11 -1.76,-0.49 -2.6,-0.73c-0.89,-0.25 -1.63,-0.31 -2.51,-0.57c-0.9,-0.26 -1.79,-0.18 -2.58,-0.33c-0.92,-0.18 -1.64,-0.79 -2.57,-1c-0.72,-0.16 -1.74,-0.07 -2.57,-0.07c-0.89,0 -1.78,0 -2.45,0c-1.12,0 -2.01,0 -2.91,0c-0.91,0 -1.61,0 -2.62,0c-0.77,0 -1.91,0 -2.71,0c-0.93,0 -1.82,0 -2.6,0c-0.97,0 -1.83,-0.01 -2.68,0c-0.91,0.01 -1.81,0.11 -2.58,0.29c-1.02,0.25 -1.75,0.55 -2.87,0.73c-0.6,0.1 -1.48,0.08 -2.59,0.25c-0.65,0.1 -1.77,0.31 -2.47,0.41c-0.98,0.15 -1.72,0.47 -2.55,0.76c-0.91,0.32 -1.7,0.26 -2.67,0.54c-0.94,0.27 -1.66,0.62 -2.53,0.97c-0.78,0.32 -1.61,0.65 -2.37,0.95c-0.82,0.32 -1.73,0.86 -2.35,1.23c-0.82,0.48 -1.67,0.79 -2.55,1.17c-0.72,0.31 -1.41,0.96 -2.06,1.45c-0.74,0.56 -1.69,0.7 -2.43,1.34c-0.66,0.57 -1.4,1.02 -1.9,1.63c-0.57,0.7 -1.12,1.39 -1.73,2c-0.67,0.67 -1.4,1.28 -1.96,1.96c-0.56,0.68 -0.91,1.44 -1.51,2.07c-0.57,0.6 -0.97,1.36 -1.45,2.23c-0.42,0.76 -1.03,1.49 -1.34,2.18c-0.38,0.84 -0.76,1.76 -1.24,2.42c-0.54,0.74 -1.01,1.47 -1.3,2.08c-0.46,0.97 -0.7,1.7 -1.04,2.71c-0.28,0.84 -0.54,1.68 -0.8,2.37c-0.36,0.95 -0.77,1.78 -1.1,2.44c-0.44,0.9 -0.8,1.58 -1.12,2.33c-0.47,1.11 -0.68,1.72 -0.97,2.67c-0.29,0.93 -0.51,1.84 -0.63,2.43c-0.19,0.88 -0.35,1.8 -0.51,2.76c-0.11,0.66 -0.34,1.99 -0.45,2.66c-0.11,0.66 -0.27,1.64 -0.35,2.59c-0.08,0.9 -0.08,1.77 -0.19,2.89c-0.08,0.84 -0.2,1.39 -0.31,2.23c-0.14,1.11 -0.15,1.94 -0.16,2.75c-0.01,1.01 0.01,1.94 -0.09,2.84c-0.11,0.9 -0.3,1.56 -0.42,2.68c-0.07,0.67 -0.13,1.79 -0.28,2.68c-0.12,0.67 -0.29,1.79 -0.31,2.47c-0.02,0.71 -0.01,1.97 -0.01,2.77c0,1.04 0,1.77 0,2.66c0,0.99 0,1.7 0,2.72c0,0.81 0,1.77 0,2.69c0,0.76 -0.01,1.75 0,2.65c0.01,0.76 0.13,1.75 0.32,2.57c0.2,0.86 0.38,1.79 0.6,2.62c0.22,0.82 0.14,1.6 0.21,2.55c0.06,0.91 0.23,1.7 0.64,2.69c0.32,0.76 0.78,1.37 1.29,2.32c0.42,0.78 0.75,1.69 0.85,2.44c0.12,0.98 0.65,1.67 1.13,2.33c0.54,0.74 1.16,1.34 1.65,2.18c0.35,0.6 0.74,1.54 1.14,2.15c0.47,0.71 0.87,1.22 1.52,2.12c0.49,0.68 1.03,1.42 1.64,2.21c0.32,0.42 1.01,1.29 1.77,2.2c0.39,0.47 0.8,0.94 1.62,1.91c0.41,0.48 0.83,0.96 1.62,1.93c0.77,0.93 1.13,1.39 1.82,2.28c0.33,0.43 0.95,1.24 1.54,2c0.53,0.69 1.03,1.32 1.68,2.16c0.56,0.72 1.16,1.52 1.58,2.2c0.49,0.79 0.93,1.6 1.53,2.2c0.65,0.65 1.3,1.3 1.69,1.69c0.94,0.94 1.51,1.51 1.82,1.8c0.65,0.62 1.35,1.26 2.52,2.17c0.4,0.31 1.24,0.89 1.68,1.19c0.87,0.59 1.33,0.87 2.66,1.8c0.45,0.31 1.34,0.96 1.78,1.28c0.44,0.33 1.31,0.99 2.15,1.66c0.83,0.67 1.24,1.01 2.08,1.7c0.43,0.35 1.32,1.08 2.29,1.84c0.51,0.4 1.05,0.81 1.62,1.22c0.59,0.43 1.21,0.88 1.86,1.32c0.68,0.47 1.39,0.95 2.95,1.92c0.82,0.52 1.69,1.03 2.6,1.55c0.94,0.54 1.91,1.08 2.92,1.62c1.04,0.56 2.1,1.12 4.35,2.22c1.15,0.57 2.33,1.12 3.53,1.67c1.19,0.55 2.39,1.08 3.57,1.61c1.16,0.51 2.3,1.01 4.45,1.94c1.01,0.44 1.97,0.85 2.88,1.24c0.87,0.37 1.69,0.73 2.47,1.06c0.74,0.31 1.44,0.61 2.74,1.15c0.6,0.25 1.16,0.47 1.7,0.69c0.5,0.2 0.98,0.39 1.43,0.58c0.42,0.18 0.82,0.34 1.53,0.69c0.33,0.16 0.63,0.33 0.91,0.5c0.26,0.16 0.5,0.31 0.72,0.47c0.2,0.14 0.39,0.28 0.7,0.52c0.36,0.28 1.06,0.89 1.37,1.68c0.37,0.91 0.61,1.49 1.07,2.12c0.71,0.97 1.13,1.47 1.76,2.27c0.44,0.55 1.1,1.39 1.78,2.23c0.47,0.59 0.98,1.21 1.25,1.53c0.89,1.07 1.57,1.85 1.93,2.26c0.37,0.42 1.14,1.29 1.55,1.73c0.82,0.9 1.67,1.79 2.1,2.23c0.43,0.45 1.3,1.34 1.73,1.79c0.43,0.45 1.69,1.79 2.1,2.23c0.4,0.44 1.19,1.33 1.57,1.77c0.37,0.43 1.43,1.71 1.75,2.13c0.64,0.81 0.94,1.22 1.52,2.02c0.57,0.78 1.13,1.57 1.69,2.35c0.55,0.77 1.08,1.52 1.33,1.89c0.72,1.05 1.15,1.69 1.7,2.6c0.34,0.55 0.94,1.58 1.29,2.3c0.32,0.65 0.59,1.66 0.73,2.54c0.16,1.01 0.36,1.65 0.76,2.61c0.38,0.92 0.66,1.52 0.83,2.53c0.13,0.81 0.33,1.79 0.53,2.63c0.19,0.77 0.43,1.66 0.62,2.57c0.18,0.86 0.4,1.6 0.54,2.63c0.13,0.93 0.04,1.71 0.44,2.48c0.44,0.84 0.71,1.7 0.72,2.6c0.01,0.88 0.13,1.74 0.5,2.4c0.49,0.89 0.95,1.5 1.32,2.35c0.35,0.82 0.59,1.68 0.87,2.51c0.28,0.84 0.55,1.68 0.89,2.68c0.22,0.63 0.64,1.56 1.01,2.51c0.24,0.62 0.6,1.62 0.81,2.43c0.21,0.83 0.14,1.75 0.22,2.64c0.08,0.87 0.35,1.82 0.57,2.55c0.26,0.86 0.9,1.62 1.09,2.38c0.21,0.86 0.06,1.82 -0.12,2.69c-0.16,0.77 -0.54,1.62 -0.88,2.33c-0.42,0.9 -0.61,1.79 -0.67,2.68c-0.06,0.9 -0.45,1.65 -0.78,2.46c-0.36,0.87 -0.51,1.8 -1,2.46c-0.5,0.68 -1.06,1.44 -1.57,2.22c-0.43,0.66 -0.73,1.52 -1.39,2.21c-0.61,0.64 -0.85,1.37 -1.34,2.15c-0.49,0.77 -0.98,1.44 -1.4,2.35c-0.37,0.78 -0.59,1.37 -0.99,2.32c-0.29,0.69 -0.6,1.42 -0.92,2.17c-0.33,0.77 -0.83,1.94 -1.17,2.73c-0.34,0.78 -0.67,1.56 -1.17,2.74c-0.33,0.78 -0.5,1.17 -0.83,1.92c-0.31,0.72 -0.9,2.01 -1.15,2.57c-0.36,0.8 -0.82,1.93 -1.04,2.58c-0.23,0.68 -0.53,1.73 -0.8,2.71c-0.23,0.85 -0.39,1.57 -0.71,2.49c-0.27,0.78 -0.5,1.75 -0.5,2.63c0,0.93 -0.02,1.72 0.13,2.47c0.19,0.98 0.5,1.76 0.86,2.63c0.19,0.47 0.65,1.47 0.9,2c0.53,1.1 1.11,2.23 1.42,2.81c0.31,0.58 0.62,1.16 0.94,1.74c0.63,1.14 1.25,2.23 1.56,2.75c0.59,1 0.87,1.47 1.42,2.36c0.26,0.42 0.98,1.58 1.4,2.28c0.56,0.92 0.89,1.46 1.36,2.41c0.36,0.74 1.05,1.5 1.43,2.13c0.47,0.76 0.32,1.84 0.32,2.62c0,0.99 -0.01,1.72 0.04,2.57c0.04,0.66 0.2,1.8 0.36,2.66c0.17,0.92 0.28,1.39 0.5,2.34c0.33,1.43 0.44,1.9 0.67,2.81c0.22,0.88 0.44,1.73 0.67,2.53c0.32,1.13 0.55,1.81 0.75,2.46c0.36,1.16 0.51,1.93 0.81,2.72c0.36,0.94 0.67,1.66 0.95,0.88l0.64,-0.65" fill="none" fill-opacity="null" id="svg_31" stroke="#ffffff" stroke-dasharray="null" stroke-linecap="round" stroke-linejoin="null" stroke-opacity="null" stroke-width="30"/>
 </g>
</svg>