<?xml version="1.0"?>
<svg width="400" height="400" xmlns="http://www.w3.org/2000/svg" xmlns:svg="http://www.w3.org/2000/svg">
 <!-- Created with SVG-edit - https://github.com/SVG-Edit/svgedit-->

 <g class="layer" display="inline">
  <title>Layer 1</title>
  <path d="m99.58,302.5c0,-0.87 0,-1.83 0,-2.5c0,-1 -0.02,-1.87 0.18,-2.85c0.14,-0.68 0.46,-1.57 0.58,-2.41c0.12,-0.89 0.07,-1.9 0.07,-2.74c0,-0.83 0,-1.67 0,-2.67c0,-1 0,-1.82 0,-2.76c0,-0.82 0,-1.71 0,-2.55c0,-0.89 0,-1.79 0,-2.64c0,-0.96 0,-1.78 0,-2.71c0,-0.83 0,-1.67 0,-2.67c0,-1 0,-1.83 0,-2.67c0,-0.85 0,-1.81 0,-2.69c0,-0.68 0,-1.74 0,-2.64c0,-0.84 0,-1.72 0,-2.74c0,-0.66 0,-1.81 0,-2.6c0,-0.8 0,-1.62 0,-2.69c0,-0.95 0,-1.79 0,-2.68c0,-0.88 0,-1.81 0,-2.7c0,-0.77 0,-1.76 0,-2.52c0,-0.93 0,-1.93 0,-2.57c0,-0.99 0,-1.98 0,-2.97c0,-0.71 0,-1.69 0,-2.53c0,-1 0,-1.67 0,-2.67c0,-0.83 0,-1.83 0,-2.67c0,-0.83 0,-1.67 0,-2.66c0,-0.99 0,-1.75 0,-2.69c0,-0.98 0,-1.79 0,-2.69c0,-0.9 0,-1.64 0,-2.63c0,-0.83 0,-1.84 0,-2.55c0,-1.02 0,-1.9 0,-2.83c0,-0.85 0,-1.77 0,-2.66c0,-0.79 0,-1.81 0,-2.71c0,-0.83 0,-1.75 0,-2.59c0,-0.9 0.01,-1.68 -0.29,-2.66c-0.21,-0.68 -0.51,-1.67 -0.54,-2.38c-0.03,-1.02 0,-1.93 0,-2.81c0,-0.95 0,-1.81 0,-2.64c0,-1 0,-1.8 0,-2.79c0,-0.89 0.34,-1.64 0.83,-2.34c0.46,-0.67 0.94,-1.49 1.42,-2.15c0.53,-0.74 0.86,-1.4 1.49,-2.21c0.55,-0.71 1.14,-1.46 1.47,-2.13c0.33,-0.68 0.87,-1.79 1.31,-2.33c0.54,-0.66 1.29,-1.35 1.95,-2.01c0.56,-0.56 1.2,-1.19 1.86,-1.86c0.5,-0.51 1.02,-1.06 1.67,-1.9c0.51,-0.67 0.97,-1.39 1.67,-2.19c0.5,-0.57 1.06,-1.08 1.9,-1.74c0.67,-0.53 1.4,-1.04 2.19,-1.9c0.4,-0.43 0.91,-1.17 1.75,-2c0.43,-0.41 1.17,-0.97 1.65,-1.41c1.04,-0.96 1.5,-1.57 2,-2.15c0.5,-0.57 1.23,-1.36 2.01,-1.99c0.51,-0.41 1.07,-0.78 2.23,-1.62c0.62,-0.45 1.25,-0.93 1.86,-1.43c0.9,-0.74 1.44,-1.24 1.97,-1.75c0.52,-0.5 1.51,-1.5 2.02,-2c0.5,-0.49 1.23,-1.2 2,-1.82c0.74,-0.6 1.28,-0.95 1.82,-1.34c1.17,-0.83 1.78,-1.28 2.38,-1.74c0.58,-0.45 1.58,-1.28 2.01,-1.67c0.63,-0.56 1.58,-1.37 2.13,-1.82c0.58,-0.46 1.17,-0.89 2.21,-1.77c0.45,-0.38 1.05,-0.95 1.84,-1.74c0.66,-0.65 1.09,-1.12 1.79,-1.72c0.81,-0.7 1.43,-1.04 2.51,-1.75c0.54,-0.35 1.11,-0.78 1.71,-1.24c0.62,-0.48 1.5,-1.23 2.32,-1.97c0.52,-0.48 1.01,-0.96 2.03,-1.77c0.49,-0.39 1.25,-0.9 2.25,-1.57c0.5,-0.33 1.24,-0.81 2.11,-1.5c0.61,-0.48 1.13,-1 1.97,-1.83c0.5,-0.49 1.15,-1.11 2,-1.71c0.61,-0.43 1.19,-1.1 1.85,-1.75c0.72,-0.72 1.49,-0.84 2.38,-1.52c0.63,-0.47 0.96,-1.18 1.81,-1.84c0.61,-0.47 1.48,-1.06 1.97,-1.53c0.68,-0.65 1.33,-1.34 1.88,-1.82c0.78,-0.69 1.48,-1.16 2.16,-1.67c0.87,-0.65 1.44,-1.16 1.96,-1.67c0.85,-0.82 1.34,-1.33 1.84,-1.83c0.83,-0.83 1.33,-1.33 2.17,-2.17c0.51,-0.51 1.05,-1.05 1.85,-1.85c0.44,-0.44 1.1,-1.14 2.01,-1.87c0.57,-0.46 1.34,-0.75 2.11,-1.45c0.61,-0.56 0.87,-1.41 1.63,-2.14c0.51,-0.48 1.4,-0.91 2.06,-1.52c0.62,-0.58 1.27,-1.27 1.83,-1.83c0.69,-0.69 1.25,-1.27 2.12,-1.93c0.58,-0.44 1.27,-0.85 1.93,-1.57c0.57,-0.62 1.07,-1.52 1.65,-2.17c0.46,-0.51 1.3,-1.33 1.8,-1.83c0.5,-0.5 1.33,-1.33 1.8,-1.8c0.79,-0.79 1.36,-1.36 2.03,-2.03c0.66,-0.66 1.14,-1.35 1.17,-1.24c0.19,0.86 0.67,1.47 1,2.3c0.34,0.88 0.73,1.83 1.2,2.47c0.55,0.76 1,1.35 1.47,2.05c0.67,0.99 1,1.49 1.5,2.24c0.67,1 1.01,1.49 1.48,2.25c0.46,0.74 0.94,1.75 1.27,2.48c0.31,0.7 0.81,1.53 1.25,2.08c0.68,0.86 1.12,1.54 1.57,2.18c0.6,0.86 1.26,1.47 1.75,2.17c0.45,0.64 0.91,1.68 1.29,2.33c0.5,0.86 1.11,1.49 1.52,2.05c0.57,0.78 0.9,1.72 1.28,2.31c0.56,0.86 1.29,1.2 1.97,2.02c0.48,0.58 1.04,1.45 1.61,2.12c0.56,0.66 1,1.33 1.52,2.33c0.35,0.66 0.7,1.36 1.38,2.17c0.44,0.52 1.28,1.34 1.81,1.85c0.61,0.58 1.39,1.26 2.02,1.79c0.71,0.6 1.1,0.91 1.93,1.58c0.43,0.35 1.33,1.08 2.26,1.85c0.48,0.39 0.96,0.79 1.94,1.6c0.5,0.41 0.99,0.83 1.99,1.66c0.5,0.42 1.5,1.25 2,1.67c0.5,0.42 1,0.83 2,1.67c1,0.83 1.5,1.25 2,1.67c0.99,0.83 1.48,1.23 1.97,1.64c0.48,0.4 1.89,1.56 2.35,1.93c0.44,0.36 1.3,1.06 1.72,1.4c0.79,0.65 1.86,1.56 2.49,2.13c0.59,0.54 1.15,1.07 1.71,1.57c0.86,0.76 1.48,1.25 2.1,1.77c0.63,0.53 1.54,1.36 2.1,1.97c0.56,0.61 1.08,1.26 1.64,1.86c0.84,0.91 1.47,1.44 1.78,1.71c0.89,0.78 1.73,1.52 2.18,2.03c0.63,0.71 0.94,1.23 1.64,2.07c0.64,0.77 1.17,1.27 1.83,1.93c0.64,0.64 1.37,1.27 1.91,1.96c0.56,0.71 0.83,1.39 1.63,2.08c0.54,0.47 1.34,1.17 1.75,1.85c0.49,0.79 0.89,1.5 1.47,2.2c0.65,0.78 1.2,1.25 1.78,1.74c0.86,0.72 1.68,1.37 2.15,1.77c0.63,0.55 1.61,1.4 2.04,1.74c0.66,0.52 1.36,1.02 1.96,1.9c0.44,0.65 0.72,1.41 1.45,2.2c0.6,0.65 1.15,1.01 1.86,1.82c0.53,0.61 1.01,1.33 1.53,2.08c0.54,0.77 1.09,1.54 1.71,2.26c0.61,0.71 0.93,1.05 1.6,1.69c0.98,0.93 1.66,1.48 2.31,2.01c0.62,0.5 1.22,0.95 1.98,1.6c0.66,0.57 1.25,1.14 2.05,1.95c0.44,0.44 1.16,1.03 1.85,2.03c0.45,0.66 1.29,0.96 1.83,1.72c0.49,0.69 0.14,1.63 0.14,2.57c0,0.85 0,1.81 0,2.69c0,0.69 0,1.74 0,2.5c0,1 0,1.9 0,2.58c0,1.02 -0.02,1.92 -0.35,2.89c-0.3,0.89 -0.47,1.56 -0.48,2.48c0,0.88 0,1.86 0,2.61c0,0.78 0,1.89 0,2.79c0,0.62 0,1.55 0,2.72c0,0.79 0,1.5 0,2.53c0,0.95 0,1.78 0,2.75c0,0.53 0,1.7 0,2.63c0,0.62 0,1.82 0,2.64c0,0.78 0,1.78 0,2.53c0,1 0,2 0,2.72c0,1.01 0,1.91 0,2.81c0,0.97 0,1.8 0,2.64c0,0.83 0,1.83 0,2.64c0,1 0.49,1.69 0.76,2.53c0.29,0.88 0.07,1.77 0.07,2.51c0,0.99 0,1.87 0,2.89c0,0.68 0,1.79 0,2.58c0,0.76 -0.03,1.82 0.03,2.5c0.1,1.09 0.46,1.84 0.66,2.83c0.14,0.65 0.14,1.57 0.14,2.62c0,0.76 0,1.75 0,2.65c0,0.68 0,1.7 0,2.58c0,1 0,1.67 0,2.66c0,0.99 0,1.82 0,2.68c0,0.87 0,1.92 0,2.65c0,1.01 0,1.71 0,2.69c0,0.9 0,1.58 0,2.61c0,0.95 0,1.78 0,2.69c0,1.09 0,1.84 0,2.85c0,0.8 0,1.71 0,2.61c0,0.77 0.03,1.65 0,2.67c-0.02,0.71 -0.34,1.69 -0.59,2.48c-0.29,0.91 -0.24,1.78 -0.24,2.7l0,0.91l0,0.9" fill="none" fill-opacity="null" id="svg_18" stroke="#ffffff" stroke-dasharray="null" stroke-linecap="round" stroke-linejoin="null" stroke-opacity="null" stroke-width="25"/>
 </g>
</svg>