<?xml version="1.0"?>
<svg width="400" height="400" xmlns="http://www.w3.org/2000/svg" xmlns:svg="http://www.w3.org/2000/svg">
 <!-- Created with SVG-edit - https://github.com/SVG-Edit/svgedit-->

 <g class="layer" display="inline">
  <title>Layer 1</title>
  <path d="m201.12,100.56c0.89,1.15 1.4,1.5 2.39,2.23c0.44,0.32 1.14,0.85 2.15,1.64c0.55,0.43 1.12,0.88 1.73,1.35c0.99,0.76 1.71,1.27 2.08,1.54c0.76,0.54 1.53,1.07 2.71,1.83c0.39,0.25 1.18,0.73 1.97,1.21c0.79,0.48 1.58,0.97 2.36,1.49c0.78,0.53 1.17,0.79 1.9,1.36c1.07,0.82 1.71,1.4 2.33,1.96c0.59,0.54 1.15,1.09 2.01,1.85c0.55,0.49 1.12,0.95 1.92,1.64c0.77,0.67 1.25,1.13 1.97,1.8c0.48,0.45 1.23,1.13 2.02,1.8c0.53,0.45 1.08,0.88 2.07,1.8c0.48,0.44 1.15,1.11 1.75,1.8c0.58,0.66 1.09,1.36 1.87,2.15c0.59,0.59 1.25,1.08 2.06,1.78c0.58,0.5 1.12,1.03 1.87,1.78c0.61,0.61 1.03,1.03 1.66,1.66c0.79,0.79 1.33,1.34 1.89,1.84c0.77,0.69 1.42,1.17 2.04,1.69c0.99,0.83 1.54,1.38 2.28,2.21c0.41,0.46 0.82,0.99 1.55,1.78c0.78,0.85 1.37,1.4 1.99,1.97c0.63,0.58 0.97,0.85 1.89,1.77c0.62,0.62 1.2,1.27 1.79,1.93c0.3,0.33 1.2,1.35 1.83,2.02c0.64,0.68 0.97,1.01 1.61,1.69c0.95,1.01 1.56,1.68 1.85,2.03c0.6,0.69 1.18,1.41 1.48,1.78c0.93,1.16 1.56,1.99 1.9,2.42c0.34,0.44 1.04,1.34 1.41,1.8c0.76,0.95 1.57,1.91 1.99,2.4c0.42,0.49 0.85,0.99 1.74,1.96c0.44,0.49 1.34,1.45 1.79,1.93c0.45,0.47 1.34,1.39 1.79,1.84c0.44,0.45 1.31,1.32 2.17,2.18c0.42,0.42 1.24,1.24 1.64,1.65c0.79,0.8 1.17,1.2 1.55,1.59c1.11,1.17 1.46,1.57 2.15,2.35c0.66,0.75 0.98,1.12 1.87,2.18c0.54,0.65 1.05,1.28 1.54,1.88c0.49,0.6 1.24,1.52 1.76,2.15c0.52,0.64 1.04,1.26 1.75,2.15c0.43,0.54 1.01,1.3 1.58,1.98c0.57,0.68 1.21,1.34 1.8,2.02c0.56,0.66 0.99,1.36 1.55,2.22c0.53,0.82 1.01,1.35 1.61,2.05c0.57,0.67 1.02,1.36 1.73,2.2c0.54,0.63 1.23,1.28 1.75,1.8c0.72,0.72 1.07,1.52 1.42,2.27c0.34,0.73 0.91,1.43 1.35,2.16c0.44,0.72 1.44,1.08 1.84,1.86c0.39,0.76 -0.17,1.72 -0.33,2.64c-0.14,0.79 -0.05,1.74 -0.08,2.58c-0.02,0.66 -0.2,1.79 -0.31,2.48c-0.16,0.97 -0.22,1.75 -0.23,2.55c-0.02,1.04 -0.01,2.01 -0.01,2.89c0,0.97 0,1.68 0,2.69c0,0.7 0,1.67 0,2.51c0,1.01 0,1.92 0,2.77c0,0.82 0.01,1.82 0,2.73c-0.01,0.76 -0.15,1.76 -0.32,2.62c-0.19,0.94 -0.23,1.79 -0.24,2.45c-0.01,1.12 0,1.8 0,2.92c0,0.67 0,1.57 0,2.7c0,0.67 0,1.8 0,2.47c0,0.86 0,1.83 0,2.75c0,0.99 0,1.8 0,2.67c0,0.86 0,1.73 0,2.54c0,0.99 -0.01,1.91 0,2.88c0.01,0.64 0.08,1.75 0.24,2.65c0.12,0.68 0.27,1.8 0.32,2.47c0.09,1.12 0.21,1.79 0.36,2.66c0.17,0.99 0.2,1.73 0.2,2.68c0,0.83 -0.03,1.86 0.01,2.61c0.05,1.12 0.25,1.93 0.36,2.54c0.21,1.14 0.2,1.97 0.2,2.81c0,0.87 0,1.86 0,2.69c0,0.9 0,1.8 0,2.67c0,0.99 -0.07,1.84 0.12,2.72c0.17,0.76 0.43,1.64 0.44,2.54c0.01,0.9 0,1.73 0,2.6c0,0.99 0,1.83 0,2.84c0,0.67 0,1.69 0,2.51c0,1 0,1.93 0,2.72c0,0.9 0,1.8 0,2.7c0,0.9 0,1.75 0,2.68c0,0.94 0,1.82 0,2.65c0,0.82 0,1.81 0,2.67c0,0.84 -0.5,1.33 -1.3,1.33c-0.87,0 -1.82,0 -2.63,0c-0.84,0 -1.7,0 -2.59,0c-0.97,0 -2.02,0 -2.77,0c-0.77,0 -1.94,0 -2.73,0c-0.78,0 -1.55,0 -2.31,0c-1.1,0 -2.17,0 -2.89,0c-0.73,0 -1.9,0 -2.72,0c-0.84,0.01 -1.68,0.01 -2.9,0.09c-0.77,0.05 -1.49,0.15 -2.2,0.23c-1.36,0.15 -2.03,0.2 -2.7,0.22c-0.98,0.03 -1.93,0.02 -2.84,0.02c-0.87,0 -2,0 -2.84,0c-0.56,0 -1.4,0 -2.53,0c-0.83,0 -1.64,0 -2.65,0c-0.96,0 -1.94,0 -2.72,0c-0.82,0 -1.93,0 -2.78,0c-0.57,0 -1.45,0 -2.69,0c-0.65,0 -1.33,0.01 -2.74,-0.09c-0.74,-0.05 -1.49,-0.15 -2.25,-0.23c-0.75,-0.08 -1.86,-0.18 -2.92,-0.22c-0.69,-0.02 -1.37,-0.02 -2.72,-0.02c-0.67,0 -1.35,0 -2.7,0c-0.67,0 -1.66,0 -2.3,0c-1.16,0 -1.93,0 -2.87,0c-0.9,0 -1.8,0 -2.7,0c-0.9,0 -1.57,0 -2.7,0c-0.69,0 -1.89,0.01 -2.67,0c-0.8,-0.01 -1.85,-0.08 -2.58,-0.2c-0.7,-0.11 -1.83,-0.31 -2.52,-0.34c-0.75,-0.03 -1.93,-0.02 -2.6,-0.02c-1.08,0 -1.83,0 -2.93,0c-0.71,0 -1.73,0 -2.38,0c-1.24,0 -1.83,0.01 -2.72,-0.03c-1.22,-0.06 -1.86,-0.17 -2.84,-0.29c-0.67,-0.08 -1.68,-0.18 -2.68,-0.22c-0.66,-0.02 -1.93,-0.02 -2.54,-0.02c-0.88,0 -1.73,0 -2.86,0c-0.83,0 -1.64,0 -2.65,0c-0.71,0 -1.85,0 -2.52,0c-0.93,0 -1.92,0 -2.71,0c-0.83,0 -1.95,0 -2.51,0c-0.86,0 -2.06,0 -2.69,0c-0.98,0 -1.64,0 -2.99,0c-0.68,0 -1.36,0 -2.41,0c-1.09,0 -1.84,0 -2.6,0c-0.78,0 -1.95,0 -2.74,0c-0.79,0 -1.59,0 -2.41,0c-1.26,0 -2.12,0 -2.99,0c-0.44,0 -1.3,0 -2.57,0c-0.82,0 -1.63,0 -2.43,0.03c-1.18,0.05 -1.97,0.12 -2.75,0.21c-0.77,0.08 -2.27,0.24 -2.99,0.27c-0.7,0.04 -1.37,0.04 -2.65,0.05c-0.9,0 -1.49,0 -2.34,0c-1.12,0 -1.97,0 -2.81,0c-1.12,0 -1.69,0 -2.53,0c-1.12,0 -1.97,0 -2.84,0c-0.9,0 -1.85,-0.01 -2.5,0.01c-0.96,0.02 -1.9,0.11 -2.79,0.23c-0.86,0.12 -1.99,0.27 -2.82,0.3c-0.79,0.03 -1.73,0.02 -2.53,0.02c-0.95,0 -1.78,-0.03 -2.65,0.05c-0.9,0.08 -1.77,0.32 -2.8,0.45c-0.73,0.09 -1.75,0.07 -2.6,0.07c-1.01,0 -1.69,-0.03 -2.7,0.16c-0.7,0.13 -1.64,0.36 -2.49,0.39c-1.19,0.05 -1.97,0.03 -2.77,-0.01c-1.05,-0.05 -1.78,-0.19 -2.48,-0.3c-1.13,-0.19 -1.8,-0.19 -2.65,-0.29c-0.98,-0.11 -1.84,-0.41 -2.86,-0.49c-0.67,-0.06 -1.67,-0.02 -2.62,-0.02c-0.89,0 -1.78,0 -2.67,0c-0.88,0 -1.66,0 -2.66,0c-0.71,0 -1.69,0 -2.7,0c-0.91,0 -1.96,0.1 -2.17,-0.5c-0.29,-0.84 0,-1.73 0,-2.58c0,-0.99 0.02,-1.65 -0.12,-2.76c-0.09,-0.68 -0.31,-1.57 -0.41,-2.7c-0.06,-0.69 -0.11,-1.67 -0.23,-2.44c-0.12,-0.8 -0.28,-1.84 -0.35,-2.82c-0.05,-0.72 -0.12,-1.71 -0.26,-2.5c-0.14,-0.8 -0.38,-1.83 -0.54,-2.56c-0.2,-0.96 -0.3,-1.97 -0.34,-2.78c-0.05,-0.83 -0.12,-1.67 -0.24,-2.51c-0.12,-0.82 -0.28,-1.85 -0.31,-2.8c-0.03,-0.68 0.01,-1.81 -0.03,-2.48c-0.07,-1.13 -0.24,-1.79 -0.38,-2.65c-0.16,-0.97 -0.16,-1.84 -0.16,-2.86c0,-0.72 0,-1.71 0,-2.55c0,-0.99 0.02,-1.73 -0.12,-2.68c-0.12,-0.84 -0.37,-1.86 -0.42,-2.61c-0.06,-1.03 -0.06,-1.88 0.07,-2.72c0.14,-0.85 0.42,-1.85 0.46,-2.55c0.05,-1.01 0.01,-1.72 0.01,-2.73c0,-0.93 0,-1.73 0,-2.68c0,-0.83 -0.01,-1.7 0,-2.6c0.01,-0.92 0.09,-1.89 0.2,-2.67c0.12,-0.82 0.29,-1.93 0.33,-2.78c0.03,-0.56 0.03,-1.4 0.03,-2.53c0,-0.85 0,-1.73 0,-2.65c0,-0.95 0,-1.58 0,-2.78c0,-0.8 0,-1.56 0,-2.62c0,-0.88 -0.02,-1.5 0.05,-2.41c0.08,-1.12 0.27,-1.86 0.42,-3.02c0.09,-0.67 0.09,-1.57 0.09,-2.47c0.01,-0.9 0.08,-2.02 0.2,-2.69c0.15,-0.87 0.33,-1.86 0.36,-2.6c0.03,-0.95 -0.04,-1.79 0.1,-2.81c0.1,-0.76 0.35,-1.48 0.44,-2.48c0.07,-0.84 -0.02,-1.84 0.06,-2.72c0.08,-0.85 0.39,-1.68 0.5,-2.7c0.08,-0.79 -0.03,-1.72 0.03,-2.64c0.06,-0.86 0.74,-1.53 1.26,-2.05c0.66,-0.66 1.29,-1.28 1.77,-1.82c0.69,-0.77 1.19,-1.43 1.68,-2.13c0.52,-0.74 1.01,-1.54 1.52,-2.34c0.5,-0.78 1,-1.52 1.52,-2.19c0.66,-0.85 1.18,-1.39 1.67,-1.93c0.75,-0.84 1.25,-1.52 1.82,-2.37c0.34,-0.5 0.8,-1.2 1.51,-2.02c0.46,-0.53 1.3,-1.44 1.81,-2.05c0.36,-0.43 0.91,-1.12 1.83,-1.99c0.49,-0.47 1.04,-0.91 1.59,-1.4c0.85,-0.74 1.4,-1.28 2.25,-2.07c0.56,-0.53 1.4,-1.3 1.97,-1.78c0.56,-0.48 1.13,-0.95 1.97,-1.7c0.57,-0.51 1.14,-1.06 1.75,-1.62c0.64,-0.59 1.72,-1.5 2.1,-1.82c0.8,-0.65 1.22,-0.96 2.05,-1.61c0.41,-0.32 1.61,-1.25 2.35,-1.85c0.73,-0.58 1.08,-0.87 1.79,-1.44c1.08,-0.85 1.46,-1.13 2.22,-1.69c0.77,-0.57 1.16,-0.84 2.34,-1.69c0.78,-0.56 1.18,-0.84 1.94,-1.39c0.75,-0.54 1.8,-1.32 2.46,-1.82c0.62,-0.47 1.21,-0.94 1.78,-1.4c0.85,-0.67 1.69,-1.35 2.25,-1.82c0.57,-0.47 1.41,-1.23 1.97,-1.75c0.57,-0.54 1.15,-1.1 2.06,-1.93c0.62,-0.57 1.27,-1.12 1.91,-1.67c0.64,-0.54 1.57,-1.3 2.18,-1.78c0.59,-0.47 1.17,-0.92 2.09,-1.51c0.62,-0.4 1.6,-0.93 2.24,-1.3c0.95,-0.56 1.57,-0.96 2.14,-1.4c0.85,-0.66 1.63,-1.41 2.11,-1.93c0.49,-0.52 1.16,-1.34 1.85,-2.11c0.45,-0.5 1.14,-1.22 1.64,-1.66c0.78,-0.7 1.38,-1.13 2.3,-1.8c0.61,-0.45 1.51,-1.11 2.04,-1.57c0.76,-0.65 1.2,-1.11 2.12,-1.9c0.44,-0.38 1.12,-0.91 2.02,-1.59c0.67,-0.51 1.34,-0.99 2.15,-1.69c0.58,-0.49 1.08,-1.02 1.95,-1.73c0.66,-0.54 1.53,-1.16 2.02,-1.62c0.52,-0.48 1.35,-1.44 1.85,-2.06c0.51,-0.63 1.17,-1.44 1.69,-1.99c0.5,-0.53 1.18,-1.2 1.84,-1.86c0.76,-0.76 1.29,-1.29 1.8,-1.8c0.71,-0.71 1.33,-1.33 2.04,-2.04c0.61,-0.61 1.3,-1.27 1.73,-1.77c0.71,-0.81 1.09,-1.48 1.79,-2.29c0.58,-0.66 1.09,-1.32 1.58,-1.98c0.53,-0.72 1.13,-1.38 1.65,-2.19c0.41,-0.64 0.91,-1.37 1.49,-1.88l0.05,-0.85l0.47,-0.79l0.33,-0.73" fill="none" fill-opacity="null" id="svg_92" stroke="#ffffff" stroke-dasharray="null" stroke-linecap="round" stroke-linejoin="null" stroke-opacity="null" stroke-width="25"/>
 </g>
</svg>