<?xml version="1.0"?>
<svg viewBox="-20 -20 440 440" xmlns="http://www.w3.org/2000/svg" xmlns:svg="http://www.w3.org/2000/svg">
 <!-- Created with SVG-edit - https://github.com/SVG-Edit/svgedit-->

 <g class="layer" display="inline">
  <title>Layer 1</title>
  <path d="m193.66,102.24c-0.91,0 -1.94,0 -2.69,0c-0.91,0 -2.04,0 -2.77,0c-0.8,0 -1.88,0.01 -2.64,0c-0.73,-0.01 -1.73,-0.11 -2.54,-0.26c-0.84,-0.16 -1.92,-0.4 -2.68,-0.44c-0.93,-0.05 -1.83,0.11 -2.73,0.33c-0.67,0.16 -1.79,0.34 -2.44,0.36c-1.16,0.04 -1.93,-0.12 -2.88,0.04c-0.79,0.13 -1.77,0.6 -2.53,0.72c-0.85,0.13 -1.66,0.33 -2.34,0.53c-1.02,0.3 -1.85,0.53 -2.76,0.74c-0.97,0.23 -1.66,0.37 -2.38,0.53c-0.75,0.17 -1.53,0.34 -2.74,0.68c-0.85,0.24 -1.71,0.51 -2.6,0.77c-0.45,0.13 -1.79,0.48 -2.68,0.67c-0.88,0.19 -1.32,0.27 -2.18,0.48c-1.25,0.3 -2.03,0.56 -2.76,0.83c-0.68,0.25 -1.82,0.7 -2.64,1.12c-0.92,0.47 -1.49,0.86 -2.1,1.25c-0.97,0.61 -1.67,0.97 -2.53,1.49c-0.6,0.35 -1.43,0.91 -2.34,1.35c-0.65,0.32 -1.53,0.63 -2.25,1.12c-0.71,0.5 -1.38,1.13 -2.17,1.74c-0.62,0.48 -1.39,1.19 -1.9,1.8c-0.51,0.61 -1.22,1.39 -1.83,1.9c-0.61,0.51 -1.4,1.22 -1.9,1.84c-0.52,0.64 -1.23,1.54 -1.63,1.99c-0.61,0.68 -1.41,1.56 -1.76,2.02c-0.54,0.69 -1.08,1.47 -1.74,2.34c-0.49,0.65 -1.01,1.3 -1.53,1.94c-0.72,0.87 -1.15,1.35 -1.7,1.97c-0.53,0.59 -1.28,1.48 -1.67,2c-0.59,0.8 -1.1,1.61 -1.48,2.38c-0.36,0.72 -0.84,1.74 -1.18,2.27c-0.54,0.86 -0.98,1.42 -1.54,2.32c-0.55,0.88 -0.86,1.47 -1.25,2.32c-0.36,0.79 -0.63,1.54 -0.92,2.27c-0.41,1.03 -0.81,1.86 -1.09,2.43c-0.58,1.19 -0.88,1.79 -1.34,2.65c-0.29,0.55 -0.9,1.49 -1.48,2.25c-0.4,0.52 -0.96,1.47 -1.2,2.11c-0.41,1.1 -0.59,1.78 -0.9,2.62c-0.35,0.92 -0.65,1.65 -0.94,2.56c-0.25,0.81 -0.81,1.64 -1.23,2.24c-0.55,0.79 -0.86,1.8 -0.95,2.6c-0.07,0.65 -0.24,1.76 -0.39,2.44c-0.26,1.12 -0.31,1.8 -0.41,2.73c-0.11,1.02 -0.28,1.85 -0.42,2.43c-0.28,1.19 -0.44,1.78 -0.66,2.69c-0.15,0.62 -0.45,1.94 -0.59,2.63c-0.14,0.69 -0.34,1.7 -0.44,2.62c-0.08,0.81 -0.08,1.81 -0.09,2.86c-0.01,0.83 0.01,1.4 -0.16,2.46c-0.16,0.96 -0.5,1.98 -0.55,2.68c-0.09,1.03 -0.03,1.84 -0.03,2.48c0,1.12 0,2.01 0,2.91c0,0.89 0,1.73 0,2.64c0,0.79 0,1.69 0,2.7c0,0.78 0,1.87 0,2.63c0,0.84 0,1.73 0,2.51c0,1.11 -0.07,1.91 0.01,2.79c0.08,0.9 0.67,1.77 0.73,2.58c0.07,0.87 -0.06,1.69 0.13,2.68c0.14,0.72 0.64,1.73 0.84,2.33c0.29,0.89 0.45,1.91 0.5,2.73c0.04,0.8 -0.08,1.76 0.08,2.69c0.17,0.93 0.64,1.47 1.02,2.31c0.4,0.89 0.46,1.71 0.74,2.6c0.28,0.9 0.37,1.81 0.64,2.69c0.24,0.77 0.76,1.64 1.06,2.24c0.45,0.9 0.83,1.7 1.19,2.65c0.23,0.61 0.58,1.59 0.97,2.42c0.36,0.76 0.76,1.52 1.12,2.41c0.33,0.82 0.56,1.49 1.03,2.37c0.36,0.68 0.79,1.33 1.32,2.46c0.3,0.64 0.79,1.64 1.19,2.15c0.55,0.7 1.19,1.41 1.6,2.05c0.68,1.08 0.94,1.78 1.23,2.45c0.39,0.9 0.76,1.57 1.18,2.24c0.58,0.91 1.02,1.57 1.49,2.21c0.72,1 1.22,1.47 1.73,2.12c0.68,0.87 0.99,1.52 1.6,2.24c0.53,0.62 1.32,1.32 1.87,1.94c0.64,0.72 1.06,1.44 1.74,2.09c0.67,0.64 1.09,1.4 1.64,2.01c0.64,0.71 1.27,1.29 1.96,1.96c0.53,0.53 1.37,1.27 1.96,1.7c0.6,0.44 1.61,0.99 2.26,1.44c0.8,0.56 1.2,1.12 1.68,1.69c0.68,0.8 1.49,1.47 2.1,1.95c0.77,0.6 1.25,1.09 1.97,1.58c0.9,0.62 1.6,0.75 2.53,1.35c0.71,0.45 1.44,1.11 2.02,1.53c0.79,0.57 1.28,1.45 2.01,1.83c0.77,0.41 1.57,0.67 2.18,1.13c0.88,0.68 1.53,1.01 2.45,1.38c0.81,0.33 1.63,0.69 2.31,1.22c0.7,0.54 1.41,1.19 2.05,1.6c0.65,0.42 1.77,0.96 2.45,1.2c0.89,0.32 1.8,0.59 2.46,0.87c0.91,0.39 1.56,0.81 2.24,1.19c1.1,0.6 1.79,0.78 2.66,1.23c0.74,0.39 1.46,1.04 2.19,1.28c0.87,0.29 1.8,0.45 2.55,0.97c0.86,0.6 1.42,0.96 2.22,1.21c0.99,0.31 1.87,0.47 2.55,0.8c0.9,0.43 1.56,0.85 2.6,0.97c0.84,0.1 1.76,0.1 2.45,0.46c0.95,0.49 1.63,0.84 2.5,1.1c0.87,0.26 1.61,0.56 2.6,0.81c0.76,0.19 1.65,0.5 2.39,0.64c1.05,0.2 1.78,0.59 2.68,0.7c0.88,0.11 1.76,0.19 2.55,0.46c0.88,0.3 1.68,0.32 2.59,0.53c0.82,0.19 1.79,0.41 2.62,0.55c0.91,0.16 1.63,0.55 2.55,0.68c1.04,0.15 1.81,0.04 2.85,0.04c0.61,0 1.48,0 2.6,0c0.67,0 1.79,0 2.66,0c0.9,0 1.71,0 2.53,0c0.98,0 1.79,0 2.72,0c1.04,0 1.86,0.02 2.64,-0.06c0.9,-0.1 1.62,-0.44 2.73,-0.62c0.81,-0.13 1.79,-0.22 2.44,-0.44c0.97,-0.32 1.74,-0.59 2.57,-0.86c0.88,-0.28 1.71,-0.29 2.65,-0.53c0.78,-0.19 1.8,-0.42 2.64,-0.69c0.7,-0.23 1.6,-0.4 2.62,-0.66c0.75,-0.19 1.44,-0.76 2.22,-1.22c0.74,-0.44 1.56,-0.65 2.5,-1.04c0.66,-0.28 1.56,-0.75 2.3,-1.12c0.9,-0.45 1.54,-0.78 2.45,-1.33c0.61,-0.38 1.2,-0.81 2.14,-1.31c0.83,-0.45 1.78,-0.81 2.57,-1.04c0.89,-0.26 1.75,-0.42 2.4,-0.72c0.9,-0.42 1.69,-0.84 2.4,-1.28c0.82,-0.5 1.43,-0.94 2.16,-1.55c0.67,-0.56 1.39,-1.21 2.15,-1.63c0.88,-0.49 1.64,-0.83 2.39,-1.2c0.75,-0.37 1.67,-0.78 2.32,-1.19c0.77,-0.49 1.47,-1.26 2.01,-1.8c0.74,-0.74 1.3,-1.36 2.08,-1.96c0.56,-0.43 1.5,-0.92 2.01,-1.39c0.7,-0.64 1.35,-1.34 1.95,-1.94c0.64,-0.64 1.25,-1.3 2.01,-1.89c0.57,-0.43 1.36,-1 1.87,-1.62c0.6,-0.74 1.33,-1.13 1.95,-1.85c0.6,-0.7 1.03,-1.49 1.63,-2.1c0.67,-0.68 1.34,-1.34 1.87,-1.87c0.67,-0.67 1.31,-1.26 1.79,-2c0.49,-0.75 1.06,-1.42 1.63,-2.18c0.53,-0.7 0.91,-1.53 1.31,-2.07c0.64,-0.86 0.79,-1.76 1.23,-2.49c0.46,-0.76 1.28,-1.36 1.62,-2.16c0.33,-0.77 0.62,-1.57 1.14,-2.3c0.52,-0.74 0.9,-1.42 1.34,-2.31c0.37,-0.75 0.85,-1.62 1.14,-2.41c0.29,-0.77 0.91,-1.41 1.37,-2.36c0.33,-0.69 0.17,-1.7 0.41,-2.48c0.27,-0.84 0.86,-1.68 1.06,-2.3c0.34,-1.02 0.39,-1.94 0.64,-2.67c0.33,-0.95 0.18,-1.92 0.44,-2.58c0.35,-0.89 0.55,-1.57 0.72,-2.48c0.16,-0.84 0.63,-1.67 0.7,-2.57c0.06,-0.89 0.01,-1.79 0.01,-2.69c0,-0.9 -0.06,-1.81 0.21,-2.68c0.25,-0.8 0.53,-1.62 0.53,-2.56c0,-0.87 0,-1.77 0,-2.65c0,-0.84 -0.32,-1.79 0.01,-2.67c0.28,-0.76 0.72,-1.51 0.74,-2.38c0.01,-0.78 0.31,-1.8 0.53,-2.56c0.25,-0.88 0.33,-1.79 0.64,-2.63c0.31,-0.82 0.55,-1.54 0.94,-2.27c0.41,-0.76 0.13,-1.73 0.13,-2.46c0,-1.11 0,-1.73 0,-2.88c0,-0.81 0,-1.71 0,-2.52c0,-0.94 0.04,-1.78 -0.21,-2.71c-0.24,-0.87 -0.7,-1.76 -0.89,-2.41c-0.2,-0.7 -0.33,-1.75 -0.39,-2.6c-0.06,-0.88 -0.14,-1.78 -0.33,-2.68c-0.2,-0.94 -0.53,-1.91 -0.77,-2.59c-0.25,-0.71 -0.53,-1.43 -0.77,-2.18c-0.36,-1.11 -0.54,-1.86 -0.83,-2.96c-0.19,-0.71 -0.51,-1.73 -0.77,-2.37c-0.38,-0.94 -0.67,-1.53 -1.09,-2.73c-0.2,-0.59 -0.43,-1.47 -0.9,-2.52c-0.33,-0.74 -0.82,-1.35 -1.13,-2.34c-0.24,-0.75 -0.35,-1.7 -0.91,-2.49c-0.5,-0.7 -0.69,-1.37 -0.92,-2.27c-0.21,-0.83 -0.64,-1.61 -1.15,-2.31c-0.5,-0.69 -1.06,-1.63 -1.34,-2.27c-0.4,-0.89 -0.77,-1.56 -1.18,-2.26c-0.59,-0.99 -1.05,-1.8 -1.32,-2.38c-0.42,-0.87 -0.74,-1.78 -1.05,-2.66c-0.2,-0.58 -0.68,-1.7 -1.21,-2.43c-0.36,-0.49 -1,-1.14 -1.72,-2.06c-0.35,-0.45 -0.84,-1.16 -1.57,-2.18c-0.39,-0.55 -0.81,-1.1 -1.41,-1.94c-0.57,-0.79 -1.09,-1.51 -1.51,-2.18c-0.6,-0.94 -0.96,-1.66 -1.49,-2.34c-0.48,-0.61 -1.11,-1.21 -1.87,-2.11c-0.55,-0.66 -0.86,-1.15 -1.44,-1.79c-0.85,-0.93 -1.41,-1.34 -1.95,-1.76c-1.07,-0.82 -1.6,-1.13 -2.28,-1.65c-0.94,-0.73 -1.37,-1.39 -1.82,-1.89c-0.65,-0.71 -1.71,-1.23 -2.29,-1.59c-0.62,-0.39 -1.62,-0.94 -2.24,-1.38c-0.8,-0.56 -1.2,-1.34 -1.93,-1.85c-0.69,-0.48 -1.41,-0.64 -2.5,-1.25c-0.66,-0.37 -1.44,-0.89 -2.15,-1.29c-0.68,-0.38 -1.63,-0.95 -2.27,-1.37c-0.89,-0.58 -1.56,-1.04 -2.23,-1.48c-0.9,-0.6 -1.55,-1.07 -2.27,-1.47c-0.97,-0.54 -1.53,-0.7 -2.34,-1c-0.79,-0.28 -1.69,-0.72 -2.39,-1.25c-0.77,-0.59 -1.53,-1.05 -2.25,-1.6c-0.62,-0.47 -1.5,-1.05 -2.27,-1.29c-0.89,-0.27 -1.67,-0.75 -2.3,-1.03c-0.9,-0.41 -1.7,-0.5 -2.65,-0.92c-0.61,-0.27 -1.56,-0.83 -2.22,-1.17c-0.91,-0.48 -1.71,-0.84 -2.47,-1.09c-1.02,-0.33 -1.84,-0.54 -2.64,-0.71c-0.94,-0.2 -1.72,-0.21 -2.78,-0.43c-0.8,-0.17 -1.67,-0.51 -2.44,-0.57c-1.02,-0.08 -1.75,0.02 -2.5,-0.07c-1.1,-0.14 -1.79,-0.49 -2.73,-0.62c-0.88,-0.12 -1.97,-0.06 -2.6,-0.06c-0.99,0 -1.66,0 -2.9,0c-0.81,0 -1.56,0 -2.59,0c-0.82,0 -1.66,0 -2.73,0c-0.73,0 -1.59,0 -2.52,0c-0.91,0 -1.81,0 -2.62,0c-0.91,0 -1.91,0 -2.61,0c-1.09,0 -1.82,0 -2.94,0c-0.75,0 -1.52,0 -2.32,0.04c-1.28,0.06 -2.21,0.17 -2.68,0.22c-0.97,0.12 -1.45,0.18 -2.41,0.33c-1.36,0.21 -2.2,0.37 -2.99,0.51c-0.74,0.13 -1.79,0.29 -2.76,0.35c-0.88,0.05 -1.89,0 -2.68,0.05c-0.95,0.06 -1.68,0.44 -2.59,0.65c-0.76,0.17 -1.66,0.24 -2.48,0.48c-1.11,0.33 -1.78,0.57 -2.42,0.81c-0.99,0.36 -1.81,0.76 -2.71,1.19c-0.7,0.34 -1.59,0.54 -2.43,0.86c-0.73,0.28 -1.62,0.73 -2.37,1.23c-0.72,0.48 -1.65,0.8 -2.28,1.45c-0.57,0.59 -1.14,1.1 -1.73,1.68c-0.58,0.57 -1.18,1.16 -1.71,1.73c-0.89,0.96 -1.28,1.5 -1.72,2.3c-0.47,0.88 -0.87,1.69 -1.37,2.26c-0.6,0.67 -1.19,1.16 -1.85,2.07c-0.4,0.55 -1.05,1.24 -1.71,1.8c-0.78,0.67 -1.2,1.26 -1.81,2.26c-0.42,0.68 -0.65,1.35 -1.18,2.21c-0.5,0.82 -1.28,1.21 -1.81,1.9c-0.49,0.63 -0.7,1.49 -1.09,2.4c-0.35,0.8 -0.79,1.71 -1.18,2.28c-0.52,0.78 -1.22,1.4 -1.59,2.26c-0.38,0.87 -0.72,1.66 -1.26,2.29c-0.62,0.72 -0.88,1.61 -1.09,2.47c-0.2,0.77 -0.7,1.64 -1.07,2.39c-0.37,0.75 -0.76,1.49 -1.19,2.39c-0.34,0.7 -0.6,1.67 -0.86,2.43c-0.34,1.01 -0.41,1.77 -0.65,2.64c-0.2,0.76 -0.46,1.65 -0.64,2.54c-0.19,0.91 -0.55,1.79 -0.68,2.54c-0.16,0.9 -0.49,1.63 -0.71,2.69c-0.15,0.74 -0.47,1.6 -0.69,2.52c-0.21,0.87 -0.05,1.68 -0.3,2.55c-0.25,0.86 -0.52,1.71 -0.53,2.6c-0.02,0.96 -0.32,1.73 -0.82,2.56c-0.39,0.64 -0.64,1.55 -0.67,2.38c-0.04,0.96 0.02,1.93 0,2.84c-0.02,0.77 -0.51,1.59 -0.7,2.49c-0.18,0.86 -0.04,1.75 -0.04,2.66c0,0.91 0,1.71 0,2.63c0,0.92 0,1.8 0,2.66c0,0.81 -0.01,1.7 0,2.75c0.01,0.76 0.12,1.62 0.32,2.41c0.21,0.82 0.41,1.9 0.43,2.82c0.02,0.75 0.09,1.68 0.53,2.5c0.44,0.82 1,1.47 1.26,2.18c0.28,0.78 0.35,1.88 0.58,2.79c0.19,0.77 0.7,1.64 1.07,2.39c0.37,0.75 0.76,1.53 1.28,2.4c0.37,0.61 0.8,1.24 1.34,2.37c0.3,0.63 0.76,1.57 1.28,2.05c0.72,0.66 1.23,1.26 1.7,2.14c0.4,0.75 0.9,1.51 1.42,2.07c0.71,0.77 1.34,1.36 1.94,1.96c0.67,0.67 1.39,1.32 1.87,2.03c0.41,0.61 0.87,1.48 1.66,2.07c0.61,0.46 1.25,1.07 1.61,1.79c0.49,1 0.96,1.67 1.62,2.36c0.53,0.55 1.07,1.32 1.57,2.05c0.52,0.76 1.11,1.36 1.68,2.06c0.46,0.57 1.02,1.42 1.64,2.17c0.56,0.67 1.22,1.31 1.78,1.87c0.68,0.68 1.33,1.24 1.87,2.04c0.41,0.61 0.89,1.45 1.54,2.12c0.61,0.63 1.24,1.25 1.81,1.81c0.69,0.68 1.43,1.18 2.06,1.57c0.79,0.5 1.45,1.23 1.99,1.72c0.85,0.76 1.51,1.08 2.22,1.62c0.78,0.58 1.49,1.25 2.09,1.65c0.89,0.6 1.47,1.13 2.15,1.6c0.72,0.49 1.57,0.78 2.53,1.18c0.68,0.28 1.59,0.74 2.19,1.06c0.86,0.47 1.64,0.99 2.3,1.36c0.88,0.5 1.56,0.77 2.46,1.08c0.89,0.31 1.58,0.54 2.81,0.9c0.53,0.16 1.38,0.35 2.2,0.66c1.06,0.4 1.75,0.84 2.39,1.22c0.91,0.55 1.7,0.9 2.59,1.09c0.89,0.19 1.56,0.59 2.43,0.76c1.02,0.21 1.83,0.4 2.44,0.53c1.07,0.23 2.01,0.09 2.87,0.24c0.94,0.16 1.73,0.68 2.42,0.72c1.05,0.05 1.71,0.04 2.65,0.27c0.82,0.2 1.76,0.45 2.72,0.48c0.9,0.03 1.79,0 2.69,0c0.9,0 1.68,0 2.6,0c0.81,0 1.79,0 2.64,0c0.89,0 1.7,0 2.69,0c0.85,0 1.91,0.01 2.62,0c0.96,-0.01 1.82,-0.43 2.71,-0.66c0.72,-0.18 1.71,-0.04 2.49,-0.15c0.93,-0.13 1.7,-0.49 2.6,-0.66c1.04,-0.2 1.75,-0.5 2.57,-0.99c0.79,-0.46 1.49,-0.45 2.5,-0.79c0.77,-0.26 1.52,-0.66 2.41,-1.23c0.61,-0.39 1.58,-0.54 2.32,-1.07c0.7,-0.5 1.47,-0.88 2.28,-1.29c0.64,-0.33 1.17,-1.18 1.88,-1.69c0.75,-0.55 1.25,-1.21 2,-1.79c0.65,-0.5 1.47,-1 1.96,-1.49c0.75,-0.75 1.33,-1.34 2.11,-1.85c0.69,-0.45 1.46,-1 2,-1.52c0.77,-0.74 0.97,-1.6 1.56,-2.27c0.55,-0.63 1.08,-1.24 1.69,-1.69c0.79,-0.57 1.28,-1.21 1.79,-2c0.38,-0.59 0.6,-1.54 0.88,-2.36c0.25,-0.71 0.78,-1.57 1.13,-2.39c0.4,-0.93 0.48,-1.6 1.05,-2.5c0.5,-0.79 1.16,-1.26 1.64,-2.09c0.49,-0.84 0.88,-1.58 1.13,-2.45c0.26,-0.89 0.33,-1.61 0.66,-2.32c0.44,-0.95 0.6,-1.81 0.89,-2.69c0.26,-0.77 0.9,-1.42 1.28,-2.21c0.37,-0.77 0.66,-1.64 0.87,-2.54c0.17,-0.74 0.41,-1.77 0.63,-2.54c0.25,-0.87 0.06,-1.82 0.42,-2.69c0.34,-0.81 0.53,-1.61 0.53,-2.48c0,-0.83 0,-1.72 0,-2.68c0,-0.9 0,-1.67 0,-2.62c0,-0.9 0.03,-1.86 0,-2.76c-0.02,-0.77 -0.48,-1.59 -0.71,-2.49c-0.19,-0.75 -0.28,-1.72 -0.56,-2.53c-0.34,-0.96 -0.71,-1.58 -0.9,-2.5c-0.19,-0.88 -0.45,-1.77 -0.69,-2.69c-0.18,-0.72 -0.5,-1.63 -0.78,-2.48c-0.23,-0.67 -0.4,-1.58 -0.85,-2.37c-0.35,-0.62 -1,-1.49 -1.35,-2.49c-0.25,-0.7 -0.86,-1.37 -1.29,-2.09c-0.48,-0.81 -0.38,-1.79 -0.71,-2.5c-0.42,-0.89 -1.29,-1.38 -1.73,-2.25c-0.37,-0.74 -0.9,-1.22 -1.35,-2.06c-0.45,-0.83 -0.47,-1.61 -1.02,-1.99c-0.68,-0.48 -1.14,-1.17 -1.71,-1.7c-0.7,-0.66 -1.38,-1.24 -1.94,-1.94c-0.53,-0.68 -0.96,-1.4 -1.66,-2.1c-0.57,-0.57 -1.28,-1.27 -1.79,-1.79c-0.72,-0.73 -1.27,-1.46 -1.63,-2.16c-0.46,-0.89 -0.74,-1.53 -1.33,-2.23c-0.63,-0.75 -1.48,-1.22 -2.13,-1.76c-0.73,-0.6 -0.99,-1.4 -1.63,-2.03c-0.63,-0.63 -1.41,-1 -1.91,-1.73c-0.49,-0.72 -1.17,-1.38 -1.69,-1.9c-0.76,-0.76 -1.32,-1.47 -2.13,-1.92c-0.77,-0.42 -1.38,-0.93 -2,-1.41c-0.78,-0.59 -1.65,-1.06 -2.4,-1.55c-0.64,-0.42 -1.13,-1.19 -1.84,-1.52c-0.7,-0.33 -1.84,0.04 -2.65,-0.28c-0.87,-0.34 -1.71,-0.53 -2.46,-0.85c-0.81,-0.35 -1.82,-0.32 -2.59,-0.49c-0.87,-0.19 -1.66,-0.65 -2.55,-0.68c-0.88,-0.03 -1.72,0 -2.6,0c-0.99,0 -1.9,0.19 -2.77,-0.01c-0.82,-0.19 -1.61,-0.71 -2.49,-0.73c-0.87,-0.02 -1.7,-0.36 -2.49,-0.62c-0.84,-0.29 -1.74,0 -2.59,-0.15c-0.93,-0.16 -1.78,-0.54 -2.63,-0.74c-0.82,-0.19 -1.61,-0.68 -2.42,-0.72c-0.89,-0.05 -1.94,0 -2.7,0c-1.04,0 -1.85,0 -2.84,0c-0.7,0 -1.74,0 -2.53,0c-0.81,0 -1.73,-0.01 -2.52,0c-1.06,0.01 -1.92,0.12 -2.72,0.32c-0.87,0.21 -1.77,0.34 -2.63,0.45c-0.99,0.12 -1.79,0.48 -2.72,0.66c-0.78,0.16 -1.7,0.29 -2.52,0.49c-0.97,0.24 -1.82,0.21 -2.59,0.58c-0.88,0.42 -1.45,0.97 -2.35,1.16c-0.88,0.19 -1.79,0.38 -2.69,0.81c-0.6,0.29 -1.5,0.6 -2.39,0.77c-0.9,0.17 -1.65,0.49 -2.53,0.95c-0.69,0.36 -1.39,0.94 -2.16,1.42c-0.66,0.41 -1.55,0.87 -2.5,1.22c-0.67,0.25 -1.48,0.79 -2.07,1.26c-0.73,0.57 -1.56,1 -2.3,1.47c-0.62,0.39 -1.61,1.13 -2.13,1.58c-0.64,0.55 -1.37,1.16 -2.13,1.57c-0.88,0.48 -1.61,0.86 -2.21,1.58c-0.58,0.68 -1.51,0.82 -1.96,1.37c-0.52,0.62 -1.01,1.27 -1.68,1.94c-0.69,0.69 -1.35,1.29 -1.93,2.05c-0.44,0.57 -0.99,1.5 -1.49,2.09c-0.51,0.6 -1.02,1.36 -1.47,2.03c-0.58,0.86 -1.26,1.47 -1.77,1.99c-0.7,0.7 -1.44,1.31 -1.98,2.11c-0.46,0.67 -1.13,1.26 -1.4,1.88c-0.44,0.99 -0.62,1.45 -0.99,2.27c-0.33,0.76 -0.62,1.41 -1.11,2.18c-0.51,0.8 -1.04,1.54 -1.09,2.24c-0.06,1.06 -0.44,1.81 -0.75,2.63c-0.31,0.84 -0.02,1.76 -0.02,2.66c0,0.89 -0.48,1.64 -0.7,2.48c-0.23,0.87 -0.04,1.79 -0.04,2.68c0,0.77 0,1.69 0,2.62c0,0.93 0,1.79 0,2.69c0,0.82 0,1.79 0,2.69c0,0.9 0.26,1.69 0.48,2.39c0.32,1.01 0.52,1.88 0.8,2.6c0.31,0.81 0.1,1.89 0.25,2.58c0.23,1.01 0.52,1.76 0.87,2.71c0.27,0.72 0.54,1.57 0.83,2.5c0.23,0.75 0.65,1.55 0.88,2.14c0.47,1.18 0.61,1.79 0.92,2.64c0.39,1.08 0.8,1.79 1.19,2.42l0.57,0.78l0.63,0.71" fill="none" fill-opacity="null" id="svg_4" stroke="#ffffff" stroke-dasharray="null" stroke-linecap="round" stroke-linejoin="null" stroke-opacity="null" stroke-width="40" transform="matrix(1.10747, 0, 0, 1.10747, -23.6623, -23.9463)"/>
  <polyline fill="none" fill-opacity="null" id="svg_5" opacity="0.5" points="145.89552569389343,223.13431811332703 " stroke="#ffffff" stroke-dasharray="null" stroke-linecap="round" stroke-linejoin="null" stroke-opacity="null" stroke-width="40" transform="matrix(1.10747, 0, 0, 1.10747, -23.6623, -23.9463)"/>
  <path d="m187.69,141.79c-0.87,0.12 -1.53,0.42 -2.49,0.75c-0.72,0.25 -1.56,0.45 -2.74,0.75c-0.6,0.15 -1.49,0.37 -2.09,0.52c-1.19,0.3 -2.1,0.51 -2.69,0.73c-1.21,0.44 -1.8,0.8 -2.36,1.18c-0.81,0.53 -1.57,1.27 -2.32,1.74c-0.77,0.47 -1.52,0.6 -2.3,0.88c-1.07,0.39 -1.77,0.81 -2.41,1.14c-0.99,0.52 -1.58,1.01 -2.17,1.66c-0.64,0.71 -1.36,1 -2.09,1.47c-0.65,0.41 -1.36,0.94 -2.12,1.61c-0.83,0.73 -1.34,1.26 -1.81,1.78c-0.77,0.87 -1.24,1.65 -1.78,2.34c-0.48,0.61 -1.09,1.17 -1.74,1.99c-0.53,0.67 -0.87,1.35 -1.61,2.21c-0.49,0.56 -1.29,1.21 -1.85,1.88c-0.59,0.71 -0.74,1.5 -1.18,2.18c-0.59,0.9 -1.62,1.19 -2.05,1.88c-0.44,0.71 -0.47,1.77 -1.02,2.42c-0.52,0.61 -0.71,1.57 -1.12,2.22c-0.35,0.56 -0.82,1.33 -1.08,2.03c-0.34,0.92 -0.57,1.63 -0.79,2.46c-0.25,0.93 -0.63,1.66 -1.01,2.46c-0.4,0.85 -0.52,1.63 -0.91,2.46c-0.36,0.76 -0.79,1.59 -1.02,2.46c-0.21,0.8 -0.61,1.57 -0.77,2.33c-0.19,0.9 -0.02,1.84 -0.02,2.61c0,0.96 -0.33,1.84 -0.62,2.6c-0.32,0.82 -0.12,1.65 -0.12,2.68c0,0.92 0,1.71 0,2.56c0,1.03 0,1.73 0,2.69c0,0.9 0,1.92 0,2.64c0,0.98 -0.12,1.83 0.04,2.68c0.16,0.83 0.65,1.76 0.7,2.66c0.05,0.81 0.25,1.71 0.6,2.45c0.42,0.9 0.72,1.68 0.96,2.45c0.26,0.87 0.49,1.75 0.72,2.58c0.25,0.9 0.83,1.61 1.23,2.24c0.56,0.88 1.09,1.61 1.49,2.24c0.55,0.87 0.9,1.65 1.24,2.47c0.28,0.67 0.93,1.45 1.6,2.12c0.6,0.6 1.18,1.37 1.57,2c0.5,0.81 1.24,1.48 1.64,2.02c0.59,0.79 1.07,1.64 1.49,2.24c0.58,0.82 1.01,1.58 1.51,2.18c0.51,0.6 1.1,1.52 1.62,2.26c0.48,0.68 1.23,1.33 1.45,2.1c0.28,0.97 0.95,1.42 1.49,2.01c0.54,0.6 0.66,1.55 1.05,2.24c0.47,0.83 1.04,1.42 1.68,2.01c0.62,0.58 1.14,1.42 1.57,2.02c0.55,0.78 1.07,1.64 1.49,2.24c0.55,0.78 1,1.53 1.49,2.24c0.55,0.78 0.89,1.63 1.54,2.2c0.61,0.53 1.57,0.94 2.14,1.45c0.67,0.6 1.18,1.18 1.92,1.91c0.59,0.59 1.32,1.25 2.09,1.7c0.73,0.42 1.53,0.73 2.39,1.37c0.64,0.49 1.1,0.97 1.85,1.55c0.8,0.61 1.6,1.2 2.14,1.64c0.67,0.56 1.59,1.16 2.23,1.41c0.7,0.27 1.75,0.52 2.58,0.78c0.84,0.26 1.88,0.71 2.35,0.97c0.88,0.49 1.78,1.05 2.42,1.35l0.9,0.23l0.92,0.16l0.72,0.41" fill="none" fill-opacity="null" id="svg_9" stroke="#ffffff" stroke-dasharray="null" stroke-linecap="round" stroke-linejoin="null" stroke-opacity="null" stroke-width="40" transform="matrix(1.10747, 0, 0, 1.10747, -23.6623, -23.9463)"/>
  <path d="m171.27,102.99c0.37,-0.78 0.69,-1.64 0.74,-2.39c0.07,-1.05 0.03,-1.71 0.43,-2.6c0.38,-0.84 0.87,-1.59 1.05,-2.49c0.2,-0.97 0.28,-1.7 0.44,-2.48c0.2,-0.98 0.31,-1.93 0.32,-2.81c0.01,-0.88 -0.02,-1.82 0.21,-2.73c0.19,-0.77 0.48,-1.72 0.52,-2.41c0.07,-1.06 0.02,-1.87 0.02,-2.86c0,-0.84 0.02,-1.7 0,-2.6c-0.02,-0.77 -0.58,-1.65 -0.74,-2.47c-0.17,-0.87 -0.01,-1.85 -0.01,-2.73c0,-0.88 0,-1.72 0,-2.58c0,-0.94 0.07,-1.83 -0.03,-2.57c-0.14,-1.06 -0.61,-1.71 -0.72,-2.69c-0.1,-0.89 0,-1.79 0,-2.69c0,-0.87 0.53,-0.91 1.26,-0.6c0.94,0.4 1.63,0.62 2.72,0.77c0.62,0.09 1.62,0.11 2.28,0.12c1.24,0.01 2.03,0 2.92,0c0.92,0 1.72,0.02 2.63,0.33c0.84,0.29 1.67,0.66 2.37,0.9c0.75,0.25 1.51,0.52 2.6,0.76c0.91,0.2 1.72,0.23 2.74,0.37c0.82,0.12 1.73,0.32 2.39,0.41c1.09,0.15 1.89,0.18 2.69,0.2c0.79,0.02 1.88,0.02 2.8,0.02c0.78,0 1.92,0 2.81,0c0.67,0 1.79,0 2.44,0c1.16,0 1.98,-0.02 2.86,0.26c0.7,0.22 1.64,0.48 2.67,0.48c0.73,0 1.72,-0.14 2.5,0.06c0.85,0.22 1.82,0.75 1.73,1.68c-0.07,0.72 -0.48,1.48 -0.85,2.41c-0.3,0.75 -0.6,1.72 -0.75,2.33c-0.25,1.04 -0.42,1.8 -0.76,3.02c-0.12,0.42 -0.38,1.26 -0.64,2.1c-0.25,0.82 -0.61,1.95 -0.79,2.64c-0.25,0.91 -0.48,1.93 -0.54,2.72c-0.07,0.95 0,1.84 -0.29,2.63c-0.35,0.95 -0.48,1.69 -0.48,2.68l0,0.87" fill="none" fill-opacity="null" id="svg_10" stroke="#ffffff" stroke-dasharray="null" stroke-linecap="round" stroke-linejoin="null" stroke-opacity="null" stroke-width="40" transform="matrix(1.10747, 0, 0, 1.10747, -23.6623, -23.9463)"/>
  <path d="m302.48,186.92c0.81,0.3 1.69,0.55 2.44,0.53c1.05,-0.02 1.71,-0.11 2.63,0.21c0.87,0.3 1.66,0.73 2.57,0.84c0.98,0.11 1.72,0.14 2.51,0.23c1,0.12 1.95,0.14 2.83,0.08c0.88,-0.07 1.81,-0.17 2.74,-0.02c0.78,0.13 1.76,0.33 2.45,0.31c1.06,-0.03 1.86,-0.14 2.85,-0.23c0.84,-0.07 1.7,-0.12 2.59,-0.22c0.76,-0.09 1.59,-0.72 2.4,-0.95c0.85,-0.25 1.84,-0.17 2.72,-0.24c0.88,-0.08 1.72,-0.15 2.57,-0.22c0.94,-0.08 1.83,-0.09 2.56,-0.25c1.04,-0.23 1.65,-0.76 2.62,-0.95c0.88,-0.17 1.79,-0.16 2.68,-0.23c0.87,-0.07 0.95,0.45 0.7,1.2c-0.32,0.97 -0.47,1.68 -0.54,2.78c-0.03,0.63 0.03,1.62 0.08,2.29c0.09,1.24 0.17,2.02 0.25,2.91c0.08,0.91 0.13,1.72 -0.11,2.65c-0.22,0.86 -0.51,1.72 -0.69,2.44c-0.19,0.77 -0.39,1.54 -0.54,2.66c-0.12,0.93 -0.08,1.74 -0.14,2.76c-0.04,0.83 -0.17,1.75 -0.2,2.42c-0.05,1.1 -0.01,1.9 0.03,2.7c0.05,0.79 0.15,1.88 0.22,2.79c0.07,0.77 0.16,1.91 0.24,2.81c0.06,0.67 0.15,1.78 0.21,2.43c0.1,1.15 0.19,1.97 -0.02,2.87c-0.16,0.72 -0.34,1.68 -0.25,2.7c0.06,0.72 0.29,1.7 0.15,2.5c-0.15,0.87 -0.59,1.87 -1.52,1.87c-0.72,-0.01 -1.51,-0.35 -2.47,-0.64c-0.78,-0.24 -1.77,-0.45 -2.38,-0.55c-1.06,-0.16 -1.83,-0.26 -3.07,-0.5c-0.43,-0.08 -1.29,-0.27 -2.15,-0.46c-0.83,-0.18 -2,-0.44 -2.7,-0.56c-0.93,-0.17 -1.96,-0.31 -2.76,-0.31c-0.95,0.01 -1.83,0.16 -2.64,-0.06c-0.98,-0.27 -1.73,-0.34 -2.71,-0.25l-0.87,0.07" fill="none" fill-opacity="null" id="svg_11" stroke="#ffffff" stroke-dasharray="null" stroke-linecap="round" stroke-linejoin="null" stroke-opacity="null" stroke-width="40" transform="matrix(1.10747, 0, 0, 1.10747, -23.6623, -23.9463)"/>
  <path d="m218.23,300.89c-0.31,0.81 -0.55,1.69 -0.53,2.44c0.03,1.05 0.12,1.71 -0.21,2.63c-0.3,0.87 -0.73,1.66 -0.84,2.57c-0.11,0.98 -0.14,1.72 -0.23,2.51c-0.12,0.99 -0.14,1.95 -0.08,2.83c0.07,0.88 0.17,1.81 0.02,2.73c-0.12,0.78 -0.33,1.75 -0.31,2.45c0.03,1.06 0.14,1.86 0.23,2.85c0.07,0.84 0.12,1.7 0.22,2.59c0.09,0.76 0.72,1.59 0.95,2.4c0.24,0.85 0.17,1.84 0.24,2.72c0.08,0.88 0.15,1.72 0.22,2.57c0.08,0.94 0.09,1.83 0.25,2.56c0.23,1.04 0.76,1.65 0.94,2.61c0.17,0.88 0.15,1.79 0.23,2.68c0.07,0.87 -0.45,0.95 -1.2,0.7c-0.97,-0.31 -1.68,-0.47 -2.78,-0.53c-0.62,-0.03 -1.62,0.02 -2.29,0.07c-1.24,0.09 -2.03,0.17 -2.91,0.25c-0.91,0.08 -1.72,0.13 -2.65,-0.11c-0.86,-0.21 -1.72,-0.51 -2.43,-0.69c-0.77,-0.19 -1.55,-0.39 -2.66,-0.53c-0.93,-0.12 -1.74,-0.08 -2.76,-0.14c-0.83,-0.05 -1.75,-0.17 -2.42,-0.2c-1.1,-0.05 -1.9,-0.01 -2.7,0.04c-0.79,0.05 -1.88,0.15 -2.79,0.22c-0.77,0.07 -1.91,0.16 -2.8,0.24c-0.67,0.06 -1.78,0.15 -2.43,0.21c-1.15,0.1 -1.97,0.19 -2.87,-0.02c-0.72,-0.16 -1.68,-0.34 -2.7,-0.25c-0.72,0.06 -1.7,0.29 -2.5,0.15c-0.87,-0.15 -1.87,-0.59 -1.87,-1.52c0.01,-0.72 0.35,-1.51 0.64,-2.47c0.23,-0.78 0.45,-1.77 0.55,-2.38c0.16,-1.06 0.27,-1.83 0.5,-3.07c0.08,-0.43 0.26,-1.29 0.45,-2.15c0.19,-0.83 0.44,-2 0.57,-2.7c0.17,-0.93 0.31,-1.96 0.31,-2.76c-0.01,-0.95 -0.16,-1.83 0.06,-2.64c0.27,-0.98 0.34,-1.73 0.25,-2.71l-0.07,-0.87" fill="none" fill-opacity="null" id="svg_12" stroke="#ffffff" stroke-dasharray="null" stroke-linecap="round" stroke-linejoin="null" stroke-opacity="null" stroke-width="40" transform="matrix(1.10747, 0, 0, 1.10747, -23.6623, -23.9463)"/>
  <path d="m93.5,220.26c-0.81,-0.31 -1.69,-0.55 -2.44,-0.53c-1.05,0.03 -1.71,0.12 -2.63,-0.21c-0.87,-0.3 -1.66,-0.73 -2.57,-0.84c-0.98,-0.11 -1.72,-0.14 -2.51,-0.23c-1,-0.12 -1.95,-0.14 -2.83,-0.08c-0.88,0.07 -1.81,0.17 -2.73,0.02c-0.78,-0.12 -1.75,-0.33 -2.45,-0.31c-1.06,0.03 -1.86,0.14 -2.85,0.23c-0.84,0.07 -1.7,0.12 -2.59,0.22c-0.76,0.09 -1.59,0.72 -2.4,0.95c-0.85,0.24 -1.84,0.17 -2.72,0.24c-0.88,0.08 -1.72,0.15 -2.57,0.22c-0.94,0.08 -1.83,0.09 -2.56,0.25c-1.04,0.23 -1.65,0.76 -2.61,0.94c-0.88,0.17 -1.79,0.15 -2.68,0.23c-0.86,0.07 -0.95,-0.45 -0.7,-1.2c0.31,-0.97 0.47,-1.68 0.53,-2.78c0.03,-0.62 -0.03,-1.62 -0.08,-2.29c-0.09,-1.24 -0.17,-2.02 -0.25,-2.91c-0.08,-0.91 -0.13,-1.72 0.11,-2.65c0.22,-0.86 0.51,-1.72 0.69,-2.44c0.19,-0.77 0.39,-1.55 0.53,-2.66c0.12,-0.93 0.08,-1.74 0.14,-2.76c0.05,-0.83 0.17,-1.75 0.2,-2.42c0.05,-1.1 0.01,-1.9 -0.03,-2.7c-0.05,-0.79 -0.15,-1.88 -0.22,-2.79c-0.07,-0.77 -0.16,-1.91 -0.24,-2.81c-0.06,-0.67 -0.15,-1.78 -0.21,-2.43c-0.1,-1.15 -0.19,-1.97 0.02,-2.87c0.16,-0.72 0.34,-1.68 0.25,-2.7c-0.06,-0.72 -0.28,-1.7 -0.15,-2.5c0.15,-0.87 0.59,-1.87 1.52,-1.87c0.72,0.01 1.52,0.35 2.47,0.64c0.78,0.23 1.77,0.45 2.38,0.55c1.05,0.16 1.83,0.26 3.07,0.5c0.43,0.08 1.29,0.27 2.15,0.45c0.83,0.19 2,0.44 2.7,0.57c0.93,0.17 1.96,0.31 2.76,0.31c0.95,-0.01 1.83,-0.16 2.64,0.07c0.98,0.27 1.73,0.33 2.71,0.25l0.87,-0.07" fill="none" fill-opacity="null" id="svg_13" stroke="#ffffff" stroke-dasharray="null" stroke-linecap="round" stroke-linejoin="null" stroke-opacity="null" stroke-width="40" transform="matrix(1.10747, 0, 0, 1.10747, -23.6623, -23.9463)"/>
  <path d="m173.66,102.49c0.37,-0.78 0.69,-1.64 0.74,-2.39c0.06,-1.05 0.03,-1.71 0.43,-2.6c0.38,-0.84 0.87,-1.59 1.05,-2.49c0.2,-0.97 0.28,-1.7 0.44,-2.48c0.2,-0.98 0.31,-1.93 0.32,-2.81c0.01,-0.88 -0.01,-1.82 0.21,-2.73c0.19,-0.77 0.48,-1.72 0.52,-2.41c0.06,-1.06 0.02,-1.87 0.02,-2.86c0,-0.84 0.03,-1.7 0,-2.6c-0.02,-0.77 -0.58,-1.65 -0.74,-2.47c-0.17,-0.87 -0.01,-1.85 -0.01,-2.73c0,-0.88 0,-1.72 0,-2.58c0,-0.94 0.07,-1.83 -0.03,-2.57c-0.14,-1.06 -0.61,-1.71 -0.72,-2.69c-0.1,-0.89 0,-1.79 0,-2.69c0,-0.87 0.53,-0.91 1.26,-0.6c0.94,0.4 1.63,0.62 2.72,0.77c0.62,0.09 1.62,0.11 2.28,0.12c1.24,0.01 2.03,0 2.92,0c0.92,0 1.72,0.02 2.63,0.33c0.84,0.29 1.67,0.66 2.37,0.9c0.75,0.25 1.51,0.52 2.6,0.76c0.91,0.2 1.72,0.23 2.74,0.37c0.82,0.12 1.73,0.32 2.39,0.41c1.09,0.15 1.89,0.18 2.69,0.2c0.79,0.02 1.88,0.02 2.8,0.02c0.78,0 1.92,0 2.81,0c0.67,0 1.79,0 2.44,0c1.16,0 1.98,-0.02 2.86,0.26c0.7,0.22 1.64,0.48 2.67,0.48c0.72,0 1.72,-0.14 2.5,0.06c0.85,0.22 1.82,0.75 1.73,1.68c-0.07,0.72 -0.48,1.48 -0.85,2.41c-0.3,0.75 -0.6,1.72 -0.75,2.33c-0.25,1.04 -0.42,1.8 -0.76,3.02c-0.12,0.42 -0.38,1.26 -0.64,2.1c-0.25,0.82 -0.61,1.95 -0.79,2.64c-0.25,0.91 -0.48,1.93 -0.54,2.72c-0.07,0.95 0,1.84 -0.29,2.63c-0.35,0.95 -0.48,1.69 -0.48,2.68l0,0.87" fill="none" fill-opacity="null" id="svg_17" stroke="#ffffff" stroke-dasharray="null" stroke-linecap="round" stroke-linejoin="null" stroke-opacity="null" stroke-width="40" transform="matrix(0.754118, 0.811046, -0.811046, 0.754118, 210.558, -115.262)"/>
  <path d="m210.28,33.31c0.37,-0.78 0.69,-1.64 0.74,-2.39c0.06,-1.05 0.03,-1.71 0.43,-2.6c0.38,-0.84 0.87,-1.59 1.05,-2.49c0.2,-0.97 0.28,-1.7 0.44,-2.48c0.2,-0.98 0.31,-1.93 0.32,-2.81c0.01,-0.88 -0.02,-1.82 0.21,-2.73c0.19,-0.77 0.48,-1.72 0.52,-2.41c0.06,-1.06 0.01,-1.87 0.01,-2.86c0,-0.84 0.03,-1.7 0,-2.6c-0.02,-0.77 -0.58,-1.65 -0.74,-2.47c-0.17,-0.87 -0.01,-1.85 -0.01,-2.73c0,-0.88 0,-1.72 0,-2.58c0,-0.94 0.07,-1.83 -0.03,-2.57c-0.14,-1.06 -0.61,-1.71 -0.72,-2.69c-0.1,-0.89 0,-1.79 0,-2.69c0,-0.87 0.53,-0.91 1.26,-0.6c0.94,0.4 1.63,0.62 2.72,0.77c0.62,0.09 1.62,0.11 2.28,0.12c1.24,0.01 2.03,0 2.92,0c0.92,0 1.72,0.02 2.63,0.33c0.84,0.29 1.67,0.66 2.37,0.9c0.75,0.25 1.51,0.52 2.6,0.76c0.91,0.2 1.72,0.23 2.74,0.37c0.82,0.12 1.73,0.32 2.39,0.41c1.09,0.15 1.89,0.18 2.69,0.2c0.79,0.02 1.88,0.02 2.8,0.02c0.78,0 1.92,0 2.82,0c0.67,0 1.79,0 2.43,0c1.16,0 1.98,-0.02 2.86,0.26c0.7,0.22 1.64,0.48 2.66,0.48c0.72,0 1.72,-0.14 2.5,0.06c0.85,0.22 1.82,0.75 1.73,1.68c-0.07,0.72 -0.48,1.48 -0.85,2.41c-0.3,0.75 -0.6,1.72 -0.75,2.33c-0.25,1.04 -0.42,1.8 -0.76,3.02c-0.12,0.42 -0.38,1.26 -0.64,2.1c-0.25,0.82 -0.61,1.95 -0.79,2.64c-0.25,0.91 -0.48,1.93 -0.54,2.72c-0.07,0.95 0,1.84 -0.29,2.63c-0.35,0.95 -0.48,1.69 -0.48,2.68l0,0.87" fill="none" fill-opacity="null" id="svg_16" stroke="#ffffff" stroke-dasharray="null" stroke-linecap="round" stroke-linejoin="null" stroke-opacity="null" stroke-width="40" transform="matrix(-0.743531, 0.820762, -0.820762, -0.743531, 477.435, 126.993)"/>
  <path d="m220.62,300.4c-0.31,0.81 -0.55,1.69 -0.53,2.44c0.03,1.05 0.12,1.71 -0.21,2.63c-0.3,0.87 -0.73,1.66 -0.84,2.57c-0.11,0.98 -0.14,1.72 -0.23,2.51c-0.12,1 -0.14,1.95 -0.08,2.83c0.07,0.88 0.17,1.81 0.02,2.74c-0.12,0.78 -0.33,1.75 -0.31,2.45c0.03,1.06 0.14,1.86 0.23,2.85c0.07,0.84 0.12,1.7 0.22,2.59c0.09,0.76 0.72,1.59 0.95,2.4c0.24,0.85 0.17,1.84 0.24,2.72c0.08,0.88 0.15,1.72 0.22,2.57c0.08,0.94 0.09,1.83 0.25,2.56c0.23,1.04 0.76,1.65 0.94,2.61c0.17,0.88 0.15,1.79 0.23,2.68c0.07,0.87 -0.45,0.95 -1.2,0.7c-0.97,-0.31 -1.68,-0.47 -2.78,-0.53c-0.62,-0.03 -1.62,0.02 -2.29,0.07c-1.24,0.09 -2.03,0.17 -2.91,0.25c-0.91,0.08 -1.72,0.13 -2.65,-0.11c-0.86,-0.21 -1.72,-0.51 -2.44,-0.69c-0.77,-0.19 -1.54,-0.39 -2.66,-0.53c-0.93,-0.12 -1.74,-0.08 -2.76,-0.14c-0.83,-0.04 -1.75,-0.17 -2.42,-0.2c-1.1,-0.05 -1.9,-0.01 -2.7,0.04c-0.79,0.05 -1.88,0.15 -2.79,0.22c-0.77,0.07 -1.91,0.16 -2.81,0.24c-0.67,0.06 -1.78,0.15 -2.43,0.21c-1.15,0.1 -1.97,0.19 -2.87,-0.02c-0.72,-0.16 -1.68,-0.34 -2.7,-0.25c-0.72,0.06 -1.7,0.28 -2.5,0.15c-0.87,-0.15 -1.87,-0.59 -1.87,-1.52c0.01,-0.72 0.35,-1.51 0.64,-2.47c0.24,-0.78 0.45,-1.77 0.55,-2.38c0.16,-1.06 0.27,-1.83 0.5,-3.07c0.08,-0.43 0.26,-1.29 0.45,-2.15c0.18,-0.83 0.44,-2 0.57,-2.7c0.17,-0.93 0.32,-1.96 0.31,-2.76c-0.01,-0.95 -0.16,-1.83 0.06,-2.64c0.27,-0.98 0.34,-1.73 0.25,-2.71l-0.08,-0.87" fill="none" fill-opacity="null" id="svg_15" stroke="#ffffff" stroke-dasharray="null" stroke-linecap="round" stroke-linejoin="null" stroke-opacity="null" stroke-width="40" transform="matrix(0.754118, 0.811046, -0.811046, 0.754118, 210.558, -115.262)"/>
  <path d="m294.76,137.33c-0.31,0.81 -0.55,1.69 -0.53,2.44c0.02,1.05 0.12,1.71 -0.21,2.63c-0.3,0.87 -0.73,1.66 -0.84,2.57c-0.11,0.98 -0.14,1.72 -0.23,2.51c-0.12,0.99 -0.14,1.95 -0.08,2.83c0.07,0.88 0.17,1.81 0.02,2.73c-0.12,0.78 -0.33,1.75 -0.31,2.45c0.03,1.06 0.14,1.86 0.23,2.85c0.07,0.84 0.12,1.7 0.22,2.59c0.09,0.76 0.72,1.59 0.95,2.4c0.24,0.85 0.17,1.84 0.24,2.72c0.08,0.88 0.15,1.72 0.22,2.57c0.08,0.94 0.09,1.83 0.25,2.56c0.23,1.04 0.76,1.65 0.94,2.61c0.17,0.88 0.15,1.79 0.23,2.68c0.07,0.86 -0.45,0.95 -1.2,0.7c-0.97,-0.31 -1.68,-0.47 -2.78,-0.53c-0.62,-0.03 -1.62,0.02 -2.29,0.07c-1.24,0.09 -2.02,0.17 -2.91,0.25c-0.91,0.08 -1.72,0.13 -2.65,-0.11c-0.86,-0.22 -1.72,-0.51 -2.44,-0.69c-0.77,-0.19 -1.55,-0.39 -2.66,-0.53c-0.93,-0.12 -1.74,-0.08 -2.76,-0.14c-0.83,-0.04 -1.75,-0.17 -2.42,-0.2c-1.1,-0.05 -1.9,-0.01 -2.7,0.03c-0.79,0.05 -1.88,0.15 -2.79,0.22c-0.77,0.07 -1.91,0.16 -2.81,0.24c-0.67,0.06 -1.78,0.15 -2.43,0.21c-1.15,0.1 -1.97,0.19 -2.87,-0.02c-0.72,-0.16 -1.68,-0.34 -2.7,-0.25c-0.72,0.06 -1.7,0.28 -2.5,0.15c-0.87,-0.15 -1.87,-0.59 -1.87,-1.52c0.01,-0.72 0.35,-1.52 0.64,-2.47c0.24,-0.78 0.45,-1.77 0.55,-2.38c0.16,-1.06 0.27,-1.83 0.5,-3.07c0.08,-0.43 0.27,-1.29 0.45,-2.15c0.19,-0.83 0.44,-2 0.57,-2.7c0.17,-0.93 0.32,-1.96 0.31,-2.76c-0.01,-0.95 -0.16,-1.83 0.06,-2.64c0.27,-0.98 0.33,-1.73 0.25,-2.71l-0.07,-0.87" fill="none" fill-opacity="null" id="svg_14" stroke="#ffffff" stroke-dasharray="null" stroke-linecap="round" stroke-linejoin="null" stroke-opacity="null" stroke-width="40" transform="matrix(-0.811046, 0.754118, -0.754118, -0.811046, 434.568, 20.3161)"/>
 </g>
</svg>