<?xml version="1.0"?>
<svg width="400" height="400" xmlns="http://www.w3.org/2000/svg" xmlns:svg="http://www.w3.org/2000/svg">
 <!-- Created with SVG-edit - https://github.com/SVG-Edit/svgedit-->

 <g class="layer" display="inline">
  <title>Layer 1</title>
  <path d="m335.75,40.78c-1.74,-0.53 -2.36,-0.56 -3.11,-0.59c-1.36,-0.06 -1.88,-0.09 -3.03,-0.17c-0.64,-0.05 -1.32,-0.1 -2.05,-0.16c-0.78,-0.06 -1.61,-0.13 -3.45,-0.29c-1.01,-0.09 -2.08,-0.18 -3.21,-0.27c-1.19,-0.1 -2.44,-0.19 -3.74,-0.27c-1.36,-0.09 -2.79,-0.18 -5.8,-0.29c-1.59,-0.06 -3.23,-0.1 -4.91,-0.12c-1.71,-0.03 -3.45,-0.04 -5.2,-0.05c-1.76,-0.01 -3.52,-0.01 -7.02,-0.01c-1.72,0 -3.42,0 -5.1,0c-1.66,0 -3.3,0 -4.93,0c-1.61,0 -3.21,0 -6.36,0c-1.56,0 -3.11,0 -4.64,0c-1.52,0 -3.03,0 -4.52,0c-1.48,0 -2.94,0 -5.83,0c-1.42,0 -2.81,0 -4.2,0c-1.36,0 -2.71,0 -4.03,0c-1.3,0 -2.59,0 -5.09,0c-1.22,0 -2.41,0 -3.59,0c-1.16,0 -2.3,0 -3.42,0c-1.11,0 -2.2,0 -4.35,0c-1.06,0 -2.1,0 -3.14,0.01c-1.03,0.01 -2.06,0.01 -3.09,0.04c-1.02,0.02 -2.05,0.04 -4.11,0.15c-1.04,0.05 -2.08,0.13 -3.12,0.21c-1.04,0.08 -2.08,0.18 -3.11,0.28c-1.02,0.1 -2.04,0.21 -4.02,0.44c-0.97,0.11 -1.92,0.22 -2.87,0.34c-0.93,0.11 -1.85,0.23 -2.76,0.35c-0.9,0.12 -1.8,0.24 -3.59,0.52c-0.89,0.14 -1.79,0.29 -2.68,0.44c-0.89,0.15 -1.79,0.31 -2.68,0.46c-0.89,0.15 -1.79,0.31 -3.58,0.59c-0.89,0.14 -1.78,0.27 -2.67,0.39c-0.88,0.12 -1.75,0.24 -2.61,0.34c-0.85,0.11 -1.68,0.21 -3.28,0.38c-0.77,0.08 -1.52,0.16 -2.25,0.23c-0.7,0.07 -1.39,0.13 -2.04,0.19c-0.64,0.06 -1.25,0.11 -2.41,0.23c-0.55,0.05 -1.07,0.11 -1.58,0.17c-0.48,0.05 -0.95,0.1 -1.39,0.15c-0.43,0.04 -0.83,0.09 -1.59,0.15c-0.35,0.03 -0.7,0.05 -1.02,0.06c-0.32,0.01 -0.63,0.02 -0.93,0.03c-0.3,0 -0.6,0.01 -1.21,0.01c-0.31,0 -0.62,0 -0.94,0c-0.32,0 -0.64,0 -0.96,0c-0.32,0 -0.64,0 -1.26,0c-0.3,0 -0.61,0 -0.9,0c-0.3,0 -0.6,0 -0.9,0c-0.31,0 -0.62,0 -1.27,0c-0.34,0 -0.69,0 -1.05,0c-0.36,0 -0.72,0 -1.09,0c-0.36,0 -0.72,0 -1.41,0c-0.33,0 -0.65,0 -0.96,0c-0.3,0 -0.59,0.01 -0.87,0.02c-0.27,0.01 -0.54,0.02 -1.06,0.07c-0.25,0.03 -0.49,0.06 -0.74,0.1c-0.25,0.04 -0.49,0.08 -0.75,0.12c-0.26,0.04 -0.53,0.09 -1.12,0.14c-0.32,0.03 -0.65,0.05 -0.99,0.06c-0.36,0.01 -0.74,0.02 -1.13,0.03c-0.4,0 -0.82,0.01 -1.69,0.01c-0.45,0 -0.92,0 -1.39,0c-0.49,0 -0.98,0 -1.49,0c-0.52,0 -1.05,0 -2.15,0c-0.56,0 -1.14,0 -1.72,0c-0.59,0 -1.19,0.01 -1.79,0.02c-0.61,0.01 -1.22,0.02 -2.45,0.07c-0.61,0.03 -1.23,0.06 -1.84,0.1c-0.61,0.04 -1.21,0.08 -1.81,0.12c-0.59,0.04 -1.17,0.09 -2.31,0.14c-0.55,0.03 -1.09,0.05 -2.15,0.08c-1.01,0.03 -1.49,0.02 -2.88,0.11c-0.87,0.05 -1.7,0.14 -2.48,0.23c-0.74,0.08 -1.76,0.18 -2.69,0.22c-0.85,0.03 -1.88,0.02 -2.82,0.02c-0.65,0 -1.8,0.03 -2.53,-0.05c-1,-0.1 -1.85,-0.34 -2.75,-0.44c-0.9,-0.1 -1.61,-0.09 -2.62,-0.23c-0.82,-0.11 -1.68,-0.29 -2.59,-0.46c-0.95,-0.17 -1.58,-0.27 -2.76,-0.5c-0.79,-0.16 -1.51,-0.36 -2.64,-0.49c-0.67,-0.08 -1.61,-0.09 -2.62,-0.23c-0.82,-0.11 -1.38,-0.24 -2.59,-0.46c-0.63,-0.11 -1.55,-0.28 -2.67,-0.41c-0.88,-0.1 -1.57,-0.13 -2.5,-0.37c-0.91,-0.24 -1.87,-0.28 -2.62,-0.28c-0.86,0 -1.75,0 -2.66,0c-0.97,0 -1.74,0 -2.56,0c-1.11,0 -1.95,0 -2.77,0c-1.04,0 -1.78,0 -2.73,0c-0.99,0 -1.78,-0.01 -2.63,0.03c-0.9,0.04 -1.84,0.16 -2.48,0.27c-0.96,0.17 -1.89,0.43 -2.76,0.71c-0.81,0.26 -1.75,0.49 -2.66,0.67c-0.83,0.16 -1.62,0.57 -2.33,1c-0.74,0.45 -1.67,0.84 -2.41,1.41c-0.62,0.47 -1.23,1.18 -1.86,1.78c-0.49,0.46 -1.35,1.11 -1.97,1.65c-0.74,0.65 -1.21,1.31 -1.76,2.15c-0.44,0.67 -0.94,1.5 -1.27,2.35c-0.32,0.83 -0.53,1.52 -0.74,2.27c-0.31,1.13 -0.46,1.93 -0.61,2.48c-0.31,1.12 -0.64,1.97 -0.85,2.54c-0.45,1.21 -0.67,1.84 -0.89,2.49c-0.34,0.99 -0.68,2 -0.89,2.67c-0.33,1.02 -0.53,1.72 -0.77,2.8c-0.17,0.74 -0.29,1.51 -0.46,2.28c-0.27,1.18 -0.53,1.96 -0.81,2.74c-0.29,0.8 -0.6,1.6 -0.88,2.43c-0.28,0.85 -0.53,1.72 -0.78,2.61c-0.13,0.46 -0.52,1.86 -0.81,2.81c-0.15,0.49 -0.45,1.46 -0.59,1.95c-0.28,0.97 -0.63,2.4 -0.72,2.87c-0.18,0.91 -0.32,1.81 -0.48,2.68c-0.15,0.85 -0.33,1.68 -0.53,2.49c-0.2,0.81 -0.43,1.62 -0.76,2.88c-0.23,0.86 -0.34,1.29 -0.56,2.17c-0.22,0.89 -0.56,2.23 -0.67,2.67c-0.22,0.89 -0.43,1.76 -0.58,2.63c-0.21,1.26 -0.27,2.08 -0.3,2.89c-0.03,0.79 -0.02,1.97 -0.02,2.75c0,0.77 0,1.53 -0.05,2.25c-0.08,1.34 -0.2,1.96 -0.31,2.86c-0.11,0.9 -0.17,1.85 -0.19,2.5c-0.02,0.99 0,2 -0.02,3.02c-0.01,0.7 -0.03,1.43 -0.12,2.58c-0.06,0.82 -0.16,1.65 -0.24,2.49c-0.11,1.21 -0.16,1.98 -0.18,2.72c-0.02,0.74 -0.02,1.5 -0.02,2.74c0,0.9 0,1.83 0,2.31c0,0.96 0,2.39 0,2.86c0,0.92 0.01,1.83 0.05,2.73c0.04,0.9 0.11,1.79 0.19,2.69c0.08,0.91 0.14,1.37 0.23,2.77c0.06,0.96 0.07,1.44 0.08,2.42c0.01,0.98 0.01,1.46 0.01,2.89c0,0.93 0.01,1.84 0.02,2.3c0.02,0.9 0.1,2.24 0.18,3.13c0.04,0.45 0.14,1.34 0.25,2.23c0.16,1.34 0.28,2.23 0.33,2.68c0.1,0.88 0.2,1.74 0.27,3.01c0.05,0.81 0.06,1.6 0.07,2.35c0.01,1.05 0,2.01 0,2.9c0,1.13 -0.01,1.69 0.01,2.54c0.02,0.87 0.11,1.79 0.23,2.76c0.08,0.7 0.18,1.45 0.25,2.68c0.05,0.89 0.07,1.82 0.08,2.29c0.03,0.93 0.1,2.29 0.19,3.15c0.08,0.84 0.14,1.26 0.25,2.11c0.17,1.33 0.28,2.25 0.33,2.72c0.1,0.93 0.2,1.85 0.27,3.13c0.05,0.78 0.06,1.51 0.07,2.21c0.01,1.35 0,2.02 0,3.02c0,0.67 0,1.68 0,2.68c0,0.67 0,2.01 0,2.68c0,0.68 -0.01,1.71 -0.09,2.77c-0.05,0.74 -0.15,1.49 -0.23,2.24c-0.08,0.75 -0.2,2.2 -0.22,2.89c-0.02,0.67 -0.02,1.94 -0.02,2.55c-0.01,0.9 -0.03,1.82 -0.12,2.81c-0.06,0.71 -0.16,1.46 -0.24,2.25c-0.12,1.23 -0.15,2.08 -0.18,2.96c-0.03,0.91 -0.03,1.38 -0.11,2.84c-0.06,1.03 -0.1,1.55 -0.19,2.63c-0.04,0.55 -0.1,1.1 -0.19,2.77c-0.03,0.56 -0.06,1.68 -0.08,2.23c-0.03,1.12 -0.04,1.68 -0.06,2.23c-0.06,1.68 -0.11,2.23 -0.19,3.34c-0.04,0.55 -0.13,1.62 -0.16,2.15c-0.1,1.52 -0.13,2.49 -0.14,2.95c-0.02,0.91 -0.02,1.78 -0.02,3.05c0,0.82 0,1.63 0,2.44c0,1.24 0,2.09 0,2.52c0,0.88 0,1.79 0,3.19c0,0.48 0,1.44 0,2.42c0,0.49 0,1.46 0,2.89c0,0.47 0,1.38 0,2.28c0,0.87 0,2.14 0,2.96c0.01,0.8 0.01,1.59 0.09,2.77c0.05,0.78 0.15,1.55 0.23,2.31c0.08,0.73 0.18,1.75 0.22,2.7c0.03,0.63 0.1,1.98 0.17,2.74c0.07,0.81 0.17,1.66 0.24,2.54c0.07,0.89 0.12,1.78 0.13,2.67c0.01,0.88 -0.01,1.75 -0.07,2.59c-0.05,0.83 -0.15,1.64 -0.25,2.43c-0.1,0.79 -0.27,1.96 -0.39,2.74c-0.17,1.17 -0.28,1.96 -0.45,3.13c-0.11,0.78 -0.22,1.56 -0.3,2.35c-0.12,1.17 -0.16,1.96 -0.18,2.74c-0.02,0.78 -0.02,1.56 -0.02,2.74c0,0.78 0,1.56 0,2.35c0,1.17 0,1.95 -0.01,2.73c-0.01,0.77 -0.01,1.53 -0.15,2.98c-0.07,0.7 -0.17,1.39 -0.49,2.73c-0.16,0.67 -0.37,1.33 -0.66,2.31c-0.28,0.94 -0.51,1.84 -0.62,2.43c-0.16,0.88 -0.26,2.11 -0.28,2.76c-0.02,0.66 -0.02,1.99 -0.02,2.66c0,0.99 0,1.64 0,2.89c0,0.59 0,1.46 0,2.58c0,0.84 0.03,1.67 -0.19,2.7c-0.16,0.75 -0.52,1.43 -0.74,2.42c-0.17,0.77 -0.17,1.59 -0.28,2.7c-0.08,0.84 -0.24,1.69 -0.31,2.28c-0.14,1.23 -0.16,1.87 -0.12,2.86c0.03,1 0.16,2 0.26,2.66c0.14,0.94 0.33,1.79 0.54,2.77c0.2,0.98 0.21,1.74 0.61,2.66c0.28,0.66 0.74,1.48 1.17,2.3c0.45,0.86 0.87,1.37 1.53,1.96c0.8,0.72 1.48,1.03 2.4,1.53c0.75,0.41 1.47,1.02 2.04,1.41c0.74,0.52 1.67,1.17 2.02,1.41c0.74,0.51 1.52,1.03 2.35,1.53c0.84,0.5 1.72,0.97 2.16,1.2c0.9,0.46 1.36,0.69 2.78,1.35c0.48,0.22 1.45,0.66 1.93,0.87c0.95,0.41 2.34,0.96 2.78,1.12c0.85,0.3 1.68,0.56 2.48,0.8c1.18,0.35 1.96,0.57 2.74,0.78c0.77,0.21 1.52,0.42 2.62,0.66c0.71,0.16 1.78,0.36 2.51,0.51c1.16,0.24 1.98,0.43 2.4,0.53c0.85,0.21 1.71,0.42 2.97,0.76c0.83,0.22 1.67,0.45 2.1,0.56c0.9,0.23 2.38,0.56 2.91,0.67c0.55,0.11 1.72,0.35 2.33,0.47c0.62,0.12 1.26,0.24 3.26,0.66c0.68,0.14 1.37,0.29 2.06,0.44c0.69,0.15 1.37,0.3 2.7,0.57c1.27,0.25 1.87,0.35 2.46,0.45c1.11,0.18 1.65,0.25 2.69,0.37c1.52,0.18 2.02,0.23 3.02,0.34c0.49,0.05 1.45,0.16 2.38,0.23c1.28,0.1 2.06,0.13 2.8,0.16c0.72,0.03 1.79,0.09 2.53,0.16c0.78,0.07 1.6,0.17 2.49,0.24c1.48,0.11 2.01,0.12 3.12,0.14c0.57,0.01 1.16,0.02 2.34,0.02c1.18,0 1.76,0 2.91,0c0.56,0 1.65,0 2.18,0c1.49,0 2.41,0 3.26,0c0.78,0 1.5,0 2.73,0c0.78,0 1.48,0 2.6,0c0.67,0 1.79,0 2.47,0c0.98,0 1.8,0 2.73,0c0.68,0 1.43,0 2.66,0c0.91,0 1.39,0 2.41,0c0.54,0 2.29,0 2.91,0c0.65,0 1.31,0 2.69,0.01c0.71,0.01 1.44,0.02 2.17,0.04c1.5,0.04 2.25,0.07 3.02,0.11c0.77,0.04 1.55,0.08 2.34,0.13c0.8,0.05 1.62,0.1 2.44,0.16c1.7,0.11 2.57,0.17 3.46,0.22c0.9,0.06 1.82,0.11 2.75,0.17c0.94,0.06 1.89,0.11 2.85,0.17c1.94,0.11 2.92,0.17 3.91,0.22c0.99,0.05 1.98,0.11 2.97,0.16c0.99,0.05 1.98,0.09 2.97,0.13c1.96,0.07 2.94,0.09 3.91,0.11c0.96,0.02 1.92,0.03 2.86,0.05c0.94,0.01 1.87,0.03 2.79,0.05c1.81,0.04 2.7,0.07 3.57,0.11c0.86,0.04 1.71,0.08 2.53,0.12c0.81,0.04 1.59,0.08 2.36,0.12c1.45,0.07 2.13,0.09 2.79,0.11c0.63,0.02 1.23,0.03 1.81,0.04c0.55,0.01 1.08,0.01 1.59,0.01c0.94,0 1.38,0 1.79,0c0.4,0 0.79,0 1.16,-0.01c0.73,-0.02 1.81,-0.07 2.54,-0.15c0.75,-0.08 1.51,-0.18 2.25,-0.34c1.46,-0.3 2.17,-0.53 2.91,-0.72c0.78,-0.2 2.1,-0.45 2.58,-0.52c1.01,-0.15 1.54,-0.2 2.64,-0.29c0.57,-0.05 1.73,-0.12 2.91,-0.15c0.6,-0.02 1.21,-0.03 2.44,-0.04c0.62,-0.01 1.25,-0.01 2.53,-0.01c1.29,0 1.95,0 2.6,0.01c0.66,0 1.97,0.02 2.62,0.04c1.29,0.04 1.93,0.07 3.2,0.15c0.63,0.04 1.25,0.08 1.87,0.12c1.23,0.08 2.46,0.15 3.08,0.17c1.22,0.04 1.83,0.05 2.42,0.06c1.17,0.01 1.74,0.01 3.35,0.01c0.51,0 1.48,0 2.42,-0.02c0.46,-0.01 1.81,-0.07 2.7,-0.14c0.89,-0.07 1.77,-0.16 2.2,-0.2c1.28,-0.11 2.11,-0.16 2.92,-0.18c0.81,-0.02 1.63,-0.02 2.88,-0.02c0.86,0 1.72,0 2.58,0c0.43,0 1.69,0 2.51,0c0.79,-0.01 1.57,0 3.04,-0.12c0.71,-0.06 1.38,-0.17 2.37,-0.28c0.93,-0.1 1.81,-0.13 2.64,-0.19c1.03,-0.07 1.75,-0.24 2.71,-0.37c1,-0.14 1.82,-0.16 2.68,-0.11c0.92,0.05 1.88,0.19 2.55,0.27c0.69,0.08 1.77,0.18 2.89,0.22c0.74,0.02 1.46,0.02 2.48,0.02c0.93,0 1.81,0 2.93,0.12c0.56,0.06 1.42,0.22 2.61,0.43c0.62,0.11 1.57,0.28 2.19,0.36c1.15,0.15 2.15,0.19 2.81,0.2c1.14,0.01 2.08,0 2.88,0c0.96,0 1.59,0 2.34,-0.05c1.23,-0.08 1.94,-0.19 2.71,-0.27c0.82,-0.08 2.14,-0.17 2.61,-0.19c0.94,-0.03 1.89,-0.04 2.83,-0.05c0.91,0 1.79,0 2.63,-0.01c0.82,-0.01 1.65,-0.02 2.9,-0.12c0.85,-0.06 1.69,-0.16 2.49,-0.27c1.1,-0.15 1.73,-0.26 2.53,-0.44c1.09,-0.25 1.81,-0.56 2.85,-0.74c0.83,-0.15 1.67,-0.19 2.51,-0.37c1,-0.22 1.84,-0.23 2.69,-0.44c0.96,-0.24 1.73,-0.33 2.63,-0.41c0.94,-0.08 1.72,-0.38 2.56,-0.5c0.8,-0.11 1.76,-0.32 2.69,-0.66c0.77,-0.28 1.61,-0.42 2.45,-0.52c1.01,-0.12 1.79,-0.31 2.69,-0.56c0.81,-0.23 1.72,-0.45 2.48,-0.57c0.97,-0.15 1.88,-0.45 2.59,-0.58c0.88,-0.16 1.94,-0.51 2.56,-0.68c0.7,-0.19 1.81,-0.48 2.45,-0.66c1.02,-0.29 1.72,-0.46 2.88,-0.96c0.7,-0.3 1.4,-0.73 2.2,-1.21c0.76,-0.46 1.56,-0.9 2.17,-1.5c0.63,-0.62 1.03,-1.36 1.65,-1.98c0.67,-0.67 1.35,-1.42 1.79,-2.03c0.46,-0.64 1.01,-1.49 1.45,-2.16c0.56,-0.84 1.04,-1.5 1.44,-2.47c0.25,-0.61 0.45,-1.5 0.68,-2.39c0.22,-0.86 0.57,-1.74 0.81,-2.6c0.23,-0.83 0.19,-1.7 0.2,-2.69c0.01,-0.64 0.11,-1.76 0.24,-2.43c0.18,-0.9 0.43,-1.79 0.65,-2.7c0.23,-0.97 0.39,-1.74 0.56,-2.52c0.22,-0.97 0.5,-1.77 0.69,-2.83c0.14,-0.82 0.26,-1.71 0.45,-2.49c0.21,-0.83 0.06,-1.82 0.32,-2.72c0.22,-0.75 0.76,-1.49 1.1,-2.44c0.23,-0.64 0.38,-1.58 0.45,-2.43c0.09,-1.19 0.2,-1.97 0.29,-2.51c0.15,-0.86 0.38,-2.09 0.49,-2.73c0.11,-0.66 0.33,-1.99 0.45,-2.66c0.17,-0.99 0.28,-1.65 0.5,-2.89c0.11,-0.59 0.29,-1.45 0.41,-2.58c0.09,-0.84 0.07,-1.4 0.14,-2.23c0.09,-1.12 0.25,-1.93 0.35,-2.7c0.15,-1.09 0.16,-1.85 0.16,-2.82c0,-0.85 0,-1.96 0,-2.63c0,-0.89 0,-1.79 0,-2.66c0,-1.01 0,-1.93 0,-2.88c0,-0.84 0,-1.5 0,-2.62c0,-0.72 0,-1.84 0,-2.48c0,-0.7 0,-1.85 0,-3.08c0,-0.42 0,-1.28 0,-2.16c0,-0.9 0,-2.3 0,-2.78c0,-0.97 0,-1.46 0,-2.45c0,-1 0,-2.01 0,-3.01c0,-0.5 0,-1.49 0,-2.45c0,-0.47 0,-1.83 0,-2.69c0,-0.84 0,-1.68 0,-2.98c0,-0.91 0,-1.38 -0.01,-2.34c-0.01,-0.97 -0.02,-1.45 -0.11,-2.88c-0.06,-0.94 -0.12,-1.41 -0.2,-2.36c-0.08,-0.98 -0.15,-2.01 -0.19,-3.1c-0.02,-0.56 -0.03,-1.14 -0.04,-2.29c-0.01,-0.58 -0.01,-2.29 -0.01,-2.85c0,-0.54 0,-1.6 0,-2.64c0,-0.51 0,-2.02 0,-2.53c0,-1 0,-2 0,-2.49c0,-0.98 0,-1.94 0,-2.88c0,-0.92 0,-1.83 0,-2.28c0,-1.34 0,-2.24 0,-3.12c0,-0.87 0,-1.7 0,-2.89c0,-0.74 0,-1.46 0,-2.17c0,-1.44 0,-2.19 0,-2.97c0,-0.81 0,-2.11 0,-2.56c0,-0.93 0,-1.9 0,-2.39c0,-1 0,-2 0,-3.01c0,-1.01 0,-1.52 0,-2.55c0,-0.52 0,-2.1 0,-2.64c0,-1.08 0,-1.63 0,-2.72c0,-0.54 0,-2.14 0,-2.66c0,-1.03 0,-1.54 0,-2.56c0,-1.51 0,-2.01 0,-3.02c0,-0.5 -0.01,-1.49 -0.05,-2.47c-0.04,-0.96 -0.11,-1.9 -0.19,-2.81c-0.04,-0.45 -0.14,-1.33 -0.23,-2.61c-0.06,-0.83 -0.08,-1.63 -0.09,-2.39c-0.02,-1.42 -0.01,-2.07 -0.01,-3c0,-0.6 0,-1.81 0,-2.45c0,-0.98 0,-1.64 0,-2.98c0,-0.66 0,-1.61 0,-2.5c0,-0.79 0,-1.75 0,-2.64c0,-0.88 0,-1.92 0,-2.67c0,-1.11 0,-1.72 0,-2.62c0,-0.98 0.01,-1.77 -0.03,-2.59c-0.06,-1.12 -0.22,-1.96 -0.33,-2.82c-0.12,-0.9 -0.17,-1.84 -0.19,-2.49c-0.02,-0.99 -0.01,-2 -0.01,-2.67c0,-0.99 0,-1.63 0,-2.86c0,-0.86 0.01,-1.68 0,-2.68c-0.01,-0.72 -0.09,-1.93 -0.2,-2.7c-0.12,-0.81 -0.23,-1.36 -0.31,-2.48c-0.06,-0.84 -0.05,-1.68 -0.05,-2.79c0,-0.84 0,-1.68 0,-2.51c0,-0.84 -0.01,-1.71 -0.12,-2.92c-0.06,-0.63 -0.21,-1.59 -0.28,-2.23c-0.13,-1.23 -0.15,-2.1 -0.16,-2.67c-0.01,-1.12 0,-1.95 0,-2.76c0,-1.03 0,-2 0,-2.75c0,-1.12 0.01,-1.73 -0.03,-2.67c-0.04,-0.94 -0.17,-1.84 -0.29,-2.7c-0.08,-0.56 -0.21,-1.68 -0.21,-2.53c0,-0.87 0.1,-1.79 0.21,-2.75c0.08,-0.67 0.19,-1.36 0.27,-2.81c0.04,-0.75 0.04,-1.52 0.05,-2.3c0,-1.17 0,-1.96 0,-2.76c0,-0.82 0,-2.12 0,-2.57c0,-0.93 -0.01,-1.9 -0.02,-2.39c-0.02,-1 -0.1,-2.5 -0.14,-3c-0.07,-0.99 -0.16,-1.95 -0.2,-2.42c-0.11,-1.32 -0.15,-2.13 -0.18,-2.89c-0.03,-0.73 -0.1,-2.16 -0.17,-2.89c-0.07,-0.75 -0.17,-1.5 -0.24,-2.25c-0.1,-1.1 -0.14,-2.14 -0.15,-2.81c-0.02,-1.27 0.01,-1.88 -0.02,-2.75c-0.02,-0.85 -0.13,-1.97 -0.28,-2.79c-0.14,-0.8 -0.37,-1.81 -0.55,-2.5c-0.27,-1.05 -0.56,-1.78 -0.74,-2.82c-0.12,-0.66 -0.21,-1.72 -0.43,-2.38c-0.32,-0.96 -0.56,-1.79 -0.87,-2.74c-0.26,-0.78 -0.57,-1.57 -0.75,-2.09c-0.43,-1.24 -0.6,-1.94 -0.83,-2.84c-0.22,-0.89 -0.38,-1.54 -0.67,-2.52c-0.27,-0.89 -0.49,-1.75 -0.87,-2.53c-0.43,-0.88 -0.99,-1.47 -1.46,-2.33c-0.45,-0.81 -1.11,-1.2 -1.8,-1.91c-0.56,-0.59 -0.95,-1.57 -1.38,-2.18c-0.38,-0.54 -1.06,-1.32 -1.66,-1.94c-0.64,-0.67 -1.32,-1.33 -1.98,-2c-0.44,-0.44 -1.26,-1.34 -1.82,-2.01c-0.37,-0.44 -0.9,-1.13 -1.7,-2.01c-0.6,-0.67 -1.03,-1.07 -1.72,-1.89c-0.59,-0.71 -1.22,-1.59 -1.68,-2.08c-0.63,-0.68 -1.31,-1.34 -1.97,-2c-0.47,-0.47 -1.26,-1.28 -1.87,-1.87c-0.58,-0.55 -1.39,-1.06 -2.12,-1.55c-0.77,-0.52 -1.55,-0.9 -2.32,-1.28c-0.86,-0.43 -1.47,-0.76 -2.59,-1.17c-0.66,-0.24 -1.52,-0.44 -2.48,-0.74c-0.67,-0.21 -1.61,-0.71 -2.44,-0.88c-0.82,-0.17 -1.71,-0.07 -2.44,-0.07c-1.14,0 -1.91,0 -2.94,0c-0.73,0 -1.67,0 -2.55,0.25c-0.93,0.26 -1.6,0.63 -2.62,0.93c-0.8,0.24 -1.36,0.33 -2.47,0.67c-0.83,0.26 -1.61,0.58 -2.55,0.93c-0.77,0.28 -1.65,0.72 -2.44,0.97c-0.84,0.26 -1.75,0.11 -2.72,0.28c-0.81,0.15 -1.72,0.42 -2.53,0.44c-0.71,0.01 -1.64,0 -2.36,0c-1.23,0 -2.13,0 -2.6,-0.01c-0.98,-0.01 -2,-0.03 -3.04,-0.09c-1.07,-0.06 -1.6,-0.1 -2.65,-0.19c-0.51,-0.04 -1.48,-0.13 -2.78,-0.21c-0.73,-0.04 -1.63,-0.06 -2.64,-0.07l-0.84,0l-0.96,0" fill="none" fill-opacity="null" id="svg_8" stroke="#ffffff" stroke-dasharray="null" stroke-linecap="round" stroke-linejoin="null" stroke-opacity="null" stroke-width="30" transform="matrix(1, 0, 0, 1, -10.0559, -1.11732)"/>
 </g>
</svg>