<?xml version="1.0"?>
<svg width="400" height="400" xmlns="http://www.w3.org/2000/svg" xmlns:svg="http://www.w3.org/2000/svg">
 <!-- Created with SVG-edit - https://github.com/SVG-Edit/svgedit-->

 <g class="layer" display="inline">
  <title>Layer 1</title>
  <path d="m200.56,46.37c-0.6,1.01 -1.06,1.77 -1.44,2.38c-0.65,1.06 -0.89,1.45 -1.41,2.27c-0.57,0.88 -0.88,1.34 -1.2,1.81c-1.05,1.5 -1.45,2.01 -1.85,2.54c-0.41,0.54 -0.83,1.08 -1.67,2.21c-0.43,0.57 -1.27,1.73 -1.69,2.32c-0.41,0.59 -0.82,1.19 -1.23,1.8c-0.41,0.61 -0.81,1.22 -1.22,1.83c-1.23,1.84 -1.66,2.46 -2.09,3.07c-0.43,0.62 -0.87,1.24 -1.33,1.85c-0.46,0.62 -0.92,1.25 -1.4,1.88c-0.98,1.28 -1.49,1.92 -2.01,2.57c-0.53,0.66 -1.06,1.33 -1.6,2.01c-0.55,0.69 -1.1,1.39 -1.65,2.11c-1.12,1.47 -1.68,2.24 -2.23,3.02c-0.56,0.79 -1.13,1.59 -1.7,2.41c-0.58,0.82 -1.15,1.65 -1.75,2.48c-1.2,1.68 -1.83,2.51 -2.46,3.35c-0.64,0.84 -1.28,1.68 -1.94,2.51c-0.66,0.84 -1.32,1.68 -1.99,2.51c-1.34,1.68 -2.01,2.51 -2.68,3.35c-0.67,0.83 -1.33,1.66 -1.98,2.48c-0.65,0.81 -1.28,1.61 -1.9,2.41c-1.21,1.54 -1.78,2.28 -2.35,3.02c-0.55,0.72 -1.08,1.42 -1.61,2.11c-0.51,0.68 -1.01,1.35 -1.51,2.01c-0.96,1.3 -1.43,1.94 -1.9,2.57c-0.46,0.63 -0.92,1.25 -1.37,1.86c-0.44,0.6 -0.88,1.2 -1.32,1.78c-0.85,1.14 -1.27,1.69 -1.68,2.24c-0.4,0.54 -0.81,1.07 -1.2,1.59c-0.39,0.52 -0.77,1.04 -1.15,1.57c-0.74,1.05 -1.1,1.58 -1.45,2.12c-0.35,0.54 -0.69,1.08 -1.03,1.62c-0.33,0.54 -0.66,1.07 -0.98,1.59c-0.63,1.03 -0.93,1.52 -1.23,2.01c-0.3,0.48 -0.59,0.95 -0.88,1.42c-0.29,0.47 -0.59,0.93 -0.88,1.4c-0.6,0.94 -0.91,1.42 -1.23,1.9c-0.32,0.49 -0.64,0.98 -0.97,1.48c-0.33,0.51 -0.66,1.02 -0.99,1.53c-0.67,1.05 -1.01,1.58 -1.34,2.12c-0.33,0.54 -0.67,1.09 -1.32,2.19c-0.33,0.55 -0.65,1.11 -1.27,2.23c-0.61,1.11 -0.9,1.68 -1.2,2.25c-0.3,0.57 -0.91,1.73 -1.22,2.32c-0.65,1.21 -0.99,1.83 -1.34,2.46c-0.36,0.64 -0.72,1.28 -1.09,1.92c-0.74,1.28 -1.11,1.92 -1.85,3.17c-0.36,0.61 -0.72,1.21 -1.06,1.8c-0.34,0.58 -1.01,1.71 -1.34,2.26c-0.32,0.55 -0.95,1.62 -1.55,2.67c-0.3,0.52 -0.59,1.04 -1.18,2.09c-0.3,0.53 -0.59,1.06 -1.51,2.73c-0.32,0.57 -0.63,1.16 -0.95,1.75c-0.32,0.6 -0.96,1.81 -1.28,2.42c-0.63,1.22 -0.93,1.84 -1.23,2.46c-0.3,0.62 -0.89,1.86 -1.18,2.5c-0.3,0.64 -0.59,1.28 -1.2,2.6c-0.31,0.68 -0.62,1.36 -0.94,2.06c-0.32,0.7 -0.65,1.41 -0.98,2.13c-0.33,0.72 -0.67,1.44 -1.33,2.89c-0.34,0.73 -0.67,1.45 -1,2.17c-0.33,0.72 -0.65,1.42 -0.97,2.13c-0.62,1.37 -1.2,2.69 -1.47,3.32c-0.27,0.62 -0.52,1.23 -0.77,1.82c-0.49,1.16 -0.73,1.73 -0.97,2.29c-0.74,1.68 -1,2.24 -1.27,2.79c-0.53,1.11 -0.81,1.66 -1.09,2.21c-0.28,0.54 -1.11,2.14 -1.39,2.67c-0.56,1.04 -0.84,1.56 -1.12,2.07c-0.56,1.04 -1.12,2.09 -1.4,2.62c-0.56,1.08 -0.83,1.62 -1.11,2.17c-0.54,1.09 -0.81,1.63 -1.32,2.7c-0.5,1.05 -0.73,1.57 -0.97,2.08c-0.47,1.01 -0.7,1.51 -1.45,2.95c-0.25,0.48 -0.77,1.4 -1.04,1.86c-0.53,0.91 -0.81,1.35 -1.57,2.7c-0.5,0.89 -0.74,1.34 -1.2,2.25c-0.23,0.45 -0.69,1.37 -1.13,2.32c-0.45,0.96 -0.67,1.45 -1.12,2.43c-0.22,0.5 -0.67,1.5 -1.12,2.5c-0.45,1.01 -0.67,1.52 -0.91,2.03c-0.47,1.05 -0.72,1.59 -0.98,2.14c-0.82,1.74 -1.12,2.35 -1.42,2.97c-0.31,0.64 -0.63,1.29 -0.95,1.95c-0.33,0.67 -0.66,1.35 -1.33,2.74c-0.34,0.7 -0.67,1.41 -1.01,2.12c-0.34,0.71 -0.68,1.43 -1.02,2.15c-0.35,0.72 -0.69,1.45 -1.41,2.9c-0.36,0.73 -0.73,1.45 -1.11,2.18c-0.37,0.72 -0.75,1.44 -1.13,2.16c-0.38,0.71 -0.75,1.42 -1.49,2.83c-0.36,0.69 -0.72,1.38 -1.06,2.07c-0.68,1.34 -1,2 -1.31,2.65c-0.31,0.64 -0.89,1.89 -1.16,2.5c-0.53,1.19 -0.77,1.77 -1.02,2.35c-0.24,0.57 -0.72,1.7 -1.22,2.82c-0.25,0.56 -0.77,1.67 -1.04,2.23c-0.26,0.55 -0.8,1.65 -1.06,2.19c-0.51,1.07 -1.01,2.12 -1.25,2.64c-0.24,0.52 -0.71,1.55 -0.95,2.07c-0.73,1.57 -0.99,2.11 -1.25,2.64c-0.52,1.08 -0.78,1.63 -1.04,2.17c-0.5,1.08 -0.97,2.15 -1.18,2.68c-0.42,1.04 -0.61,1.56 -0.98,2.58c-0.19,0.51 -0.75,2.02 -0.95,2.52c-0.4,1.01 -0.62,1.51 -1.04,2.53c-0.21,0.51 -0.43,1.03 -1.01,2.62c-0.19,0.54 -0.55,1.62 -0.73,2.16c-0.35,1.07 -0.51,1.59 -0.85,2.62c-0.33,0.99 -0.67,1.93 -0.83,2.4c-0.32,0.91 -0.76,2.26 -0.89,2.7c-0.27,0.89 -0.51,1.79 -0.74,2.68c-0.11,0.45 -0.45,1.79 -0.67,2.68c-0.11,0.45 -0.34,1.34 -0.56,2.23c-0.34,1.34 -0.44,1.79 -0.68,2.69c-0.23,0.91 -0.48,1.83 -0.76,2.77c-0.28,0.97 -0.44,1.46 -0.76,2.49c-0.16,0.54 -0.34,1.09 -0.83,2.91c-0.17,0.65 -0.34,1.34 -0.51,2.04c-0.17,0.72 -0.34,1.44 -0.52,2.18c-0.18,0.74 -0.35,1.49 -0.74,2.95c-0.39,1.44 -0.61,2.13 -0.82,2.83c-0.21,0.69 -0.43,1.37 -0.65,2.05c-0.22,0.67 -0.67,2.02 -0.89,2.69c-0.44,1.34 -0.66,2 -0.88,2.66c-0.22,0.65 -0.43,1.3 -0.63,1.94c-0.6,1.86 -0.78,2.45 -0.96,3.04c-0.35,1.11 -0.51,1.64 -0.82,2.63c-0.42,1.3 -0.68,2.03 -0.92,2.68c-0.31,0.86 -0.66,1.86 -0.84,2.54c-0.26,1.01 -0.62,1.74 -0.12,1.6c0.71,-0.2 1.64,-0.4 2.43,-0.42c0.63,-0.02 1.77,-0.01 2.66,-0.01c1.01,0 1.56,0.01 2.14,0.02c1.26,0.02 2.64,0.07 3.39,0.1c0.78,0.03 1.58,0.07 2.42,0.11c0.87,0.04 1.77,0.09 2.71,0.12c0.96,0.04 2.97,0.11 4.02,0.13c1.08,0.02 2.18,0.04 3.31,0.05c1.16,0.01 2.35,0.02 3.56,0.02c1.24,0 3.81,0 5.14,0c1.36,0 2.75,0 4.18,0.01c1.47,0.01 2.98,0.02 4.53,0.05c1.6,0.03 4.96,0.12 6.72,0.18c1.81,0.07 3.66,0.15 5.54,0.25c1.92,0.1 3.85,0.21 5.81,0.33c1.96,0.12 5.89,0.39 7.84,0.53c1.94,0.14 3.87,0.3 5.78,0.45c1.91,0.15 3.8,0.31 5.68,0.46c1.87,0.15 5.58,0.44 7.42,0.58c1.82,0.13 3.64,0.26 5.43,0.38c1.78,0.12 3.53,0.23 5.27,0.33c1.71,0.1 5.06,0.28 6.7,0.36c1.61,0.08 3.18,0.15 4.73,0.22c1.52,0.07 3.02,0.14 4.48,0.21c1.44,0.07 4.23,0.23 5.59,0.32c1.33,0.09 2.65,0.18 3.94,0.28c1.29,0.09 2.57,0.18 3.85,0.27c1.28,0.08 3.88,0.22 5.2,0.26c1.34,0.05 2.69,0.08 4.05,0.1c1.38,0.02 2.76,0.03 4.16,0.04c1.41,0.01 4.24,0.01 5.67,0c1.43,0 2.87,0 4.32,-0.01c1.45,-0.01 2.91,-0.02 4.37,-0.05c1.47,-0.03 4.42,-0.12 5.9,-0.18c1.49,-0.07 2.98,-0.15 4.47,-0.23c1.49,-0.09 2.99,-0.18 4.48,-0.27c1.49,-0.09 4.46,-0.27 5.94,-0.35c1.47,-0.08 2.94,-0.15 4.41,-0.22c1.47,-0.07 2.93,-0.13 4.4,-0.19c1.47,-0.06 4.42,-0.17 5.9,-0.23c1.49,-0.06 2.98,-0.11 4.48,-0.17c1.51,-0.06 3.02,-0.11 4.53,-0.17c1.52,-0.06 4.58,-0.17 6.12,-0.22c1.54,-0.06 3.09,-0.11 4.64,-0.17c1.55,-0.06 3.1,-0.11 4.65,-0.17c1.55,-0.06 4.63,-0.17 6.16,-0.22c1.53,-0.06 3.04,-0.11 4.54,-0.17c1.49,-0.06 2.96,-0.11 4.41,-0.17c1.43,-0.06 4.22,-0.17 5.58,-0.22c1.33,-0.05 2.64,-0.11 3.92,-0.16c1.27,-0.05 2.51,-0.1 3.75,-0.14c1.22,-0.04 3.64,-0.11 4.84,-0.13c1.19,-0.02 2.38,-0.04 3.56,-0.05c1.17,-0.01 2.33,-0.01 3.49,-0.02c1.14,0 3.4,0 4.51,0c1.1,0 2.2,0 3.3,0c1.1,0 2.19,0 3.3,0c1.11,0 3.37,0 4.53,0c1.17,0 2.35,0 3.55,0c1.21,0 2.43,0 3.66,0c1.24,0 3.74,0 5,0c1.26,0 2.53,0 3.79,-0.01c1.26,-0.01 2.51,-0.02 3.76,-0.05c1.24,-0.03 3.67,-0.12 4.86,-0.18c1.18,-0.07 2.34,-0.15 3.49,-0.23c1.14,-0.09 2.26,-0.18 3.38,-0.27c1.11,-0.09 3.3,-0.27 4.38,-0.35c1.08,-0.08 2.15,-0.15 3.2,-0.22c1.04,-0.07 2.07,-0.14 3.07,-0.21c0.98,-0.07 2.88,-0.23 3.79,-0.32c0.88,-0.09 1.73,-0.18 2.54,-0.28c0.79,-0.1 1.54,-0.19 2.25,-0.29c0.68,-0.09 1.93,-0.27 2.5,-0.35c0.53,-0.08 1.03,-0.15 1.49,-0.21c0.43,-0.06 0.84,-0.11 1.22,-0.16c0.36,-0.04 1.01,-0.11 1.31,-0.13c0.28,-0.02 0.55,-0.04 0.81,-0.05c0.24,-0.01 0.48,-0.03 0.7,-0.04c0.21,-0.02 0.62,-0.06 0.81,-0.09c0.19,-0.03 0.37,-0.07 0.56,-0.11c0.18,-0.04 0.36,-0.08 0.55,-0.12c0.18,-0.04 0.57,-0.11 0.76,-0.13c0.2,-0.02 0.41,-0.04 0.63,-0.05c0.22,-0.01 0.45,-0.01 0.68,-0.02c0.24,0 0.73,0 0.98,0c0.26,0 0.52,0 0.78,0.01c0.27,0 0.53,0.01 0.79,0.03c0.26,0.01 0.77,0.06 1.02,0.09c0.24,0.03 0.49,0.07 0.72,0.11c0.24,0.04 0.48,0.08 0.71,0.12c0.24,0.04 0.73,0.11 0.99,0.13c0.26,0.02 0.53,0.04 0.81,0.05c0.29,0.01 0.59,0.02 0.9,0.02c0.32,0 1.02,0 1.39,0c0.39,0 0.79,0 1.2,0.01c0.43,0 0.87,0.01 1.31,0.03c0.46,0.01 1.39,0.06 1.87,0.09c0.48,0.03 0.96,0.07 1.44,0.11c0.48,0.04 0.95,0.08 1.41,0.12c0.45,0.04 1.32,0.11 1.73,0.13c0.39,0.02 0.77,0.04 1.12,0.05c0.33,0.01 0.64,0.01 0.93,0.02c0.26,0 0.71,0 0.89,0c0.16,0 0.29,0 0.39,0c0.09,0 0.15,0 0.2,0c0.03,0 0.06,0 0.05,0c-0.01,0 -0.04,0 -0.07,0c-0.03,0 -0.07,0 -0.11,0c-0.04,0 -0.1,0 -0.13,0c-0.02,0 -0.04,0 -0.05,0c-0.01,0 -0.01,0 -0.02,0c0,0 0,0 0,0c0,0 0,0 -0.01,-0.01c-0.01,-0.01 -0.03,-0.03 -0.05,-0.05c-0.03,-0.03 -0.12,-0.12 -0.18,-0.18c-0.07,-0.07 -0.15,-0.15 -0.24,-0.24c-0.09,-0.09 -0.2,-0.2 -0.3,-0.3c-0.11,-0.11 -0.33,-0.33 -0.44,-0.44c-0.11,-0.11 -0.23,-0.23 -0.34,-0.34c-0.12,-0.12 -0.24,-0.24 -0.36,-0.36c-0.13,-0.13 -0.4,-0.4 -0.54,-0.54c-0.15,-0.15 -0.3,-0.3 -0.46,-0.46c-0.16,-0.16 -0.34,-0.34 -0.51,-0.51c-0.18,-0.18 -0.56,-0.56 -0.76,-0.76c-0.2,-0.2 -0.41,-0.41 -0.62,-0.62c-0.21,-0.21 -0.42,-0.43 -0.63,-0.65c-0.21,-0.22 -0.61,-0.67 -0.8,-0.89c-0.19,-0.22 -0.38,-0.45 -0.56,-0.68c-0.19,-0.23 -0.38,-0.46 -0.57,-0.7c-0.2,-0.24 -0.63,-0.73 -0.86,-0.99c-0.24,-0.26 -0.48,-0.52 -0.73,-0.78c-0.25,-0.27 -0.5,-0.53 -0.75,-0.79c-0.24,-0.26 -0.71,-0.77 -0.93,-1.02c-0.21,-0.24 -0.41,-0.48 -0.59,-0.71c-0.18,-0.22 -0.35,-0.43 -0.51,-0.64c-0.16,-0.19 -0.45,-0.55 -0.58,-0.71c-0.13,-0.15 -0.26,-0.3 -0.38,-0.44c-0.12,-0.13 -0.24,-0.27 -0.35,-0.4c-0.11,-0.13 -0.34,-0.4 -0.45,-0.54c-0.11,-0.15 -0.23,-0.3 -0.34,-0.46c-0.12,-0.16 -0.24,-0.34 -0.49,-0.69c-0.71,-0.99 -1.2,-1.64 -1.56,-2.08c-0.76,-0.91 -1.43,-1.58 -1.89,-2.04c-0.73,-0.73 -1.25,-1.24 -1.78,-1.79c-0.56,-0.58 -1.15,-1.21 -2.05,-2.29c-0.32,-0.38 -0.98,-1.21 -1.32,-1.65c-0.72,-0.93 -1.1,-1.42 -1.91,-2.44c-0.43,-0.54 -0.87,-1.09 -1.33,-1.66c-0.47,-0.58 -0.95,-1.18 -1.95,-2.4c-0.51,-0.63 -1.56,-1.9 -2.1,-2.54c-0.54,-0.65 -1.09,-1.31 -1.64,-1.98c-0.56,-0.68 -1.13,-1.37 -1.71,-2.07c-0.59,-0.72 -1.8,-2.19 -2.42,-2.95c-0.63,-0.78 -1.27,-1.57 -1.92,-2.39c-0.66,-0.83 -1.33,-1.67 -2,-2.54c-0.68,-0.88 -2.07,-2.69 -2.77,-3.62c-0.71,-0.94 -1.42,-1.9 -2.14,-2.88c-0.72,-0.99 -1.45,-1.98 -2.19,-2.99c-0.74,-1.02 -2.24,-3.07 -2.99,-4.11c-0.76,-1.04 -1.53,-2.09 -2.29,-3.14c-0.77,-1.05 -1.54,-2.11 -2.3,-3.17c-0.77,-1.06 -2.28,-3.18 -3.03,-4.24c-0.75,-1.06 -1.49,-2.12 -2.22,-3.18c-0.73,-1.06 -1.45,-2.12 -2.17,-3.18c-0.71,-1.06 -2.12,-3.18 -2.82,-4.25c-0.69,-1.06 -1.37,-2.11 -2.04,-3.16c-0.66,-1.04 -1.3,-2.06 -1.92,-3.08c-0.61,-1 -1.77,-2.94 -2.32,-3.88c-0.53,-0.92 -1.04,-1.82 -1.53,-2.71c-0.48,-0.87 -0.95,-1.73 -1.41,-2.58c-0.46,-0.84 -1.35,-2.52 -1.8,-3.36c-0.45,-0.84 -0.9,-1.68 -1.35,-2.51c-0.45,-0.84 -0.91,-1.68 -1.37,-2.51c-0.46,-0.84 -1.4,-2.51 -1.88,-3.35c-0.48,-0.84 -0.96,-1.67 -1.45,-2.51c-0.48,-0.83 -0.96,-1.66 -1.44,-2.49c-0.47,-0.82 -1.39,-2.45 -1.83,-3.26c-0.43,-0.8 -0.86,-1.6 -1.27,-2.4c-0.42,-0.8 -0.82,-1.59 -1.23,-2.39c-0.41,-0.8 -1.24,-2.41 -1.66,-3.22c-0.43,-0.82 -0.85,-1.64 -1.29,-2.45c-0.43,-0.82 -0.87,-1.63 -1.3,-2.44c-0.43,-0.8 -1.28,-2.39 -1.69,-3.17c-0.41,-0.77 -0.82,-1.53 -1.23,-2.29c-0.41,-0.76 -0.82,-1.52 -1.24,-2.29c-0.42,-0.78 -1.3,-2.37 -1.75,-3.19c-0.46,-0.83 -0.93,-1.67 -1.4,-2.51c-0.47,-0.85 -0.94,-1.69 -1.4,-2.52c-0.45,-0.83 -1.32,-2.43 -1.73,-3.2c-0.4,-0.75 -0.78,-1.49 -1.15,-2.21c-0.37,-0.71 -0.73,-1.41 -1.08,-2.11c-0.36,-0.69 -1.07,-2.08 -1.44,-2.78c-0.37,-0.71 -0.74,-1.41 -1.12,-2.12c-0.38,-0.71 -0.75,-1.41 -1.13,-2.11c-0.37,-0.69 -1.11,-2.05 -1.47,-2.72c-0.36,-0.66 -0.71,-1.31 -1.06,-1.95c-0.35,-0.64 -0.7,-1.29 -1.05,-1.93c-0.35,-0.65 -1.07,-1.97 -1.43,-2.65c-0.37,-0.68 -0.74,-1.37 -1.12,-2.07c-0.38,-0.69 -0.75,-1.38 -1.13,-2.07c-0.37,-0.68 -1.11,-1.99 -1.47,-2.62c-0.35,-0.62 -0.7,-1.22 -1.05,-1.81c-0.34,-0.58 -0.67,-1.15 -1,-1.7c-0.32,-0.55 -0.95,-1.62 -1.25,-2.15c-0.3,-0.52 -0.59,-1.04 -0.88,-1.55c-0.28,-0.51 -0.56,-1.01 -0.83,-1.5c-0.27,-0.49 -0.78,-1.45 -1.03,-1.92c-0.25,-0.47 -0.49,-0.93 -0.73,-1.4c-0.24,-0.47 -0.49,-0.94 -0.74,-1.41c-0.26,-0.48 -0.79,-1.47 -1.08,-1.97c-0.29,-0.52 -0.6,-1.04 -0.9,-1.57c-0.31,-0.54 -0.63,-1.07 -0.94,-1.61c-0.32,-0.54 -0.94,-1.61 -1.24,-2.14c-0.3,-0.52 -0.6,-1.04 -0.89,-1.56c-0.29,-0.51 -0.59,-1.02 -0.88,-1.53c-0.3,-0.51 -0.9,-1.51 -1.21,-2.01c-0.31,-0.5 -0.63,-1.01 -0.95,-1.51c-0.32,-0.5 -0.64,-1.01 -0.96,-1.51c-0.32,-0.5 -0.94,-1.51 -1.25,-2.01c-0.3,-0.5 -0.59,-1 -0.88,-1.5c-0.28,-0.5 -0.56,-0.99 -0.83,-1.48c-0.27,-0.49 -0.78,-1.45 -1.03,-1.92c-0.25,-0.47 -0.49,-0.93 -0.72,-1.39c-0.24,-0.46 -0.47,-0.91 -0.71,-1.36c-0.24,-0.45 -0.73,-1.34 -0.99,-1.79c-0.26,-0.45 -0.52,-0.9 -0.8,-1.34c-0.27,-0.45 -0.56,-0.9 -0.85,-1.34c-0.29,-0.45 -0.9,-1.34 -1.21,-1.79c-0.31,-0.45 -0.63,-0.89 -0.95,-1.34c-0.32,-0.45 -0.63,-0.89 -0.94,-1.34c-0.3,-0.45 -0.88,-1.34 -1.15,-1.79c-0.27,-0.45 -0.52,-0.9 -0.77,-1.35c-0.25,-0.45 -0.49,-0.91 -0.73,-1.37c-0.24,-0.46 -0.74,-1.4 -0.99,-1.88c-0.26,-0.48 -0.52,-0.97 -0.8,-1.47c-0.28,-0.51 -0.56,-1.02 -0.85,-1.54c-0.29,-0.53 -0.9,-1.63 -1.21,-2.19c-0.32,-0.57 -0.64,-1.16 -0.96,-1.75c-0.33,-0.6 -0.67,-1.2 -1.01,-1.81c-0.35,-0.61 -1.06,-1.84 -1.43,-2.45c-0.37,-0.61 -0.74,-1.22 -1.12,-1.83c-0.38,-0.6 -0.75,-1.19 -1.13,-1.77c-0.37,-0.57 -1.11,-1.66 -1.47,-2.18c-0.35,-0.51 -0.7,-0.99 -1.04,-1.47c-0.33,-0.46 -0.95,-1.31 -1.24,-1.72c-0.78,-1.11 -1.23,-1.77 -1.61,-2.39c-0.51,-0.83 -1.05,-1.85 -1.44,-2.54c-0.37,-0.65 -0.95,-1.42 -1.57,-2.18c-0.67,-0.82 -1.01,-1.28 -1.5,-2.07c-0.35,-0.55 -1.01,-1.76 -1.34,-2.4c-0.34,-0.66 -0.68,-1.34 -1.17,-2.41c-0.34,-0.73 -0.67,-1.49 -1.01,-2.26c-0.34,-0.78 -0.84,-1.95 -1.17,-2.73c-0.17,-0.39 -0.5,-1.16 -0.84,-1.91c-0.5,-1.1 -0.84,-1.8 -1.17,-2.49c-0.5,-1.02 -1.01,-2.02 -1.34,-2.69c-0.33,-0.65 -0.64,-1.28 -1.22,-2.44c-0.38,-0.77 -0.75,-1.5 -1.19,-2.49c-0.34,-0.78 -0.53,-1.31 -1.01,-2.26c-0.42,-0.83 -0.87,-1.52 -1.26,-2.36c-0.38,-0.83 -0.79,-1.67 -1.17,-2.31c-0.5,-0.83 -1.08,-1.59 -1.47,-2.44c-0.35,-0.77 -0.63,-1.68 -0.91,-2.44l-0.34,-0.86" fill="none" fill-opacity="null" id="svg_13" stroke="#ffffff" stroke-dasharray="null" stroke-linecap="round" stroke-linejoin="null" stroke-opacity="null" stroke-width="30" transform="matrix(0.928885, 0, 0, 0.928885, 6.08845, 3.85616)"/>
 </g>
</svg>