<?xml version="1.0"?>
<svg viewBox="-40 -40 480 480" xmlns="http://www.w3.org/2000/svg" xmlns:svg="http://www.w3.org/2000/svg">
 <!-- Created with SVG-edit - https://github.com/SVG-Edit/svgedit-->

 <g class="layer" display="inline">
  <title>Layer 1</title>
  <path d="m44.78,375.37c0.46,-1.99 0.91,-2.81 1.19,-3.6c0.31,-0.87 0.6,-1.78 0.82,-2.49c0.31,-1.01 0.51,-1.85 0.7,-2.4c0.36,-1.1 0.77,-1.84 1.15,-2.58c0.51,-0.99 0.8,-1.81 0.99,-2.38c0.29,-0.88 0.6,-1.78 1,-2.67c0.27,-0.6 0.87,-1.79 1.17,-2.39c0.29,-0.6 0.73,-1.48 1.07,-2.39c0.33,-0.89 0.48,-1.5 0.78,-2.39c0.31,-0.9 0.71,-1.8 0.99,-2.41c0.29,-0.63 0.89,-1.98 1.19,-2.69c0.3,-0.73 0.6,-1.47 1.04,-2.59c0.3,-0.75 0.6,-1.49 0.9,-2.24c0.45,-1.12 0.75,-1.87 1.05,-2.63c0.32,-0.78 0.48,-1.19 1.01,-2.47c0.38,-0.92 0.59,-1.4 1,-2.38c0.21,-0.5 0.62,-1.49 1,-2.47c0.37,-0.95 0.53,-1.42 0.86,-2.35c0.31,-0.91 0.46,-1.36 0.91,-2.7c0.3,-0.9 0.45,-1.34 0.75,-2.24c0.3,-0.9 0.75,-2.24 0.9,-2.69c0.3,-0.9 0.62,-1.82 0.79,-2.28c0.52,-1.43 0.72,-1.91 1.12,-2.91c0.2,-0.51 0.62,-1.53 0.82,-2.05c0.6,-1.56 0.77,-2.08 0.95,-2.61c0.34,-1.04 0.5,-1.57 0.81,-2.61c0.15,-0.52 0.6,-2.09 0.75,-2.61c0.3,-1.04 0.45,-1.57 0.75,-2.61c0.15,-0.52 0.6,-2.09 0.75,-2.61c0.3,-1.05 0.46,-1.58 0.62,-2.12c0.33,-1.08 0.69,-2.19 0.88,-2.75c0.39,-1.14 0.6,-1.71 0.8,-2.28c0.41,-1.13 0.61,-1.68 1.18,-3.27c0.18,-0.5 0.51,-1.48 0.67,-1.96c0.31,-0.95 0.47,-1.42 0.91,-2.87c0.3,-0.99 0.44,-1.48 0.75,-2.45c0.15,-0.47 0.59,-1.79 0.9,-2.57c0.29,-0.72 0.61,-1.38 1.19,-2.7c0.3,-0.68 0.6,-1.38 0.87,-2.1c0.27,-0.7 0.61,-1.72 0.9,-2.68c0.19,-0.62 0.58,-1.82 0.83,-2.41c0.37,-0.87 0.78,-1.66 1.22,-2.56c0.36,-0.73 0.74,-1.63 1.03,-2.44c0.22,-0.61 0.67,-1.69 0.97,-2.31c0.44,-0.89 1,-1.76 1.42,-2.35c0.56,-0.79 0.95,-1.69 1.34,-2.41c0.42,-0.76 1.04,-1.41 1.61,-2c0.53,-0.55 1.19,-1.45 1.57,-2.09c0.55,-0.92 0.93,-1.54 1.38,-2.13c0.72,-0.94 1.19,-1.4 1.94,-2.15c0.6,-0.6 1.33,-1.36 1.94,-1.93c0.59,-0.55 1.36,-1.06 2.03,-1.5c0.75,-0.5 1.46,-1.06 2.16,-1.42c0.89,-0.46 1.7,-0.84 2.65,-1.19c0.63,-0.24 1.52,-0.54 2.41,-0.81c0.84,-0.26 1.76,-0.43 2.48,-0.45c1.09,-0.03 1.87,0 2.69,0c1.04,0 1.76,0 2.9,0c0.67,0 1.57,0 2.69,0c0.69,0 1.41,0 2.45,0c0.85,0 1.73,0 2.62,0c0.89,0 1.76,-0.01 2.82,0.17c0.74,0.12 1.65,0.42 2.55,0.52c0.92,0.1 1.91,0.06 2.72,0.06c0.84,0 1.93,0 2.68,0c0.73,0 1.73,0 2.55,0c0.88,0 1.51,0 2.85,0c0.7,0 1.41,0 2.11,0c1.34,0 1.98,0 2.94,0c0.98,0 2.02,0 2.74,-0.02c0.73,-0.02 1.85,-0.1 2.6,-0.2c0.75,-0.1 1.86,-0.29 2.99,-0.41c0.74,-0.08 1.48,-0.1 2.21,-0.12c1.39,-0.02 2.05,0 2.7,-0.02c0.99,-0.02 2.05,-0.11 2.82,-0.2c0.82,-0.1 1.65,-0.24 2.5,-0.39c1.24,-0.22 2.04,-0.38 2.82,-0.51c0.78,-0.13 1.99,-0.27 2.82,-0.33c0.43,-0.03 1.3,-0.05 2.18,-0.1c1.34,-0.07 2.23,-0.17 2.67,-0.22c0.86,-0.1 1.67,-0.25 3.1,-0.39c0.6,-0.06 1.42,-0.09 2.54,-0.09c0.95,0 1.63,0 2.33,0c1.36,0 2.01,0 2.94,0c0.6,0 1.8,0 2.69,0c0.6,0 1.79,0 2.69,0c0.6,0 1.79,-0.01 2.69,0c0.6,0.01 1.5,0.03 2.69,0.21c0.6,0.09 1.49,0.31 2.69,0.44c0.6,0.07 1.52,0.09 2.15,0.09c1.34,0.01 2.06,0 2.81,0c0.78,0 2,0 2.84,0c0.84,0 1.67,0 2.85,0c0.72,0 1.68,0 2.51,0c0.9,0 1.76,0 2.67,0c1.04,0 1.78,0 2.72,0c0.92,0 1.65,-0.02 2.77,0c0.64,0.01 1.75,0.16 2.43,0.31c0.95,0.22 2,0.38 2.56,0.4c0.91,0.04 1.88,0.03 2.91,0.03c0.71,0 1.41,0 2.78,0c0.64,0 1.55,0 2.65,0c0.75,0 1.43,0 2.6,0c0.68,0 1.77,0 2.58,0c0.97,0 1.66,0 2.72,0c0.82,0 1.48,0 2.6,0c0.9,0 1.79,0 2.67,0c1.01,0 1.71,0 2.78,0c0.8,0 1.82,0 2.58,0c0.81,0 1.88,0 2.63,0c0.76,0 1.91,0 2.56,0c0.68,0 1.72,0 2.74,0c0.96,0 1.58,-0.02 2.78,0.12c0.9,0.11 1.5,0.27 2.45,0.41c0.99,0.15 1.69,0.18 2.75,0.2c0.7,0.01 1.72,0.01 2.67,0.01c0.88,0 1.7,0 2.69,0c0.7,0 1.82,0 2.66,0c0.97,0 1.74,0.05 2.72,0.27c0.77,0.17 1.31,0.32 2.6,0.7c0.73,0.22 1.73,0.53 2.54,0.75c0.57,0.15 1.45,0.38 2.35,0.6c0.91,0.23 1.54,0.39 2.94,0.67c0.77,0.16 1.57,0.3 2.37,0.45c0.77,0.15 1.81,0.36 2.67,0.6c0.75,0.21 1.64,0.55 2.53,0.81c1,0.29 1.72,0.28 2.63,0.51c0.77,0.19 1.63,0.72 2.41,1.07c0.88,0.4 1.72,0.66 2.36,0.96c0.91,0.41 1.54,0.85 2.56,1.45c0.69,0.41 1.38,0.72 2.32,1.09c0.74,0.3 1.44,0.83 1.86,1.58c0.47,0.85 0.77,1.58 1.17,2.55c0.29,0.71 0.65,1.39 1.23,2.33c0.38,0.62 0.91,1.39 1.28,2.11c0.52,1.02 0.65,1.65 1.04,2.44c0.48,0.98 1.11,1.59 1.55,2.33c0.46,0.77 0.66,1.46 1.11,2.34c0.35,0.68 0.92,1.55 1.34,2.46c0.32,0.69 0.62,1.48 1.06,2.34c0.34,0.65 0.73,1.33 1.13,2.02c0.59,1.03 0.95,1.68 1.44,2.65c0.32,0.63 0.77,1.62 1.06,2.3c0.3,0.7 0.58,1.42 1.19,2.8c0.29,0.66 0.59,1.29 0.9,1.91c0.59,1.2 0.9,1.8 1.33,2.68c0.27,0.57 0.74,1.64 1.04,2.38c0.28,0.7 0.82,1.82 1.21,2.47c0.38,0.63 0.95,1.53 1.27,2.22c0.41,0.9 0.7,1.72 0.88,2.71c0.13,0.68 0.24,1.75 0.48,2.57c0.2,0.66 0.51,1.55 0.81,2.45c0.3,0.9 0.6,1.79 0.82,2.46c0.3,0.9 0.57,1.78 0.97,2.79c0.28,0.71 0.61,1.38 0.97,2.33c0.31,0.81 0.68,1.76 0.97,2.44c0.38,0.89 0.71,1.68 0.92,2.69c0.14,0.69 0.25,1.61 0.5,2.36c0.29,0.89 0.38,1.8 0.64,2.69c0.24,0.82 0.44,1.76 0.5,2.42c0.1,0.99 0.23,1.8 0.44,2.63c0.27,1.09 0.52,1.84 0.74,2.58c0.3,1 0.52,1.81 0.75,2.65c0.3,1.09 0.52,1.84 0.75,2.55c0.29,0.91 0.62,1.79 0.78,2.47c0.26,1.11 0.21,1.8 0.39,2.91c0.11,0.68 0.4,1.57 0.7,2.46c0.29,0.88 0.47,1.5 0.65,2.59c0.15,0.92 0.46,1.65 0.67,2.56c0.17,0.74 0.36,1.79 0.62,2.43c0.37,0.91 0.68,1.69 0.9,2.67c0.22,0.96 0.41,1.66 0.6,2.45c0.21,0.91 0.25,1.83 0.42,2.72c0.15,0.77 0.38,1.54 0.75,2.63c0.26,0.75 0.44,1.6 0.51,2.36c0.07,0.81 0.17,1.88 0.39,2.85c0.15,0.69 0.31,1.81 0.39,2.45c0.12,0.98 0.55,1.75 0.71,2.77c0.14,0.85 0.02,1.74 0.02,2.65c0,0.87 0,1.2 0,0.24l0,-0.88" fill="none" fill-opacity="null" id="svg_7" stroke="#ffffff" stroke-dasharray="null" stroke-linecap="round" stroke-linejoin="null" stroke-opacity="null" stroke-width="40" transform="matrix(1, 0, 0, 1, -1.49254, -13.4328)"/>
  <path d="m220.15,40.3c-0.39,-1.51 -0.78,-2.41 -1.22,-3.13c-0.47,-0.77 -1.02,-1.35 -1.76,-2.09c-0.6,-0.6 -1.23,-1.18 -2,-1.58c-0.81,-0.41 -1.73,-0.66 -2.4,-0.88c-0.9,-0.3 -1.8,-0.58 -2.69,-0.91c-0.68,-0.26 -1.56,-0.74 -2.25,-1.09c-0.71,-0.36 -1.76,-0.66 -2.64,-0.75c-0.64,-0.07 -1.7,-0.13 -2.47,-0.23c-0.82,-0.1 -1.65,-0.23 -2.5,-0.32c-1.24,-0.14 -2.03,-0.18 -2.81,-0.2c-0.76,-0.02 -1.88,-0.02 -3,-0.02c-0.75,0 -1.49,0 -2.61,0c-0.74,0 -1.47,0 -2.48,0c-1.12,0 -1.93,0 -2.83,0c-0.9,0 -1.76,0 -2.66,0.21c-0.63,0.15 -1.73,0.53 -2.4,0.76c-0.9,0.3 -1.79,0.59 -2.47,0.83c-0.96,0.34 -1.73,0.66 -2.55,1.07c-0.57,0.29 -1.66,0.97 -2.16,1.37c-0.75,0.59 -1.19,1.06 -2.24,1.79c-0.54,0.37 -1.43,0.84 -2.06,1.13c-0.99,0.46 -1.69,0.74 -2.4,1.06c-0.71,0.32 -1.76,0.83 -2.72,1.45c-0.62,0.4 -1.21,0.84 -2.01,1.52c-0.77,0.65 -1.22,1.12 -1.91,1.73c-0.88,0.77 -1.35,1.08 -2.02,1.6c-0.91,0.71 -1.57,1.33 -2.01,1.76c-0.9,0.88 -1.34,1.34 -2.01,2.01c-0.45,0.45 -1.35,1.34 -1.79,1.79c-0.68,0.69 -1.14,1.16 -2.01,2.22c-0.46,0.55 -0.9,1.14 -1.34,1.73c-0.67,0.89 -1.12,1.49 -1.76,2.36c-0.41,0.56 -0.98,1.36 -1.5,2.09c-0.5,0.7 -1.23,1.6 -1.63,2.05c-0.63,0.7 -1.1,1.16 -1.97,2.22c-0.45,0.55 -0.87,1.12 -1.22,1.73c-0.66,1.16 -0.83,1.8 -1.13,2.73c-0.32,0.98 -0.55,1.67 -0.81,2.39c-0.28,0.77 -0.58,1.57 -1.02,2.9c-0.15,0.47 -0.45,1.44 -0.6,1.94c-0.3,1.02 -0.45,1.54 -0.9,3.1c-0.15,0.52 -0.44,1.57 -0.58,2.09c-0.28,1.04 -0.42,1.56 -0.75,3.13c-0.11,0.52 -0.29,1.57 -0.37,2.09c-0.17,1.04 -0.24,1.57 -0.46,3.13c-0.07,0.52 -0.22,1.55 -0.28,2.06c-0.13,0.99 -0.28,2.39 -0.32,3.26c-0.05,0.83 -0.06,1.63 -0.06,2.43c-0.01,1.22 0,1.64 0,2.5c0,0.88 0,1.77 0,3.11c0,0.45 0,1.34 0.03,2.21c0.03,0.86 0.13,2.1 0.24,2.9c0.1,0.79 0.24,1.57 0.36,2.78c0.08,0.83 0.1,1.69 0.14,2.54c0.02,0.43 0.09,1.69 0.2,2.49c0.1,0.79 0.25,1.58 0.45,2.36c0.3,1.23 0.57,2.07 0.85,2.91c0.28,0.83 0.72,2.01 1.03,2.72c0.29,0.68 0.61,1.32 0.96,1.92c0.71,1.22 1.15,1.79 1.56,2.36c0.4,0.56 1.16,1.6 1.66,2.36c0.34,0.51 1.06,1.66 1.46,2.31c0.43,0.68 0.89,1.38 1.14,1.72c0.75,1.03 1.32,1.67 1.89,2.3c0.58,0.64 1.48,1.61 2.07,2.3c0.3,0.35 0.91,1.07 1.53,1.81c0.32,0.37 1.31,1.49 1.66,1.86c0.71,0.75 1.08,1.11 1.85,1.82c0.39,0.36 1.61,1.37 2.03,1.7c0.86,0.65 1.31,0.96 2.22,1.59c0.47,0.32 1.91,1.32 2.41,1.67c0.5,0.35 1.01,0.71 2.03,1.44c0.52,0.37 1.04,0.74 2.08,1.48c1.05,0.75 1.58,1.12 2.11,1.49c0.54,0.38 1.67,1.13 2.26,1.49c1.22,0.76 1.87,1.12 2.54,1.49c0.68,0.37 1.37,0.74 2.08,1.1c0.71,0.36 1.43,0.72 2.15,1.07c1.43,0.69 2.13,1.02 2.83,1.34c0.69,0.32 1.38,0.63 2.06,0.93c0.68,0.3 1.35,0.6 3.37,1.4c0.67,0.26 1.34,0.51 2.01,0.75c0.67,0.24 1.33,0.47 1.99,0.68c1.3,0.43 2.59,0.81 3.22,0.99c0.62,0.18 1.24,0.35 2.45,0.66c0.59,0.15 1.18,0.3 2.89,0.65c0.55,0.11 1.64,0.31 2.17,0.39c1.02,0.16 1.52,0.24 2.93,0.36c0.87,0.08 1.69,0.1 2.47,0.12c0.76,0.01 1.88,0.01 2.63,0c0.76,-0.01 1.53,-0.02 2.73,-0.12c0.84,-0.07 1.7,-0.2 2.57,-0.36c0.89,-0.17 1.79,-0.38 2.68,-0.63c0.91,-0.25 1.82,-0.54 2.28,-0.69c1.42,-0.44 1.91,-0.59 2.91,-0.9c0.51,-0.15 1.56,-0.47 2.09,-0.64c1.65,-0.52 2.21,-0.72 2.78,-0.92c1.16,-0.41 1.74,-0.62 2.33,-0.84c0.59,-0.22 2.38,-0.89 2.98,-1.11c0.59,-0.22 1.18,-0.44 2.33,-0.88c0.55,-0.21 1.6,-0.61 2.55,-1.01c0.85,-0.35 1.61,-0.7 2.31,-1.07c0.7,-0.37 1.8,-1.03 2.19,-1.28c0.82,-0.52 1.66,-1.08 2.08,-1.37c1.26,-0.88 1.67,-1.18 2.45,-1.79c0.77,-0.6 1.15,-0.9 1.85,-1.55c1.04,-0.97 1.35,-1.33 1.98,-2.05c0.63,-0.72 0.92,-1.09 1.82,-2.21c0.6,-0.75 0.9,-1.12 1.49,-1.87c0.6,-0.75 0.9,-1.12 1.79,-2.24c0.59,-0.75 0.89,-1.12 1.47,-1.87c0.57,-0.74 1.36,-1.86 1.6,-2.24c0.49,-0.74 0.94,-1.48 1.34,-2.24c0.59,-1.11 0.92,-1.86 1.24,-2.61c0.32,-0.74 0.77,-1.86 1.06,-2.61c0.3,-0.75 0.59,-1.51 0.83,-2.3c0.37,-1.21 0.45,-1.64 0.64,-2.51c0.19,-0.89 0.37,-1.82 0.59,-2.78c0.23,-0.99 0.36,-1.48 0.64,-2.49c0.14,-0.5 0.43,-1.51 0.73,-2.49c0.29,-0.96 0.59,-1.89 0.73,-2.35c0.28,-0.91 0.65,-2.25 0.85,-3.15c0.1,-0.45 0.28,-1.36 0.43,-2.28c0.08,-0.47 0.31,-1.91 0.45,-2.91c0.07,-0.5 0.21,-1.51 0.26,-2.01c0.16,-1.48 0.21,-2.44 0.22,-2.91c0.03,-0.93 0.01,-1.87 -0.02,-2.34c-0.08,-1.45 -0.2,-2.44 -0.26,-2.94c-0.12,-1.01 -0.2,-1.51 -0.42,-2.99c-0.15,-0.96 -0.22,-1.43 -0.37,-2.36c-0.15,-0.93 -0.23,-1.41 -0.45,-2.85c-0.15,-0.99 -0.22,-1.49 -0.37,-2.48c-0.07,-0.49 -0.29,-1.89 -0.45,-2.75c-0.14,-0.81 -0.29,-1.58 -0.45,-2.3c-0.29,-1.35 -0.45,-1.98 -0.67,-2.9c-0.22,-0.9 -0.43,-1.8 -0.7,-2.66c-0.17,-0.56 -0.63,-1.61 -1.02,-2.32c-0.38,-0.69 -0.84,-1.58 -1.21,-2.51c-0.41,-0.99 -0.63,-1.54 -1.06,-2.38c-0.3,-0.59 -1.02,-1.78 -1.43,-2.38c-0.43,-0.63 -0.9,-1.27 -1.65,-2.33c-0.27,-0.38 -0.82,-1.18 -1.4,-2.02c-0.3,-0.43 -0.92,-1.32 -1.59,-2.21c-0.34,-0.45 -1.04,-1.35 -1.39,-1.8c-0.71,-0.91 -1.07,-1.37 -1.41,-1.85c-1.04,-1.43 -1.35,-1.94 -1.66,-2.44c-0.63,-1 -0.93,-1.51 -1.23,-2.01c-0.9,-1.48 -1.19,-1.97 -1.79,-2.9c-0.3,-0.46 -0.89,-1.34 -1.19,-1.75c-0.88,-1.2 -1.49,-1.9 -1.78,-2.24c-0.57,-0.63 -1.12,-1.19 -2.06,-2.15l-0.58,-0.57l-0.7,-0.59" fill="none" fill-opacity="null" id="svg_8" stroke="#ffffff" stroke-dasharray="null" stroke-linecap="round" stroke-linejoin="null" stroke-opacity="null" stroke-width="40" transform="matrix(1, 0, 0, 1, -2.98507, 2.98507)"/>
 </g>
</svg>